<?xml version="1.0" encoding="UTF-8" standalone="no"?>
<!-- Created with Inkscape (http://www.inkscape.org/) -->

<svg
   xmlns:dc="http://purl.org/dc/elements/1.1/"
   xmlns:cc="http://creativecommons.org/ns#"
   xmlns:rdf="http://www.w3.org/1999/02/22-rdf-syntax-ns#"
   xmlns:svg="http://www.w3.org/2000/svg"
   xmlns="http://www.w3.org/2000/svg"
   xmlns:sodipodi="http://sodipodi.sourceforge.net/DTD/sodipodi-0.dtd"
   xmlns:inkscape="http://www.inkscape.org/namespaces/inkscape"
   id="svg2"
   version="1.1"
   inkscape:version="0.91 r13725"
   xml:space="preserve"
   width="755.75"
   height="990.25"
   viewBox="0 0 755.75 990.25"
   sodipodi:docname="claustrophobia.svg"><metadata
     id="metadata8"><rdf:RDF><cc:Work
         rdf:about=""><dc:format>image/svg+xml</dc:format><dc:type
           rdf:resource="http://purl.org/dc/dcmitype/StillImage" /><dc:title></dc:title></cc:Work></rdf:RDF></metadata><defs
     id="defs6"><clipPath
       clipPathUnits="userSpaceOnUse"
       id="clipPath16"><path
         d="M 0,111 493,111 493,0 0,0 0,111 Z"
         id="path18"
         inkscape:connector-curvature="0" /></clipPath></defs><sodipodi:namedview
     pagecolor="#ffffff"
     bordercolor="#666666"
     borderopacity="1"
     objecttolerance="10"
     gridtolerance="10"
     guidetolerance="10"
     inkscape:pageopacity="0"
     inkscape:pageshadow="2"
     inkscape:window-width="928"
     inkscape:window-height="1028"
     id="namedview4"
     showgrid="false"
     inkscape:zoom="0.5841785"
     inkscape:cx="520.60115"
     inkscape:cy="617.15278"
     inkscape:window-x="992"
     inkscape:window-y="24"
     inkscape:window-maximized="0"
     inkscape:current-layer="g10"
     width="755.75px" /><g
     id="g10"
     inkscape:groupmode="layer"
     inkscape:label="клаустрафобия"
     transform="matrix(1.25,0,0,-1.25,0,990.25)"><g
       id="g12"
       transform="matrix(1.3183323,0,0,1.4367896,-22.321813,331.81372)"><g
         id="g14"
         clip-path="url(#clipPath16)"><g
           id="g20"
           transform="translate(474.5029,26.6723)"><path
             d="m 0,0 0,-13.59 c 0,-0.052 -0.005,-0.094 -0.013,-0.127 -0.095,-2.929 -2.303,-4.381 -5.024,-4.381 -1.481,0 -2.833,0.358 -4.237,1.302 -0.154,0.128 -0.205,0.307 -0.205,0.485 0,0.179 0.026,0.358 0.129,0.511 l 0.637,0.945 c 0.129,0.177 0.23,0.281 0.41,0.281 0.152,0 0.33,-0.077 0.484,-0.205 1.098,-0.689 1.889,-0.945 2.782,-0.945 1.437,0 2.211,0.905 2.305,2.134 l 0,2.741 c -0.817,-0.714 -1.915,-1.25 -3.19,-1.25 -2.961,0 -5.285,1.889 -5.285,5.54 l 0,6.559 c 0,0.484 0.23,0.689 0.613,0.689 l 1.379,0 C -8.73,0.689 -8.5,0.484 -8.5,0 l 0,-6.51 c 0,-1.887 1.379,-2.96 2.91,-2.96 1.43,0 2.858,1.046 2.858,2.96 l 0,6.51 c 0,0.357 0.306,0.689 0.664,0.689 l 1.378,0 C -0.281,0.689 0,0.408 0,0 m -45.377,-0.165 0,-11.155 c 0,-0.358 -0.279,-0.69 -0.586,-0.69 l -1.404,0 c -0.383,0 -0.69,0.281 -0.69,0.69 l 0,11.155 c 0,0.408 0.307,0.766 0.69,0.766 l 1.302,0 c 0.381,0 0.688,-0.358 0.688,-0.766 m 0.18,4.466 c 0,-0.944 -0.614,-1.633 -1.481,-1.633 -0.945,0 -1.558,0.689 -1.558,1.633 0,0.868 0.613,1.583 1.558,1.583 0.867,0 1.481,-0.715 1.481,-1.583 m 9.546,-14.013 c -0.587,-0.077 -1.328,-0.153 -2.042,-0.153 -1.583,0 -3.012,0.382 -3.012,1.761 0,1.505 1.48,1.991 3.037,1.991 0.791,0 1.404,-0.051 2.017,-0.179 l 0,-3.42 z M -38,0.83 c -1.48,0 -2.832,-0.357 -4.236,-1.302 -0.155,-0.128 -0.205,-0.306 -0.205,-0.485 0,-0.179 0.025,-0.357 0.128,-0.511 l 0.637,-0.944 c 0.129,-0.178 0.231,-0.281 0.41,-0.281 0.153,0 0.33,0.077 0.485,0.205 1.097,0.688 1.888,0.944 2.781,0.944 1.531,0 2.349,-1.021 2.349,-2.374 l 0,-0.255 c -0.74,0.127 -1.378,0.204 -2.042,0.204 -2.782,0 -5.666,-1.072 -5.666,-4.186 0,-3.369 3.216,-4.212 5.666,-4.212 1.404,0 2.91,0.357 3.957,0.613 0.357,0.076 0.638,0.28 0.638,0.715 l 0,7.3 c 0,3.063 -2.119,4.569 -4.902,4.569 m 10.844,-11.409 c 0,-0.996 -0.664,-1.736 -1.557,-1.736 -0.994,0 -1.658,0.74 -1.658,1.736 0,0.892 0.664,1.658 1.658,1.658 0.893,0 1.557,-0.766 1.557,-1.658 m -43.463,0.867 c -1.967,0 -3.574,1.735 -3.574,3.931 0,2.245 1.607,3.981 3.574,3.981 2.014,0 3.623,-1.736 3.623,-3.981 0,-2.196 -1.609,-3.931 -3.623,-3.931 m 0,10.542 c -3.651,0 -6.282,-3.242 -6.282,-6.611 0,-3.599 2.885,-6.586 6.282,-6.586 3.752,0 6.33,3.37 6.33,6.586 0,3.624 -2.859,6.611 -6.33,6.611 m -8.219,-5.591 0,-6.559 c 0,-0.485 -0.23,-0.69 -0.613,-0.69 l -1.379,0 c -0.485,0 -0.715,0.205 -0.715,0.69 l 0,6.509 c 0,1.888 -1.379,2.961 -2.91,2.961 -1.43,0 -2.858,-1.046 -2.858,-2.961 l 0,-6.509 c 0,-0.358 -0.306,-0.69 -0.664,-0.69 l -1.378,0 c -0.409,0 -0.69,0.281 -0.69,0.69 l 0,17.025 c 0,0.408 0.281,0.715 0.69,0.715 l 1.275,0 c 0.41,0 0.767,-0.307 0.767,-0.715 l 0,-6.177 c 0.817,0.715 1.915,1.25 3.19,1.25 2.961,0 5.285,-1.888 5.285,-5.539 m -19.502,-4.9 c -2.068,0 -3.549,1.863 -3.549,3.854 0,2.068 1.276,4.007 3.549,4.007 1.633,0 3.623,-1.378 3.623,-3.981 0,-2.323 -1.734,-3.88 -3.623,-3.88 m 0,10.439 c -3.83,0 -6.152,-2.986 -6.152,-6.585 l 0,-11.69 c 0,-0.408 0.433,-0.69 0.765,-0.69 l 1.123,0 c 0.434,0 0.895,0.282 0.895,0.69 l 0,6.458 c 0.943,-0.919 2.373,-1.302 3.369,-1.302 3.699,0 6.356,2.987 6.356,6.56 0,3.931 -2.885,6.559 -6.356,6.559 m 79.414,-10.439 c -2.246,0 -3.472,1.889 -3.472,3.88 0,1.939 1.201,3.931 3.472,3.931 2.17,0 3.547,-1.686 3.547,-3.931 0,-2.374 -1.684,-3.88 -3.547,-3.88 m 0.025,10.439 c -1.199,0 -2.603,-0.535 -3.419,-1.479 l 0,6.406 c 0,0.408 -0.332,0.715 -0.741,0.715 l -1.353,0 c -0.307,0 -0.637,-0.307 -0.637,-0.715 l 0,-11.741 c 0,-3.523 2.399,-6.331 6.15,-6.331 3.446,0 6.254,2.935 6.254,6.586 0,3.777 -2.732,6.559 -6.254,6.559 m -37.4,-10.439 c -2.246,0 -3.472,1.889 -3.472,3.88 0,1.939 1.201,3.931 3.472,3.931 2.17,0 3.547,-1.686 3.547,-3.931 0,-2.374 -1.684,-3.88 -3.547,-3.88 m 0.025,10.439 c -1.199,0 -2.603,-0.535 -3.419,-1.479 l 0,6.406 c 0,0.408 -0.332,0.715 -0.741,0.715 l -1.353,0 c -0.307,0 -0.637,-0.307 -0.637,-0.715 l 0,-11.741 c 0,-3.523 2.399,-6.331 6.15,-6.331 3.446,0 6.254,2.935 6.254,6.586 0,3.777 -2.732,6.559 -6.254,6.559 m -169.313,-0.753 0,-11.283 c 0,-0.383 -0.332,-0.74 -0.767,-0.74 l -1.198,0 c -0.409,0 -0.716,0.357 -0.716,0.74 l 0,7.275 -5.717,-7.581 c -0.256,-0.332 -0.46,-0.434 -0.689,-0.434 l -1.149,0 c -0.408,0 -0.715,0.357 -0.715,0.74 l 0,11.283 c 0,0.33 0.307,0.637 0.715,0.637 l 1.301,0 c 0.384,0 0.665,-0.307 0.665,-0.637 l 0,-7.48 5.844,7.76 c 0.204,0.281 0.588,0.357 0.945,0.357 l 0.714,0 c 0.435,0 0.767,-0.307 0.767,-0.637 m -24.199,-9.93 c 0.332,-0.562 0.128,-0.817 -0.255,-1.098 -1.225,-0.893 -2.399,-1.301 -4.237,-1.301 -3.319,0 -6.177,2.935 -6.177,6.585 0,3.42 2.553,6.585 6.151,6.585 1.864,0 3.14,-0.511 4.187,-1.251 0.331,-0.229 0.638,-0.587 0.306,-1.123 l -0.586,-0.97 c -0.282,-0.433 -0.69,-0.433 -0.997,-0.229 -1.046,0.663 -1.608,0.97 -2.884,0.97 -1.888,0 -3.395,-1.481 -3.395,-3.982 0,-2.527 1.711,-3.982 3.395,-3.982 1.328,0 2.016,0.435 2.91,0.944 0.357,0.205 0.741,0.307 1.046,-0.23 l 0.536,-0.918 z m 11.537,9.93 0,-1.226 c 0,-0.358 -0.306,-0.638 -0.714,-0.638 l -3.19,0 0,-9.444 c 0,-0.409 -0.23,-0.715 -0.69,-0.715 l -1.328,0 c -0.356,0 -0.688,0.306 -0.688,0.715 l 0,9.444 -3.19,0 c -0.359,0 -0.639,0.28 -0.639,0.638 l 0,1.226 c 0,0.33 0.28,0.637 0.664,0.637 l 9.061,0 c 0.408,0 0.714,-0.307 0.714,-0.637 m -184.168,-4.621 -5.794,0 c 0.281,1.685 1.761,2.961 3.395,2.961 1.327,0 2.476,-0.715 2.935,-1.864 0.205,-0.484 0.128,-1.097 -0.536,-1.097 m -2.399,5.462 c -3.497,0 -6.152,-3.089 -6.152,-6.534 0,-3.88 2.655,-6.611 6.152,-6.611 1.863,0 2.884,0.357 4.033,1.124 0.408,0.28 0.485,0.714 0.255,1.072 l -0.51,0.867 c -0.255,0.434 -0.664,0.408 -0.996,0.204 -1.097,-0.638 -1.863,-0.765 -2.782,-0.765 -1.582,0 -3.293,1.148 -3.395,2.961 l 6.662,0 c 1.404,0 2.527,0.944 2.527,2.398 0,0.536 -0.077,1.123 -0.23,1.583 -0.714,2.221 -2.833,3.701 -5.564,3.701 m 130.566,-10.949 c -0.332,0 -1.226,0.024 -2.17,0.28 l 0,3.471 c 0.638,0.052 1.481,0.103 2.195,0.103 1.404,0 2.553,-0.383 2.553,-1.941 0,-1.276 -0.843,-1.913 -2.578,-1.913 m 0,5.947 c -0.74,0 -1.481,-0.026 -2.17,-0.129 l 0,4.29 c 0,0.33 -0.307,0.637 -0.715,0.637 l -1.25,0 c -0.409,0 -0.715,-0.307 -0.715,-0.637 l 0,-10.544 c 0,-0.56 0.102,-0.79 0.638,-1.02 1.582,-0.689 3.497,-0.639 4.212,-0.639 2.859,0 5.207,1.099 5.207,4.008 0,3.32 -2.808,4.034 -5.207,4.034 m -112.571,-5.769 c 0.332,-0.562 0.128,-0.817 -0.255,-1.098 -1.225,-0.893 -2.399,-1.301 -4.237,-1.301 -3.318,0 -6.177,2.935 -6.177,6.585 0,3.446 2.578,6.585 6.177,6.585 1.838,0 3.114,-0.511 4.16,-1.251 0.332,-0.229 0.638,-0.587 0.306,-1.123 l -0.586,-0.97 c -0.281,-0.433 -0.69,-0.433 -0.996,-0.229 -1.046,0.663 -1.608,0.97 -2.884,0.97 -1.889,0 -3.395,-1.481 -3.395,-3.982 0,-2.527 1.71,-3.982 3.395,-3.982 1.327,0 2.017,0.435 2.909,0.944 0.358,0.205 0.741,0.307 1.047,-0.23 l 0.536,-0.918 z m -38.696,-0.919 c 0.128,-0.179 0.204,-0.383 0.204,-0.613 0,-0.281 -0.229,-0.561 -0.74,-0.561 l -1.072,0 c -0.587,0 -0.766,0 -1.225,0.561 l -3.727,4.646 -1.226,0 0,-4.569 c 0,-0.332 -0.306,-0.638 -0.714,-0.638 l -1.251,0 c -0.408,0 -0.714,0.306 -0.714,0.638 l 0,11.358 c 0,0.333 0.306,0.64 0.714,0.64 l 1.251,0 c 0.408,0 0.714,-0.307 0.714,-0.64 l 0,-4.313 0.92,0 4.109,4.697 c 0.153,0.179 0.332,0.256 0.562,0.256 l 1.506,0 c 0.332,0 0.689,-0.129 0.689,-0.512 0,-0.204 -0.102,-0.459 -0.255,-0.612 l -4.314,-4.748 4.569,-5.59 z m 177.456,1.123 c -1.991,0 -3.6,1.735 -3.6,3.982 0,2.246 1.609,3.982 3.6,3.982 2.042,0 3.624,-1.736 3.624,-3.982 0,-2.247 -1.582,-3.982 -3.624,-3.982 m 0,10.567 c -3.676,0 -6.33,-3.242 -6.33,-6.585 0,-3.625 2.935,-6.585 6.33,-6.585 3.751,0 6.355,3.317 6.355,6.585 0,3.625 -2.884,6.585 -6.355,6.585 m -32.928,-11.996 c 0.204,-0.536 -0.28,-0.868 -0.689,-0.868 l -1.072,0 c -0.791,0 -0.919,0.357 -1.072,0.715 l -3.114,7.937 -3.114,-7.937 c -0.128,-0.332 -0.332,-0.715 -0.894,-0.715 l -1.301,0 c -0.435,0 -0.792,0.332 -0.587,0.868 l 4.415,11.128 c 0.128,0.307 0.46,0.64 0.843,0.64 l 1.327,0 c 0.434,0 0.715,-0.333 0.842,-0.64 l 4.416,-11.128 z m -137.406,0.995 c -0.485,0 -1.812,0.052 -2.349,0.255 l 0,3.293 2.706,0 c 1.557,0 2.425,-0.536 2.425,-1.812 0,-1.506 -1.583,-1.736 -2.782,-1.736 m -2.349,8.807 c 0.996,0.076 1.558,0.101 2.349,0.101 1.199,0 2.552,-0.332 2.552,-1.71 0,-1.124 -0.868,-1.607 -1.761,-1.607 l -3.14,0 0,3.216 z m 5.82,-3.957 c 0.893,0.459 1.557,1.327 1.557,2.527 0,2.961 -2.834,3.599 -5.028,3.599 -0.996,0 -2.681,-0.077 -4.34,-0.332 -0.638,-0.102 -0.664,-0.408 -0.664,-0.817 l 0,-10.592 c 0,-0.537 0.077,-0.715 0.46,-0.843 1.403,-0.46 3.42,-0.536 4.518,-0.536 2.425,0 5.667,0.715 5.667,3.88 0,1.505 -0.971,2.68 -2.17,3.114 m 46.481,-4.798 c -0.332,0 -1.2,0.024 -2.118,0.28 l 0,3.471 c 0.74,0.076 1.429,0.103 2.093,0.103 1.327,-0.027 2.553,-0.383 2.553,-1.941 0,-1.276 -0.817,-1.913 -2.528,-1.913 m 0,5.947 c -0.714,0 -1.455,-0.026 -2.118,-0.129 l 0,4.263 c 0,0.333 -0.307,0.64 -0.715,0.64 l -1.251,0 c -0.408,0 -0.715,-0.307 -0.715,-0.64 l 0,-10.592 c 0,-0.561 0.103,-0.817 0.613,-1.021 1.43,-0.588 3.497,-0.563 4.186,-0.563 2.885,0 5.182,1.099 5.182,4.008 0,3.32 -2.757,4.034 -5.182,4.034 m 58.968,-0.46 -5.794,0 c 0.281,1.685 1.761,2.961 3.395,2.961 1.327,0 2.476,-0.715 2.935,-1.864 0.204,-0.484 0.128,-1.097 -0.536,-1.097 m -2.399,5.462 c -3.498,0 -6.152,-3.089 -6.152,-6.534 0,-3.88 2.654,-6.611 6.152,-6.611 1.863,0 2.884,0.357 4.032,1.124 0.409,0.28 0.486,0.714 0.256,1.072 l -0.511,0.867 c -0.255,0.434 -0.664,0.408 -0.995,0.204 -1.097,-0.638 -1.864,-0.765 -2.782,-0.765 -1.583,0 -3.293,1.148 -3.395,2.961 l 6.662,0 c 1.403,0 2.527,0.944 2.527,2.398 0,0.536 -0.077,1.123 -0.23,1.583 -0.715,2.221 -2.833,3.701 -5.564,3.701 m -33.341,-11.027 c -0.485,0 -1.838,0.078 -2.374,0.281 l 0,3.293 2.732,0 c 1.557,0 2.424,-0.536 2.424,-1.812 0,-1.506 -1.582,-1.762 -2.782,-1.762 m -2.374,8.833 c 0.996,0.076 1.583,0.101 2.374,0.101 1.2,0 2.553,-0.332 2.553,-1.71 0,-1.124 -0.868,-1.607 -1.762,-1.607 l -3.165,0 0,3.216 z m 5.845,-3.957 c 0.894,0.459 1.558,1.327 1.558,2.527 0,2.961 -2.834,3.599 -5.029,3.599 -0.995,0 -2.68,-0.077 -4.339,-0.332 -0.638,-0.102 -0.664,-0.408 -0.664,-0.817 l 0,-10.592 c 0,-0.537 0.077,-0.715 0.46,-0.843 1.404,-0.46 3.42,-0.536 4.517,-0.536 2.426,0 5.667,0.715 5.667,3.88 0,1.505 -0.97,2.68 -2.17,3.114 m 16.111,-4.365 c -2.092,0 -3.598,1.888 -3.598,3.88 0,2.068 1.353,4.007 3.598,4.007 1.634,0 3.625,-1.352 3.625,-3.956 0,-2.374 -1.736,-3.931 -3.625,-3.931 m 0,10.466 c -3.828,0 -6.151,-2.987 -6.151,-6.586 l 0,-11.716 c 0,-0.409 0.408,-0.715 0.791,-0.715 l 1.123,0 c 0.409,0 0.817,0.306 0.817,0.715 l 0,6.508 c 0.996,-0.995 2.476,-1.301 3.42,-1.301 3.702,0 6.356,3.013 6.356,6.56 0,3.906 -2.884,6.535 -6.356,6.535 m -49.446,-0.818 0,-1.225 c 0,-0.357 -0.307,-0.638 -0.715,-0.638 l -3.19,0 0,-9.495 c 0,-0.332 -0.307,-0.638 -0.715,-0.638 l -1.251,0 c -0.409,0 -0.715,0.306 -0.715,0.638 l 0,9.495 -3.216,0 c -0.358,0 -0.638,0.281 -0.638,0.638 l 0,1.225 c 0,0.333 0.28,0.64 0.664,0.64 l 5.156,0 0.102,0 3.803,0 c 0.408,0 0.715,-0.307 0.715,-0.64 m 77.779,-9.674 c -0.587,-0.101 -1.378,-0.204 -2.118,-0.204 -1.532,0 -2.987,0.409 -2.987,1.787 0,1.531 1.506,2.017 3.038,2.017 0.817,0 1.455,-0.051 2.067,-0.153 l 0,-3.447 z m -2.348,10.569 c -1.02,0 -2.425,-0.205 -3.982,-0.843 -0.408,-0.179 -0.459,-0.612 -0.357,-0.894 l 0.383,-1.123 c 0.102,-0.332 0.536,-0.433 0.894,-0.306 0.994,0.382 1.99,0.792 3.011,0.792 0.894,0 2.399,-0.563 2.399,-2.297 l 0,-0.384 c -0.74,0.128 -1.428,0.179 -2.118,0.179 -2.757,0 -5.642,-1.021 -5.642,-4.135 0,-3.344 3.191,-4.186 5.642,-4.186 1.429,0 2.91,0.28 3.982,0.586 0.357,0.103 0.688,0.281 0.688,0.74 l 0,7.2 c 0,3.062 -2.271,4.671 -4.9,4.671 m -59.631,-0.895 0,-11.358 c 0,-0.332 -0.306,-0.638 -0.715,-0.638 l -1.251,0 c -0.408,0 -0.714,0.306 -0.714,0.638 l 0,11.358 c 0,0.333 0.306,0.64 0.714,0.64 l 1.251,0 c 0.409,0 0.715,-0.307 0.715,-0.64 m 102.896,0.027 0,-11.385 c 0,-0.332 -0.306,-0.638 -0.714,-0.638 l -1.251,0 c -0.409,0 -0.715,0.306 -0.715,0.638 l 0,4.39 -5.692,0 0,-4.39 c 0,-0.332 -0.306,-0.638 -0.715,-0.638 l -1.251,0 c -0.408,0 -0.714,0.306 -0.714,0.638 l 0,11.385 c 0,0.33 0.306,0.637 0.714,0.637 l 1.251,0 c 0.409,0 0.715,-0.307 0.715,-0.637 l 0,-4.545 5.692,0 0,4.545 c 0,0.33 0.306,0.637 0.715,0.637 l 1.251,0 c 0.408,0 0.714,-0.307 0.714,-0.637 m -72.967,9.966 -3.642,0 c -0.993,0 -2.185,0.795 -1.655,2.186 l 5.183,13.082 -11.671,31.273 c -0.53,1.39 0.53,2.119 1.787,2.119 l 3.774,0 c 0.993,0 1.523,-0.861 1.787,-1.655 l 8.025,-22.235 8.063,22.235 c 0.265,0.794 0.728,1.655 1.787,1.655 l 3.509,0 c 1.324,0 2.251,-0.729 1.721,-2.119 l -16.881,-44.754 c -0.331,-0.925 -0.861,-1.787 -1.787,-1.787 m 193.377,22.046 c -5.097,0 -9.07,4.37 -9.07,9.997 0,5.495 3.84,10.129 9.07,10.129 4.768,0 8.805,-4.436 8.805,-10.063 0,-5.031 -3.441,-10.063 -8.805,-10.063 m -12.445,21.649 c -1.986,0 -4.305,1.787 -4.305,4.502 0,2.713 2.319,4.501 4.305,4.501 2.051,0 4.236,-1.788 4.236,-4.501 0,-2.715 -2.185,-4.502 -4.236,-4.502 m -12.314,-21.649 c -5.297,0 -8.739,5.032 -8.805,10.063 0,5.627 4.037,10.063 8.805,10.063 5.23,0 9.07,-4.634 9.07,-10.129 0,-5.627 -3.973,-9.997 -9.07,-9.997 m 24.959,26.482 c -0.662,0 -1.457,-0.067 -2.053,-0.266 l -0.133,0 c 0.199,5.694 -4.369,10.924 -10.459,10.924 -6.092,0 -10.66,-5.23 -10.461,-10.924 -0.596,0.199 -1.391,0.266 -2.053,0.266 -9.334,0 -15.557,-8.475 -15.557,-16.419 0,-8.607 5.893,-16.683 15.69,-16.683 3.178,0 6.754,1.125 9.137,3.311 l 0,-23.238 -4.635,0 0,3.112 c 0,0.53 -0.396,1.059 -0.992,1.059 l -2.781,0 c -0.795,0 -1.391,-0.662 -1.391,-1.324 l 0,-6.356 c 0,-0.662 0.399,-1.456 1.258,-1.456 l 8.541,0 0,-3.508 -8.408,0 c -0.795,0 -1.391,-0.662 -1.391,-1.325 l 0,-6.421 c 0,-0.596 0.399,-1.458 1.258,-1.458 l 2.781,0 c 0.795,0 1.125,0.862 1.125,1.458 l 0,2.845 4.635,0 0,-2.382 c 0,-0.993 0.795,-1.788 1.787,-1.788 l 1.386,0 0.14,0 1.386,0 c 1.061,0 1.854,0.795 1.854,1.788 l 0,39.126 c 2.451,-2.318 6.025,-3.443 9.203,-3.443 9.799,0 15.689,8.076 15.689,16.683 0,7.944 -6.222,16.419 -15.556,16.419 m 35.285,-26.68 c -5.164,0 -9.334,4.502 -9.334,10.328 0,5.825 4.17,10.327 9.334,10.327 5.297,0 9.4,-4.502 9.4,-10.327 0,-5.826 -4.103,-10.328 -9.4,-10.328 m 0,27.408 c -9.533,0 -16.418,-8.408 -16.418,-17.08 0,-9.401 7.613,-17.081 16.418,-17.081 9.732,0 16.484,8.606 16.484,17.081 0,9.4 -7.48,17.08 -16.484,17.08 m -335.515,-31.513 0,29.262 c 0,0.861 0.86,1.655 1.787,1.655 l 3.443,0 c 1.059,0 1.853,-0.794 1.853,-1.655 l 0,-11.056 2.303,0 10.74,12.049 c 0.462,0.463 0.86,0.662 1.456,0.662 l 3.839,0 c 0.795,0 1.722,-0.331 1.722,-1.324 0,-0.53 -0.265,-1.126 -0.662,-1.523 l -11.109,-12.335 11.771,-14.477 c 0.331,-0.397 0.595,-0.926 0.595,-1.589 0,-0.794 -0.662,-1.523 -1.919,-1.523 l -2.582,0 c -1.655,0 -2.052,-0.066 -3.31,1.523 l -9.796,12.115 -3.048,0 0,-11.784 c 0,-0.926 -0.794,-1.854 -1.853,-1.854 l -3.443,0 c -0.927,0 -1.787,0.928 -1.787,1.854 m 393.972,0.066 0,29.262 c 0,0.86 0.795,1.655 1.853,1.655 l 3.377,0 c 0.992,0 1.721,-0.795 1.721,-1.655 l 0,-19.397 15.16,20.125 c 0.531,0.729 1.524,0.927 2.451,0.927 l 1.854,0 c 1.125,0 1.986,-0.795 1.986,-1.655 l 0,-29.262 c 0,-0.992 -0.861,-1.92 -1.986,-1.92 l -3.113,0 c -1.059,0 -1.854,0.928 -1.854,1.92 l 0,18.868 -14.828,-19.662 c -0.662,-0.86 -1.192,-1.126 -1.787,-1.126 l -2.981,0 c -1.058,0 -1.853,0.928 -1.853,1.92 m -154.252,4.039 c -5.164,0 -9.335,4.502 -9.335,10.328 0,5.825 4.171,10.327 9.335,10.327 5.296,0 9.401,-4.502 9.401,-10.327 0,-5.826 -4.105,-10.328 -9.401,-10.328 m 0,27.408 c -9.533,0 -16.419,-8.408 -16.419,-17.08 0,-9.401 7.614,-17.081 16.419,-17.081 9.731,0 16.484,8.606 16.484,17.081 0,9.4 -7.481,17.08 -16.484,17.08 M -6.953,40.722 c -1.06,-0.211 -2.409,-0.409 -3.707,-0.409 -5.824,0 -8.871,2.449 -8.871,6.289 0,3.972 3.31,6.686 9.136,6.686 1.258,0 2.383,-0.132 3.442,-0.397 l 0,-12.169 z m 5.695,17.466 c -2.517,0.86 -6.158,1.059 -9.137,1.059 -10.261,0 -15.755,-5.826 -15.755,-12.513 0,-4.069 2.147,-7.753 6.133,-9.963 l -7.59,-7.845 c -0.397,-0.398 -0.663,-0.927 -0.663,-1.391 0,-0.993 0.795,-1.655 1.788,-1.655 l 3.839,0 c 0.729,0 1.125,0.133 1.657,0.729 l 7.649,8.164 c 0.837,-0.091 1.7,-0.154 2.612,-0.154 1.545,0 2.742,0.157 3.772,0.362 l 0,-7.115 c 0,-1.058 0.795,-1.986 1.789,-1.986 l 3.441,0 C -0.861,25.88 0,26.808 0,27.866 l 0,28.269 c 0,0.861 -0.332,1.722 -1.258,2.053 M -372.259,31.937 c -1.46,-0.256 -3.451,-0.562 -5.495,-0.562 -3.972,0 -7.746,1.06 -7.746,4.634 0,3.973 3.907,5.23 7.878,5.23 2.13,0 3.81,-0.125 5.363,-0.401 l 0,-8.901 z m 6.62,-3.409 0,18.669 c -0.264,7.945 -5.693,12.116 -12.909,12.116 -3.84,0 -7.217,-0.927 -10.791,-3.443 -0.861,-0.595 -0.795,-1.721 -0.331,-2.449 l 1.589,-2.582 c 0.463,-0.795 1.522,-0.861 2.383,-0.265 2.781,1.92 4.833,2.582 7.15,2.582 2.515,0 4.369,-1.126 5.428,-2.78 0.53,-0.928 0.861,-2.251 0.861,-3.179 l 0,-0.969 c -1.908,0.299 -3.662,0.44 -5.495,0.44 -7.15,0 -14.631,-2.648 -14.631,-10.725 0,-8.672 8.276,-10.857 14.631,-10.857 3.708,0 7.548,0.728 10.328,1.523 0.926,0.265 1.787,0.728 1.787,1.919 m 282.223,24.098 c 5.428,0 9.4,-4.568 9.4,-10.062 0,-5.827 -3.707,-10.46 -9.136,-10.46 -5.76,0 -9.467,5.229 -9.467,10.46 0,5.494 4.039,10.062 9.203,10.062 M -93.611,29.191 c 2.781,-2.317 6.422,-3.707 10.195,-3.707 9.6,0 16.285,8.208 16.285,17.08 0,9.003 -6.885,16.418 -15.756,16.418 -2.449,0 -4.701,-0.53 -6.752,-1.589 -1.39,-0.728 -2.715,-1.722 -3.775,-2.913 0.068,1.523 0.266,2.913 0.664,4.171 0.793,2.581 2.383,4.501 5.228,5.826 1.723,0.794 3.708,1.523 5.76,2.184 l 8.143,2.582 c 1.656,0.53 2.451,1.721 1.523,3.376 l -1.058,1.788 c -1.061,1.854 -2.119,1.589 -3.774,1.059 l -8.011,-2.648 c -2.053,-0.662 -3.973,-1.522 -5.825,-2.449 -5.496,-2.847 -7.812,-7.812 -8.607,-13.307 -0.529,-3.906 -0.662,-7.084 -0.529,-10.857 0.197,-6.753 1.125,-12.712 6.289,-17.014 m -332.669,-1.059 11.32,28.864 c 0.332,0.794 1.192,1.655 2.185,1.655 l 3.575,0 c 1.125,0 1.854,-0.861 2.184,-1.655 l 11.454,-28.864 c 0.529,-1.391 -0.728,-2.252 -1.788,-2.252 l -2.78,0 c -2.053,0 -2.384,0.928 -2.781,1.854 l -8.088,20.626 -8.065,-20.626 c -0.332,-0.86 -0.861,-1.854 -1.788,-1.854 l -3.575,0 c -1.125,0 -2.383,0.861 -1.853,2.252 m 125.454,3.111 c 0.86,-1.457 0.331,-2.119 -0.662,-2.847 -3.178,-2.317 -6.223,-3.375 -10.99,-3.375 -8.606,0 -16.021,7.613 -16.021,17.079 0,8.871 6.621,17.08 15.955,17.08 4.833,0 8.143,-1.323 10.857,-3.243 0.861,-0.597 1.655,-1.523 0.795,-2.914 l -1.523,-2.515 c -0.728,-1.126 -1.788,-1.126 -2.582,-0.596 -2.714,1.721 -4.171,2.516 -7.481,2.516 -4.899,0 -8.805,-3.84 -8.805,-10.328 0,-6.554 4.435,-10.327 8.805,-10.327 3.443,0 5.23,1.125 7.547,2.449 0.927,0.529 1.92,0.795 2.715,-0.596 l 1.39,-2.383 z m 13.241,-3.443 0,24.429 -8.276,0 c -0.993,0 -1.722,0.794 -1.722,1.721 l 0,3.046 c 0,0.861 0.729,1.655 1.788,1.655 l 23.502,0 c 1.06,0 1.854,-0.794 1.854,-1.655 l 0,-3.046 c 0,-0.927 -0.794,-1.721 -1.854,-1.721 l -8.209,0 0,-24.429 c 0,-0.992 -0.728,-1.92 -1.854,-1.92 l -3.508,0 c -0.927,0 -1.721,0.928 -1.721,1.92 m 25.752,14.367 c 0,5.362 3.509,10.393 9.334,10.393 4.238,0 9.401,-3.509 9.401,-10.261 0,-6.157 -4.501,-10.195 -9.401,-10.195 -5.428,0 -9.334,4.899 -9.334,10.063 m 25.819,0.132 c 0,10.129 -7.481,16.948 -16.485,16.948 -9.93,0 -15.954,-7.746 -15.954,-17.08 l 0,-30.389 c 0,-1.058 1.06,-1.853 2.052,-1.853 l 2.913,0 c 1.059,0 2.119,0.795 2.119,1.853 l 0,16.883 c 2.581,-2.582 6.421,-3.377 8.87,-3.377 9.6,0 16.485,7.813 16.485,17.015"
             style="fill:#000000;fill-opacity:1;fill-rule:nonzero;stroke:none"
             id="path22"
             inkscape:connector-curvature="0" /></g></g></g></g></svg>