<?xml version="1.0" encoding="UTF-8"?>
<!DOCTYPE svg PUBLIC "-//W3C//DTD SVG 1.1//EN" "http://www.w3.org/Graphics/SVG/1.1/DTD/svg11.dtd">
<!-- Creator: CorelDRAW 2017 -->
<svg xmlns="http://www.w3.org/2000/svg" xml:space="preserve" width="990mm" height="990mm" version="1.1" style="shape-rendering:geometricPrecision; text-rendering:geometricPrecision; image-rendering:optimizeQuality; fill-rule:evenodd; clip-rule:evenodd"
viewBox="0 0 99000 99000"
 xmlns:xlink="http://www.w3.org/1999/xlink">
 <defs>
  <style type="text/css">
   <![CDATA[
    .fil0 {fill:#3A3635;fill-rule:nonzero}
   ]]>
  </style>
 </defs>
 <g id="Layer_x0020_1">
  <metadata id="CorelCorpID_0Corel-Layer"/>
  <g id="Cuba_Studio.eps">
   <path class="fil0" d="M73060.36 46629.78l9.69 -26.39c-6.65,-18.12 -11.67,-35.71 -9.69,26.39z"/>
   <path class="fil0" d="M90226.35 36130.3l36.07 -17.95c-23.51,2.34 -32.12,9.16 -36.07,17.95z"/>
   <path class="fil0" d="M95086.34 36664.99c-2.7,2.7 -2.7,4.67 -4.68,8.08 28,3.77 65.88,9.15 127.26,17.24l-122.58 -25.32z"/>
   <path class="fil0" d="M87571.91 36158.3c-10.77,16.15 -30.69,23.88 -50.25,30.33 24.94,1.08 44.51,-3.77 50.25,-30.33z"/>
   <path class="fil0" d="M87820.51 36173.74c8.43,5.03 19.55,6.82 29.24,9.87 2.34,-12.57 0.36,-21 -29.24,-9.87z"/>
   <path class="fil0" d="M75589.16 39804.77c43.79,-9.16 85.06,-204.62 134.25,-236.39 -40.74,3.77 -93.87,36.8 -148.44,69.64 -24.05,77.18 -26.02,155.61 14.19,166.75z"/>
   <path class="fil0" d="M75723.41 39568.38c11.84,-1.26 23.33,-1.26 32.84,3.77 -11.84,-12.21 -22.61,-10.76 -32.84,-3.77z"/>
   <path class="fil0" d="M42195.87 48495.18l1.09 -33.38c-1.09,16.87 -2.7,26.93 -2.7,34.1 0.36,0 0.72,0 1.61,-0.72z"/>
   <path class="fil0" d="M42184.75 48178.93c6.1,-25.67 11.12,-52.05 11.12,-52.05 -19.19,48.28 -23.32,-20.47 -42.53,-16.15 0,0 11.48,-48.29 -8.43,-31.05 -12.75,-9.52 -192.78,62.81 -138.39,123.12 -30.69,27.83 -10.77,-38.76 -36.08,14.36 14.19,32.67 -1.8,104.28 -3.76,148.08 22.96,-10.41 28.71,3.05 20.99,32.49 -11.49,4.66 -28.72,-3.05 -39.48,51.87 15.08,0.71 15.79,19.02 26.2,26.75 -2.33,19.55 -12.03,25.3 -21.18,22.96l14.9 26.03 -35.54 44.87 7.53 1.26c-17.23,71.97 -34.46,1.8 -45.23,-24.23l-4.48 36.79c-27.64,-46.66 -47.21,49.9 -54.75,79.34 11.85,-34.82 42,-13.47 70,-28.36 14.55,1.62 -1.79,42.89 3.96,56.71 -16.52,40.21 -19.93,-15.61 -39.14,-12.2l8.44 50.98 8.79 -11.13c8.44,19.2 26.75,46.66 19.57,76.64 -18.12,22.26 -24.23,-39.85 -37.69,-23.7 26.21,-3.22 25.3,90.47 60.67,45.6 17.59,7.89 8.07,50.08 -4.13,54.74 -26.21,-46.85 -46.49,123.13 -89.74,49.36 19.56,15.43 -36.44,62.46 -38.78,73.77 -12.91,-5.57 -17.58,-11.49 -18.3,-27.29 -2.7,2.34 -6.64,4.13 -11.13,5.03l-18.49 -45.23c1.98,55.11 9.69,75.02 45.59,80.41 -16.33,58.33 -20.64,14.9 -44.87,72.87 21.9,-20.27 24.23,-11.48 21.9,4.84 13.1,-19.38 38.77,-33.91 52.23,-73.41 -16.52,77.73 65.51,58.52 73.05,29.45 -0.72,30.69 21.54,52.05 8.61,88.13l-47.56 17.23 37.16 24.23c3.05,25.3 -17.23,59.4 -34.47,50.07 -7.35,-68.56 -96.2,16.51 -103.57,-3.77 11.86,16.87 36.8,12.39 33.03,36.44 7.73,-8.44 18.67,-8.44 23.34,3.77 -28,43.44 -2.34,82.38 -47.21,73.23l-1.79 23.87c-10.41,-26.21 -24.24,8.08 -35.72,12.92l15.25 21.54 -49 32.49c5.39,51.34 -6.82,131.56 9.16,158.31l-21.36 14.89c11.84,15.44 55.11,22.26 43.25,64.08 -41.1,-1.98 -33.01,93.15 -81.66,90.1 53.67,40.57 -25.31,88.49 30.33,98.54 -10.77,24.77 -21.18,56.72 -31.05,88.85 -12.2,18.49 -26.38,30.69 -48.28,26.03l36.08 7.71c-24.23,-4.48 -15.08,35.18 -19.57,54.39 1.98,0.36 1.44,3.94 2.34,5.02 -10.05,35.18 -19.93,70.18 -30.34,105.72 -18.49,63.72 -37.15,127.26 -56.72,191.69 -0.89,0 -1.08,1.44 -1.97,1.44l-16.87 -28.18 17.23 32.49c-15.98,54.02 -32.12,108.05 -49,162.98 -3.77,-7.73 -8.08,-12.75 -13.46,-12.03 -9.87,27.64 -11.13,56 -8.8,83.28 -24.94,79.33 -50.07,160.46 -76.28,242.13 -20.64,18.12 -41.82,40.2 -57.08,83.99 -28.71,-6.99 1.98,-73.58 -31.77,-58.14 -20.28,39.3 -40.74,115.58 -24.22,150.95 39.84,-17.96 30.33,26.73 42.53,42.89 -3.77,11.13 -7.71,21.53 -11.12,31.77 -11.86,0.71 -25.32,-0.72 -37.88,11.84 4.67,-4.85 18.49,-1.43 32.85,4.31 -62.46,189.72 -127.98,381.23 -196.18,575.26 -2.7,-7.72 -6.47,-11.49 -19.21,11.84 4.67,-2.69 9.7,-0.71 14.72,1.62 -38.41,110.74 -77.9,220.77 -118.1,331.16 -1.97,0 -2.33,1.79 -4.49,1.79 1.08,0.89 2.16,0.89 3.41,1.25 -1.97,5.03 -3.41,10.78 -5.74,15.98l-25.31 56.72c2.52,0.9 3.77,-1.8 5.74,-3.41 -37.68,102.85 -75.56,205.15 -113.97,307.82l-21.72 3.41c-17.23,-87.41 40.57,-62.46 34.82,-134.44 -36.79,7.54 -33.75,91.55 -57.79,120.98 18.67,10.41 25.66,28.35 30.15,46.49 -760.67,2014.03 -1704.05,3920.89 -2216.85,3899.36 -373.69,-129.23 281.8,-4445.18 309.44,-6314.73 5.74,-427 -765.16,-182.89 -1011.24,71.26 -580.99,600.92 -1737.79,4580.52 -2531.85,7442.44 -504.36,1153.93 -2004.87,-678.81 -546.89,-5349.79 455.36,-1458.34 1050.53,-2024.08 1703.16,-2762.32 461.28,-493.23 691.2,-485.51 508.66,-659.97 -315,-302.8 -1553.82,-336.54 -2505.46,305.85 -1227.16,828.33 -2003.26,2261.36 -2457.9,3784.85l-29.44 194.02c-31.94,-27.64 -61.03,-65.16 -91.72,-63.71l9.16 44.51c-22.98,19.2 -13.65,-36.08 -43.26,-43.8l20.82 49.89 -49.18 23.34 6.28 -12.92c-17.76,6.1 -35.35,22.97 -28.9,51.7 -7.9,-24.24 -7.9,-44.89 -31.05,-39.85 12.75,64.79 -19.55,78.97 -49,96.92 -0.71,-8.43 -14.53,-11.85 -8.43,-24.77 -50.97,100.33 -118.82,-36.07 -167.1,68.56l-1.08 -8.43c-61.02,-29.97 -68.21,43.61 -133.36,21.36l8.43 32.66c-28.89,-3.59 -59.05,6.1 -84.71,35.9l1.44 -12.57 -20.65 9.16 -0.36 -8.44c-6.63,12.75 -28.35,5.03 -41.81,30.69l-0.36 -8.43c-14.55,-12.57 -26.03,0.72 -35.01,17.23l-17.94 -24.05c-11.49,22.26 -30.34,26.75 -48.29,30.33l3.06 -20.1c-0.72,0.72 -1.98,1.61 -3.41,1.97 443.86,-3290.36 -115.06,-6378.79 -2777.58,-5269.93 -630.89,262.42 -1794.15,4031.65 -2474.05,6627.39 -5.39,-1343.27 39.85,-2695.53 169.8,-4076.33 163.33,-1742.11 427.71,-3469.49 694.07,-5192.93 272.83,-1765.8 693,-3666.03 1193.06,-5355.55 255.41,-671.82 -1052.7,-531.99 -1346.34,-176.79 -485.15,586.92 -861.18,1341.13 -1162,2149 -12.75,20.11 -26.21,38.77 -38.77,59.06 6.47,-2.52 14.54,-8.45 22.62,-15.26 -192.78,523.92 -354.49,1068.13 -493.23,1604.79 -5.39,2.34 -9.69,7.54 -10.41,17.95 2.68,-1.07 5.02,-3.77 7.71,-6.1 -54.02,209.65 -105,417.85 -152.56,622.82 -11.85,15.8 -13.11,10.41 -31.41,114.15l14.17 -38.76c-37.14,163.87 -73.22,325.58 -107.32,484.26 -53.68,105.71 -116.13,204.25 -143.06,355.56 22.98,-13.46 38.77,-48.64 54.39,-45.59 -11.49,125.64 -124.03,86.33 -133.72,292.93l30.69 -31.96c-3.05,69.1 -45.22,106.97 -48.99,96.57 80.4,29.97 -98.54,409.41 -18.85,576.52 -0.36,1.25 -0.72,2.32 -0.72,3.04 -66.77,84 -157.23,347.31 -147.54,437.77 15.61,75.57 37.87,34.82 61.74,-3.59 -15.44,77.54 -29.97,154.18 -44.51,230.83 -33.39,-53.67 -37.51,-260.62 -105.72,-29.62l18.31 43.44c1.97,-28.73 -0.72,-68.57 12.21,-105.91 42.53,-69.64 22.96,54.21 32.31,73.96l-65.53 282.15c-53.3,9.7 -11.48,-158.31 -21.17,-178.95 -30.33,228.49 -2.34,516.21 -68.21,720.28l21.91 -16.51c-49.19,153.29 -17.78,187.03 -5.75,228.3 -5.39,33.39 -10.77,66.06 -16.52,98.9 -6.1,14.18 -11.84,27.28 -22.25,45.59 -0.35,27.65 3.05,39.85 7.18,45.24 -22.44,139.1 -44.69,281.79 -66.59,425.03 3.41,-55.11 1.62,-98.73 -22.61,-92.62 46.3,92.26 -32.5,202.28 -3.41,264.02 -8.8,59.05 -17.59,119.54 -26.57,179.67 -24.41,80.59 -43.62,159.56 -43.62,234.59 4.67,-0.71 7.36,-6.46 11.13,-9.51 -32.3,226.15 -64.44,462.9 -97.28,711.67 -30.34,15.78 -67.13,80.22 -76.28,-39.13 57.07,-34.47 29.43,-114.52 44.34,-200.31 -131.76,124.92 0,590.15 -104.65,620.84l38.05 41.1c-10.05,38.24 -49.53,132.47 -56.71,63.91l2.69 280.54c26.74,-63.55 73.58,-172.49 91.17,-258.29 -16.15,137.13 -33.38,273.72 -47.2,411.92 -5.74,10.41 -10.59,18.14 -15.26,16.16 5.75,63.53 -33.38,201.57 -57.97,253.43 -14.53,110.4 13.82,369.75 -19.75,545.65 7.9,-22.08 17.23,-48.29 27.47,-73.95 -9.51,127.26 -16.52,256.49 -24.95,383.74l-12.21 -136.58c13.1,211.25 -34.82,46.49 -60.48,216.99l39.84 -65.15c-1.25,105.89 -10.41,144.12 -40.74,199.41l61.02 -83.28c1.98,57.44 0,162.97 -31.77,161 9.52,12.21 17.23,17.23 24.42,19.92 -0.36,5.02 -0.36,9.52 -0.72,13.82 -6.11,15.26 -11.48,42.18 -14.18,91.54 5.02,-21.35 8.07,-38.23 11.84,-49.72 -7.54,143.23 -12.56,288.62 -18.66,432.56 -26.57,88.67 -47.92,193.32 -74.31,234.96l1.08 -0.72 -45.24 212.69c8.8,-42.9 29.45,5.38 35.54,68.21l0 -10.23c0.54,3.05 1.26,3.41 2.34,5.74 -855.79,1980.82 -1860.39,4132.69 -2378.21,4089.8 -369.39,-143.95 420.18,-4430.47 506.33,-6298.57 19.21,-425.93 -758.52,-213.6 -1012.31,31.05 -599.66,577.59 -1780.51,3854.49 -3375.44,6888.91 -71.26,100.69 -122.95,127.25 -161.71,98.9 7.35,-11.5 22.26,-21.55 9.33,-44.53 -27.28,10.78 -20.46,12.57 -46.85,-12.2l3.41 10.24c-3.77,-8.44 -7.54,-14.55 -11.12,-24.77l32.67 0.71c29.43,-41.81 -34.11,-74.48 -17.23,-128.87l-11.5 17.23c-26.56,-6.82 -3.58,-33.2 -14.71,-51.33 22.61,2.33 30.33,-8.79 44.51,-16.33 -16.87,1.43 1.25,-40.38 -42.9,-45.24l29.08 -24.23c11.85,-43.61 -63.18,-49.71 -55.46,-92.07 24.04,12.38 40.2,-6.11 57.07,21.54 0.36,-13.83 4.49,-26.39 -11.12,-27.29 14.17,-7.53 -29.98,-38.59 -8.8,-51.69 -9.7,-6.1 -33.02,-7.53 -31.05,-23.69 4.48,-1.98 10.77,0 10.77,0 -8.8,0 -15.79,-13.82 -31.95,-11.13 0,0 -0.36,-3.95 -0.36,-6.1 54.56,-44.51 -9.16,-117.03 47.21,-152.57 -7.73,-31.05 -14.18,-68.21 -16.16,-96.2 6.47,1.43 11.13,0 8.43,5.03 21.19,-38.06 -63.53,-23.88 -40.55,-67.13 36.42,-22.98 19.56,23.33 33.38,9.51 73.23,-6.82 -10.42,-53.13 32.49,-83.11l4.13 6.82c24.94,-22.07 -27.47,-54.74 -22.44,-91.17 0,0 6.45,1.25 10.95,0 -37.51,-24.96 -50.08,-72.88 -60.49,-108.06 28.71,11.14 15.25,15.63 44.51,8.8 -1.98,-5.39 -9.15,-6.1 -17.23,-7.01 -5.74,-12.2 -4.66,-29.07 -0.72,-46.3 6.83,-4.13 12.93,-8.79 22.98,-10.41l1.79 30.87c39.85,-16.15 -1.43,-39.12 5.03,-54.92l17.59 1.98c-2.33,-22.27 -14.54,-33.75 -26.03,-45.59 4.13,-13.82 7.72,-27.65 8.8,-40.39l-27.1 5.03c-0.91,-5.03 -3.06,-8.44 -2.87,-14.54l-12.93 5.38c-0.72,-0.36 -0.36,-0.36 -0.72,-0.36 -2.69,-14.54 24.95,-2.33 36.44,-12.75 -2.34,5.75 -4.67,9.71 -2.69,13.11 17.59,-7 29.07,-24.95 11.84,-36.07 -0.72,5.02 -3.41,9.14 -5.38,13.46l-26.75 -14.54 3.06 -2.69 -15.44 -11.85 35.72 -6.29c-8.44,-14.17 -28,-43.61 -41.1,-71.6 3.58,-3.41 8.43,-1.81 13.82,0.71 17.23,18.13 31.41,38.77 44.87,54.92 0.72,-14.53 -4.67,-41.1 -17.23,-56.72 -2.34,-4.3 -5.39,-7.71 -7.73,-11.12 -2.68,-8.44 -3.4,-17.24 0,-27.29l11.5 2.34c20.81,-30.69 11.84,-76.29 0.36,-110.38 -1.08,0 -1.08,0 -1.8,0 3.05,-18.32 10.23,-37.16 33.21,-46.32 -32.49,-61.38 12.02,-123.84 6.27,-195.99 -19.2,7.71 -26.92,8.62 -30.69,7 -0.36,-1.98 0.36,-2.7 -0.36,-5.03 -0.53,1.61 -0.9,1.61 -0.9,3.05 -4.48,-6.82 4.67,-24.41 -39.48,-20.28 -4.49,-15.62 -3.41,-21.36 0.36,-24.23l0.9 -0.72 -0.9 0 10.41 -12.2c0,0 1.07,0.36 1.07,1.08l34.65 -42.01c12.92,-3.59 11.84,16.33 25.3,15.26 5.39,-37.52 29.09,-16.16 47.21,-41.82 -24.59,6.46 -35.35,-11.49 -26.92,-33.03l-31.05 30.34c-37.16,-50.62 57.08,-45.59 19.92,-96.93l21.89 16.16c-11.48,-23.88 -6.63,-78.97 -41.1,-110.57 -0.35,-6.82 -0.35,-12.93 -3.05,-18.3 7.73,-2.34 15.44,-2.34 18.49,4.66 5.21,-49.89 -34.1,-107.33 -36.44,-154.54l2.34 2.7 3.41 -20.65c-0.36,0.72 -1.98,0.72 -2.69,0.72 1.43,-6.1 0.35,-13.82 4.12,-19.21l16.88 3.96c-3.41,-7.01 -12.93,-12.39 -17.95,-19.21 0.72,-4.3 0,-7.71 0,-11.13 1.07,-2.33 0.72,-2.69 2.33,-5.03 7.36,0.91 16.88,5.03 17.59,-1.07 -5.74,-5.75 -30.69,-30.69 -20.64,-46.85l19.03 12.74c12.74,-38.76 -8.62,-65.87 -30.52,-92.79 0,-5.75 2.69,-8.44 -0.89,-17.23l16.51 9.52 -7.18 -42.91 -21.19 15.26 -10.22 -20.1c5.74,-0.53 10.22,-1.98 14.89,-4.3l2.7 3.77 6.46 -4.86 -1.08 -2.32c24.77,-15.8 34.1,-47.57 39.49,-66.42l7.18 0.72c3.05,-60.84 -29.97,-106.08 -54.03,-157.05 8.44,8.79 18.31,16.51 20.64,3.4 -9.15,-3.4 -21,-23.68 -31.76,-28.35 -0.72,-2.34 -1.98,-4.13 -2.34,-6.47 7.71,-6.09 10.41,-15.78 14.18,-24.04 2.33,0 3.95,-0.9 5.75,0 -1.08,-1.62 -2.51,-1.62 -4.13,-1.98 23.33,-50.26 5.02,-126.89 27.45,-185.22 -1.79,1.96 -6.45,0.89 -9.5,1.6 3.77,-7.71 5.38,-14.53 1.26,-23.69l-35.01 11.85c0,-0.9 -0.72,-0.9 -0.72,-0.9 8.79,-16.33 -36.79,-41.27 8.79,-41.27l-0.36 5.37c43.63,-14.53 30.34,-47.2 30.34,-72.15l-22.97 0c-7.37,-6.1 -14.72,-11.85 -22.98,-17.23 27.83,-40.21 9.16,-85.79 -0.9,-124.57 5.03,-3.04 10.78,-3.4 13.83,-11.84 -6.46,-1.43 -11.49,-6.11 -17.23,-10.41 -0.36,-2.69 -1.26,-4.84 -1.26,-7.54 2.87,-0.9 5.75,-0.9 9.69,-2.87 -3.41,-9.16 -1.98,-17.23 1.08,-24.77 3.95,-5.03 7.72,-10.05 14.53,-13.46 -2.15,-2.69 -3.04,-4.67 -4.84,-6.82 3.05,-5.39 5.39,-11.13 4.84,-15.08 -7.53,2.69 -10.22,0.54 -14.89,0 -3.41,-8.43 -8.79,-15.26 -14.54,-22.97 0,-1.44 0.36,-3.41 0.36,-5.03l28.36 -1.07c5.03,-45.23 7.72,-67.85 -4.13,-121.88l23.69 8.8c0,-18.85 -34.82,-26.03 -63.17,-35.18l-1.98 -32.67 13.82 -4.13c-4.66,-53.31 32.48,-112.36 -14.54,-161.36 6.47,0 20.29,0.72 22.98,9.16 -1.26,-25.31 23.33,-101.23 -40.21,-85.43l0 -0.91c30.69,-3.77 14.9,-32.84 -3.94,-57.8l-1.81 -23.68 14.54 0.72c-7.35,-4.13 -9.51,-5.03 -15.07,-7.73l-3.77 -49.71c-2.33,13.82 -9.16,27.46 -14.18,41.28 -4.13,-1.79 -10.23,-6.1 -13.46,-8.08 -0.18,-3.4 -0.71,-7.53 -1.08,-10.94 3.77,0 7.36,0 11.85,-2.7l-13.29 -25.84c-0.53,-1.44 -0.89,-2.51 -2.32,-4.13l0 -1.62 11.12 2.34 -6.46 -38.59c-2.34,0.71 -2.87,1.07 -4.3,2.51 -1.98,-5.74 -3.06,-12.56 -7.01,-14.36 -0.36,-4.31 -0.72,-8.61 -1.44,-12.02 6.11,-3.41 11.85,-8.44 17.95,-19.93l-7.54 -58.16 6.47 4.13c-0.72,-5.02 -3.95,-6.81 -7,-8.43l-7.9 -52.41c21.36,-8.44 27.47,-30.69 65.87,-14.72 -24.58,-21.36 -76.64,-54.74 -67.13,-85.8 3.05,-1.43 5.39,-3.41 9.69,-5.01l3.77 2.32c1.98,-7.71 -1.43,-13.46 -6.99,-17.59 3.58,-10.41 6.27,-16.51 5.56,-26.02 22.98,-7 8.25,-36.08 7.18,-51.33 -31.05,6.82 -28.72,-13.11 -52.05,9.15 1.79,-3.05 4.13,1.8 6.82,11.49 -0.72,-1.26 -2.34,-1.26 -3.05,-3.41l-6.11 6.82 -10.41 -1.79c-2.69,-14.72 -4.67,-29.98 -7.18,-45.24 17.59,-20.1 32.85,-40.03 49.36,-46.49 -18.84,-33.38 -26.02,-78.26 -57.97,-103.92 11.12,-2.69 3.23,-14.54 -1.44,-21.36 -0.71,6.11 -3.05,14.54 0.36,20.64 -6.46,-4.67 -14.18,-8.08 -22.62,-11.48 -1.43,-7.01 -2.68,-13.29 -4.3,-19.57 5.75,-4.12 13.82,-7.54 17.4,-10.4 7.19,6.28 7.73,15.42 16.88,17.23 -5.74,-6.11 -9.15,-15.27 -13.11,-24.77l5.39 -0.91c-1.97,-2.51 -5.39,-1.07 -7.35,-3.77 -5.39,-14.17 -11.14,-27.99 -21.36,-35.53l-3.96 -21.54c8.98,2.33 14.18,5.74 6.11,-18.85l13.82 3.23c26.2,-56.9 -14.01,-85.97 -47.38,-119.36l-19.93 -86.51c6.46,27.64 12.2,54.75 19.03,85.08 -11.84,-12.03 -22.98,-24.94 -28.72,-40.21 0,0 -0.36,-1.25 -0.71,-1.97 -6.83,-18.85 -6.47,-41.47 8.43,-69.82 -3.41,8.07 -5.03,11.48 -11.49,15.08 11.13,-121.88 -88.85,-211.26 -70.18,-340.13 0.36,-35.18 -25.3,-27.11 -50.98,-35.9l28.73 -22.26 -47.92 -12.2c-43.62,-26.56 41.81,-119.36 -35.19,-144.13l-16.15 20.64c-6.46,-22.26 -45.24,-49.9 -21.72,-64.43 -4.67,0.89 -23.52,10.41 -18.49,-5.03l14.18 -12.2c-17.95,-9.16 -36.8,-16.16 -55.1,-22.26 -18.48,-42.9 60.49,-47.03 14.17,-103.03 -28.53,-19.56 -77.89,4.13 -80.94,17.23 5.38,6.1 8.79,23.34 -1.44,40.21l-20.1 -3.41c-2.15,2.69 -4.85,5.39 -7.54,8.8 -24.23,-25.68 -48.28,-52.41 -74.3,-74.67 -321.64,-113.98 -582.63,195.82 -697.31,437.58 -2380.54,3699.42 -5177.68,6381.14 -7316.99,7539.02 3.41,-2.7 4.49,-5.39 9.16,-8.8 -83.1,16.51 -57.44,52.59 -132.29,59.41 -8.79,0 -6.46,-4.31 -0.71,-9.69l-66.23 52.59c10.23,-17.95 -25.31,-27.64 21.36,-43.97 -140.19,39.48 -196.54,141.79 -259.9,128.69l9.69 -8.44c-101.95,58.34 -88.13,63.72 -81.67,78.98 -35.18,16.14 -70.53,31.77 -105.36,46.3l-64.79 -26.03 -7 44.17c-19.39,6.09 -58.15,19.38 -55.47,1.43 -52.58,44.51 -8.79,24.23 -9.15,37.15 -21.54,8.44 -42.18,16.15 -63.71,24.59 -95.32,25.31 -205.87,91.89 -236.39,46.31 -23.51,34.64 67.13,3.41 26.75,29.61 -11.5,4.13 -21.91,6.83 -33.75,11.13 -44.51,-39.48 -111.83,52.77 -202.28,45.95 20.28,-40.2 105.72,-45.23 12.93,-51.33 -40.93,70.53 -171.6,30.33 -243.4,54.38 3.95,47.92 -158.66,50.61 -282.33,77.89 6.46,-13.1 -238.36,-5.01 -353.41,-30.33l3.77 -7.71c-24.06,46.84 -144.13,31.05 -231.9,26.75 6.29,-26.39 22.98,-35.18 70.54,-42.91l-80.05 -9.5c-21.18,11.48 -47.56,16.51 -100.52,11.12l25.32 -30.69c-105.01,-18.67 -221.49,-8.8 -346.77,-82.39 -1.26,1.44 -1.26,4.13 -1.26,6.11 -68.21,-38.59 -130.67,-81.67 -194.2,-123.85 0,0 0.71,2.69 0.71,4.67 0,-1.98 -0.71,-3.41 -0.71,-3.41 -317.7,-212.34 -583.35,-462.72 -798.72,-746.67 -72.52,-93.51 -135.34,-223.46 -192.06,-287.9 -16.51,-32.49 -17.95,-88.85 0.36,-81.13 -45.23,-80.95 -61.39,-85.07 -94.59,-219.69 52.41,78.61 3.77,-38.59 48.64,82.38 -36.07,-117.56 -29.62,-149.51 -99.97,-260.97 40.56,30.69 4.12,-101.05 -20.46,-153.64l6.64 89.2c-23.87,-60.12 -37.69,-116.13 -51.51,-173.2l44.51 17.23c-24.41,-251.82 -185.41,-417.31 -145.57,-626.59 -37.15,-60.13 7.18,139.1 -33.74,87.4 -17.23,-116.48 17.59,-247.15 12.56,-283.22 -2.69,-161 -75.92,-137.31 -81.31,-307.82 -10.95,23.68 -43.96,49.89 -70,-75.39 -6.1,-118.64 42.01,-150.41 59.77,-78.26 3.77,27.64 0.73,42.18 -3.94,41.65 8.07,37.33 19.56,85.25 28.9,37.33l-14.73 -13.1c7.37,-59.41 -7.18,-220.41 17.78,-184.34 -19.93,-87.4 -24.96,-36.07 -26.21,30.69 6.64,-151.84 -17.23,-234.94 -11.85,-391.28 -6.09,25.49 -21,49 -21.36,24.05 6.46,-228.3 -29.97,-99.25 -40.74,-253.61 18.49,-88.67 48.64,29.8 29.26,-125.47 12.56,-95.3 34.82,-20.64 46.3,16.88 -28,-140.54 15.8,-264.03 21.19,-344.08l10.23 73.95c-5.75,-44.51 -5.75,-80.59 -5.03,-117.74l-27.46 41.45c5.2,-42.89 6.46,-80.22 17.23,-78.97 -16.52,-45.59 -45.23,33.39 -67.12,-56.71 14.53,-58.33 -9.52,-179.49 26.37,-197.44 -17.58,182.9 36.09,-19.57 37.33,136.59 -3.04,-29.98 -1.96,-66.76 4.13,-110.93 3.77,-5.74 6.83,7.01 8.8,19.21 38.05,-173.56 -37.87,-82.74 -28.35,-265.28 18.84,24.59 39.48,-39.49 37.69,-68.92 -4.68,72.32 -35.37,32.66 -46.85,-35.72 21.72,-116.13 -3.59,-127.97 2.33,-189.72l-12.02 69.46c-18.31,-24.95 -12.21,-84 -11.84,-166.39 15.78,-4.66 5.01,75.57 13.82,47.21 -28.01,-94.23 52.22,-200.84 40.19,-329.72 18.85,-55.82 38.06,-0.71 51.88,-50.43 -11.67,-144.14 42.18,-148.8 37.87,-299.03 -31.42,38.23 -26.03,46.67 -39.85,-61.38l-8.07 246.07 -21.72 -161.35c-9.33,73.22 0,157.23 -9.33,200.84 -14.19,-77.36 -8.44,-68.56 -34.1,-36.79 50.25,-94.77 -2.34,-203.55 39.12,-315.91l65.15 13.82c50.62,-168.89 5.03,-314.99 54.75,-538.1l-21.72 70.54c-22.26,-35.18 16.69,-139.82 16.69,-215.38 21.54,11.12 36.62,-32.13 55.29,-60.84 -17.23,0 28,-164.06 -12.21,-194.03l45.95 -93.51c43.61,-178.6 -25.67,-221.49 14.9,-393.98 13.46,58.33 44.15,-17.23 38.76,103.03 11.14,-57.08 24.96,-108.42 9.88,-113.45 20.46,-30.14 2.33,-168.17 33.74,-216.09 -4.48,-26.03 -25.67,-40.57 -10.59,-105 6.11,-6.64 11.13,3.41 11.13,3.41 -4.31,-1.44 -4.67,-16.16 -5.02,-31.41 57.43,-223.11 116.13,-439.56 175.17,-649.57l8.43 -24.23 -3.22 5.03c63.72,-227.24 127.8,-446.21 189,-652.8 307.1,-1024.87 630.54,-1991.77 978.56,-2916.67 4.13,-3.41 8.09,-9.51 12.21,-12.21 16.15,-58.69 36.79,-114.68 59.05,-169.79 2.7,-7.72 5.75,-15.08 8.79,-22.62 73.24,-174.82 171.24,-341.92 256.49,-543.85 -78.62,47.75 -17.59,-24.94 -15.79,-69.81 10.77,-26.03 21.54,-51.69 32.13,-77.9 2.33,31.95 8.97,61.03 47.2,1.62 -45.95,52.94 -11.13,-50.98 -17.94,-73.6 7.18,-18.3 14.89,-36.79 22.25,-54.74l63.18 -87.05c38.77,-35.18 -14.19,67.48 2.69,69.82 67.49,-135.33 52.59,-42.9 110.39,-124.2 -30.33,5.74 -9.52,-66.42 35.71,-139.83l-79.5 93.88c56.53,-211.98 127.61,-135.34 186.66,-347.67l-9.52 72.33c35.19,-105.72 173.93,-364 172.85,-490.18 15.8,-12.57 43.61,-25.31 26.38,20.29 122.05,-229.93 207.85,-553.73 330.44,-714.73l5.39 27.29c17.95,-46.13 11.84,-93.52 54.02,-137.67 4.67,6.46 5.75,27.28 16.87,7.72 7.01,-26.39 34.1,-131.56 72.88,-182.9l-9.69 59.41c137.3,-212.34 142.69,-371.36 234.22,-566.46 42.54,29.79 151.5,-135.7 206.59,-218.08l4.31 7.72c147.36,-255.41 209.29,-463.08 329.18,-712.2 129.41,-113.08 306.92,-482.11 473.31,-695.16 -29.07,30.16 -28.71,-30.33 -7.71,-75.2 41.1,-47.57 63.71,-172.13 95.49,-134.63l-12.75 18.85c62.28,-11.84 119.72,-131.38 175.18,-217.18l-40.21 -53.31c210.9,-171.4 347.67,-613.66 489.46,-684.56 22.62,-64.44 67.13,-130.31 89.74,-193.85l23.7 24.42c103.57,-144.13 155.98,-215.03 271.74,-403.14l-6.45 53.31c70.17,-102.48 14.17,-193.66 76.99,-289.87l56.72 4.67c121.15,-179.49 277.85,-330.44 366.87,-535.05 3.42,7.53 10.24,22.61 -8.08,52.41 59.06,-83.11 251.47,-298.13 179.32,-314.28 34.99,28.35 132.27,-178.95 186.66,-286.29l13.82 37.16c26.39,-108.05 19.92,-118.83 91.9,-237.64 22.25,-23.7 36.07,-4.85 4.66,24.23 76.29,-75.92 27.29,-89.74 118.11,-183.62l-13.82 54.03c68.21,-87.78 54.74,-88.5 72.69,-154.9 32.3,-65.87 133.54,-163.16 164.95,-155.44 -4.66,-24.95 14.53,-90.46 60.13,-136.94 13.82,0.72 4.66,24.94 0,36.43 127.26,-133.01 139.81,-246.8 241.05,-325.41 9.33,5.39 18.49,2.69 26.92,-3.42 -90.46,116.85 -164.05,210.01 -159.02,199.24 21.72,21.54 98.35,-69.29 70.36,35.72 42.17,-91.54 105.53,-257.92 187.56,-339.23 5.2,-1.98 10.95,-3.77 16.69,-3.77l-4.85 11.48c18.68,-18.48 31.41,-39.84 41.83,-61.02 26.38,-26.02 43.25,-41.65 65.87,-69.82 26.38,7.72 93.15,-97.65 131.38,-142.88 -26.39,-19.92 25.67,-76.99 -39.49,-40.19 7.73,-5.39 -4.13,11.84 -27.45,43.61 2.69,-4.85 4.13,-8.43 8.43,-14.18l-20.1 12.74c3.94,-39.13 9.33,-81.31 13.46,-103.57 83.64,-30.15 198.87,-134.43 232.62,-130.31 100.5,-154.35 258.82,-340.66 288.25,-473.66 27.28,-45.59 50.62,-32.66 69.46,-39.48 -14.54,26.73 -37.51,53.3 -41.46,72.51 54.39,-91 189.37,-239.62 175.54,-290.24 96.93,-84.72 -19.56,85.44 90.46,-55.99l-6.46 28.35c273.18,-214.48 291.66,-517.64 608.1,-740.38 -21,15.61 -31.77,23.69 -40.2,22.62 317.87,-301.36 580.28,-707.55 918.79,-973.91 92.27,-80.22 84.01,-111.27 121.88,-182.89l41.28 9.15 62.46 -126c105.54,-156.69 274.97,-156.69 399,-367.58l-36.25 1.96c60.48,-55.99 175.17,-197.43 182.71,-165.13 3.42,-10.05 3.42,-40.02 34.11,-52.22l13.46 12.56 123.31 -169.26c120.43,-99.43 28.89,77.73 194.73,-80.59 56.37,-65.51 139.3,-215.02 108.96,-202.27 -25.31,23.32 -70.54,52.05 -84,38.59l49.9 -62.47c-1.62,-3.77 -3.05,-7.54 -4.31,-11.85 1704.41,-1549.15 3741.23,-2868.38 4790.51,-1623.82 273,323.8 389.13,840.36 413.19,1413.47 -6.11,13.82 -10.24,25.3 -11.13,33.03 -43.62,52.76 8.07,120.6 -14.9,187.37 -13.47,106.8 -50.61,52.06 -81.66,104.29 -23.7,66.23 40.2,-11.49 41.82,15.25l-50.98 78.08c-1.98,-46.67 -23.34,-22.97 -36.8,-14.9 -8.79,69.11 -75.56,173.74 -8.79,198.87 -36.08,91.36 -63.72,89.03 -69.82,128.52 13.1,-12.74 26.2,-37.87 39.85,-37.16 -32.13,34.82 6.09,18.31 14.18,3.41 25.66,59.41 -141.44,283.6 -67.85,301.72l-13.82 -1.25c54.39,18.48 110.02,1.43 137.66,44.15l-27.09 24.06 20.64 42.17c-20.29,24.95 -33.75,10.41 -40.75,9.51 20.46,67.85 -17.59,154.9 -30.87,232.26l129.76 -54.75c-1.43,12.75 -2.69,24.96 -4.48,38.06 -38.41,59.59 -79.51,129.41 -43.44,143.94l-54.38 33.39c-109.31,120.08 32.66,98.54 -1.61,147.18l-62.46 59.42 8.07 -65.88c-34.46,62.11 -56.35,85.79 -97.64,132.64l1.08 0.72c-11.13,11.85 -17.23,48.28 -21.36,94.23l-20.29 -4.84c-6.64,58.5 4.85,128.69 -5.38,166.2 -11.49,17.76 -64.43,57.43 -89.75,17.76l38.78 43.27c-21.55,195.1 -20.47,196.89 -103.21,387.51l25.31 -12.39c6.45,42.18 13.1,85.08 -24.95,88.31 -28.72,118.64 -78.62,236.75 -148.62,300.28l48.28 29.62c-8.07,24.59 -93.87,42.18 -24.22,72.87l12.02 59.77c-10.41,33.2 14.9,62.46 -22.79,93.51l-0.36 0 -7.54 6.11 4.49 0.71c-39.49,71.44 46.3,11.49 -2.7,92.44 -42.89,17.94 58.33,49.54 37.16,89.75l-83.46 22.25c-59.42,65.87 11.12,100.69 -16.51,213.77 -39.14,45.95 -107.7,52.05 -154.72,-1.61 55.1,70.53 38.23,36.43 55.1,112 -30.69,1.07 -34.46,-8.08 -56.01,-30.69 -46.3,47.19 16.16,43.43 3.06,86.33 48.82,29.43 127.25,71.97 126.89,87.77l20.64 -12.03c1.27,3.95 1.27,7.72 1.98,11.13 -16.87,45.23 -33.74,89.74 -50.62,134.98l-2.33 -1.09 -0.36 8.08c-6.46,15.97 -12.92,32.85 -19.2,49.36l-17.23 -4.13 -12.21 80.77c-13.46,34.82 -27.28,70.18 -40.57,104.64l-1.25 -0.35c-43.26,39.85 -52.76,87.77 -55.1,141.07 -33.75,83.82 -68.21,167.82 -103.56,251.64 -11.49,1.98 -22.62,4.67 -31.06,9.33l25.67 4.49c-10.59,25.31 -21.36,50.98 -32.12,76.29 -28.01,0.36 -56.01,-24.05 -75.21,-39.13l33.02 60.31 -54.38 -15.8c50.25,56.36 -20.28,24.6 -5.75,89.38 -21.18,-4.66 -27.63,-22.61 -42.17,-8.79l42.89 117.21 -13.82 -65.52 45.95 25.31c-25.66,58.51 -51.69,117.56 -77.72,176.26 -0.35,0.89 -1.07,0.89 -1.97,1.25l1.62 0c-54.39,121.33 -108.78,242.49 -165.13,363.28l-15.08 -7.18c5.75,5.21 8.97,10.24 11.12,14.91 -28.35,60.12 -57.07,119.53 -85.79,179.3 -3.41,-2.33 -6.1,-3.41 -10.41,-7.36 -14.54,27.29 -21.36,54.93 -25.3,82.38 -41.29,84.37 -83.11,168.37 -125.29,251.11 -59.05,39.12 -93.15,136.95 -133.36,197.8 -13.82,47.56 -26.92,90.81 -39.13,132.27 -46.67,87.42 -98.54,142.16 -146.46,227.6 -21,22.61 -39.85,48.28 -55.1,74.85 3.41,2.51 5.74,5.73 8.44,8.25 -5.39,10.05 -10.78,19.56 -16.87,29.62l-7.73 1.43 5.39 3.23c-10.77,17.95 -21.54,36.26 -31.77,54.39 -47.56,33.74 -147.89,82.38 -150.59,131.02 21.36,-15.79 34.46,-8.43 50.62,3.41 -10.41,17.24 -19.93,34.64 -30.33,50.98 -23.88,26.92 -49.9,52.23 -86.34,74.3 6.28,0.9 11.13,3.6 15.79,7.37 -5.39,18.84 -32.12,21.17 -50.26,28l27.28 30.33c-33.37,13.27 -45.58,62.1 -93.15,70.54 21.72,43.97 -44.87,45.23 -60.12,94.23 -18.13,6.46 56.18,3.77 23.68,40.57 -65.15,-58.52 -41.81,47.2 -109.12,-18.68l-3.95 58.16 -38.41 -27.1c37.69,92.25 -61.57,13.28 -77.35,73.94 8.79,5.75 14.89,3.77 18.12,10.6 -18.48,6.28 -48.46,31.41 -44.87,-9.52 -17.59,21.9 -95.85,77.9 -33.75,82.74 -20.28,-17.59 21.01,-30.15 39.14,-36.25 25.66,32.12 -12.75,52.41 9.5,94.23 -3.77,-2.69 -12.2,-3.95 -19.19,-5.74l12.74 23.33c-64.79,7.36 -79.7,72.16 -143.78,57.08 7.37,11.12 7.37,25.3 -7.35,36.79l-33.56 -38.77 -36.99 42.54 66.06 37.33c-32.67,57.44 -116.85,24.42 -159.02,50.62 45.23,76.64 -88.31,45.95 -71.44,136.42l41.82 -10.07c-68.21,47.93 -45.94,97.83 -119.9,129.6 29.79,-69.46 40.93,-56 65.15,-179.67 -45.58,97.28 -146.82,78.44 -179.84,178.42 16.15,12.74 40.02,8.07 36.79,39.48 -39.12,-24.06 -59.4,57.97 -80.76,7 -9.34,33.02 14.89,75.57 6.82,92.8l-104.29 7.54 7.72 6.99c-50.25,202.65 -261.69,115.42 -354.49,245.37l15.61 22.43 -49.71 -14.18c36.8,7.36 6.46,38.05 16.15,61.03l-107.32 -0.72c9.5,23.33 39.84,70.17 54.37,47.02 -16.87,46.85 -75.92,13.46 -103.2,28l19.93 16.16 -35.54 -1.98 15.25 31.95c-51.33,12.57 -92.62,78.44 -131.74,36.25l28 48.64 -66.06 -14.35 42.91 20.64c-3.06,2.33 -7.54,3.41 -10.6,5.74 0,-1.61 0,-1.61 0,-3.05 -2.33,5.75 -6.1,4.84 -9.33,7.72 -4.84,2.87 -9.88,6.1 -15.61,7.9 -23.34,-0.72 -50.98,-24.95 -62.1,18.84l0.36 0c-31.78,6.11 -58.16,7.54 -63.55,10.42l12.21 17.59c-5.39,14.54 -17.23,4.49 -29.08,2.32l17.59 25.68c0,0 -0.36,1.07 -0.36,1.43 -28.36,10.41 -46.85,26.39 -64.08,42.18 -37.14,-15.26 -80.05,-46.67 -100.69,-4.66l10.95 25.66 -29.07 -31.41c21.53,19.92 8.43,35.72 17.23,58.69l-58.52 -38.23c8.79,22.97 32.85,74.31 36.62,59.41 0,1.08 -0.72,0.72 -0.72,1.44 -1.79,0.36 -2.7,1.07 -4.49,1.07 -5.39,4.32 -7,5.75 -7,5.75 -12.57,-1.43 -30.69,-20.28 -39.49,-17.23l13.82 19.92 -19.92 -12.21 14.54 32.31c-26.03,-4.67 -34.1,43.25 -65.87,-2.86l27.28 49.53 -6.29 -3.77c-0.71,-4.66 -4.48,-7.72 -11.84,-8.08l-22.08 -15.43 15.98 15.43c-2.69,0 -5.02,-0.9 -9.15,0.36 -5.75,3.06 -11.13,12.2 -15.8,24.41 -18.66,0.9 -37.16,-2.15 -39.85,0l12.21 16.69c1.26,12.21 -8.25,1.8 -15.61,-0.89l17.95 24.95c-36.8,15.79 -15.63,77.35 -60.14,84.36 -1.79,-0.36 -3.77,0 -5.73,0 -38.78,36.43 11.12,69.81 -1.81,85.79 -6.63,-17.58 -12.02,-34.1 -27.64,-26.93 -2.69,4.31 1.44,17.78 7.19,33.75 -3.77,0.54 -5.75,1.26 -11.13,1.62l14.54 6.99c7.71,20.11 15.44,40.57 20.45,57.8 -1.96,3.05 -3.41,6.46 -5.01,9.52 -1.62,0 -1.98,0.89 -3.96,0.36 -15.61,-21.36 -42.89,-47.57 -62.46,-47.57 84.36,31.94 -52.05,85.61 24.95,132.28 -0.36,0.9 -0.36,1.61 -0.72,1.97l-25.3 3.06c4.3,1.62 5.74,7.71 5.02,13.1l-36.07 11.84c10.4,4.13 25.66,5.75 39.48,10.24 -9.87,22.79 -18.84,44.87 -27.28,67.48l-2.7 1.25c0.9,1.09 0.9,1.45 1.26,2.34 -5.03,14.18 -11.12,28.37 -15.44,42.19 -93.51,119.53 -46.3,308.53 151.86,421.43 1.96,2.33 3.41,5.74 5.01,7.72 5.04,1.97 9.88,1.97 14.55,3.04 183.97,95.49 485.15,127.63 915.21,-10.76 543.12,-145.92 1003.87,-512.79 1400.53,-1018.6 516.21,-656.19 999.57,-1499.79 1407,-2399.74 3.42,-5.38 6.47,-11.85 10.24,-17.94 58.33,-30.34 110.92,-200.85 164.41,-221.14 18.48,-211.61 97.09,-398.28 174.1,-575.07l2.7 9.69 22.6 -89.74c5.75,-1.45 12.22,0.89 14.9,5.74 -1.43,-21.54 3.95,-43.61 8.44,-65.88 13.1,-33.38 22.98,-66.77 35.36,-99.97 32.85,-66.41 75.38,-132.28 109.13,-192.41l3.05 9.52c128.87,-356.1 209.64,-710.96 285.92,-1066.7 90.11,-328.46 195.1,-713.64 291.67,-1136.33 19.92,-62.11 33.02,-127.62 43.8,-194.39 351.79,-1622.75 542.95,-3710 -633.23,-5138.37 -2827.83,-3438.43 -8702.64,2467.06 -10741.26,4914.9 -4576.92,5495.91 -10116.44,15489.59 -8205.43,22139.42 624.79,2173.95 2825.12,3576.65 5770.51,2576.36 4921.37,-1670.66 7693.91,-6299.1 9095.89,-8346.16 -106.62,1899.88 -1065.63,5709.32 -938.72,6693.09 151.84,1174.03 1657.39,1593.66 2180.58,1236.13 1151.24,-788.14 1958.04,-4285.09 2316.83,-5206.4 26.39,-67.85 105.36,-108.04 126.36,-8.79 136.59,821.33 486.05,2166.23 1307.75,2344.46 1233.79,266.73 2160.48,-1578.77 2880.05,-3593.69 -5.03,70.17 46.67,164.59 8.62,166.02 13.46,30.33 48.81,42.19 61.92,49.9 -22.8,40.57 -32.66,89.21 -38.41,140.54l-5.03 15.8 3.41 1.96c-10.95,127.63 3.96,273.55 -44.32,390.93 29.07,-67.48 57.42,14.9 75.37,-16.87 -74.3,60.49 -72.33,201.56 -61.56,315.36 15.62,-0.72 29.08,7.36 41.28,-6.46l-29.43 67.48 18.66 -10.05c17.23,118.11 -63.17,250.75 -24.77,327.75 7.54,-49.18 23.34,-49.9 48.65,-56 0.72,85.07 2.33,165.49 -17.23,265.28 4.49,-5.75 9.87,-9.33 16.15,-10.05 6.82,25.66 -10.77,58.33 -18.84,84.72l38.23 1.97c-15.62,52.05 6.09,115.77 -21.72,178.23 42.89,21.36 -33.39,147.91 -12.74,216.64 -8.44,27.11 41.46,-60.3 42.17,14.37 -82.02,14.71 2.34,97.09 -87.05,108.23l35.72 63.17 -43.8 17.24c85.97,50.61 -33.56,86.68 -3.05,167.46 9.33,-4.85 12.03,-13.82 18.85,-10.23 -8.08,27.46 -11.12,89.2 -36.08,43.61 2.34,43.62 -10.22,195.1 33.39,124.57 -25.67,6.1 -6.83,-56.73 1.07,-84.01 38.06,1.62 26.57,68.57 68.75,82.93 -3.95,1.79 -10.06,10.77 -16.15,17.95l24.22 8.07c-38.04,84.72 -2.86,167.11 -54.2,230.64 12.39,3.41 21.89,16.52 21.18,45.77l-47.93 4.85 6.47 87.77 66.77 -46.31c19.56,95.84 -55.29,169.08 -62.11,249.49 80.42,14.53 -20.27,157.94 55.1,220.77l17.23 -63.72c-5.37,133.9 43.8,150.24 25.68,276.42 -33.93,-102.31 -17.95,-103.93 -93.88,-251.47 43.8,150.23 -26.38,269.41 30.69,405.82 17.77,-10.94 27.29,-47.74 49.54,-15.26 -38.76,31.41 12.21,132.65 -37.51,116.49 19.75,42.18 64.98,44.87 73.95,70.54l-46.13 153.28 8.8 -5.74c132.27,236.2 -30.88,475.29 44.51,720.64l25.3 -8.43 -30.69 68.56c19.57,-53.31 34.46,16.52 57.44,16.52l-34.82 169.78c22.25,0 71.25,-18.12 56.36,-55.63 33.74,57.07 -10.77,128.51 -6.47,182.53l19.57 -22.25 -10.77 56.71 31.05 -5.38c-2.33,90.46 46.85,194.39 1.98,236.74l48.64 -20.99 -25.31 102.84 25.31 -61.02c26.74,103.02 15.97,272.81 20.64,295.07l16.87 -13.28c13.11,14.36 3.06,31.41 0.36,51.33l25.31 -21.53c23.33,162.07 93.51,188.09 105.36,374.05 17.95,46.49 2.69,-29.8 18.48,-35.54 27.11,20.29 21,88.12 12.93,105.35 39.12,-28.35 7.71,-97.81 55.99,-51.86 -11.12,45.77 33.03,-39.5 41.83,32.67l-47.56 44.87c19.19,35.89 44.15,-6.11 55.63,56.71 -4.3,78.62 -85.43,-65.16 -62.1,52.05 19.93,56.72 159.02,71.44 166.75,189.01 24.04,31.05 39.48,24.58 50.62,12.56 386.61,663.56 2100.72,1100.44 2026.23,-119.19 -72.69,-1196.82 -150.59,-2374.25 -210.73,-3543.97 62.47,-848.97 238.73,-1699.93 588.72,-2978.06 429.16,-1570.33 1062.75,-3462.48 1993.39,-4741.16 31.77,-44.32 99.26,-139.09 171.24,-222.2 67.12,-41.46 142.69,-137.31 169.07,-36.08 219.51,725.13 277.13,1682.16 252.9,2439.06 -21,663.93 -136.05,1501.77 -344.79,2328.84 -31.24,26.93 -61.03,56.01 -91.72,83.29 -1.09,1.79 -1.44,4.48 -3.05,7.54 -40.93,82.38 -141.8,156.33 -142.52,157.23l-86.69 62.82c3.41,5.03 5.02,24.95 -1.98,21.35 -20.28,83.29 -97.63,100.16 -170.15,122.77 -57.79,18.68 -112.18,42 -129.95,108.78 -3.77,9.51 -9.15,21.53 -14.18,31.76 -39.31,90.11 -98.72,215.39 -185.77,224.36 -54.02,40.21 -49.89,128.34 -108.95,157.42l-32.84 -11.14c2.69,20.83 8.07,26.93 -4.31,38.06 -1.8,-15.44 -15.26,-14.54 -24.77,-18.13l4.13 31.41c-35.72,-31.41 23.33,93.16 -13.1,57.61l-27.11 -21.53c-156.51,53.31 -191.33,276.77 -312.49,388.94 -19.38,2.34 -41.27,-2.51 -62.82,-6.82 -32.48,-6.09 -63.17,-13.1 -83.46,2.34l31.77 34.46c-9.15,31.77 -30.33,-24.23 -60.67,-13.46l45.24 33.38 -30.16 50.62 -1.98 -15.25c-7.71,10.22 -9.5,24.76 -6.81,40.2 1.44,8.44 2.33,16.87 9.15,24.59 -6.46,-5.74 -11.48,-10.77 -16.51,-14.72 -10.41,-9.87 -19.57,-15.25 -31.05,-3.05 7.35,8.43 10.76,16.15 14.89,23.87 20.83,37.87 5.75,65.51 -7.54,93.88 -5.02,-7.01 -17.76,-3.6 -19.2,-17.95 16.52,113.79 -115.05,33.92 -92.79,153.99l-5.75 -6.82c-65.87,11.49 -27.1,78.8 -91.18,102.13l26.39 21.54c-24.06,16.51 -42,44.51 -42.54,85.08l-6.82 -10.41 -10.05 20.46 -5.75 -6.64c3.06,14.72 -17.94,22.98 -12.21,52.22l-5.73 -5.37c-18.49,0 -19.21,18.3 -15.08,37.87l-29.43 -6.82c13.1,55.99 -54.03,68.92 -31.06,125.99l0.36 0 0.89 4.67 -1.25 -4.67c-28,57.98 -51.69,126.18 -88.13,177.16 -45.23,131.75 -113.43,124.21 -184.69,229.92 -41.46,145.74 20.64,240.34 -71.79,302.08 -0.72,1.44 -20.1,12.92 -47.75,23.69 -100.87,367.6 -102.49,735.54 90.82,1043 157.05,947.33 1600.13,1016.08 2133.57,562.16 950.57,-808.59 1831.31,-3095.62 2249.87,-5434.7 246.8,-142.69 497.18,-276.41 748.82,-405.29 -198.5,882.37 -300.81,1766.88 -326.13,2555.72 -89.19,1144.06 31.05,2458.44 500.96,3921.63 358.07,1114.61 1895.02,1259.11 2406.2,880.39 181.65,-134.44 352.34,-339.95 512.08,-592.85 8.8,-48.64 19.2,-96.21 44.33,-141.44l39.14 -19.92c-6.47,-27.64 -13.65,-31.77 -1.81,-61.03 5.03,20.82 19.93,5.39 31.05,-0.71l-9.69 -40.93c45.24,6.82 -43.61,-112.72 3.06,-98.9l35.36 0.72c165.49,-249.85 161.72,-620.13 273.53,-917.17 53.31,-61.76 130.14,-80.96 161.55,-153.65l-41.82 -15.8c4.13,-57.44 38.59,1.98 69.64,-47.56l-56.36 0.9 22.79 -107.34 4.84 20.64c10.05,-36.44 11.14,-80.76 -15.25,-91.17 24.95,2.68 40.21,18.66 55.28,-27.28 -60.31,-24.77 -43.44,-94.6 -33.38,-162.09 7.17,5.03 20.63,-17.23 25.31,3.77 -35.01,-168.89 126,-192.76 86.15,-359.15l6.82 4.67c73.77,-89.57 23.51,-158.31 94.42,-262.05l-32.32 -7.72c26.57,-50.98 45.23,-114.33 43.26,-182.9l8.97 11.13 9.88 -43.62 6.99 4.85c-4.3,-21.35 19.4,-55.82 11.86,-98.36l6.45 4.84c21.18,-17.94 21.18,-48.99 15.8,-77.35 10.23,-2.69 23.33,-15.25 36.79,-25.67 -1.62,-103.92 73.6,-162.8 53.67,-243.75l0 0.72 -1.26 -6.81 1.26 6.09c38.59,-118.45 74.66,-250.38 124.56,-365.25 70.91,-257.57 150.6,-293.64 250.21,-526.26 70.19,-281.25 24.95,-437.77 138.74,-617.07 0,0 11.49,-22.26 28.01,-43.62 15.25,-20.82 35.71,-25.85 62.82,-36.79 22.97,-23.52 54.92,-21.54 93.15,-1.26 31.05,-53.13 91.9,-78.97 113.07,8.07 162.08,814.52 553.55,2145.96 1380.62,2289.37 1376.67,241.05 2338.37,-2166.59 2985.23,-4455.6l39.85 -48.64 -25.66 5.03 20.28 -59.06c-2.69,6.47 -5.38,8.26 -7.72,7.73 1.62,-7.01 3.95,-14.73 5.75,-21.55 23.51,-26.56 28.53,-59.4 27.64,-97.64 22.61,-83.64 45.23,-166.74 67.49,-250.02 6.45,-6.1 14.53,-10.23 19.19,-18.85l-15.79 6.28c26.21,-98.18 51.88,-195.82 77.18,-292.91l27.46 -49.01 -14.89 0c0.36,-1.61 1.25,-3.42 1.25,-5.02 20.11,-16.52 44.34,-34.11 43.62,-63.55 3.41,-11.84 -13.46,28.37 -25.3,31.06 -2.34,-65.15 80.04,-117.75 45.22,-154.54 9.87,-36.07 31.41,-29.08 40.2,-19.93 -24.58,-20.99 21.91,-90.81 30.34,-133.71l-30.34 10.41c18.32,-11.31 18.32,-40.74 22.26,-60.31 -6.1,11.84 -12.56,23.51 -25.3,19.93 17.95,-52.41 26.74,-121.16 54.02,-164.05 1.07,3.41 6.82,1.96 11.13,1.96 0.72,-56.71 50.25,-158.3 87.41,-225.79 -15.8,14.54 -34.46,67.85 -40.2,21.18 32.13,-74.31 46.3,-24.95 81.48,-86.7 -11.48,-15.25 -28.71,38.06 -40.56,-4.3l50.61 -50.44 -27.99 -7.71c78.25,-140 12.2,-344.98 121.5,-443.15l32.67 21.17c-25.3,-64.79 30.16,-102.31 -12.74,-158.3l17.23 -7.73 -22.25 -31.41 49.17 -12.91 -28.9 -7.01 23.88 -29.79c-6.82,0 -13.82,-10.41 -22.26,-8.07 60.13,-62.48 -13.82,-68.21 38.42,-132.29 -5.39,5.38 -15.44,15.61 -17.78,8.79 50.98,-70.53 8.07,-100.33 41.82,-182l-24.04 6.82c1.07,-37.51 15.97,-53.12 26.38,-82.38l13.82 22.26 -17.77 -55.46 24.95 -26.57 -14.18 -2.69c45.59,-85.08 5.75,-42.91 51.69,-127.97 -9.52,10.4 -29.8,12.2 -30.52,-13.82 14.54,-15.27 18.67,-84.72 39.85,-124.22 -8.44,16.88 -14.53,-1.96 -16.51,-9.5 0,-0.72 0,-1.62 0,-1.62 7,-22.62 31.77,-42.89 43.25,-27.64l-8.07 36.8c39.49,-42 -21,-42 0.9,-95.67 24.04,11.84 24.04,11.84 36.43,-30.34l-17.23 28.36c-26.21,-17.95 33.74,-113.44 -16.52,-67.12 3.77,-15.27 6.11,-29.8 9.52,-45.06 7,-11.67 16.87,-22.79 21.55,-37.33l12.2 34.46 28.35 -146.64c-13.82,-3.59 -23.69,7.18 -33.03,-0.9l16.88 -28.36 -9.51 11.14c-31.41,-88.14 67.49,-113.09 28,-203.55l24.41 10.77 -9.52 -7.36c22.98,-17.95 4.32,-52.77 27.28,-56.18 -26.2,-10.05 12.93,-82.02 8.8,-126.89 24.59,-8.45 28.36,-13.82 39.49,-56.01 -4.67,-64.44 -14.9,-72.32 -46.84,-102.66 41.82,-50.26 53.3,-142.16 73.58,-195.46 7,0.36 -19.92,-16.51 -33.2,19.02 -14.18,-70.35 63.54,-115.23 38.95,-213.4l24.23 10.04c9.87,-61.38 -55.28,-2.69 -21.9,-72.52l19.92 15.27c17.23,-56.37 17.95,-57.08 22.26,-89.21 -26.03,11.84 0.36,-56.36 -26.03,-24.23l13.82 -35.54 -7.71 -1.25c8.07,-29.8 17.59,-54.03 31.05,-39.5l-13.82 -32.84 33.03 -2.69c2.15,-43.25 -19.93,-14.18 -32.67,-60.31l26.74 -34.82 -7.18 0 23.7 -41.29c-19.04,34.82 -57.08,42.91 -67.32,4.5 12.57,-36.44 52.77,-37.51 44.87,-88.49 -28.89,77.71 -10.76,-88.49 -55.99,-19.57 33.74,-95.84 27.1,-127.61 70,-203.89 -74.67,4.66 17.41,-103.93 14.72,-141.8l-17.23 -7.71c0,0 5.73,-26.04 12.2,-51.7zm-26324.7 -4780.11c-0.36,0 -1.07,-0.54 -1.62,0.72 0.55,-1.26 1.26,-0.72 1.62,-1.62 0,0 0,1.62 0,2.7 0,-1.08 0,-1.8 0,-1.8zm8080.16 16561.48c0,-0.72 0,-0.72 -0.36,-0.72 0.36,0 0.36,0.72 0.36,0.72zm3465.19 -2116.87c-150.59,78.25 -289.7,132.28 -404.75,136.24 271.39,-763.54 1245.65,-1717.88 1604.44,-2066.27 -297.58,804.82 -696.41,1512.37 -1199.69,1930.03z"/>
   <path class="fil0" d="M42207.37 48246.42l-17.59 -7.72c-0.9,30.69 6.82,31.05 17.59,7.72z"/>
   <path class="fil0" d="M72786.64 48672.7c2.68,-35 6.28,-69.82 8.97,-103.92 -11.13,29.79 -22.26,79.33 -22.8,119.54 4.67,-17.96 9.34,-19.21 13.83,-15.62z"/>
   <path class="fil0" d="M72304.89 54671.53c18.13,43.44 36.8,75.92 53.31,17.23l-6.82 -30.51 -21.54 -44.87 -24.95 58.15z"/>
   <path class="fil0" d="M72274.74 54820.32c8.43,-34.46 11.49,-67.12 10.58,-95.49 -12.56,37.88 -18.3,72.88 -10.58,95.49z"/>
   <path class="fil0" d="M72368.25 54686.43c6.47,7.35 11.49,8.43 14.9,-2.51l-8.43 -128.16 -2.34 -37.87c-6.46,17.95 -19.57,45.58 -34.1,77.35l12.74 63.01c6.47,13.28 12.2,22.97 17.23,28.18z"/>
   <path class="fil0" d="M72349.4 52454.32c12.21,-50.61 29.09,-75.57 0.36,-112.35 -17.23,20.45 -3.77,82.02 -0.36,112.35z"/>
   <path class="fil0" d="M17110 56019.12c1.43,0 0.72,-1.08 1.79,-1.98 9.16,1.62 18.14,0 24.59,-10.22 -7.71,6.09 -13.46,6.09 -18.48,4.49 2.33,-7.54 0,-17.23 -1.08,-12.93 -0.36,2.69 -2.69,6.82 -3.05,10.41 -13.82,-8.08 -24.6,-27.64 -45.23,-3.59 7.72,-2.69 25.66,10.05 42.18,11.84 -0.36,0.9 0,1.98 -0.72,1.98z"/>
   <polygon class="fil0" points="16457.92,52282.55 16461.87,52284.17 16473.36,52268.01 "/>
   <path class="fil0" d="M17106.05 57347.51l-3.77 2.33c4.48,2.69 6.46,6.1 1.44,12.02 2.33,-5.02 6.64,-7.35 2.33,-14.35z"/>
   <polygon class="fil0" points="17096.9,57155.99 17098.52,57162.82 17103.72,57152.41 "/>
   <path class="fil0" d="M17131.36 57189.74l-34.82 4.13c5.74,11.12 45.59,13.1 34.82,-4.13z"/>
   <polygon class="fil0" points="17102.28,54685.35 17114.85,54697.19 17103.72,54674.23 "/>
   <path class="fil0" d="M14809.87 35035.79l-9.87 12.56c3.04,6.1 5.74,12.38 9.51,17.23l0.36 -29.79z"/>
   <polygon class="fil0" points="8605.89,42985.64 8588.66,43036.97 8630.83,42948.84 "/>
   <polygon class="fil0" points="19115.95,38541.18 19116.67,38537.76 19091.36,38520.36 "/>
   <path class="fil0" d="M19326.66 37955.15l3.6 -2.69c-6.46,-1.62 -12.74,-4.13 -3.6,2.69z"/>
   <path class="fil0" d="M19452.84 37389.05c8.45,1.61 14.91,1.61 21,1.25l0.55 -1.61 -21.55 0.36z"/>
   <polygon class="fil0" points="19764.43,36190.25 19798.54,36180.92 19799.44,36176.07 "/>
   <path class="fil0" d="M19846.1 35229.27c1.98,-15.61 0.72,-29.79 -6.64,-40.92 -8.61,44.33 -3.41,47.2 6.64,40.92z"/>
   <path class="fil0" d="M17332.93 42178.85l-9.88 -17.77c-6.64,11.31 0.36,15.43 9.88,17.77z"/>
   <path class="fil0" d="M17622.26 41822.75l6.99 -1.08c-2.69,-6.29 -7.71,-12.74 -16.15,-20.47l9.16 21.55z"/>
   <path class="fil0" d="M17201.89 42258.9c-7.71,-13.1 -24.58,-21.55 -40.56,-17.23 15.98,9.51 29.08,14.53 40.56,17.23z"/>
   <path class="fil0" d="M23572.98 52733.42l-34.82 17.59c13.46,8.08 24.06,-1.61 34.82,-17.59z"/>
   <path class="fil0" d="M23764.32 50589.27c-1.62,-17.59 -5.03,-29.79 -13.11,-34.82 3.95,22.97 8.08,31.4 13.11,34.82z"/>
   <polygon class="fil0" points="23703.29,50850.24 23706.7,50841.98 23707.59,50830.86 "/>
   <path class="fil0" d="M23572.27 57799.46l-18.14 -6.47c2.87,19.39 10.41,15.26 18.14,6.47z"/>
   <path class="fil0" d="M23566.88 57046.33l4.31 -8.8c-6.29,-3.4 -13.82,-4.3 -24.24,-3.4l19.93 12.2z"/>
   <path class="fil0" d="M23504.78 58071.56c16.15,-9.87 27.99,-21.36 37.51,-33.39 -13.64,-2.69 -30.16,9.69 -37.51,33.39z"/>
   <path class="fil0" d="M23549.65 56822.87l7.72 -40.21c-7.72,9.52 -12.38,23.34 -7.72,40.21z"/>
   <path class="fil0" d="M80716.57 58034.04l29.61 12.93 -5.74 -19.21c-8.43,-14.36 -16.52,-25.66 -22.61,-27.46l-1.26 33.74z"/>
   <path class="fil0" d="M80807.04 58059.72c-8.45,-1.62 -12.22,1.97 -13.29,6.82 10.95,3.58 17.95,2.68 13.29,-6.82z"/>
   <path class="fil0" d="M80737.04 58018.26l3.4 10.41 12.92 22.6 22.26 9.88c-11.13,-20.64 -23.33,-40.21 -38.58,-42.89z"/>
   <path class="fil0" d="M80603.49 58409.54c13.1,11.3 8.08,-10.24 7.36,-18.68 -11.49,-2.32 -24.23,-11.12 -7.36,18.68z"/>
   <path class="fil0" d="M92263.54 54182.6l21.36 27.47c-2.34,-14.54 18.48,5.03 24.58,-1.8 -3.05,-10.4 -10.05,-25.67 -19.92,-23.15 1.07,-6.82 1.97,-15.62 2.69,-24.77 -10.41,11.13 -19.57,18.67 -28.71,22.25z"/>
   <path class="fil0" d="M88444.58 52669.7c-11.84,-8.07 -15.44,-20.63 -18.85,-33.73 -3.05,14.89 -1.08,28.35 18.85,33.73z"/>
   <polygon class="fil0" points="88430.4,42299.82 88431.48,42299.11 88436.87,42288.33 "/>
   <path class="fil0" d="M88206.94 42301.07l37.86 -31.05c-24.04,3.77 -33.37,16.52 -37.86,31.05z"/>
   <path class="fil0" d="M88410.83 52824.25c-4.66,4.84 -6.82,11.84 -10.4,17.23 9.69,3.05 16.51,2.33 10.4,-17.23z"/>
   <path class="fil0" d="M97117.95 37298.58c-15.62,0.72 -34.11,8.08 -53.66,14.54 22.25,2.33 49.53,7.01 53.66,-14.54z"/>
   <path class="fil0" d="M97038.62 37322.28l26.03 -8.8c-13.29,-1.08 -24.42,-0.72 -26.03,8.8z"/>
   <path class="fil0" d="M87798.78 37683.41l-0.36 -6.46c-0.53,2.69 -0.89,4.12 -1.25,5.01l1.61 1.45z"/>
   <path class="fil0" d="M96643.92 37066.32c-65.51,-20.99 -237.28,34.46 -178.95,22.98l0.36 0c80.05,-17.95 152.21,-34.46 178.59,-22.98z"/>
   <path class="fil0" d="M95514.4 36815.58l70 -21 3.6 -20.64 -77.01 39.85c-23.87,-14.89 -67.48,-32.13 -15.42,8.07 34.99,9.52 32.12,3.06 18.83,-6.28z"/>
   <path class="fil0" d="M97746.16 37974.36c18.48,-39.85 8.07,-50.98 -8.8,-53.67 -4.13,37.51 -8.79,70.9 8.8,53.67z"/>
   <path class="fil0" d="M98051.64 37849.79c-108.94,50.61 -55.28,62.1 0,0z"/>
   <path class="fil0" d="M87864.66 37691.12l-65.88 -7.71c0.73,18.12 -1.61,40.2 -29.97,61.74l95.85 -54.03z"/>
   <path class="fil0" d="M94203.26 37420.1c-13.11,-1.08 -30.34,0.72 -55.65,7.71 23.34,6.83 40.92,1.08 55.65,-7.71z"/>
   <path class="fil0" d="M94090.9 37441.63l-67.49 -13.82c-0.36,4.85 -1.08,9.52 -1.44,15.62l68.93 -1.8z"/>
   <polygon class="fil0" points="93758.66,37578.05 93788.09,37561.17 93779.31,37556.5 "/>
   <path class="fil0" d="M81326.82 56860.02c5.03,-8.8 9.16,-17.95 13.83,-26.74 -0.72,-0.91 -0.72,-0.91 -1.62,-1.62 -3.77,13.1 -6.46,19.92 -12.21,23.69l0 4.67z"/>
   <path class="fil0" d="M81356.62 56802.58c-3.77,5.02 -7.54,9.88 -13.82,13.82 -0.71,3.42 -1.07,8.44 -0.71,14.54 4.66,-9.51 9.69,-19.21 14.53,-28.36z"/>
   <path class="fil0" d="M81339.03 56831.66l-7.18 -6.1c1.43,3.4 -0.9,10.41 7.18,6.1z"/>
   <path class="fil0" d="M81331.85 56823.94c1.79,0 0,-0.71 -3.23,-1.07l3.23 1.97 0 -0.9z"/>
   <polygon class="fil0" points="81328.27,56822.87 81328.62,56822.87 "/>
   <path class="fil0" d="M81313.72 56884.97c3.95,-8.44 8.08,-15.8 12.38,-24.23l-1.6 -2.52 -16.16 23.34 3.59 2.69c0.35,0.72 1.43,0.72 1.79,0.72z"/>
   <path class="fil0" d="M81204.24 57082.05l-0.9 -1.62c-7.72,3.41 -12.92,4.13 0.9,1.62z"/>
   <path class="fil0" d="M79787.54 58653.46l-5.03 -7c-0.36,9.52 -0.36,17.59 5.03,7z"/>
   <path class="fil0" d="M84029.19 55580.27c-17.23,3.95 -4.13,31.77 -0.36,44.16 11.84,-18.14 28.36,-24.95 0.36,-44.16z"/>
   <path class="fil0" d="M81553.7 56400.17c0.36,0 -0.72,0 -0.36,-0.89 0,0.89 -0.36,0.89 -0.36,0.89 0,0 1.08,0.73 0.72,0z"/>
   <path class="fil0" d="M96631.18 48863.14c-1058.26,249.48 -1600.85,1499.61 -2073.08,3559.42 -82.03,70.53 -171.77,148.25 -265.64,230.64 46.48,61.02 46.84,116.84 30.7,161.36 -29.45,77.54 -112.72,126.18 -112.72,127.25l-70.01 41.1c2.69,4.85 4.85,24.05 -0.89,19.57 -26.03,129.76 -215.39,10.59 -243.75,136.41 -30.51,69.64 -79.33,192.41 -161,176.25 -44.33,21.01 -37.51,100.51 -86.87,111.1l-28.01 -17.59c3.06,18.14 7.54,25.68 -2.32,31.77 -1.98,-13.63 -13.82,-16.51 -22.26,-21.72l4.67 28.37c-31.05,-36.98 23.68,87.76 -8.08,47.02l-24.95 -25.66c-131.02,8.79 -152.21,195.99 -250.21,264.56 -41.81,-7.71 -98.54,-51.87 -125.82,-37.52l29.08 37.52c-6.46,25.67 -27.1,-28.36 -52.77,-25.66l40.57 39.3 -22.98 36.98 -2.33 -13.82c-9.16,11.48 -12.57,33.38 5.74,56.71 -17.95,-19.56 -28.36,-37.69 -42.18,-25.66 42.18,54.74 26.57,78.07 14.72,103.74 -4.67,-6.1 -16.15,-5.39 -18.13,-18.66 14.9,108.76 -102.67,6.81 -83.46,118.81l-5.03 -7.36c-58.69,-6.82 -25.66,63.18 -83.46,66.06l23.34 26.38c-22.26,6.82 -39.14,26.03 -42.19,61.74l-5.02 -12.03 -10.05 15.44 -4.84 -6.99c1.79,13.82 -17.23,14.17 -13.82,41.45l-4.67 -6.82c-15.97,-5.73 -17.95,9.52 -15.62,27.47l-25.31 -15.26c6.82,53.66 -52.58,42.54 -37.69,99.26l0 0 0.54 4.3 -0.54 -4.3c-30.15,40.56 -59.41,90.1 -98,120.26 -59.77,95.13 -118.82,61.02 -202.82,117.38 -68.93,99.61 -49.72,215.74 -166.74,218.8 -1.44,1.07 -106.08,20.64 -154.36,-116.49 -18.49,-52.05 -29.08,-124.56 -22.98,-231.19 35.9,14.18 52.77,5.39 61.21,-38.23l-24.41 -23.32c27.82,5.2 24.41,-28.01 32.84,-45.24 -12.92,-33.74 -34.1,-24.95 -36.44,-61.03l36.08 -40.56c10.77,18.31 -5.74,28.36 14.9,47.38 -6.46,-14.53 9.69,-33.56 -11.13,-59.23 -88.85,33.75 -103.38,-293.63 -96.92,-609.18 6.11,-277.48 28.36,-546.17 29.98,-546.17l43.97 -448.72c-5.74,0 -17.24,-43.62 -9.15,-59.05 -24.59,-304.77 55.99,-620.49 118.09,-931.36 39.85,-200.85 72.34,-399.37 64.08,-590.16l0 -6.1c2.16,-345.87 12.21,-939.44 109.85,-1242.6 42.18,-259.18 11.13,-478.87 65.16,-722.97l38.4 -62.46c-8.79,-47.03 -16.5,-50.43 -6.45,-112.72 6.09,35.36 20.64,-3.05 31.41,-21l-12.75 -71.26c47.21,-15.08 -52.05,-184.33 -2.33,-187.38l36.08 -19.92c153.27,-569.51 139.45,-1261.44 257.2,-1882.65 37.16,-95.85 84.72,-163.34 122.95,-242.31 18.48,-39.48 35.71,-80.41 46.84,-131.02l-22.97 -4.66 -20.28 -3.06c2.69,-62.81 15.61,-59.04 31.77,-64.79 12.57,-4.13 27.64,-13.46 41.64,-60.14l-33.92 17.59 -24.95 12.75 25.67 -212.87 5.38 35.72c10.23,-73.59 12.92,-157.95 -15.07,-163.33 26.56,-7.18 42.7,14.71 59.4,-79.69 -62.46,-15.63 -43.62,-155.27 -29.44,-286.29 6.82,4.67 22.62,-43.98 26.39,-6.47 -30.15,-299.37 140.72,-423.95 108.05,-715.61l7.36 4.67c82.75,-204.44 33.75,-307.82 117.38,-536.67l-34.27 0.9c32.31,-108.59 55.99,-234.59 61.38,-363.11l7.35 17.78 14.55 -86.34 6.81 5.03c-2.69,-36.8 26.21,-113.08 20.83,-188.64l7.54 5.38c23.87,-43.61 26.56,-101.23 23.87,-151.31l37.87 -45.59c-9.51,-146.82 81.31,-336.53 62.1,-464.69l-0.71 1.98 -0.36 -12.57 1.07 10.59c47.93,-243.57 97.47,-511.18 164.06,-755.83 107.33,-523.38 201.55,-635.74 358.25,-1122.15 141.98,-566.82 135.34,-846.64 364.9,-1282.07 -0.36,0 14.18,-30.16 36.43,-71.26 -244.82,-178.59 -1534.26,-162.44 -1684.84,166.39 -2232.47,4891.2 -2728.57,11953.86 -2727.31,17091.68 -46.49,56.18 -93.16,114.88 -140,171.95 226.15,111.28 36.79,318.59 38.76,317.87l-57.08 59.06c4.13,3.77 11.14,21.72 3.77,19.02 5.03,132.29 -201.91,67.13 -202.27,192.05 -14.72,73.94 -38.42,202.1 -120.09,202.82 -38.59,29.8 -18.3,104.64 -63.53,124.21l-30.69 -12.03c6.1,17.24 11.84,23.51 3.58,31.05 -4.3,-12.92 -16.15,-13.81 -24.58,-17.23l8.79 26.38c-36.43,-29.79 37.87,80.95 -0.36,47.21l-27.64 -21c-124.56,29.97 -114.69,214.31 -198.88,294.36 -41.81,-1.25 -103.2,-36.07 -126.89,-18.48l34.1 31.94c-2.69,25.31 -31.05,-23.15 -55.28,-17.23l44.87 32.49 -16.15 38.77 -4.49 -13.46c-7,12.57 -7.35,33.38 14.54,54.02 -20.64,-15.79 -33.39,-33.02 -44.51,-19.2 49.18,47.56 36.79,71.97 29.61,98.18 -6.1,-6.11 -16.15,-3.41 -20.45,-15.8 31.22,102.31 -98.01,20.82 -62.83,124.56l-5.74 -5.38c-57.08,0.54 -15.26,63.72 -70.54,73.23l26.56 22.26c-20.28,10.41 -34.1,30.33 -31.05,65.15l-7 -10.4 -6.82 15.42 -6.1 -5.73c3.77,12.2 -14.18,15.61 -7,41.28l-5.39 -6.1c-16.33,-3.41 -15.97,11.84 -10.58,29.25l-26.92 -11.85c15.06,49.73 -44.53,47.03 -21.55,99.98l0.55 -0.9 1.07 3.95 -1.62 -3.05c-21.72,42.18 -42,92.61 -74.3,127.26 -41.64,98.36 -103.39,73.59 -173.93,138.38 -49.18,104.46 -10.05,212.69 -119.18,232.98 -1.08,0.36 -137.3,52.41 -205.15,-175.54 -78.43,226.51 -141.79,536.84 -160.46,34.82 -63.72,-1658.83 -14.91,-3377.77 94.59,-5045.75 5.74,-0.72 11.48,-1.62 16.51,0l-15.25 -26.92c1.07,-6.83 1.07,-15.26 1.43,-23.7l49.36 6.11 -47.38 -24.06c0.36,-13.82 1.43,-27.64 2.15,-41.46l20.1 -7.54 -18.85 -13.82c0.72,-4.31 0.72,-10.05 1.08,-13.82 106.26,-46.48 29.25,-124.93 122.23,-189.36l-82.74 7.72c-11.49,-14.72 -16.88,-29.97 -23.7,-44.15 6.47,-95.85 13.82,-190.08 21,-285.57 40.03,-102.67 85.44,-209.28 54.93,-317.33l64.25 9.15 -71.26 -98.36c54.58,-45.77 53.67,33.92 88.31,21 -25.3,-85.43 -74.13,-61.74 -96.2,-122.23 1.44,-17.23 2.88,-33.75 4.48,-51.69 31.78,-21.54 35.73,37.15 54.39,62.83 -26.02,-110.04 -52.41,-271.4 -11.12,-344.98 -7.19,-1.98 -14.18,-3.41 -19.03,-3.41 7.18,-79.88 13.64,-158.67 21,-238.18 13.46,8.97 19.56,21.53 22.97,36.08 5.75,-28.01 29.26,-65.16 0,-92.26l54.03 34.82c14.89,-59.77 -28.72,-180.93 37.69,-189.36 -24.95,5.74 -74.13,-1.07 -67.48,-54.03 101.05,-20.64 -32.31,-145.2 26.38,-224.89 22.98,11.84 23.87,73.58 26.03,56.71 29.25,-40.38 -14.91,-81.67 -43.26,-121.15l39.49 14.54 -30.69 -144.13c2.32,-22.26 4.66,-43.62 6.81,-65.15 65.15,-38.06 -14.9,-175.19 50.8,-157.96 5.74,-45.59 -17.42,-7.53 -35,-1.07 3.77,-35 7,-68.74 10.4,-101.95 5.03,-1.97 9.52,-5.74 21,-3.41l7.01 9.51 -0.9 -61.74 61.03 44.51c-7.72,-39.48 -41.46,-72.87 -78.26,-91.53 5.39,-46.85 10.41,-93.17 15.44,-140.36 5.56,-4.13 9.5,-10.78 18.3,-13.47l14.18 20.82c-15.61,-143.76 191.69,-218.08 91.72,-339.23 9.16,-7 25.67,-4.31 23.34,12.92l10.4 -86.87 46.31 25.67 -62.82 -151.85 32.48 5.39c20.29,-94.24 14.91,-244.65 14.91,-367.6l13.82 19.93c-39.49,-138.38 41.46,-126 13.46,-227.23 8.07,4.13 11.48,7.71 12.92,11.84l5.75 -88.12 30.33 22.97c-64.25,-72.69 106.25,-176.26 44.15,-142.51 -27.64,-40.21 -59.76,-107.69 -98.9,-122.24 5.03,-96.73 43.62,-19.19 76.28,-75.56 9.52,-68.56 -45.23,-87.04 -8.07,-177.51l31.77 5.75c-1.08,-44.34 -22.25,-74.32 -21.36,-136.06l13.46 19.93c-59.05,-107.33 106.8,-113.08 -27.64,-207.67 29.79,-38.77 17.23,-119.9 81.48,-108.41 -30.15,-128.88 -40.55,-227.77 -54.73,-353.41 108.59,-6.47 -4.13,-27.64 64.07,-94.24l-57.43 -1.61c9.87,-174.82 171.23,-355.21 168.54,-548.87l57.43 2.33 -58.15 -46.49c48.64,-201.91 101.05,-463.25 121.51,-625.33 -22.97,-58.33 -81.67,-150.05 -50.98,-231.18l6.82 9.51c-8.43,-87.76 -11.48,-178.59 -4.12,-268.15 5.38,-37.33 11.12,-73.59 16.34,-110.56 6.63,-29.08 12.74,-58.52 23.15,-88.13 22.61,13.82 41.64,0.9 54.37,21.53 -57.61,-48.64 9.52,-94.59 15.99,-128.86l-48.29 33.37c-10.59,-12.2 -14.17,-24.76 -15.62,-35.89 1.09,-7.72 2.34,-15.43 3.77,-22.8 9.16,-32.12 41.47,-58.51 69.83,-68.56l-47.93 -77.36c0.36,-2.69 0.72,-5.03 1.08,-6.99 6.1,-2.88 13.46,-7.54 21.17,-7.18l-18.48 -11.86c0.36,-3.04 1.25,-6.64 1.62,-9.69l68.56 -21.36c-10.05,-15.25 -15.26,-75.92 -46.84,-122.58 3.94,-23.88 7.36,-47.21 11.13,-70.9 5.37,0 9.69,4.49 11.66,20.28l60.84 -257.2 -32.66 36.07c-3.41,-0.89 -5.74,-3.95 -8.62,-4.3 5.21,-31.41 9.52,-60.86 14,-91.91 22.8,-3.58 46.13,-17.59 70.55,-25.3 -20.29,-33.39 -43.62,-1.62 -66.23,0 10.76,-69.47 20.99,-138.03 31.76,-205.15 26.21,-19.21 56.72,-36.8 59.77,-69.28 -27.28,-46.13 -8.79,-74.32 -35.18,-90.47 2.7,-16.16 5.03,-31.94 7.71,-48.28 11.14,3.05 21.01,3.77 24.42,-3.06 -39.84,-45.58 7.72,-147.35 59.41,-149.86 -131.39,-72.16 75.57,-189.01 -23.69,-233.88 0.72,-2.33 0.72,-5.02 1.43,-7.18l72.15 -43.44c-15.42,-4.12 -39.48,-14.17 -61.38,-28.71 4.67,-28.36 9.16,-58.16 13.46,-85.8 27.64,-1.97 54.75,4.13 75.93,0.36l-70.18 -37.51c7.71,-45.59 13.82,-87.77 20.64,-131.92 115.05,-238.72 128.16,-554.26 276.77,-781.13 5.38,-137.13 -7.72,-319.67 46.85,-462.54l10.58 20.64 70.18 -133.71 -81.31 87.4c-5.38,-36.07 -21,-68.38 -10.95,-98.54 23.7,-38.41 49.37,-81.3 74.32,-126.54 3.05,-14.89 0,33.39 32.48,-129.95 9.16,-64.61 15.25,-105.71 14.54,-190.07 -2.15,-97.28 -18.67,-199.95 -48.64,-293.1 -145.21,-440.11 -481.02,-561.27 -560.71,-586.57 -123.5,-38.23 -184.34,-38.59 -236.03,-43.61 -54.92,-2.69 -87.42,-1.62 -121.88,0 -124.56,7 -197.07,23.69 -266.9,44.87 -68.2,21.53 -126.72,50.25 -178.94,86.33 -100.69,201.21 -134.08,-99.43 -234.96,61.21 7.01,-18.31 5.03,-41.11 10.42,-59.78 -69.46,57.44 -114.16,97.83 -171.77,152.21l-441.54 415.87 -14.18 98.73c-17.95,120.79 -8.08,193.67 7.72,290.23 -129.59,-58.7 -22.62,114.51 -89.21,78.61l51.7 28.72c-41.46,28.35 -71.08,111.1 -107.7,88.13l54.74 88.12 -57.43 -7.71c-22.62,93.15 -10.77,297.41 -132.64,318.94 46.31,241.78 -33.03,580.65 -95.49,848.98 40.56,47.56 32.67,127.97 28.36,190.8l-77.35 53.3c11.48,67.49 87.04,149.88 35.17,200.85 -8.08,-2.33 -12.92,-5.75 -16.34,-10.41 4.85,66.77 -40.02,120.79 14.01,192.05 -13.29,69.46 -58.88,131.03 -118.64,98.19 111.1,27.09 -36.8,145.73 -36.8,145.73 -8.61,-0.53 -500.59,2371.57 -409.77,3755.6 -13.46,84.36 -26.92,167.82 -39.84,252.54 -281.08,-85.44 -781.49,-145.2 -1405.21,145.56 -1670.67,779.34 -2657.85,2807.19 -3127.03,4646.22 -668.05,1644.81 -1410.06,3265.05 -1786.8,2696.98 -506.7,-763.01 405.1,-4432.81 484.8,-6300.55 18.12,-427.01 -759.24,-210.19 -1012.67,35.18 -597.15,579.56 -1767.59,3861.84 -3351.57,6903.98 -498.97,803.2 -747.74,672.53 -724.41,19.56 24.05,-686.54 257.92,-1915.31 409.59,-3087.36 253.08,-1615.92 190.07,-2143.98 88.67,-2231.39 -0.36,-1.44 -0.36,-3.4 -0.72,-5.02 -14.18,-9.52 -30.33,-17.95 -47.57,-25.67 -326.12,-170.15 -811.1,218.43 -892.77,343.9 -380.87,584.4 -1133.64,1356.74 -2471.18,5224.34 4.84,4.66 10.23,6.81 15.62,2.69 -29.44,117.57 -50.97,124.57 -73.24,244.46 81.31,-157.05 -13.81,29.62 6.83,94.59 -35.9,134.62 -25.49,20.83 -47.75,62.46 -3.41,24.24 -11.84,92.43 -8.43,113.62 7.18,-4.67 16.87,-17.23 32.12,-49.18 -21,54.93 -29.07,62.64 -32.12,49.18 -19.21,11.84 -16.16,-58.69 -17.78,-118.82 0,-11.13 -0.71,-21.9 -1.07,-31.41 -2.7,-47.21 -8.79,-81.67 -24.95,-78.26 -12.93,5.03 -37.15,31.05 -55.1,44.87 -18.85,14.9 -32.67,18.85 -34.46,19.57l2.69 131.02c2.34,55.28 6.47,121.88 9.87,150.95 0.72,8.98 2.33,16.52 3.05,25.3 8.44,64.44 22.26,118.47 41.83,131.93 0,50.62 -50.26,25.67 -68.21,47.57 -29.97,7.71 -50.26,50.61 -78.61,81.12 -24.24,38.78 -87.78,41.11 -105.01,0 13.82,5.03 30.33,15.44 58.69,11.14 -12.74,-0.72 -28,-14.54 -43.79,-29.8 -26.38,-27.64 -51.34,-62.46 -59.05,-58.69 5.39,-25.67 46.49,-40.93 37.69,-101.24 -16.52,-69.28 -34.82,-113.08 -56,-145.56 -5.39,-7.71 -9.69,-19.57 -15.79,-25.66 -26.75,-29.62 -56.72,-43.26 -71.26,-7.01 24.95,97.11 56.36,155.26 86.69,200.85 5.02,7.71 10.24,16.87 15.26,23.87 -1.8,11.49 -6.47,13.82 -12.56,11.49 -9.16,-1.97 -21.19,-15.79 -33.75,-32.31 -21.9,-27.1 -42.54,-70 -55.1,-27.99 -24.59,-111.47 -36.97,-259.01 -44.87,-404.21 5.2,55.82 29.43,197.25 38.59,112.53 -16.87,-163.15 -3.77,-93.87 2.69,-216.45 21.18,69.45 57.07,132.27 91.18,162.07 5.03,4.31 10.05,9.51 14.53,13.11 37.35,29.07 78.62,-17.95 100.88,-62.46 -9.52,-7.01 -19.21,-17.96 -28.36,-33.75l14.18 -63.36c-15.26,-25.67 -54.03,-25.67 -93.88,-57.8 -2.32,-2.33 -3.77,-4.13 -5.73,-6.46 -37.7,-29.61 -75.93,-76.64 -92.8,-103.92 2.69,-147.9 72.15,-94.23 85.43,-76.64 -2.68,-200.49 -100.69,-193.49 -93.32,-393.62l-13.82 75.21c-7.37,-48.11 5.73,-218.62 -7.01,-200.49 17.95,-39.49 60.13,-75.57 71.62,-31.77l-62.82 -176.08c6.45,25.67 60.67,9.33 70.17,19.92 2.34,-69.64 -61.38,-120.25 -70.53,-75.74 40.2,-138.02 18.31,-103.92 65.87,-214.66 -3.41,-41.11 -57.44,2.68 -63.9,32.13 -13.11,-92.62 -5.38,-146.83 1.08,-190.09l-0.73 -5.02 1.98 -1.43c7.18,-47.57 11.86,-83.65 -17.4,-147.54l88.48 99.97 -71.08 47.57 -1.25 6.45c17.23,125.65 87.41,74.67 134.61,69.83 9.88,-1.62 19.74,-1.62 26.75,4.13l-25.31 -54.75 -129.05 -277.13c9.15,11.14 60.48,38.59 66.23,37.52 -47.57,-29.08 -43.8,-404.75 -29.98,-588.01l-0.35 27.64c15.08,38.06 33.74,-119.17 19.2,-184.32 9.15,11.12 5.74,25.66 5.38,53.3 40.57,-120.26 -66.76,-161.72 -19.55,-284.3 -8.8,112.53 10.05,135.51 28.71,130.66 -13.46,-93.52 14.18,-307.46 -44.34,-265.28 14.37,-58.69 9.52,-112.72 37.88,-106.26l-22.98 -229.39c4.48,17.23 20.64,32.14 27.46,-33.37 -13.27,127.25 34.29,253.25 -5.74,318.4 35,5.39 55.28,-41.46 82.02,20.64 -6.09,-246.44 -59.4,-384.82 -91.53,-542.59l35.71 -215.03 -15.43 -10.41 41.82 -35.17c-8.07,-27.64 -14.54,-44.87 -10.77,-51.51 3.95,-4.13 8.79,2.87 14.18,13.82 -0.72,-22.44 -3.41,-43.26 -6.82,-54.39 -5.38,1.08 -10.41,3.41 -15.44,11.48 6.29,-24.77 11.14,-23.32 15.44,-11.48 21.36,-6.82 43.62,32.67 63.53,74.85l8.45 -18.14c-21.01,-105.35 -46.67,-225.79 -78.62,-135.32l-20.28 83.27c7.35,-38.05 13.82,-65.15 20.28,-83.27l30.33 -124.39c-31.4,-151.12 -24.77,-124.75 -44.33,-307.46 14.53,-9.15 23.69,40.21 35.53,8.44 -37.5,-135.34 70.9,-317.34 33.03,-348.39 -3.05,-106.97 -31.41,-47.21 -39.12,-115.77 4.49,3.41 13.1,11.12 14.89,-9.16l-24.05 -82.56c12.57,-30.88 15.61,75.56 33.2,-13.64 -11.84,-156.52 -20.63,-248.77 1.26,-376.75 5.03,-184.33 -62.1,73.95 -46.85,-80.22 25.32,-21.72 54.03,-38.95 64.44,-136.06 -13.46,-52.41 -32.12,-47.2 -36.44,-134.79l35.72 8.43c3.77,-80.58 1.08,-145.74 28,-144.13 -10.41,-67.48 -5.02,-112.36 3.41,-146.46 -10.76,-123.84 -78.97,84 -95.48,110.75 35.36,-117.56 25.67,-201.93 73.23,-266.36l2.69 106.61c59.77,-222.38 -36.43,-218.97 47.2,-317.33 -8.43,77 4.49,172.13 27.47,128.33l-11.13 -114.69c10.77,-12.2 2.33,65.15 17.05,15.08 -5.38,-33.39 -19.57,-100.88 -29.26,-130.31l-10.77 -9.33c1.62,-12.93 5.75,-6.11 10.77,9.33l1.98 1.08 8.44 -203.54c-4.31,38.77 8.43,49.17 12.2,10.41l-8.8 -134.08c6.11,41.29 20.28,0.36 30.33,-58.33 23.34,-171.42 -71.07,-145.75 -24.58,-275.15 -2.34,18.84 2.33,22.97 0,42.53l21.17 -66.77c-75.2,-22.25 22.09,-404.38 -52.58,-426.46 38.23,-94.41 19.21,-5.03 45.23,124.03l29.8 -101.95c-0.36,42.9 -8.8,77.54 -4.49,122.76 42.18,-133 11.49,-264.91 -2.33,-340.66 14.53,-50.62 54.02,46.66 52.41,-102.84 1.97,-211.26 -58.52,34.1 -57.8,-92.62l46.84 -87.59c-17.23,-162.43 19.57,-280.36 35.18,-415.34 -0.36,-30.69 -3.41,-46.48 -6.82,-54.56l-1.25 5.02 -3.77 -9.86c-11.49,-7.73 -26.92,26.38 -20.28,-53.67l20.28 53.67c1.43,1.07 3.41,2.32 5.02,4.84 28.37,-142.16 -14.18,-305.49 7.9,-413.18 5.75,26.56 29.97,-58.87 40.74,-71.08l-8.43 -198.69c3.41,87.41 26.39,86.69 47.21,104.28 2.5,-61.38 -7.36,-91.54 -6.64,-133 5.73,26.21 11.48,52.6 24.58,21.55l-19.92 -210.19c-5.02,12.39 -8.43,35.72 -10.77,54.92 3.77,-50.97 -0.72,-164.05 23.7,-235.3 8.61,7.71 14.35,33.75 22.61,40.56 -29.79,59.06 -12.21,96.56 2.33,130.31 8.44,-142.15 8.98,-34.83 30.69,-101.23 7.72,-99.61 -18.3,-144.13 -40.21,-119.9 18.68,-112 27.65,-147.54 15.27,-265.1l28.9 24.77 -0.55 -106.98 29.98 90.47c39.12,-201.21 -49.9,-43.62 -12.2,-267.44l27.09 2.69c-2.33,-88.49 -45.22,-123.12 -6.99,-187.03 -8.26,-86.68 -50.8,139.83 -38.95,-59.05 17.59,-33.74 34.46,-107.34 45.23,-163.69 -5.39,-54.39 -27.28,13.82 -34.11,61.38 18.67,-265.64 106.44,-159.02 96.21,-421.97 -28,89.21 -44.87,-82.03 -64.44,134.08 -6.45,-105.01 57.97,-198.52 38.42,-310.52l28.17 74.85c3.95,-38.41 -4.49,-83.99 -6.45,-105.35l26.02 11.84c-33.92,-138.75 45.77,-245.01 -7.9,-331.52 42.9,60.85 6.46,-99.79 30.69,-149.87 23.34,113.44 -31.58,313.92 11.85,333.85 18.31,-49.54 1.08,-97.82 18.67,-145.39 -3.05,-32.84 -3.05,-51.33 2.69,-8.26l-2.69 8.26c3.22,35.37 10.41,86.7 18.12,100.88 40.93,-165.31 -1.97,-267.44 -3.4,-371l-7.01 181.63c-42.89,-20.27 0.36,-82.01 -29.97,-137.48 32.67,-86.69 5.03,-161.72 26.92,-233.52 -1.97,19.57 2.33,21.55 0,40.93 18.32,-196.54 96.21,-242.14 105.36,-319.85 13.46,-75.92 3.41,-224.36 -20.28,-174.82 -6.1,-64.08 -13.1,263.31 -59.41,143.77 78.26,-103.93 -1.62,-234.24 68.93,-472.59 12.38,110.02 43.79,-57.97 51.86,39.49 6.47,-117.03 -2.69,-122.42 -16.15,-176.79l24.23 -32.14c-30.33,-158.66 -37.34,-41.46 -38.05,-275.33 8.08,79.87 39.85,-88.49 47.92,-27.46 8.44,-63.18 8.44,-126.54 1.08,-175.18l2.33 8.79c14.18,-234.23 46.32,-186.66 46.32,-402.41l-14.37 19.57c-3.22,-282.88 57.8,-631.26 76.11,-921.13l-22.26 99.79c10.05,-29.97 2.87,-195.82 33.03,-283.23 -1.08,18.31 1.26,50.26 -2.7,66.24 14.54,-0.36 39.13,-31.78 50.62,-100.35l-17.95 -29.96 19.93 -25.31c12.91,-105.37 -34.11,26.03 -21.55,-78.98 68.75,-52.05 63.36,-452.3 128.87,-534.16 -35.35,-78.61 -31.05,198.52 -61.74,112.91 10.77,-30.52 20.64,-43.98 33.03,-111.46l-29.62 19.2c55.28,-316.26 93.51,-433.82 125.82,-717.59l4.13 12.39c23.7,-98.9 26.38,-154 9.51,-203.19 15.44,-18.85 12.03,55.11 28.37,17.78 -43.62,-189.9 98.89,-345.52 67.48,-462.01 3.95,1.98 7.72,0 11.85,-1.08 52.94,-480.66 104.63,-945.18 155.25,-1387.44 147.18,-39.48 301.18,-88.66 416.6,-157.58 180.92,-227.95 259.54,-114.16 410.66,-117.93 273.9,-96.39 0,0 358.97,-74.12l316.98 22.26 222.02 -255.24c2.7,20.28 17.59,28 5.21,41.46 48.82,43.62 128.51,-1.97 206.23,-48.82 26.93,-86.87 82.57,-172.66 141.8,-162.43l1.98 20.64 60.12 -65.88c22.62,68.92 93.15,86.16 115.77,154.91 302.08,-94.77 412.1,-127.62 734.28,-174.11 -16.69,87.77 223.1,-78.61 186.31,77.18 179.84,-100.87 -52.41,-105.18 15.08,-225.43 53.12,-11.14 101.59,-64.08 121.16,-14.91 -18.85,40.21 58.86,73.6 18.66,97.65l124.92 -40.92c13.82,7.54 -10.22,33.56 -22.61,46.3 244.1,-140.17 475.63,-15.8 693,-149.88 8.07,-55.09 -95.13,6.47 -87.06,-47.92 210.54,-152.56 223.47,32.31 414.44,-73.94 3.06,1.98 5.38,4.66 7.9,6.46l-27.46 67.48c17.23,-17.95 31.41,-34.82 45.05,-51.68 3.59,1.97 3.95,4.12 7,6.09l29.07 -41.1c13.82,-9.51 28.73,-16.68 47.93,-19.92l16.87 26.92 -60.84 15.8c42.53,45.94 57.43,-3.95 76.99,-41.1l1.08 0c9.69,28 22.98,46.3 38.42,54.92 -25.32,35.18 -94.24,52.77 -129.6,89.92 62.82,-12.2 195.47,-56.35 215.39,-104.27 1.25,0.89 1.25,1.96 2.69,2.32 8.08,-17.23 6.1,-32.84 2.33,-47.02 28,-10.77 51.69,-12.74 73.24,-7.71 -2.34,6.45 -4.32,12.91 -9.33,18.3 5.56,-7.18 12.37,-11.85 18.83,-16.34 34.11,10.6 63.01,31.77 93.16,37.88 -1.44,-16.52 -59.77,-28.72 -62.11,-57.44 15.27,-7.72 29.98,-17.05 40.21,-31.05 20.46,-1.61 43.44,-5.74 71.44,-13.47 34.82,-4.12 67.3,-18.3 75.74,52.6 7.36,-26.56 45.59,-87.95 77.54,-105.54 2.15,-0.36 4.13,-1.07 6.11,-1.79 -39.13,138.74 127.61,-16.87 131.38,127.97 28.36,-127.61 156.16,-82.93 227.23,-163.33 -2.87,9.87 -9.16,31.05 -16.7,26.02 46.32,1.97 64.27,35.36 96.93,52.95 -8.44,-99.98 59.05,-135.34 88.84,-202.64 68.75,85.43 -17.59,122.05 12.39,210.71 -13.82,-79.69 85.08,-97.28 57.44,-160.64 50.26,51.88 40.21,22.26 73.22,100.52 -9.69,-124.92 36.8,-28 62.11,-110.38 69.28,50.97 30.87,113.79 93.52,64.25 37.15,32.31 -16.88,86.34 -16.88,86.34 68.93,-10.05 19.93,-96.92 27.1,-152.57 78.63,-41.1 47.21,61.74 81.67,104.64 47.92,-33.38 75.93,-125.64 114.69,-128.87 4.49,14.72 12.93,18.84 6.83,39.84 43.79,-82.74 158.3,-32.13 209.64,-132.99 0.9,-0.73 1.61,-1.09 1.97,-1.45 5.38,7.73 8.79,14.55 10.77,21.55 -2.7,-8.08 -4.3,-16.16 -6.64,-24.23 24.23,-22.62 -33.39,-24.05 42.89,-34.46 -11.84,6.09 -23.69,13.46 -20.28,39.48 18.13,-11.48 36.8,-27.64 55.29,-43.79 24.94,-3.06 59.05,-6.83 102.67,-10.96 -27.11,18.68 -67.13,17.59 -17.59,60.5l-79.34 -19.57c75.02,125.65 -46.48,-1.98 25.31,134.08 101.22,8.07 103.74,-62.46 205.33,-53.49 15.79,-51.87 -16.87,-69.82 -0.72,-121.16 128.34,-108.95 138.03,197.63 225.79,66.24 19.21,-61.75 15.27,-171.77 95.85,-126.55l-12.38 101.24c96.21,-6.47 36.43,-148.62 144.49,-99.98 -12.57,41.29 -70.9,44.34 -54.75,53.68 74.31,65.87 38.77,-62.46 88.5,-70.55l21.17 83.82c99.62,-29.79 203.9,-109.84 313.93,-144.13 -2.7,26.57 -18.49,56.37 10.58,78.26 60.31,-29.07 126.18,-37.87 193.67,-38.23l153.64 19.03c-1.26,-3.05 -1.43,-5.21 -2.33,-8.8 34.82,5.75 69.82,12.75 102.31,18.85l43.07 -82.38c12.56,-1.26 26.75,29.79 15.62,46.3 56.72,19.57 -3.06,-47.56 18.85,-80.76 29.43,-10.05 45.22,36.25 29.07,61.55 15.26,-14.17 34.1,-28.71 54.03,-43.25 -21.36,56 -29.79,106.61 -29.79,106.61 78.97,-57.97 113.79,-113.07 124.37,-162.97 72.52,-34.46 150.42,-50.25 211.26,-14.9l-15.97 24.95c80.77,18.31 68.21,-165.66 148.26,-107.69l-12.39 15.25c171.77,5.39 348.92,-90.81 490.37,1.08 11.12,-108.76 165.12,16.15 163.5,-122.23 6.28,1.62 12.03,2.34 18.14,3.95 83.46,52.05 71.96,81.49 203.89,108.41 37.16,1.62 42.89,-101.23 85.08,-123.84l10.77 77.9 50.61 -91.19 43.61 88.49 39.14 -26.03c-16.88,-2.33 -39.5,-29.97 -39.5,-52.58 60.86,-45.24 165.49,29.79 171.6,69.81l123.12 -75.2c5.03,3.05 9.88,5.75 14.91,9.16 -8.44,16.5 -21.36,30.33 -33.75,46.12 73.23,-92.08 24.59,80.06 91.72,-4.3 -12.38,-16.16 0,-47.93 0,-63.54 42.89,41.63 128.69,29.07 189.71,-0.36l-5.74 55.45c116.13,-3.04 238.36,-62.1 366.69,-80.04 -47.56,-17.77 -48.28,-107.69 -14.18,-125.47 0.72,-0.17 1.62,-0.17 1.98,-0.17l17.59 57.07 -20.28 24.41c9.16,-3.41 16.51,-5.2 25.3,-8.79l1.45 5.38c1.6,-2.69 0,-3.41 0.89,-6.09 10.95,-4.32 22.98,-8.8 33.21,-11.5 -2.7,16.87 -7.18,32.49 -15.27,42.91l55.29 -37.52c6.1,24.05 -6.29,39.12 -6.29,71.26 18.49,-54.75 110.4,67.84 134.98,-26.39l6.11 23.7c128.33,-17.95 183.25,-54.75 287.54,-74.32 -5.75,-71.79 36.61,-61.74 61.55,-124.2 79.52,11.84 171.06,55.64 263.31,36.07 61.03,-45.23 12.03,-63.35 36.8,-110.02 12.03,63.9 103.93,44.34 61.03,98.9 93.15,-23.16 133,-33.75 223.46,-79.87 45.59,-15.62 83.1,-17.96 73.95,18.84l4.66 -45.59c147.54,-116.48 384.28,138.38 494.67,-14.53l-6.46 8.07 122.23 -88.49c1.26,0 1.26,-0.53 1.62,-0.53 58.69,3.41 -31.05,54.03 17.23,87.77 126.54,-125.29 220.4,-21 325.77,-98.9 8.43,16.87 21.89,28.89 42.17,34.1 114.88,95.13 294.72,-84.72 415.52,10.77l-8.61 -31.05c35.71,26.02 71.43,61.74 79.5,120.43 81.14,-43.43 255.96,26.03 298.49,-68.56 -147.9,-69.46 -136.76,106.44 -311.23,-2.87l41.11 -95.31c115.59,-2.33 261.69,-58.69 343.36,-30.7 -1.98,-1.43 -2.34,-5.02 -4.31,-7.35 141.08,10.41 284.13,33.39 422.51,37.33 32.84,0 47.92,-26.92 57.44,-58.69l63.18 -12.74c0,4.67 0.36,10.4 0.89,15.08 5.21,-33.39 18.32,-47.57 35.91,-52.96l-15.27 49c28.01,-18.66 57.08,-31.41 86.16,-41.99 41.82,10.58 89.39,23.33 136.59,4.85 84.18,-5.75 143.23,-27.65 190.79,-57.8 63.18,-8.8 125.28,-22.98 184.34,-56.73 -10.05,20.29 -8.08,45.96 -27.64,47.93 46.84,56 152.92,-13.46 149.87,-63.18 31.05,2.15 10.77,43.98 31.4,67.3 7.01,5.04 14.55,5.75 22.27,4.32 3.77,17.59 1.97,34.1 -8.79,45.59 74.66,-21.9 52.58,-37.52 30.33,-55.28 31.77,-21.36 62.1,-63.91 80.41,-24.06 4.3,10.24 -10.41,21 -17.59,26.39 20.64,-26.93 90.1,-14.54 95.84,-49.01l31.77 0.72c-3.41,-8.07 -7,-15.43 -11.12,-21.89 65.15,9.33 121.5,-41.29 175.17,-6.82 14.54,-38.05 42.9,-34.11 70.55,-30.7 -4.68,11.49 -14.19,19.93 -42.55,19.57 40.57,16.51 98.54,19.93 136.41,-8.08 42.18,28.72 118.46,3.05 149.88,-37.86 -14.19,36.42 42.53,32.84 26.38,82.74 54.03,-6.11 101.23,-29.98 89.02,-88.49 76.29,97.28 143.59,-14.18 199.23,-10.77 0,2.33 -1.43,3.77 -1.07,6.45 2.69,-2.68 3.05,-4.48 5.03,-7.17 18.3,3.05 35.18,19.39 50.43,62.46 111.64,-49.9 217.36,-85.08 321.28,-114.69 1.98,12.74 3.41,25.67 5.75,41.1 -20.64,8.08 -36.08,22.98 -33.03,62.1 13.46,-5.02 24.23,-11.48 36.8,-18.48 3.05,47.92 1.61,92.43 -13.82,102.67 49.53,-35.18 42.17,-96.57 69.45,-130.31 11.86,-6.82 22.98,-13.46 35.18,-21 7.73,-1.62 16.16,-3.41 26.93,-3.05 -60.67,103.38 122.95,-77.54 34.82,47.56 61.74,68.92 229.2,70.53 327.38,44.87 -2.33,2.15 -4.66,4.49 -6.63,6.46 177.87,-45.58 229.2,-182.9 350.35,-203.9 7.01,17.95 6.47,46.32 -10.77,97.65 15.8,-9.52 35.37,-34.1 31.77,-69.28 23.15,9.86 30.34,30.51 7,70.53 84.72,-28.36 54.74,-84 131.57,-82.56 -0.54,24.95 -15.8,35.35 -23.87,64.8 32.48,-40.57 65.87,-79.7 113.43,-79.7 8.07,9.7 17.59,18.13 27.28,26.93 -1.62,6.45 -4.3,11.12 -13.46,10.77 6.82,0 13.46,-1.98 20.29,-3.24 65.87,58.34 165.66,102.49 274.43,91 16.87,-49.89 -103.03,-95.85 -82.38,-171.77 31.05,-9.15 64.43,-11.12 101.59,4.49 -2.7,8.61 -3.96,14.36 -5.39,20.46 -20.64,15.26 -16.16,14.54 -1.08,4.48 -15.79,70.9 48.64,21.19 52.77,107.7l66.78 -26.75 -25.68 -47.2c23.7,1.26 47.04,-9.87 69.29,-21 17.94,8.8 34.46,17.23 49.54,22.98l-3.95 3.05 8.98 -0.72c20.1,6.82 37.14,6.82 50.96,-7.72l37.34 -5.38 101.77 125.46 -48.47 -64.79c14.37,-40.75 104.82,-59.05 154.55,-74.13 -1.62,13.46 -2.34,25.66 -0.36,31.94 22.97,-59.41 88.48,-39.12 135.33,-61.38 9.87,0 18.66,1.97 27.11,3.41 -1.08,16.15 -1.08,31.41 0.89,36.44l14.18 -34.47c12.56,3.06 24.41,8.45 35.54,14.54 0.72,8.08 1.97,14.9 0.36,27.64 18.84,3.41 26.92,-1.97 30.69,-10.41 17.23,13.1 34.46,28.36 53.3,45.59 -14.53,-27.1 -43.25,-76.64 -34.46,-112.18 5.75,1.8 12.57,4.49 22.26,10.24 -7.35,5.02 -4.3,15.07 -20.45,24.58 32.3,10.05 63.35,8.45 94.05,4.49 25.66,20.46 61.91,26.21 96.92,29.98l-41.47 14.17 32.67 42.19 16.51 -55.1c27.47,3.05 51.7,6.45 67.67,14.89 -20.28,13.28 -60.49,-3.05 -41.99,52.41 11.84,-1.07 24.04,-5.39 36.42,-7.18 -5.92,9.52 -7.35,25.67 -3.05,53.31 17.23,-26.2 24.06,-44.15 26.75,-59.06 7.18,-1.61 14.89,-2.68 21.89,-4.66 45.24,9.15 103.39,42.18 109.85,-17.95l-10.23 103.75c13.47,-136.77 159.39,-132.46 281.25,-149.33 6.65,4.48 13.47,8.25 19.93,9.86 -22.25,168.37 140.36,-16.87 187.39,159.03 22.25,-104.64 147.18,-72.69 212.69,-109.13 32.31,3.41 65.16,5.75 91,14.54 4.13,-7.72 9.15,-13.82 13.82,-18.49 20.29,39.49 22.44,94.77 36.26,121.52l46.84 -48.64c45.59,62.45 224.54,88.66 328.83,139.45l104.99 -109.12 34.1 55.99c17.59,-28.88 100.88,-39.12 52.6,-87.4l52.41 11.48c12.02,-128.51 77.35,-29.25 188.99,-75.56 24.24,22.98 15.27,53.31 -9.14,67.85 53.3,6.09 27.09,-39.13 53.3,6.09 -11.49,-11.48 6.82,-26.73 30.51,-43.96 11.49,7.18 22.61,6.1 40.75,14.17l-3.59 -1.97 82.92 43.62 -20.46 -23.34c75.56,-172.48 130.84,-22.25 224,-129.59 -91,101.95 -18.13,62.1 -30.33,138.75 20.28,23.87 51.33,50.25 40.2,71.79 33.74,-44.15 52.23,9.15 87.05,2.34 7.54,2.15 17.59,4.13 32.85,3.41 -10.95,-1.26 -18.67,-4.31 -27.47,-6.65 9.88,-3.77 20.64,-11.48 33.39,-28.71 0.36,0 1.07,0 1.44,0.35 1.61,23.16 41.82,6.64 28,66.78 46.85,-11.86 7.71,-36.8 0.72,-63.19 8.43,1.09 13.46,3.41 24.23,3.41 -14.54,102.67 0,0 116.48,45.6l-33.38 -33.03c25.67,8.07 49.9,21.18 57.97,49.9 -16.51,-22.62 -23.87,-40.21 -25.3,-55.65 48.64,26.39 101.95,47.93 162.43,-3.05 50.62,-17.23 82.39,-45.23 112.72,-73.23 5.39,48.29 109.13,97.47 91.18,149.52 44.16,-24.05 -84,-88.13 -23.33,-119.9 68.56,1.43 113.07,71.25 147.89,108.76l-29.43 15.44 100.33 59.41c10.77,-22.97 -9.87,-46.48 -23.69,-66.4 21.36,-8.8 42.89,-21.36 64.79,-34.47 20.65,3.77 41.65,6.83 58.16,12.75 -11.85,13.27 -27.46,24.41 -36.8,37.51 17.24,-4.31 37.52,-8.8 57.98,-14.19 0,0.36 0.36,0.36 0.36,0.36 -34.64,43.98 51.33,26.39 89.2,12.21l1.98 18.85 -16.16 8.43c5.02,0.36 11.13,0.72 16.88,-1.61l5.02 42.54c55.1,75.92 61.74,7 36.44,-40.57 27.28,-53.31 37.51,-50.61 57.44,-83.1l55.63 -29.62c6.47,12.75 8.44,29.62 5.39,44.52 9.87,-19.57 35.18,16.15 54.38,-22.61l15.62 21.36c1.25,-26.03 21.53,-48.28 63.36,-40.93 8.07,31.77 46.31,49 39.48,90.82 122.24,9.51 117.57,-43.61 136.77,-71.61 69.46,0.72 92.8,25.66 54.39,82.74 92.08,25.31 256.85,31.77 315.54,94.59 129.95,-31.05 -24.23,-24.41 57.44,-85.8 88.48,189.36 403.48,131.93 609.71,145.75 -35.54,-166.39 57.62,-8.44 112.72,-145.03 -49.72,42.19 177.87,154.9 -5.74,168.36l110.74 2.69c62.1,98.01 -34.1,-39.84 62.1,98.01 121.88,15.79 70.54,-69.29 205.87,13.1 -41.46,67.49 20.64,39.84 54.03,44.51 1.98,-22.98 3.77,-46.85 0,-62.46l8.08 9.15c260.98,78.61 2.69,33.74 153.28,-18.84 164.05,14.18 164.41,-109.13 165.84,-55.65 21.9,26.21 -165.84,55.65 -12.92,57.26 53.67,137.84 239.98,51.69 291.67,9.87 -212.33,-172.85 -159.38,-34.46 -357.89,-215.38 -35.73,34.46 -46.49,149.15 -171.06,80.04 90.1,-42.36 3.05,-63.89 -17.59,-86.51 16.15,68.93 -94.76,10.41 -138.74,31.05 -29.08,-59.4 99.61,-136.94 -29.98,-186.66l-45.94 148.8c-49,-31.95 37.14,-108.6 -78.98,-91 70.89,-68.92 -1.08,-126.72 152.92,-125.65 -162.43,-162.07 -285.92,23.7 -431.85,54.03 15.62,-6.46 19.57,-26.75 35.19,-34.1 -35.19,34.1 -88.49,23.33 -130.68,24.94 -88.12,-50.61 81.31,-56.71 62.47,-103.56l-149.51 -21.36c-3.05,-5.74 -3.41,-8.44 -3.05,-12.21 -40.57,14.36 -78.98,21.36 -88.85,-17.04 12.21,-10.6 28.72,-26.39 -1.25,-1.44l-60.5 -45.23c22.62,-47.56 -160.64,-69.82 -44.51,-87.05 0,0 -17.95,-45.95 -76.99,-47.57 -59.78,-1.79 -118.47,-3.77 -118.47,-3.77l-182.72 -30.33c-156.51,35.72 -346.22,80.95 -304.05,-51.34 -192.77,62.46 -83.82,-14.53 -311.59,10.41 180.21,-74.84 -185.05,-146.45 1.26,-167.45 -102.49,-58.7 -134.98,50.61 -220.42,57.43 -74.3,-54.03 -224.17,-88.85 -134.96,-116.85l-132.65 -44.15 -60.13 -61.2c20.82,45.23 -36.43,55.45 -106.43,55.82l2.51 -20.64 -84.89 10.77c87.58,-48.83 -75.94,-25.68 -32.32,-89.39 -71.97,-9.87 -73.58,-8.8 -204.62,-2.69l17.59 65.15c-172.84,41.46 0,-94.59 -136.76,-111.46l3.77 73.23c-190.08,-138.39 -341.03,41.65 -481.39,-48.28 84.72,-9.69 68.57,-96.2 65.51,-75.56 -127.61,16.14 -332.59,-20.29 -467.2,57.79 -41.83,-109.84 -51.69,-142.87 -183.62,-200.84 -97.99,-1.09 -113.07,6.99 -147.89,66.4 -92.44,-44.15 -272.82,9.52 -274.08,-67.49 -24.41,60.14 -85.08,-15.61 -139.11,33.39l-9.5 -31.77 5.2 73.41c-162.08,-169.61 -286.1,80.23 -451.06,-68.56l29.98 -18.31 -72.15 25.67c-10.6,-32.14 18.85,-50.97 23.87,-91.72l-331.87 -27.1 63.9 57.44c-69.65,4.3 -118.11,72.86 -196.54,24.94 134.43,-103.38 -110.38,-8.44 -130.31,-93.51l71.98 -26.03c-97.83,3.05 -97.83,3.05 -91.19,77 -126.54,20.64 -84,-144.85 -201.56,-67.12l82.74 4.66c23.69,43.26 -36.79,99.97 -91.89,99.25 -13.11,-11.84 -51.88,-43.96 -9.34,-52.94 -99.97,27.28 -247.87,-10.59 -292.38,18.48 -53.67,-22.96 -35.19,-74.66 -6.1,-93.87 -213.05,63.18 -95.85,-15.08 -308.9,48.29l3.77 -41.46 -73.6 49.53 -104.27 -89.02 37.5 54.74c-70.53,7 -113.43,35.36 -195.1,12.03l32.67 -61.03c-196.54,33.03 -228.49,-103.74 -415.51,-18.3 -12.57,-11.14 15.8,-30.34 31.58,-39.85 -173.74,96.2 -132.82,-110.39 -307.09,6.46 10.76,-19.93 -8.44,-46.3 -1.98,-63.72l-78.8 42.18 4.85 -83.11 -63.18 123.86 -50.62 -83.29 -29.79 40.74c-87.59,-156.87 -206.23,-32.67 -324.33,-148.79l21.89 104.28c-288.25,226.87 -674.15,-99.61 -1026.48,12.2l3.4 -83.1 -142.51 101.95c-81.31,-62.82 43.98,-72.15 17.95,-113.79 -154.72,52.05 -60.48,125.63 -241.05,160.64 -95.84,-50.62 29.62,-63.72 72.15,-96.21 -168.35,52.41 -417.84,114.87 -540.44,75.75 -2.32,11.13 -8.97,26.56 -2.32,31.05 -112,45.23 -263.31,17.23 -388.24,30.34 1.07,-38.78 31.78,-46.68 62.83,-56.37 -45.6,-1.79 -108.78,-24.59 -144.86,17.23l43.26 -74.66c-97.27,-8.8 -278.56,68.93 -305.48,-13.82 13.82,31.77 12.74,93.87 -70.54,95.3 -53.67,-122.05 -223.46,64.8 -359.88,12.03 13.82,-31.05 111.1,-47.56 83.29,-45.59 -68.39,-28 -124.74,37.88 -180.57,82.03l14.54 -52.95 -304.77 100.33c-55.1,-121.69 -290.77,47.21 -276.77,-47.38 -110.21,6.1 97.47,47.02 -40.92,75.02 -41.82,-49 -124.92,37.51 -125.28,-45.23l14.18 -11.48 -96.57 15.79 54.75 -85.98c-82.74,25.32 -138.39,112.36 -137.49,174.46 -83.29,-37.51 -193.31,10.41 -235.84,-59.4l28.35 -22.62c-221.49,54.03 -391.28,-189.72 -554.97,-28.36 -13.82,-9.69 -13.82,-29.62 13.46,-33.38l-138.75 12.74 27.65 -64.8 -220.42 122.6 -0.89 -41.46c-152.02,2.32 -386.26,52.94 -579.39,90.1l26.74 -23.34c-205.33,90.11 -208.38,-13.82 -358.97,51.69 4.49,-11.84 9.16,-16.68 14.54,-19.92l-140 19.92 27.28 -44.32c-93.87,101.58 -308.18,-78.26 -236.02,-11.5 -54.93,47.39 -150.06,111.11 -161.54,164.77 -151.31,27.11 -43.27,-47.92 -140.54,-68.2 -110.39,12.21 -121.87,86.51 -274.8,72.33l-1.62 -42.53c-68.56,18.48 -108.4,54.92 -204.61,75.56l26.38 -23.7c-147.18,110.21 -211.79,-90.45 -313.56,108.06 -70.71,-22.62 -193.13,21.72 -197.62,-61.38 -187.02,83.99 -336.18,127.97 -522.84,195.46 -2.69,0 -5.74,0.36 -8.44,0.36 -48.28,-124.22 -40.2,17.94 -168.18,-37.52l13.82 54.75c-82.56,9.69 -164.94,20.81 -247.33,30.69 -215.74,-9.16 -449.61,-52.05 -662.67,7.18l-19.2 -70.37 -49.36 89.93c-332.41,21.54 -758.88,79.51 -1018.06,133.54 -42.17,30.34 -94.94,74.3 -155.25,110.74 -1806.72,295.44 -3598.01,689.41 -5384.98,1153.93 207.13,-1739.95 353.59,-2869.11 366.87,-3010.19 116.13,-1229.13 843.59,-3882.49 -2004.52,-2703.26 -116.85,1016.09 -525.53,3377.42 -974.61,6441.8 -1120.72,333.85 -2298.16,728.19 -3460.52,1214.6 114.87,-230.47 226.87,-459.3 335.29,-683.85 789.2,-1638 2349.13,-4827.31 1224.99,-7225.09 -2023.35,-4320.98 -8852.85,1134.55 -11428.85,3393.93 -5786.32,5072.68 -13546.81,14857.62 -13161.28,22496.59 126.18,2497.39 2121.19,3820.4 3714.85,3700.5 6315.09,-477.26 12654.05,-10042.15 15579.14,-8376.5 843.24,480.67 1189.3,1604.8 722.09,4237.52 -520.52,2935.33 -3069.6,6816.57 -6307.01,7766.96 -1637.1,480.66 -2878.8,-723.16 -773.05,-2464.91 94.22,-78.43 173.92,-152.38 246.79,-225.25 57.08,204.25 120.62,378.35 187.75,507.05 271.38,517.46 1195.75,118.46 1207.76,-430.77 15.98,-766.95 110.75,-1557.59 221.85,-2313.41 63.72,-432.74 141.79,-866.57 241.77,-1290.88 32.67,-138.02 74.49,-273.71 118.46,-408.15 22.62,-67.85 49.9,-133 81.67,-195.99 11.13,-44.34 19.57,-82.39 26.92,-116.85 148.98,-424.67 -67.49,-891.52 -605.59,-1019.49 -1774.23,-423.6 -1946.36,2703.61 -1623.28,4617.31 -196.18,104.64 -438.85,277.13 -722.44,542.41 -1769.92,1654.16 -1751.61,3143.19 -1313.84,4240.4 429.32,1076.37 1563.87,1691.13 3186.61,1338.42 5367.21,-1163.25 8893.43,-8228.05 8712.86,-13248.68 -1097.75,-10543.63 -15210.48,7766.78 -18726.28,5228.29 -2229.6,-1608.92 -1356.74,-5192.57 1151.77,-10129.9 2882.93,-5677.01 5860.09,-9415.38 10817.71,-13696.88 1705.31,-1472.69 6863.77,-5551.72 8069.57,-3055.95 436.52,903.37 -249.66,4346.83 -3067.08,7698.76 -1465.16,777.72 -2830.69,1738.69 -3925.39,2950.6 -789.56,874.09 -75.92,3039.25 1019.85,1980.63 469.9,-454.1 965.47,-881.46 1480.95,-1283.87 141.43,-90.81 280.9,-195.82 418.2,-311.59 782.58,-579.2 1604.26,-1104.2 2449.47,-1579.49 200.49,-93.86 404.74,-187.39 602.18,-248.05 709.7,-394.7 841.26,-364.36 1586.67,-661.23 -113.43,46.13 -104.65,-118.28 -8.8,-115.95 305.85,168.9 564.49,-593.03 853.65,-504 427.72,-223.47 -44.15,202.65 338.69,-117.74l24.59 69.46c71.61,13.28 77.36,-41.47 142.15,-68.75l49 -17.59c-776.46,5712.38 -1508.05,13044.61 -957.74,18824.47 126.9,1334.49 1620.77,1746.58 2200.34,1553.28 580.63,-193.85 196.72,-1216.74 1097.38,-3655.98 1034.03,-2798.93 1547.54,-3418.34 2004.15,-4305.55 17.96,-35.35 62.83,-6.99 81.14,168.9 -308.9,1927.88 -1701.73,5654.76 -1573.21,6626.5 155.61,1173.85 1662.59,1587.39 2184.18,1227.16 1149.08,-792.98 2266.75,-5069.98 2622.32,-5992.55 26.02,-67.67 104.99,-108.77 126.53,-8.79 -371.36,1957.49 -105.36,2785.64 392.18,3037.82l-1.61 -14.54 7.71 15.79 -1.62 1.44c16.88,8.08 34.47,15.79 51.7,22.62 0,-1.08 0.9,-1.08 0,-3.06 1.26,1.98 1.97,2.7 3.05,3.96 55.65,110.74 142.69,27.81 208.56,84.53 5.03,-3.41 2.34,-17.94 1.08,-27.46 6.65,22.62 10.05,12.93 12.74,0 2.34,-10.05 4.49,-22.25 7.73,-24.59l8.79 28 9.51 28.36c5.02,-10.05 4.67,-19.56 3.77,-28 -0.18,-6.82 -1.43,-12.2 -1.07,-17.23 35.35,-11.13 73.23,42.17 100.86,6.1 2.7,4.31 1.98,9.15 2.7,13.82 3.05,16.16 0.72,33.39 11.12,37.52 -8.97,-23.34 -3.58,-31.77 3.77,-37.52 10.41,-7.18 24.96,-9.51 15.99,-32.12 6.99,21.36 14.71,26.74 22.43,31.05 12.92,6.82 25.66,6.82 28.17,60.84 15.8,2.69 7.73,-37.87 2.7,-45.23 14.72,0 26.56,-5.39 36.08,-21.72 1.97,-3.58 4.3,-4.3 6.1,-9.33 10.41,14.54 49.53,-15.61 80.23,-1.08 7.72,3.42 15.98,8.08 21.71,19.93 -7.17,-14.55 -8.79,-19.93 -8.79,-24.24 0.89,-5.74 7.36,-4.84 10.77,-17.95l-17.59 -32.66 22.98 -2.52c3.41,-5.92 5.02,-4.3 6.09,-0.89 3.96,0.89 3.96,20.65 15.8,26.21 15.62,-2.7 11.5,-21.9 14.01,-43.44l-3.42 -4.13 8.98 -7c7.54,-1.44 -16.16,44.88 12.92,53.31 -2.33,-9.16 -1.8,-61.03 11.85,-38.23 -12.57,2.86 -4.13,26.39 3.94,34.82l17.95 -3.41 -19.2 -42.72c48.82,-16.33 110.39,-8.79 160.64,-39.31 6.1,15.26 12.75,14.54 20.28,13.29 11.49,-2.7 24.24,-8.45 35.72,24.94l-4.3 -3.41c-10.6,11.85 22.25,40.21 30.69,28.37 -18.31,-11.14 -5.39,-65.89 -34.82,-57.44l1.79 -10.41 6.28 -27.28c-37.16,-108.06 55.82,-22.62 68.57,-75.39 0,4.85 2.33,11.12 3.41,14.18 8.79,-48.83 71.97,-14.18 68.56,-34.11l8.07 11.13 10.05 13.65c-0.53,-8.81 -0.53,-15.26 -0.89,-21.36 0,-34.47 4.31,-41.1 33.75,-44.52 1.61,3.06 4.66,6.47 6.99,10.05 1.44,2.7 1.44,6.11 4.49,6.83 -1.07,-3.41 -1.07,-6.11 -1.43,-9.88 -4.67,-20.1 -7.37,-39.48 9.86,-46.85l4.32 8.8 23.69 -26.39c5.38,8.45 10.05,12.57 13.46,16.16 13.46,11.84 16.87,-2.69 19.93,-19.57 3.94,-16.51 8.79,-34.63 25.66,-24.22 5.03,2.69 10.77,8.44 18.85,16.51 -5.03,-11.48 -3.41,-21.9 -1.98,-33.03 1.98,-13.46 5.39,-25.66 5.39,-35.18 2.68,2.7 5.38,5.39 9.15,7.36 -15.61,-39.13 16.51,-25.31 34.46,-26.21 4.31,0 8.8,0 10.41,-3.4 0,-2.33 -1.61,-3.41 -2.34,-5.03 -3.04,-12.93 -12.56,-22.07 -23.32,-30.16 37.87,17.23 10.05,-71.79 24.58,-64.07 11.86,-7 26.03,23.69 41.82,36.79 8.26,-22.25 -55.64,-61.74 -13.1,-54.02 0.36,5.74 -1.61,12.56 3.41,15.26 4.49,-0.72 19.92,8.79 35.72,19.21 26.39,17.59 55.46,36.07 51.69,21l-15.79 -6.83c-2.34,-32.67 81.66,21.54 42.9,-28l-20.28 -20.64c48.28,2.69 2.32,-19.56 47.56,-20.64l2.7 4.13c6.45,-16.16 36.42,3.77 9.5,-35.18l-7.18 -0.9c9.52,-17.23 13.46,-16.16 27.64,-29.07 -1.61,-5.39 -0.89,-17.23 7.54,-12.22 -25.66,-28.71 16.51,-47.92 22.98,-52.94 -4.85,16.16 10.76,21.36 24.22,29.08 -16.15,-29.08 -14.17,-35.9 9.16,-30.15 -11.12,-12.03 -21.9,-23.88 -31.05,-36.44 -18.3,-22.62 -30.69,-44.16 -22.26,-57.97 3.24,7.71 1.98,15.06 10.41,20.81 8.44,4.85 4.67,-7 3.05,-11.12 8.09,5.02 8.8,16.51 22.62,25.66 -22.62,-45.23 14.9,-24.95 18.12,-54.92 3.42,7.71 7.54,12.03 12.93,16.15 5.02,2.7 10.41,5.38 16.88,9.51 -36.8,-37.5 49.9,4.31 0,-33.2 -0.72,-0.9 -0.72,-0.9 -1.98,-1.26 1.98,-0.72 3.24,-2.15 5.03,-3.04 54.02,-12.93 69.81,-92.62 112.36,-78.99 17.59,10.06 1.79,-22.61 6.09,-30.15l16.88 16.52c-19.2,-48.11 -1.61,-25.68 -17.95,-76.83 14.53,27.64 26.75,32.67 49.71,38.05l-26.02 -47.92 29.43 20.28c-6.09,-15.97 2.7,-19.56 12.03,-22.96 -1.97,4.12 1.79,4.12 6.47,8.43 -31.05,-31.77 -18.14,-54.75 -24.59,-72.87 -1.08,-2.7 -1.08,-5.39 -3.05,-7.73 3.41,1.62 3.77,0.91 6.1,2.34 27.28,10.77 0,-28 35.71,-5.75 -3.77,-6.09 -6.63,-13.1 -8.07,-19.02 -3.41,-2.34 -5.39,-3.94 -8.8,-5.92 -14.18,-8.8 -26.92,-18.67 -16.51,-18.67l0 -1.97 -21 -12.92c-20.82,-16.16 11.13,-3.96 32.85,1.79l16.16 1.62 1.96 -3.05 0 3.05c2.52,0 4.49,-1.62 6.47,-2.34 0.71,-1.07 1.62,-2.69 2.33,-3.41 0.72,-1.98 1.44,-4.31 0,-8.44 5.02,0.72 5.02,-3.41 8.07,-4.66 3.42,-6.11 7.19,-12.57 11.5,-18.85 -0.54,-25.66 -11.5,-60.84 29.43,-53.3 -7.71,0 -12.57,4.3 -6.11,11.3 1.44,-2.33 4.68,-4.3 6.47,-5.74 15.8,-15.8 48.64,-16.51 41.1,-40.75l-11.84 -9.15 -9.34 -6.1c0,-23.51 0.72,-41.1 10.05,-52.59l-23.33 -18.66c19.74,-11.86 4.84,-81.31 60.85,-55.65 -16.51,-18.67 20.64,-21.53 20.64,-37.16l19.56 11.14c14.54,-10.06 13.1,-22.98 12.38,-36.44l-6.99 0.72c-10.41,-17.23 -0.72,-20.65 11.84,-21.36 3.95,-4.3 10.78,-7.72 22.98,-8.98 15.43,14.72 -6.11,8.98 -22.98,8.98 -4.85,5.74 -5.21,13.28 -4.85,20.64 12.57,0 20.64,-2.69 26.39,-8.08 4.13,-6.82 8.43,-14.54 12.2,-22.25 3.06,-16.33 1.62,-35.18 10.05,-47.04l5.39 3.42 0.72 -34.64c13.46,18.85 -8.07,-13.65 0.36,-17.95 -4.13,-14.53 7.72,-24.05 24.95,-24.95l10.23 -15.97c0.54,11.12 6.99,13.82 13.82,16.87 10.04,3.77 22.26,6.1 35.72,14.89l-11.84 -22.61c12.55,3.42 13.27,18.31 22.25,13.82 -7.72,-15.26 4.48,-35.36 -14.18,-57.44 -1.62,-0.89 -2.34,0 -3.06,-0.89 -5.38,-1.8 -10.76,-2.69 -15.43,-2.69 0.71,1.25 0.35,1.25 -0.72,0l-1.43 0 1.07 -0.72 -7.35 -8.44c11.84,-10.41 0.71,-11.12 -9.16,-17.95 33.74,6.83 29.8,-6.1 50.61,-3.41 4.49,0 9.52,0.72 18.31,4.13 -10.22,-3.41 -12.92,-6.11 -15.61,-9.69 -11.13,-13.28 24.58,-28.18 -13.46,-44.34 36.8,11.14 12.74,-2.68 34.1,5.03 7.36,-14.54 14.54,-29.26 22.61,-43.79 -0.36,-0.72 -1.08,-0.72 -1.43,-1.44l-3.95 -1.26 0.72 -1.43c-6.47,-5.03 -12.57,-11.84 -17.23,-26.21 19.21,1.98 28.9,3.59 35.72,0l1.08 -32.48 -1.08 -0.72c-5.39,1.08 -10.78,1.79 -16.51,1.79 -5.39,-4.48 8.43,-3.41 16.51,-1.79 6.09,-1.62 10.77,-2.69 15.61,-6.46 2.34,-7.72 5.02,-13.82 -1.43,-25.32 3.41,-8.43 11.84,1.09 18.3,6.83 0.36,0 0.9,0.71 1.25,0.71 0.73,-1.43 0.73,-4.13 1.09,-6.45 1.25,-2.69 1.97,-6.11 1.97,-8.8 -3.06,-5.75 -7.36,-11.13 -8.79,-16.16l6.82 2.34c1.61,4.49 2.33,8.8 1.97,13.82 1.07,0.72 1.07,1.07 1.62,2.69 23.33,-46.3 47.02,-93.51 70,-139.99 -1.44,-0.72 -4.13,-1.8 -6.83,-2.7l2.34 8.79c-8.62,-8.79 -6.28,-10.22 -2.34,-8.79l-4.66 -19.38c4.66,10.22 13.46,19.38 3.59,10.94 7.9,8.44 9.16,9.7 8.25,10.42 4.32,-8.44 8.45,-16.52 12.39,-24.96 -4.67,-1.07 -9.69,0 -15.44,0 3.05,-13.63 12.39,-12.92 19.21,-6.81 33.74,-69.28 67.13,-142.69 100.87,-213.59 3.05,3.22 -19.56,-6.83 -19.56,-17.95 3.41,3.77 22.07,14.18 19.92,17.95 63.18,-131.39 126.9,-261.69 189.36,-398.47 -105.36,822.06 -95.85,1752.69 93.87,2797.13 181.28,1001.36 1476.29,1344.55 1954.62,1093.8 657.64,-343.72 1392.82,-2551.05 2334.59,-4695.03 -54.56,2869.1 168.54,4789.8 234.24,5133.88 85.43,455.36 528.41,1019.49 1162.36,1256.41 633.59,237.29 714.9,-791.54 1934.87,-2523.06 220.77,-313.56 436.51,-608.64 647.23,-889.36 43.79,2932.47 236.02,5026.37 295.07,5350.53 281.8,1552.74 1439.32,1637.82 1482.93,715.26 21.9,-462.55 -129.95,-3751.83 124.93,-8344.92 602.18,-642.02 1129.86,-1130.41 1570.33,-1506.79 -600.75,1463.71 -831.75,3129.54 -128.52,4421.13 560.9,1029.89 1806,841.61 2616.03,400.43 1057.37,-576.33 1614.31,-2194.94 1961.08,-3357.13 526.62,-1763.28 1470.54,-7664.65 -1395.15,-6989.95zm-24345.86 3752.54c-4.12,38.77 -6.09,58.33 -16.33,70.18l-8.44 -6.46 24.77 -63.72zm110.4 -2010.62c41.81,-6.1 -4.49,38.77 -4.86,122.6 4.13,-37.88 0.37,-83.83 4.86,-122.6zm-29.09 948.95l33.39 -13.82 -35.72 33.75 2.33 -19.93zm-259.9 6217.09c37.35,-37.51 29.98,3.76 46.14,82.75 2.69,6.63 5.2,16.87 9.51,39.84l-9.51 -39.84c-12.75,-32.5 -9.34,97.09 -23.87,68.55 13.82,-124.38 -33.03,-19.02 -22.27,-151.3zm463.09 664.64l-16.51 -146.1 24.94 118.45 -8.43 27.65zm8654.34 -1399.82c0.72,31.05 -36.62,-38.59 -14.36,-16.51 -9.52,-3.42 21.53,15.79 14.36,16.51zm-6.29 -29.8c0.9,0.72 2.34,1.44 4.32,1.44 -3.06,1.97 -5.75,4.31 -7,7.72l2.68 -9.16zm20.64 -48.28l0.55 -16.16c-1.62,3.41 7.18,6.47 12.92,10.78 -5.38,0.36 -11.49,-1.62 -13.47,5.38zm35.01 -50.62l-7.37 -14.54 18.5 13.65 -11.13 0.89zm22.25 -29.07l4.67 15.61 -24.94 -33.74 20.27 18.13zm5.03 -100.51c-7.71,-13.83 -16.15,-29.08 -14.72,-39.49 5.75,11.84 22.26,6.1 33.74,20.81 -16.51,1.45 -21.71,7.54 -19.02,18.68zm18.31 -69.65l13.82 18.32 5.74 11.12 -19.56 -29.44zm60.13 31.06l-7.72 9.51 6.63 -9.51 -23.32 -9.34c8.43,-3.4 21,3.05 26.02,5.03l-2.7 4.31 1.09 0zm16.15 -23.16l-6.46 -19.92c-9.69,-5.74 -24.24,-9.16 -31.41,-15.26 11.13,6.82 20.28,2.16 27.1,1.43l4.31 13.83c8.79,4.66 13.46,10.41 6.46,19.92zm-11.13 -111.82c4.31,7.18 11.13,-1.62 20.28,1.08l6.47 19.56c-16.7,-3.05 -25.67,-5.74 -26.75,-20.64zm33.75 -15.44c3.05,-3.41 4.3,-6.46 4.48,-7.54l4.67 0.72c-2.33,23.34 5.74,12.93 -9.15,6.82zm2670.59 -1690.94c40.75,7.71 -4.85,14.17 -6.46,47.92 4.49,-14.54 1.61,-33.75 6.46,-47.92zm-39.84 372.07l33.02 1.98 -35.36 5.03 2.34 -7.01zm288.61 2264.77c-23.34,-35.9 -4.49,-40.2 17.95,-86.87 -7.19,26.75 37.68,-24.59 32.67,3.41 -49.36,28.71 5.01,46.67 -50.62,83.46zm653.16 -1097.56c26.37,-25.67 11.12,13.81 16.87,23.33 -26.21,44.51 -11.14,-13.1 -16.87,-23.33zm30.14 -103.92c10.41,1.43 16.16,5.02 26.93,-0.72l0.71 24.94 -27.64 -24.22zm1256.78 -4147.42c-60.49,741.29 -100.34,1446.12 -125.64,2110.41 -175.91,331.87 -371.37,689.77 -578.31,1057.72l0 2.7c1.43,1.96 2.51,2.68 5.39,2.68 -2.88,0 -3.96,-0.72 -5.39,-1.61 -0.9,-0.18 -0.9,-1.07 -1.62,-1.79 -62.82,112.17 -124.2,222.2 -190.43,337.97l1.43 0.72c0.55,6.28 -4.48,8.97 -4.48,15.08 -4.31,4.12 -5.03,0.71 -6.47,0.71 -8.43,13.82 -17.76,28.36 -25.66,42.54 0,0 1.79,3.41 1.43,4.67 -8.44,3.41 -9.51,11.84 -14.53,17.59 -5.39,8.79 -11.13,17.59 -16.52,26.75 -0.71,12.73 0,25.66 6.83,31.76 -9.88,5.57 -11.14,-11.85 -16.34,-15.98 0,0 0,-0.36 -0.54,-0.36l-0.36 1.98 -8.44 40.93c-4.84,-2.34 -6.46,-7.01 -9.5,-11.14 -22.62,38.78 -46.32,78.26 -69.83,117.03l1.62 -1.62 10.77 -6.09 -18.85 19.56c-22.61,37.87 -45.59,76.29 -68.57,115.59 1.09,8.98 0.73,20.82 1.09,31.23 -26.03,20.64 -51.69,57.44 -75.57,92.62 -33.56,50.61 -64.62,99.61 -86.52,103.2 16.16,-8.08 26.03,-38.77 25.67,-57.07l-31.76 22.43c15.25,-27.11 53.3,-27.11 68.2,-72.69 -21.9,-8.44 -28.72,-55.28 -71.61,-46.49 -74.13,49.9 8.25,97.82 -54.93,179.49 0.35,12.56 -16.88,-42.19 -37.15,12.56 -15.26,56 -11.14,113.43 8.43,151.85 6.11,11.48 13.46,22.08 22.26,29.43 4.85,-34.46 14.18,-102.31 46.66,-86.51 -4.12,33.93 -25.12,82.03 -8.43,99.26 -48.65,-1.62 20.46,-54.03 -27.82,-42.9 -10.41,17.95 -4.67,33.75 -4.31,46.31 -6.1,-22.98 -32.66,-3.06 -43.61,-4.32 -16.88,25.68 -33.39,43.81 -50.62,61.76 -19.93,19.91 -40.21,41.46 -62.82,72.15 -7.01,-0.9 -21.18,-3.6 -28,-11.13 -4.67,17.95 -2.69,47.38 4.49,73.06 7,26.56 18.84,48.09 32.3,50.6 -21.53,36.08 -37.51,24.96 -48.28,61.75 59.42,-22.26 -10.77,5.02 16.51,36.07 -16.15,33.39 -21.89,-2.33 -38.04,5.03 0,8.08 2.33,29.08 10.05,36.79 6.1,0.37 13.63,-1.61 22.62,-7.71 -10.42,12.2 -18.14,12.2 -22.62,7.71 -24.95,-1.61 -33.03,-43.43 -50.26,-68.74 -7,-11.84 -15.26,-20.28 -28,-21 -26.75,0 -99.62,36.8 -105.36,39.14 8.08,18.3 38.59,48.28 72.88,75.92 35.89,28.35 75.73,53.12 100.69,57.79 16.15,17.59 -37.88,11.49 -48.64,22.61 -54.39,12.75 -17.23,77.01 -50.26,99.26l0.71 -38.23c-10.95,-1.61 -33.38,52.41 -28.35,69.28 -10.78,-8.43 -34.1,-70.17 -56.18,-66.59 -43.8,51.15 -27.28,153.1 4.13,176.61l30.33 -113.43c26.74,19.21 -18.13,83.1 13.28,107.34l-32.49 35.18 -52.95 61.02c12.74,-17.23 42.54,-74.12 14.91,-67.84 -37.16,53.31 -24.42,22.62 -57.8,42.89 11.48,-47.92 8.07,-99.62 0.71,-148.26 -9.87,-57.97 -25.66,-111.64 -35.53,-145.37l-11.49 54.01 -21.54 -2.69c-10.77,36.44 7,78.63 16.15,133.54 0.72,6.83 1.08,12.56 1.8,18.67 7.72,49 12.02,99.62 12.38,123.84 -37.15,32.5 -52.22,-61.38 -53.67,-82.38 -44.51,50.08 -21.53,190.08 -93.51,221.85 8.8,0.72 17.23,4.13 26.75,2.69 -16.34,20.82 -75.93,31.05 -70.54,42.18 -13.82,-15.44 -21.36,-60.84 -5.39,-78.97 -20.99,31.76 -51.32,47.92 -80.05,62.46 12.39,-3.42 18.49,-65.88 24.6,-74.31 -23.34,-10.77 -60.67,43.61 -47.57,65.16 -35.18,-76.65 -32.85,-46.49 -38.59,-132.29 -11.31,-9.51 -29.61,62.46 -22.8,78.98 -35.18,-15.8 -43.61,-47.93 -50.08,-71.26l-1.6 -0.72 0.71 -2.69c-4.84,-29.26 -10.23,-44.52 -43.62,-51.51 29.08,-7.9 57.8,-22.08 84.01,-37.88 -14.73,29.08 -27.64,58.69 -40.39,89.39l0.89 3.41c28,19.56 48.64,-13.11 68.93,-55.11 16.51,-34.27 33.38,-74.48 53.31,-98.54 -32.67,26.75 -62.1,35.19 -92.79,36.63 -22.98,0.53 -46.32,-2.88 -73.6,-8.45 8.8,0 45.95,-22.07 57.08,-31.05 1.25,-0.53 3.95,-2.51 4.3,-3.41 -1.6,1.26 -3.41,0 -5.01,0.9 -19.57,5.38 -41.83,-29.25 -54.39,-85.61 -16.16,-61.92 -19.21,-137.84 -16.87,-168.18l0.35 11.13c16.88,13.82 28,-49 11.49,-74.67 9.52,4.12 6.46,10.23 7.36,21.36 1.44,-2.7 1.08,-4.13 2.16,-6.46 -0.36,-8.8 -0.72,-18.49 -1.08,-28.36 -16.16,-24.95 -62.46,-42.9 -31.77,-78.26 -4.67,43.08 12.92,52.23 31.05,50.62 0.72,0 1.44,0.71 2.33,0.71 -1.61,-3.41 -1.61,-8.25 -2.69,-12.56 -10.41,-39.85 1.08,-106.62 -50.61,-92.8 12.2,-23.33 6.1,-43.97 34.82,-40.92l-29.62 -92.07c5.56,7.71 21.53,13.82 26.92,-11.5 -10.76,49.9 40.74,100.88 2.7,125.83 5.38,0 10.05,-0.54 14.53,-0.54 25.67,-2.33 43.8,-10.23 67.85,9.69 -8.8,-63.36 -36.08,-108.94 -63.9,-151.13 -14.71,-22.08 -28.89,-43.61 -41.1,-65.87l31.41 -82.39 -15.26 -4.66 34.46 -9.16 6.47 -1.07c-1.79,-3.77 -3.77,-5.74 -5.75,-7.72 -5.02,-6.82 -8.43,-11.85 -5.75,-13.46 1.62,-0.35 4.68,2.33 7.01,3.06 2.34,1.25 4.13,0.53 7.18,3.58 -0.71,-7.71 -3.41,-14.36 -6.46,-18.85 -0.36,-0.71 -0.36,-2.68 -1.26,-3.41 -4.85,0.73 -9.87,0.73 -15.25,3.41 6.1,-9.86 11.12,-9.15 15.25,-3.41 0.54,0 0.9,0.73 1.62,0.73 21.17,0 43.25,16.5 62.82,33.73l7.72 -5.38c-19.21,-37.51 -42.19,-76.29 -67.49,-66.58 -3.77,1.43 -8.08,1.43 -12.21,6.45l13.82 -22.97 14.19 -23.88c-4.32,-8.79 -7.37,-13.82 -10.42,-19.91 -19.92,-38.59 -19.2,-41.29 -37.51,-106.08 14.54,-1.26 24.05,18.66 35.18,7.71 -22.62,-33.74 5.38,-68.74 23.87,-94.41 12.56,-17.23 21.36,-31.77 5.75,-38.59 0,-0.53 -0.54,-0.53 -0.54,-1.97 -4.85,-38.77 -31.41,-20.82 -38.59,-48.99 4.12,1.79 12.56,6.09 14.17,-1.62l-24.22 -36.08c11.84,-10.41 15.79,32.66 33.02,-0.72 -13.1,-63.54 -22.26,-101.59 -0.71,-149.52 4.84,-72.68 -61.4,19.93 -46.13,-40.2 24.94,-5.03 53.66,-6.1 63,-40.56 -12.74,-22.98 -31.06,-24.59 -36.44,-59.05l35.18 8.79c2.69,-30.34 0.72,-57.43 27.64,-51.69 -11.13,-28.36 -5.39,-45.77 2.69,-57.62 -10.76,-52.05 -77.89,18.85 -93.51,27.64 34.11,-41.46 24.59,-76.64 71.97,-94.23l1.98 42.91c59.4,-76.65 -35.36,-94.77 47.56,-117.03 -8.43,29.25 3.77,69.46 26.03,56.18l-9.87 -46.85c10.23,-3.05 1.79,26.03 16.33,8.8 -5.38,-13.82 -18.67,-43.8 -28.36,-57.44l1.98 1.43 9.14 -79.69c-4.12,14.54 8.09,21.36 12.39,7l-8.07 -55.64c6.1,17.59 19.92,5.02 29.79,-16.51 24.24,-62.46 -67.49,-73.6 -21.36,-115.06 -1.97,7.73 1.8,10.41 -0.36,17.42l21 -21.54c-72.87,-26.93 26.39,-155.62 -45.95,-182 38.24,-28.36 18.31,1.79 42.54,60.13l29.8 -33.75c-0.36,17.24 -9.52,29.08 -5.75,48.29 43.08,-42.91 14.54,-102.31 2.34,-136.42 15.08,-16.51 51.69,32.49 52.58,-26.92 4.49,-83.82 -57.61,-1.43 -54.92,-52.05l46.49 -22.98c-14.18,-69.81 23.7,-106.61 40.93,-155.61 0,-12.74 -2.34,-19.57 -5.75,-23.69l-1.07 2.15 -3.6 -5.74c-10.58,-6.11 -26.38,3.05 -18.67,-26.75l18.67 26.75 4.67 3.59c30.33,-48.46 -7.54,-126.18 15.8,-162.62 5.38,12.38 30.15,-14.54 40.55,-16.86l-3.04 -80.78c0.72,35.89 22.97,42 42.89,55.1 3.96,-23.33 -5.38,-38.76 -4.12,-55.1 5.2,12.21 10.59,24.77 23.69,15.98l-14.53 -89.75c-5.04,3.6 -8.81,12.03 -11.86,18.85 5.21,-19.02 3.05,-65.87 28.73,-86.51 7.71,5.74 12.92,17.58 20.27,23.69 -30.33,13.82 -13.46,34.46 -0.36,51.69 10.78,-53.13 8.8,-10.23 31.42,-30.16 9.51,-37.68 -14.19,-63.36 -35.36,-60.66 20.81,-38.59 29.97,-49.9 21.17,-100.88l26.92 19.21 2.17 -42.89 26.02 45.58c5.03,-7.18 3.59,-10.23 5.39,-15.61 1.97,-6.29 3.94,-13.1 5.92,-19.57 -6.28,-21.54 -45.77,-18.13 -15.08,-74.84l25.31 9.69c0,-36.08 -39.85,-63.72 -1.62,-76.64 -5.74,-37.51 -52.41,39.48 -34.82,-36.79 16.87,-7 35.72,-31.05 47.57,-49.9 -4.13,-28.36 -36.08,5.38 -37.52,22.26 23.34,-115.77 109.13,-32.67 107.7,-144.13 -29.62,25.66 -40.39,-49.01 -65.7,30.33 -2.51,-44.16 61.75,-58.7 46.85,-110.03l24.23 39.49c4.84,-13.82 -1.61,-34.46 -2.7,-44.51l23.7 14.18c-27.28,-67.85 51.69,-81.13 4.13,-135.34 38.41,40.39 10.05,-37.15 34.64,-48.28 15.26,47.56 -24.59,98.18 -7.36,126.18 1.98,3.41 1.98,8.08 6.46,10.77 19.21,-13.1 4.3,-38.05 22.62,-50.25 -1.8,-14.54 -1.08,-21.91 3.23,-3.06l-3.23 3.06c1.97,14.17 6.64,37.87 13.46,46.3 44.16,-50.43 7.72,-106.8 10.41,-148.26l-13.82 69.29c-6.82,-4.13 -8.8,-7.54 -11.13,-10.24 -12.92,-17.59 10.41,-28 -11.49,-55.63 34.11,-22.98 10.77,-62.46 34.46,-83.11 -3.05,6.83 0.72,9.15 -2.33,15.97 8.44,-23.69 22.62,-36.79 37.7,-46.3 30.15,-19.57 65.87,-22.26 73.22,-40.21 15.62,-24.94 12.57,-88.12 -12.02,-77.9 -2.34,-21.36 -14.54,50.26 -37.88,52.24 -6.81,0.72 -14.17,-3.41 -22.61,-18.13 76.28,-10.24 8.08,-94.95 84.37,-161.36 0,3.58 1.43,2.69 2.32,5.56 9.88,33.93 40.57,-8.07 43.62,31.6 10.77,-43.98 2.34,-50.08 -7.36,-77.37l24.23 -2.68c-10.04,-35.18 -16.87,-44.34 -21.54,-53.32 -5.38,-11.12 -6.45,-22.07 -0.72,-72.69 2.34,19.93 15.26,11.84 26.75,4.85 8.98,-4.13 16.16,-6.83 18.48,4.67 10.42,-22.26 14.19,-47.03 9.52,-69.83l1.62 4.67c25.3,-87.77 51.33,-54.38 63.17,-140.18l-11.84 0.36 -2.33 0c11.84,-115.05 87.04,-226.87 121.5,-334.56l-26.02 29.07c11.13,-6.1 14.9,-77.54 47.02,-97.46 -1.43,6.28 -1.79,20.83 -6.09,24.94 8.07,4.68 19.56,3.6 31.41,-1.43 7.35,-2.68 14.18,-5.38 19.91,-13.82l-7.53 -11.84 -6.64 -8.8 19.56 0c5.92,-12.03 4.32,-16.16 0.36,-18.84 -8.26,-5.03 -26.74,0 -13.99,-24.24 11.48,1.98 20.99,-2.32 29.79,-9.15 42.53,-31.05 67.85,-141.07 120.07,-139.82 -24.94,-49.9 -40.74,58.16 -60.67,15.25 0,-0.72 -0.71,-0.72 -1.07,-1.96 1.07,0 1.79,-0.72 3.05,-1.44 9.88,-5.75 19.02,-7.72 33.75,-26.39l-18.85 -5.39 -8.43 -3.04c9.14,-13.1 17.23,-21.9 25.66,-33.03 478.69,-987.72 908.38,-1620.77 1239.9,-2021.38 30.69,-36.44 59.41,-69.29 87.77,-100.34 -102.67,712.74 -188.82,1444.87 -248.41,2181.85zm-1352.44 4227.11c-4.67,15.08 -15.44,20.81 -21.18,10.41l15.44 -39.49c10.59,1.44 5.74,15.62 5.74,29.08zm-298.67 494.48l-5.38 9.16 -40.92 -47.21 46.3 38.05zm-684.92 -1208.48l24.59 -21c-4.67,14.54 -6.65,22.25 -16.51,24.77l-8.08 -3.77zm12324.5 -96.56c-192.05,676.84 -951.64,3080.36 -1148.53,1179.76 -145.75,-1402.52 504,-3269.36 1100.79,-4471.03 272.1,-549.05 -218.26,-756.18 -640.59,-681.33 134.97,-429.69 316.97,-814.52 563.41,-933.7 1085.36,-522.48 223.82,4558.63 124.92,4906.3z"/>
   <path class="fil0" d="M80929.26 57564.51l3.6 1.97c-0.36,-3.95 0.71,-6.28 1.07,-8.8 0.36,-6.09 0.36,-12.38 1.97,-15.43 -3.04,0 -8.79,-0.71 -14.9,-2.69 -6.99,0.72 -12.02,2.69 -12.02,11.13l20.28 13.82z"/>
   <path class="fil0" d="M91836.17 66179.73c-193.31,-157.23 -385.71,-213.96 -619.05,-220.78 -189.71,-5.02 -381.05,153.65 -464.52,337.98 -96.2,210.36 -44.51,526.98 21.55,746.67 78.8,263.31 238.71,496.64 437.58,659.25 192.42,157.06 385.55,214.14 618.7,221.85 190.08,4.66 380.87,-154.89 464.52,-338.87 96.2,-210.36 43.96,-526.98 -21.55,-746.13 -78.97,-263.67 -238.71,-496.28 -437.23,-659.97z"/>
   <path class="fil0" d="M95913.05 37606.76l42.54 -17.59c1.43,-2.69 2.33,-6.99 3.05,-10.41 3.05,1.62 4.49,4.13 8.08,5.39l-7.01 -8.8c5.75,-23.51 1.98,-55.99 -20.28,-50.26l-5.38 15.8 -13.46 -17.76c-0.36,10.05 4.3,20.81 9.69,31.05l-17.23 52.58z"/>
   <path class="fil0" d="M80042.05 38762.3c-12.2,-18.84 -21.36,-39.48 -29.07,-60.48 13.82,49.35 -50.62,78.61 29.07,60.48z"/>
   <path class="fil0" d="M89011.04 37539.63c-14.54,-24.4 -28,-37.86 -42.18,-46.66 -3.05,6.1 -5.74,11.12 -7.35,19.02l49.53 27.64z"/>
   <polygon class="fil0" points="83147.73,38286.31 83160.47,38286.67 83158.14,38269.08 "/>
   <path class="fil0" d="M94573.54 37454.2c3.77,-12.57 5.2,-21.9 6.82,-30.33l-0.72 -0.72 -6.1 31.05z"/>
   <polygon class="fil0" points="89301.45,37519.72 89309.53,37520.07 89309.53,37519 "/>
   <path class="fil0" d="M95659.98 37598.69l-14.55 7 11.85 4.48c0,-5.02 1.62,-8.79 2.7,-11.48z"/>
   <path class="fil0" d="M95219.69 37529.41c22.97,9.14 54.38,62.46 88.85,49.71l5.38 -20.28c-19.2,36.8 -67.84,-70.53 -94.23,-29.43z"/>
   <path class="fil0" d="M3972.78 57526.46c-4.13,-21 -8.26,-38.95 -10.96,-32.49 2.88,22.61 7.54,31.77 10.96,32.49z"/>
   <path class="fil0" d="M5988.06 60718.1l21.54 2.7c6.47,-3.6 12.92,-8.44 18.67,-13.83l-40.21 11.13z"/>
   <path class="fil0" d="M6842.78 60740.71c9.51,-16.51 23.34,-26.38 40.2,-33.38 -0.36,-6.1 -4.12,-13.46 -12.56,-22.61 -19.92,2.69 -21.89,39.48 -27.64,55.99z"/>
   <path class="fil0" d="M4005.45 56032.58l-0.72 4.49c3.05,24.58 3.05,10.41 0.72,-4.49z"/>
   <path class="fil0" d="M4203.6 53866.71c-6.1,3.41 -11.49,11.12 -16.87,19.21 3.05,0 8.07,-3.96 16.87,-19.21z"/>
   <path class="fil0" d="M4308.95 53027.78c7.01,-20.82 12.21,-26.92 14.18,-57.61 -1.97,2.33 -3.4,5.03 -5.38,7.72 1.98,11.84 1.25,26.38 -8.8,49.89z"/>
   <path class="fil0" d="M7435.63 60567.51l137.66 -39.13c-27.64,-4.3 -63.17,-10.77 -3.41,-36.79 -180.56,23.33 43.98,17.23 -134.25,75.92z"/>
   <path class="fil0" d="M7007.55 60673.59c72.87,-23.33 -5.03,-19.56 -2.15,-28.36 -44.52,23.33 -55.65,29.08 2.15,28.36z"/>
   <path class="fil0" d="M4397.09 59349.33l29.25 -6.82c-29.61,-56.36 -10.41,4.49 -29.25,6.82z"/>
   <polygon class="fil0" points="4136.83,58310.28 4146.88,58337.56 4115.11,58232.92 "/>
   <path class="fil0" d="M4488.44 52331.01l-38.76 9.16c-4.67,45.59 32.13,65.87 38.76,-9.16z"/>
  </g>
 </g>
</svg>
