<?xml version="1.0" encoding="UTF-8"?>
<!DOCTYPE svg PUBLIC "-//W3C//DTD SVG 1.1//EN" "http://www.w3.org/Graphics/SVG/1.1/DTD/svg11.dtd">
<!-- Creator: CorelDRAW 2017 -->
<svg xmlns="http://www.w3.org/2000/svg" xml:space="preserve" width="990mm" height="990mm" version="1.1" style="shape-rendering:geometricPrecision; text-rendering:geometricPrecision; image-rendering:optimizeQuality; fill-rule:evenodd; clip-rule:evenodd"
viewBox="0 0 99000 99000"
 xmlns:xlink="http://www.w3.org/1999/xlink">
 <defs>
  <style type="text/css">
   <![CDATA[
    .str0 {stroke:#2B2A29;stroke-width:20;stroke-miterlimit:22.9256}
    .fil4 {fill:none}
    .fil3 {fill:#010101}
    .fil1 {fill:#232323}
    .fil0 {fill:#A3A3A3}
    .fil2 {fill:white}
   ]]>
  </style>
 </defs>
 <g id="Layer_x0020_1">
  <metadata id="CorelCorpID_0Corel-Layer"/>
  <g id="_1076587856">
   <g>
    <polygon class="fil0" points="56092.66,68517.28 56092.66,68390.49 55205.17,68390.49 55205.17,67883.37 56219.45,67883.37 56219.45,67629.79 56092.66,67629.79 56092.66,67756.58 55078.41,67756.58 55078.41,68517.28 "/>
    <polygon class="fil0" points="56092.66,69531.53 56219.45,69531.53 56219.45,69277.95 55205.17,69277.95 55205.17,68770.83 56092.66,68770.83 56092.66,68644.04 55078.41,68644.04 55078.41,69404.74 56092.66,69404.74 "/>
   </g>
   <g>
    <path class="fil1" d="M85886.4 68897.62l126.75 0 0 -633.92 126.79 0 0 -380.33 633.91 0 0 1394.58 -887.45 0 0 -380.33zm0 -507.13l-126.79 0 0 633.92 -126.79 0 0 253.54 -126.79 0 0 126.79 -126.79 0 0 507.12 126.79 0 0 -380.33 1521.4 0 0 380.33 253.55 0 0 -507.12 -126.79 0 0 -126.79 -126.76 0 0 -1648.16 -1141.03 0 0 760.7z"/>
    <path class="fil1" d="M3604.98 69277.95l-887.46 0 0 -633.91 887.46 0 0 126.79 126.79 0 0 380.36 -126.79 0 0 126.76zm-887.46 -1394.58l887.46 0 0 507.12 -887.46 0 0 -507.12zm-253.58 1648.16l1141.04 0 0 -126.79 253.58 0 0 -253.55 126.75 0 0 -380.36 -126.75 0 0 -126.79 -126.79 0 0 -253.55 126.79 0 0 -507.12 -126.79 0 0 -126.79 -126.79 0 0 -126.79 -1141.04 0 0 1901.74z"/>
    <polygon class="fil1" points="27186.41,69531.53 29468.49,69531.53 29468.49,67629.79 29214.91,67629.79 29214.91,69277.95 28454.2,69277.95 28454.2,67629.79 28200.66,67629.79 28200.66,69404.74 27439.96,69404.74 27439.96,69277.95 27313.17,69277.95 27313.17,67629.79 27186.41,67629.79 "/>
    <path class="fil1" d="M64079.91 69151.19l126.79 0 0 -507.15 126.76 0 0 -760.67 760.7 0 0 1394.58 -1014.25 0 0 -126.76zm0 -507.15l-126.79 0 0 507.15 -126.79 0 0 253.55 -253.54 0 0 507.12 253.54 0 0 -380.33 1394.62 0 0 380.33 253.54 0 0 -633.91 -253.54 0 0 -1648.16 -1141.04 0 0 1014.25z"/>
    <polygon class="fil1" points="66235.2,69531.53 66488.78,69531.53 66488.78,69404.74 66615.53,69404.74 66615.53,69277.95 66742.32,69277.95 66742.32,69151.19 66869.11,69151.19 66869.11,69024.41 66995.9,69024.41 66995.9,68770.83 67122.65,68770.83 67122.65,68517.28 67249.44,68517.28 67249.44,68390.49 67376.23,68390.49 67376.23,68263.7 67503.02,68263.7 67503.02,68136.91 67629.81,68136.91 67629.81,69531.53 67883.36,69531.53 67883.36,67629.79 67629.81,67629.79 67629.81,67756.58 67503.02,67756.58 67503.02,67883.37 67376.23,67883.37 67376.23,68010.16 67249.44,68010.16 67249.44,68263.7 67122.65,68263.7 67122.65,68390.49 66995.9,68390.49 66995.9,68517.28 66869.11,68517.28 66869.11,68770.83 66742.32,68770.83 66742.32,68897.62 66615.53,68897.62 66615.53,69024.41 66488.78,69024.41 66488.78,67629.79 66235.2,67629.79 "/>
    <path class="fil1" d="M23763.3 68136.91l126.76 0 0 -126.75 126.79 0 0 -126.79 760.7 0 0 760.67 -760.7 0 0 -126.76 -126.79 0 0 -126.79 -126.76 0 0 -253.58zm126.76 -380.33l-126.76 0 0 126.79 -126.79 0 0 760.67 126.79 0 0 126.79 253.55 0 0 126.79 -126.79 0 0 126.79 -126.76 0 0 126.78 -126.79 0 0 253.55 -126.79 0 0 126.79 253.58 0 0 -126.79 126.76 0 0 -126.79 126.79 0 0 -253.54 126.79 0 0 -126.79 633.91 0 0 633.91 253.54 0 0 -1901.74 -1141.03 0 0 126.79z"/>
    <polygon class="fil1" points="41132.39,69531.53 41385.97,69531.53 41385.97,69404.74 41512.73,69404.74 41512.73,69277.95 41639.52,69277.95 41639.52,69024.41 41766.31,69024.41 41766.31,68897.62 41893.1,68897.62 41893.1,68770.83 42019.89,68770.83 42019.89,68517.28 42146.64,68517.28 42146.64,68390.49 42273.43,68390.49 42273.43,68263.7 42400.22,68263.7 42400.22,68136.91 42527.01,68136.91 42527.01,69531.53 42780.55,69531.53 42780.55,67629.79 42527.01,67629.79 42527.01,67756.58 42400.22,67756.58 42400.22,67883.37 42273.43,67883.37 42273.43,68136.91 42146.64,68136.91 42146.64,68263.7 42019.89,68263.7 42019.89,68517.28 41893.1,68517.28 41893.1,68644.04 41766.31,68644.04 41766.31,68770.83 41639.52,68770.83 41639.52,68897.62 41512.73,68897.62 41512.73,69151.19 41385.97,69151.19 41385.97,67629.79 41132.39,67629.79 "/>
    <path class="fil1" d="M32638.02 68390.49l126.79 0 0 -253.58 126.79 0 0 -126.75 126.75 0 0 -126.79 887.49 0 0 126.79 126.79 0 0 126.75 126.76 0 0 887.5 -126.76 0 0 126.78 -126.79 0 0 126.76 -887.49 0 0 -126.76 -126.75 0 0 -126.78 -126.79 0 0 -253.58 -126.79 0 0 -380.34zm380.33 -633.91l-253.54 0 0 126.79 -126.79 0 0 126.79 -126.79 0 0 1141.03 126.79 0 0 126.76 126.79 0 0 126.79 253.54 0 0 126.79 887.49 0 0 -126.79 126.79 0 0 -126.79 126.76 0 0 -126.76 126.79 0 0 -126.78 126.79 0 0 -760.71 -126.79 0 0 -253.54 -126.79 0 0 -126.79 -126.76 0 0 -126.79 -253.58 0 0 -126.79 -760.7 0 0 126.79z"/>
    <polygon class="fil1" points="9690.5,69531.53 9944.08,69531.53 9944.08,67883.37 10958.32,67883.37 10958.32,69531.53 11211.9,69531.53 11211.9,67629.79 9690.5,67629.79 "/>
    <path class="fil1" d="M8549.46 69024.41l-126.75 0 0 126.78 -126.79 0 0 126.76 -380.37 0 0 126.79 -126.76 0 0 -126.79 -380.37 0 0 -126.76 -126.75 0 0 -126.78 -126.79 0 0 -887.5 126.79 0 0 -126.75 126.75 0 0 -126.79 887.5 0 0 126.79 126.79 0 0 126.75 126.75 0 0 253.58 126.79 0 0 380.34 -126.79 0 0 253.58zm-1014.25 -1267.83l-253.54 0 0 126.79 -126.79 0 0 126.79 -126.79 0 0 126.75 -126.79 0 0 887.5 126.79 0 0 126.78 126.79 0 0 126.76 126.79 0 0 126.79 126.75 0 0 126.79 887.5 0 0 -126.79 253.54 0 0 -126.79 126.79 0 0 -253.54 126.79 0 0 -887.5 -126.79 0 0 -253.54 -126.79 0 0 -126.79 -253.54 0 0 -126.79 -760.71 0 0 126.79z"/>
    <path class="fil1" d="M93873.65 69024.41l-126.79 0 0 126.78 -126.79 0 0 126.76 -380.33 0 0 126.79 -126.79 0 0 -126.79 -380.33 0 0 -126.76 -126.79 0 0 -126.78 -126.79 0 0 -887.5 126.79 0 0 -126.75 126.79 0 0 -126.79 887.45 0 0 126.79 126.79 0 0 126.75 126.79 0 0 380.37 126.76 0 0 126.76 -126.76 0 0 380.37zm-1141.03 -1267.83l-126.79 0 0 126.79 -126.79 0 0 126.79 -126.79 0 0 126.75 -126.79 0 0 887.5 126.79 0 0 126.78 126.79 0 0 126.76 126.79 0 0 126.79 126.79 0 0 126.79 887.45 0 0 -126.79 126.79 0 0 -126.79 126.79 0 0 -126.76 126.76 0 0 -126.78 126.79 0 0 -887.5 -126.79 0 0 -126.75 -126.76 0 0 -126.79 -126.79 0 0 -126.79 -126.79 0 0 -126.79 -887.45 0 0 126.79z"/>
    <polygon class="fil1" points="12099.36,69531.53 13493.97,69531.53 13493.97,69404.74 13367.19,69404.74 13367.19,69277.95 12352.94,69277.95 12352.94,68644.04 13367.19,68644.04 13367.19,68517.28 12352.94,68517.28 12352.94,67883.37 13493.97,67883.37 13493.97,67629.79 12099.36,67629.79 "/>
    <path class="fil1" d="M96028.94 68644.04l-760.71 0 0 -760.67 760.71 0 0 126.79 126.75 0 0 507.12 -126.75 0 0 126.76zm-1014.25 887.49l253.54 0 0 -633.91 760.71 0 0 -126.79 126.75 0 0 -126.79 126.79 0 0 -126.76 126.79 0 0 -633.91 -126.79 0 0 -126.79 -253.54 0 0 -126.79 -1014.25 0 0 1901.74z"/>
    <path class="fil1" d="M5887.05 68517.28l-126.79 0 0 126.76 -760.66 0 0 -760.67 887.45 0 0 126.79 126.79 0 0 380.33 -126.79 0 0 126.79zm-1141.03 1014.25l253.58 0 0 -633.91 760.66 0 0 -126.79 253.58 0 0 -126.79 126.79 0 0 -760.67 -126.79 0 0 -126.79 -126.79 0 0 -126.79 -1141.03 0 0 1901.74z"/>
    <polygon class="fil1" points="35554,68010.16 35427.21,68010.16 35427.21,69024.41 35300.42,69024.41 35300.42,69277.95 34920.09,69277.95 34920.09,69531.53 35300.42,69531.53 35300.42,69404.74 35427.21,69404.74 35427.21,69277.95 35554,69277.95 35554,68644.04 35680.79,68644.04 35680.79,67883.37 36441.46,67883.37 36441.46,69531.53 36695.04,69531.53 36695.04,67629.79 35554,67629.79 "/>
    <polygon class="fil1" points="88041.68,69531.53 89309.51,69531.53 89309.51,69277.95 88295.22,69277.95 88295.22,68644.04 89182.72,68644.04 89182.72,68517.28 88295.22,68517.28 88295.22,67883.37 89309.51,67883.37 89309.51,67629.79 88041.68,67629.79 "/>
    <path class="fil1" d="M58121.15 68644.04l-887.46 0 0 -760.67 887.46 0 0 126.79 126.79 0 0 507.12 -126.79 0 0 126.76zm-1141.03 887.49l253.57 0 0 -633.91 760.71 0 0 -126.79 253.54 0 0 -126.79 126.79 0 0 -760.67 -126.79 0 0 -126.79 -253.54 0 0 -126.79 -1014.28 0 0 1901.74z"/>
    <path class="fil1" d="M37962.86 68644.04l126.76 0 0 -380.34 126.79 0 0 -253.54 126.79 0 0 126.75 126.79 0 0 253.58 126.79 0 0 380.34 -633.92 0 0 -126.79zm253.55 -887.46l-126.79 0 0 380.33 -126.76 0 0 253.58 -126.79 0 0 253.55 -126.79 0 0 253.58 -126.79 0 0 380.33 -126.75 0 0 253.58 126.75 0 0 -126.79 126.79 0 0 -253.55 126.79 0 0 -126.78 1014.25 0 0 253.54 126.79 0 0 253.58 253.54 0 0 -253.58 -126.75 0 0 -253.54 -126.79 0 0 -253.58 -126.79 0 0 -380.34 -126.79 0 0 -253.58 -126.75 0 0 -253.54 -126.79 0 0 -253.58 -253.58 0 0 126.79z"/>
    <path class="fil1" d="M51528.51 68644.04l-887.49 0 0 -760.67 887.49 0 0 126.79 126.79 0 0 507.12 -126.79 0 0 126.76zm-1141.03 887.49l253.54 0 0 -633.91 760.7 0 0 -126.79 253.58 0 0 -126.79 126.76 0 0 -760.67 -126.76 0 0 -126.79 -253.58 0 0 -126.79 -1014.24 0 0 1901.74z"/>
    <path class="fil1" d="M21607.98 68644.04l126.79 0 0 -253.55 126.79 0 0 -380.33 253.58 0 0 253.54 126.76 0 0 380.34 126.79 0 0 126.79 -760.71 0 0 -126.79zm253.58 -760.67l-126.79 0 0 253.54 -126.79 0 0 253.58 -126.75 0 0 380.34 -126.79 0 0 253.58 -126.79 0 0 253.54 -126.79 0 0 253.58 253.58 0 0 -380.34 126.79 0 0 -126.78 1014.25 0 0 126.78 126.79 0 0 253.55 126.75 0 0 126.79 126.79 0 0 -253.58 -126.79 0 0 -380.33 -126.75 0 0 -253.58 -126.79 0 0 -253.55 -126.79 0 0 -253.58 -126.79 0 0 -380.33 -126.76 0 0 -126.79 -253.58 0 0 253.58z"/>
    <polygon class="fil1" points="308.66,69531.53 1703.24,69531.53 1703.24,69277.95 562.2,69277.95 562.2,68644.04 1449.7,68644.04 1449.7,68517.28 562.2,68517.28 562.2,67756.58 1576.49,67756.58 1576.49,67629.79 308.66,67629.79 "/>
    <path class="fil1" d="M97423.52 68644.04l126.79 0 0 -253.55 126.79 0 0 -380.33 253.54 0 0 253.54 126.79 0 0 380.34 126.79 0 0 126.79 -760.7 0 0 -126.79zm253.58 -760.67l-126.79 0 0 253.54 -126.79 0 0 253.58 -126.79 0 0 253.55 -126.76 0 0 380.37 -126.79 0 0 253.54 -126.79 0 0 253.58 126.79 0 0 -126.79 126.79 0 0 -253.55 126.76 0 0 -126.78 1014.28 0 0 126.78 126.75 0 0 380.34 253.58 0 0 -253.58 -126.79 0 0 -253.54 -126.79 0 0 -380.37 -126.75 0 0 -253.55 -126.79 0 0 -253.58 -126.79 0 0 -253.54 -126.79 0 0 -253.58 -253.54 0 0 253.58z"/>
    <path class="fil1" d="M53683.8 69277.95l-760.71 0 0 -760.67 760.71 0 0 126.76 126.79 0 0 507.15 -126.79 0 0 126.76zm-1014.25 253.58l1141.04 0 0 -126.79 126.79 0 0 -126.79 126.75 0 0 -760.67 -126.75 0 0 -126.79 -1014.29 0 0 -126.79 -126.75 0 0 -633.91 -126.79 0 0 1901.74z"/>
    <polygon class="fil1" points="68770.85,67756.58 68644.06,67756.58 68644.06,67883.37 69658.31,67883.37 69658.31,68010.16 69785.1,68010.16 69785.1,68390.49 69024.39,68390.49 69024.39,68517.28 68897.6,68517.28 68897.6,68644.04 69658.31,68644.04 69658.31,68770.83 69785.1,68770.83 69785.1,69277.95 69531.52,69277.95 69531.52,69404.74 69024.39,69404.74 69024.39,69277.95 68644.06,69277.95 68644.06,69404.74 68770.85,69404.74 68770.85,69531.53 69785.1,69531.53 69785.1,69404.74 69911.89,69404.74 69911.89,69277.95 70038.64,69277.95 70038.64,68770.83 69911.89,68770.83 69911.89,68644.04 69785.1,68644.04 69785.1,68390.49 69911.89,68390.49 69911.89,67756.58 69785.1,67756.58 69785.1,67629.79 68770.85,67629.79 "/>
    <polygon class="fil1" points="17424.21,69404.74 17424.21,69531.53 18058.12,69531.53 18058.12,69404.74 18184.87,69404.74 18184.87,69277.95 17931.33,69277.95 17931.33,69404.74 17424.21,69404.74 17424.21,69277.95 17170.63,69277.95 17170.63,69151.19 17043.84,69151.19 17043.84,68897.62 16917.08,68897.62 16917.08,68263.7 17043.84,68263.7 17043.84,68136.91 17170.63,68136.91 17170.63,68010.16 17297.42,68010.16 17297.42,67883.37 18184.87,67883.37 18184.87,67756.58 18058.12,67756.58 18058.12,67629.79 17170.63,67629.79 17170.63,67756.58 17043.84,67756.58 17043.84,67883.37 16917.08,67883.37 16917.08,68010.16 16790.29,68010.16 16790.29,68263.7 16663.5,68263.7 16663.5,68897.62 16790.29,68897.62 16790.29,69151.19 16917.08,69151.19 16917.08,69277.95 17043.84,69277.95 17043.84,69404.74 "/>
    <polygon class="fil1" points="48358.95,69531.53 49499.98,69531.53 49499.98,69404.74 48612.53,69404.74 48612.53,69277.95 48485.74,69277.95 48485.74,68644.04 49499.98,68644.04 49499.98,68517.28 48485.74,68517.28 48485.74,67883.37 48612.53,67883.37 48612.53,67756.58 49499.98,67756.58 49499.98,67629.79 48358.95,67629.79 "/>
    <polygon class="fil1" points="56092.66,69531.53 56092.66,69404.74 55078.41,69404.74 55078.41,68644.04 56092.66,68644.04 56092.66,68517.28 55078.41,68517.28 55078.41,67756.58 56092.66,67756.58 56092.66,67629.79 54951.62,67629.79 54951.62,69531.53 "/>
    <polygon class="fil1" points="73588.54,67376.25 73715.33,67376.25 73715.33,67503 74222.45,67503 74222.45,67376.25 74349.24,67376.25 74349.24,67249.46 73588.54,67249.46 "/>
    <polygon class="fil1" points="14761.77,67376.25 14888.56,67376.25 14888.56,67503 15268.92,67503 15268.92,67376.25 15395.68,67376.25 15395.68,67249.46 14761.77,67249.46 "/>
    <polygon class="fil1" points="61417.51,69785.07 61544.26,69785.07 61544.26,69658.32 61671.05,69658.32 61671.05,69277.95 61417.51,69277.95 "/>
   </g>
   <g>
    <polygon class="fil2" points="63065.67,30229.16 62558.54,30229.16 62558.54,30355.95 62431.75,30355.95 62431.75,30482.74 62304.96,30482.74 62304.96,30736.29 62178.17,30736.29 62178.17,40118.16 62304.96,40118.16 62304.96,40625.28 62431.75,40625.28 62431.75,40878.83 62558.54,40878.83 62558.54,41005.62 62685.3,41005.62 62685.3,41132.41 62938.88,41132.41 62938.88,41259.2 63319.21,41259.2 63319.21,41385.99 64587.04,41385.99 64587.04,41259.2 65347.74,41259.2 65347.74,41132.41 65728.07,41132.41 65728.07,41005.62 65981.62,41005.62 65981.62,40878.83 66235.2,40878.83 66235.2,40752.07 66488.78,40752.07 66488.78,40625.28 66615.53,40625.28 66615.53,40498.49 66742.32,40498.49 66742.32,40371.7 66869.11,40371.7 66869.11,40244.95 66995.9,40244.95 66995.9,40118.16 67122.65,40118.16 67122.65,39991.37 67249.44,39991.37 67249.44,39864.58 67376.23,39864.58 67376.23,39737.79 67503.02,39737.79 67503.02,39611.04 67629.81,39611.04 67629.81,39484.25 67756.57,39484.25 67756.57,39230.67 67883.36,39230.67 67883.36,38977.12 68010.15,38977.12 68010.15,38723.54 68136.94,38723.54 68136.94,38470 68263.69,38470 68263.69,38089.63 68390.48,38089.63 68390.48,37709.3 68517.27,37709.3 68517.27,37075.38 68644.06,37075.38 68644.06,34412.98 68517.27,34412.98 68517.27,33779.06 68390.48,33779.06 68390.48,33271.94 68263.69,33271.94 68263.69,32891.57 68136.94,32891.57 68136.94,32638.03 68010.15,32638.03 68010.15,32384.45 67883.36,32384.45 67883.36,32257.69 67756.57,32257.69 67756.57,32004.11 67629.81,32004.11 67629.81,31877.32 67503.02,31877.32 67503.02,31750.53 67376.23,31750.53 67376.23,31623.78 67249.44,31623.78 67249.44,31496.99 67122.65,31496.99 67122.65,31370.2 66995.9,31370.2 66995.9,31243.41 66869.11,31243.41 66869.11,31116.66 66742.32,31116.66 66742.32,30989.87 66615.53,30989.87 66615.53,30863.08 66361.99,30863.08 66361.99,30736.29 66108.41,30736.29 66108.41,30609.53 65854.86,30609.53 65854.86,30482.74 65601.28,30482.74 65601.28,30355.95 65220.95,30355.95 65220.95,30229.16 64460.25,30229.16 64460.25,30102.37 63065.67,30102.37 "/>
    <polygon class="fil2" points="34159.39,30229.16 33779.05,30229.16 33779.05,30355.95 33652.26,30355.95 33652.26,30482.74 33525.51,30482.74 33525.51,30609.53 33398.72,30609.53 33398.72,40244.95 33525.51,40244.95 33525.51,40625.28 33652.26,40625.28 33652.26,40878.83 33779.05,40878.83 33779.05,41005.62 33905.84,41005.62 33905.84,41132.41 34032.63,41132.41 34032.63,41259.2 34666.51,41259.2 34666.51,41385.99 35807.55,41385.99 35807.55,41259.2 36568.25,41259.2 36568.25,41132.41 36948.58,41132.41 36948.58,41005.62 37202.16,41005.62 37202.16,40878.83 37455.74,40878.83 37455.74,40752.07 37582.49,40752.07 37582.49,40625.28 37836.07,40625.28 37836.07,40498.49 37962.86,40498.49 37962.86,40371.7 38089.62,40371.7 38089.62,40244.95 38216.41,40244.95 38216.41,40118.16 38343.2,40118.16 38343.2,39991.37 38469.99,39991.37 38469.99,39864.58 38596.78,39864.58 38596.78,39737.79 38723.53,39737.79 38723.53,39611.04 38850.32,39611.04 38850.32,39357.46 38977.11,39357.46 38977.11,39230.67 39103.9,39230.67 39103.9,38977.12 39230.65,38977.12 39230.65,38723.54 39357.44,38723.54 39357.44,38343.21 39484.23,38343.21 39484.23,37962.88 39611.02,37962.88 39611.02,37455.72 39737.81,37455.72 39737.81,36821.84 39864.57,36821.84 39864.57,34286.19 39737.81,34286.19 39737.81,33905.85 39611.02,33905.85 39611.02,33398.73 39484.23,33398.73 39484.23,33018.36 39357.44,33018.36 39357.44,32764.82 39230.65,32764.82 39230.65,32384.45 39103.9,32384.45 39103.9,32257.69 38977.11,32257.69 38977.11,32004.11 38850.32,32004.11 38850.32,31877.32 38723.53,31877.32 38723.53,31750.53 38596.78,31750.53 38596.78,31623.78 38469.99,31623.78 38469.99,31496.99 38343.2,31496.99 38343.2,31370.2 38216.41,31370.2 38216.41,31243.41 38089.62,31243.41 38089.62,31116.66 37962.86,31116.66 37962.86,30989.87 37836.07,30989.87 37836.07,30863.08 37582.49,30863.08 37582.49,30736.29 37328.95,30736.29 37328.95,30609.53 37075.37,30609.53 37075.37,30482.74 36821.83,30482.74 36821.83,30355.95 36441.46,30355.95 36441.46,30229.16 35680.79,30229.16 35680.79,30102.37 34159.39,30102.37 "/>
    <polygon class="fil2" points="85506.03,51908.86 85125.69,51908.86 85125.69,52035.65 84872.11,52035.65 84872.11,52162.4 84745.36,52162.4 84745.36,52289.19 84618.57,52289.19 84618.57,52415.98 84491.78,52415.98 84491.78,52542.77 84364.99,52542.77 84364.99,52669.56 84238.2,52669.56 84238.2,52796.31 84111.45,52796.31 84111.45,53049.89 83984.66,53049.89 83984.66,53303.44 83857.87,53303.44 83857.87,53557.02 83731.08,53557.02 83731.08,54064.14 83604.32,54064.14 83604.32,56346.21 83731.08,56346.21 83731.08,56853.34 83857.87,56853.34 83857.87,57233.71 83984.66,57233.71 83984.66,57614.04 84111.45,57614.04 84111.45,57867.58 84238.2,57867.58 84238.2,58121.16 84364.99,58121.16 84364.99,58247.95 84491.78,58247.95 84491.78,58374.74 84618.57,58374.74 84618.57,58501.5 84745.36,58501.5 84745.36,58628.29 84872.11,58628.29 84872.11,58755.08 84998.9,58755.08 84998.9,58881.87 85252.48,58881.87 85252.48,59008.62 85506.03,59008.62 85506.03,59135.41 87027.43,59135.41 87027.43,59008.62 87154.19,59008.62 87154.19,58881.87 87407.77,58881.87 87407.77,58755.08 87534.56,58755.08 87534.56,58628.29 87661.31,58628.29 87661.31,58501.5 87788.1,58501.5 87788.1,58374.74 87914.89,58374.74 87914.89,57994.37 88041.68,57994.37 88041.68,57740.83 88168.47,57740.83 88168.47,57487.25 88295.22,57487.25 88295.22,56980.13 88422.01,56980.13 88422.01,54317.72 88295.22,54317.72 88295.22,53937.35 88168.47,53937.35 88168.47,53557.02 88041.68,53557.02 88041.68,53303.44 87914.89,53303.44 87914.89,53049.89 87788.1,53049.89 87788.1,52796.31 87661.31,52796.31 87661.31,52669.56 87534.56,52669.56 87534.56,52542.77 87407.77,52542.77 87407.77,52415.98 87280.98,52415.98 87280.98,52289.19 87154.19,52289.19 87154.19,52162.4 87027.43,52162.4 87027.43,52035.65 86773.85,52035.65 86773.85,51908.86 86393.52,51908.86 86393.52,51782.07 85506.03,51782.07 "/>
    <polygon class="fil2" points="3224.65,52035.65 2971.07,52035.65 2971.07,52162.4 2844.28,52162.4 2844.28,58374.74 2971.07,58374.74 2971.07,58755.08 3097.86,58755.08 3097.86,58881.87 3351.4,58881.87 3351.4,59008.62 4746.02,59008.62 4746.02,58881.87 5126.35,58881.87 5126.35,58755.08 5379.93,58755.08 5379.93,58628.29 5633.47,58628.29 5633.47,58501.5 5760.26,58501.5 5760.26,58374.74 5887.05,58374.74 5887.05,58247.95 6013.84,58247.95 6013.84,58121.16 6140.63,58121.16 6140.63,57994.37 6267.39,57994.37 6267.39,57867.58 6394.18,57867.58 6394.18,57614.04 6520.97,57614.04 6520.97,57360.46 6647.76,57360.46 6647.76,56980.13 6774.51,56980.13 6774.51,56473 6901.3,56473 6901.3,54190.93 6774.51,54190.93 6774.51,53810.6 6647.76,53810.6 6647.76,53557.02 6520.97,53557.02 6520.97,53303.44 6394.18,53303.44 6394.18,53049.89 6267.39,53049.89 6267.39,52923.1 6140.63,52923.1 6140.63,52796.31 6013.84,52796.31 6013.84,52669.56 5887.05,52669.56 5887.05,52542.77 5760.26,52542.77 5760.26,52415.98 5506.72,52415.98 5506.72,52289.19 5253.14,52289.19 5253.14,52162.4 5126.35,52162.4 5126.35,52035.65 4619.23,52035.65 4619.23,51908.86 3224.65,51908.86 "/>
    <polygon class="fil2" points="59896.1,52035.65 59642.56,52035.65 59642.56,52162.4 59515.77,52162.4 59515.77,58501.5 59642.56,58501.5 59642.56,58755.08 59769.31,58755.08 59769.31,58881.87 59896.1,58881.87 59896.1,59008.62 61290.72,59008.62 61290.72,58881.87 61797.84,58881.87 61797.84,58755.08 62051.38,58755.08 62051.38,58628.29 62178.17,58628.29 62178.17,58501.5 62431.75,58501.5 62431.75,58374.74 62558.54,58374.74 62558.54,58247.95 62685.3,58247.95 62685.3,58121.16 62812.09,58121.16 62812.09,57994.37 62938.88,57994.37 62938.88,57740.83 63065.67,57740.83 63065.67,57487.25 63192.42,57487.25 63192.42,57233.71 63319.21,57233.71 63319.21,56853.34 63446,56853.34 63446,56473 63572.79,56473 63572.79,54317.72 63446,54317.72 63446,53937.35 63319.21,53937.35 63319.21,53683.81 63192.42,53683.81 63192.42,53430.23 63065.67,53430.23 63065.67,53049.89 62938.88,53049.89 62938.88,52923.1 62812.09,52923.1 62812.09,52796.31 62685.3,52796.31 62685.3,52669.56 62558.54,52669.56 62558.54,52542.77 62304.96,52542.77 62304.96,52415.98 62178.17,52415.98 62178.17,52289.19 61924.63,52289.19 61924.63,52162.4 61671.05,52162.4 61671.05,52035.65 61290.72,52035.65 61290.72,51908.86 59896.1,51908.86 "/>
    <polygon class="fil2" points="47598.28,35807.56 47471.49,35807.56 47471.49,35934.35 47344.7,35934.35 47344.7,36061.14 47217.91,36061.14 47217.91,36187.93 47091.16,36187.93 47091.16,36314.68 46964.37,36314.68 46964.37,36568.26 46837.58,36568.26 46837.58,36821.84 46710.79,36821.84 46710.79,37075.38 46584.03,37075.38 46584.03,37455.72 46457.24,37455.72 46457.24,38977.12 46584.03,38977.12 46584.03,39230.67 46710.79,39230.67 46710.79,39611.04 46837.58,39611.04 46837.58,39737.79 46964.37,39737.79 46964.37,39991.37 47091.16,39991.37 47091.16,40118.16 47217.91,40118.16 47217.91,40244.95 47344.7,40244.95 47344.7,40371.7 47471.49,40371.7 47471.49,40498.49 47851.82,40498.49 47851.82,40625.28 48105.4,40625.28 48105.4,40752.07 48358.95,40752.07 48358.95,40878.83 49753.56,40878.83 49753.56,40752.07 50007.14,40752.07 50007.14,40625.28 50387.48,40625.28 50387.48,40498.49 50641.02,40498.49 50641.02,40371.7 50767.81,40371.7 50767.81,40244.95 51021.39,40244.95 51021.39,40118.16 51148.18,40118.16 51148.18,39991.37 51274.93,39991.37 51274.93,39864.58 51401.72,39864.58 51401.72,39737.79 51528.51,39737.79 51528.51,39611.04 51655.3,39611.04 51655.3,39357.46 51528.51,39357.46 51528.51,39230.67 51401.72,39230.67 51401.72,39103.91 51274.93,39103.91 51274.93,38977.12 51148.18,38977.12 51148.18,38850.33 51021.39,38850.33 51021.39,38723.54 50894.6,38723.54 50894.6,38596.75 50767.81,38596.75 50767.81,38470 50641.02,38470 50641.02,38343.21 50514.27,38343.21 50514.27,38216.42 50387.48,38216.42 50387.48,38089.63 50260.69,38089.63 50260.69,37962.88 50133.9,37962.88 50133.9,37836.09 50007.14,37836.09 50007.14,37709.3 49880.35,37709.3 49880.35,37582.51 49753.56,37582.51 49753.56,37455.72 49626.77,37455.72 49626.77,37328.96 49499.98,37328.96 49499.98,37202.17 49373.23,37202.17 49373.23,37075.38 49246.44,37075.38 49246.44,36948.59 48992.86,36948.59 48992.86,36821.84 48866.11,36821.84 48866.11,36695.05 48739.32,36695.05 48739.32,36568.26 48612.53,36568.26 48612.53,36441.47 48485.74,36441.47 48485.74,36314.68 48358.95,36314.68 48358.95,36187.93 48232.19,36187.93 48232.19,36061.14 48105.4,36061.14 48105.4,35934.35 47978.61,35934.35 47978.61,35807.56 47851.82,35807.56 47851.82,35680.8 47598.28,35680.8 "/>
    <polygon class="fil2" points="48485.74,30102.37 48232.19,30102.37 48232.19,30229.16 48105.4,30229.16 48105.4,30355.95 47978.61,30355.95 47978.61,30482.74 47851.82,30482.74 47851.82,30736.29 47725.07,30736.29 47725.07,31116.66 47598.28,31116.66 47598.28,32384.45 47725.07,32384.45 47725.07,32638.03 47851.82,32638.03 47851.82,32891.57 47978.61,32891.57 47978.61,33018.36 48105.4,33018.36 48105.4,33145.15 48232.19,33145.15 48232.19,33271.94 48358.95,33271.94 48358.95,33398.73 48485.74,33398.73 48485.74,33525.48 48612.53,33525.48 48612.53,33652.27 48739.32,33652.27 48739.32,33779.06 48866.11,33779.06 48866.11,33905.85 48992.86,33905.85 48992.86,34032.61 49119.65,34032.61 49119.65,34159.4 49246.44,34159.4 49246.44,34286.19 49499.98,34286.19 49499.98,34159.4 49626.77,34159.4 49626.77,34032.61 49753.56,34032.61 49753.56,33905.85 49880.35,33905.85 49880.35,33779.06 50007.14,33779.06 50007.14,33652.27 50133.9,33652.27 50133.9,33398.73 50260.69,33398.73 50260.69,33145.15 50387.48,33145.15 50387.48,32891.57 50514.27,32891.57 50514.27,32511.24 50641.02,32511.24 50641.02,31496.99 50514.27,31496.99 50514.27,31116.66 50387.48,31116.66 50387.48,30736.29 50260.69,30736.29 50260.69,30482.74 50133.9,30482.74 50133.9,30355.95 50007.14,30355.95 50007.14,30229.16 49880.35,30229.16 49880.35,30102.37 49626.77,30102.37 49626.77,29975.62 48485.74,29975.62 "/>
    <polygon class="fil2" points="93746.86,52035.65 93620.07,52035.65 93620.07,55458.76 94887.9,55458.76 94887.9,55331.97 95141.44,55331.97 95141.44,55205.18 95268.23,55205.18 95268.23,55078.39 95395.02,55078.39 95395.02,54951.63 95521.81,54951.63 95521.81,54824.84 95648.57,54824.84 95648.57,54571.26 95775.36,54571.26 95775.36,54190.93 95902.15,54190.93 95902.15,53176.68 95775.36,53176.68 95775.36,52796.31 95648.57,52796.31 95648.57,52542.77 95521.81,52542.77 95521.81,52415.98 95395.02,52415.98 95395.02,52289.19 95268.23,52289.19 95268.23,52162.4 95141.44,52162.4 95141.44,52035.65 94887.9,52035.65 94887.9,51908.86 93746.86,51908.86 "/>
    <polygon class="fil2" points="48612.53,55585.51 48485.74,55585.51 48485.74,55712.3 48358.95,55712.3 48358.95,55839.09 48232.19,55839.09 48232.19,55965.88 48105.4,55965.88 48105.4,56219.42 47978.61,56219.42 47978.61,56599.79 47851.82,56599.79 47851.82,57487.25 47978.61,57487.25 47978.61,57867.58 48105.4,57867.58 48105.4,58121.16 48232.19,58121.16 48232.19,58247.95 48358.95,58247.95 48358.95,58374.74 48485.74,58374.74 48485.74,58501.5 48739.32,58501.5 48739.32,58628.29 49246.44,58628.29 49246.44,58755.08 49753.56,58755.08 49753.56,58628.29 50260.69,58628.29 50260.69,58501.5 50514.27,58501.5 50514.27,58374.74 50641.02,58374.74 50641.02,58247.95 50894.6,58247.95 50894.6,58121.16 51021.39,58121.16 51021.39,57994.37 51148.18,57994.37 51148.18,57740.83 51021.39,57740.83 51021.39,57614.04 50894.6,57614.04 50894.6,57487.25 50767.81,57487.25 50767.81,57360.46 50641.02,57360.46 50641.02,57233.71 50514.27,57233.71 50514.27,57106.92 50387.48,57106.92 50387.48,56980.13 50260.69,56980.13 50260.69,56853.34 50133.9,56853.34 50133.9,56726.55 50007.14,56726.55 50007.14,56599.79 49880.35,56599.79 49880.35,56473 49753.56,56473 49753.56,56346.21 49626.77,56346.21 49626.77,56219.42 49373.23,56219.42 49373.23,56092.67 49246.44,56092.67 49246.44,55965.88 49119.65,55965.88 49119.65,55839.09 48992.86,55839.09 48992.86,55712.3 48866.11,55712.3 48866.11,55585.51 48739.32,55585.51 48739.32,55458.76 48612.53,55458.76 "/>
    <polygon class="fil2" points="49246.44,51908.86 48992.86,51908.86 48992.86,52035.65 48866.11,52035.65 48866.11,52162.4 48739.32,52162.4 48739.32,52415.98 48612.53,52415.98 48612.53,53430.23 48739.32,53430.23 48739.32,53683.81 48866.11,53683.81 48866.11,53810.6 48992.86,53810.6 48992.86,53937.35 49119.65,53937.35 49119.65,54064.14 49246.44,54064.14 49246.44,54190.93 49373.23,54190.93 49373.23,54317.72 49499.98,54317.72 49499.98,54444.47 49626.77,54444.47 49626.77,54571.26 49753.56,54571.26 49753.56,54444.47 49880.35,54444.47 49880.35,54317.72 50007.14,54317.72 50007.14,54190.93 50133.9,54190.93 50133.9,54064.14 50260.69,54064.14 50260.69,53810.6 50387.48,53810.6 50387.48,53430.23 50514.27,53430.23 50514.27,52669.56 50387.48,52669.56 50387.48,52415.98 50260.69,52415.98 50260.69,52162.4 50133.9,52162.4 50133.9,52035.65 50007.14,52035.65 50007.14,51908.86 49753.56,51908.86 49753.56,51782.07 49246.44,51782.07 "/>
    <polygon class="fil2" points="7408.42,68010.16 7281.67,68010.16 7281.67,68136.91 7154.88,68136.91 7154.88,69024.41 7281.67,69024.41 7281.67,69151.19 7408.42,69151.19 7408.42,69277.95 7788.79,69277.95 7788.79,69404.74 7915.55,69404.74 7915.55,69277.95 8295.92,69277.95 8295.92,69151.19 8422.71,69151.19 8422.71,69024.41 8549.46,69024.41 8549.46,68770.83 8676.25,68770.83 8676.25,68390.49 8549.46,68390.49 8549.46,68136.91 8422.71,68136.91 8422.71,68010.16 8295.92,68010.16 8295.92,67883.37 7408.42,67883.37 "/>
    <polygon class="fil2" points="33018.35,68010.16 32891.6,68010.16 32891.6,68136.91 32764.81,68136.91 32764.81,68390.49 32638.02,68390.49 32638.02,68770.83 32764.81,68770.83 32764.81,69024.41 32891.6,69024.41 32891.6,69151.19 33018.35,69151.19 33018.35,69277.95 33905.84,69277.95 33905.84,69151.19 34032.63,69151.19 34032.63,69024.41 34159.39,69024.41 34159.39,68136.91 34032.63,68136.91 34032.63,68010.16 33905.84,68010.16 33905.84,67883.37 33018.35,67883.37 "/>
    <polygon class="fil2" points="92732.62,68010.16 92605.83,68010.16 92605.83,68136.91 92479.04,68136.91 92479.04,69024.41 92605.83,69024.41 92605.83,69151.19 92732.62,69151.19 92732.62,69277.95 93112.95,69277.95 93112.95,69404.74 93239.74,69404.74 93239.74,69277.95 93620.07,69277.95 93620.07,69151.19 93746.86,69151.19 93746.86,69024.41 93873.65,69024.41 93873.65,68644.04 94000.41,68644.04 94000.41,68517.28 93873.65,68517.28 93873.65,68136.91 93746.86,68136.91 93746.86,68010.16 93620.07,68010.16 93620.07,67883.37 92732.62,67883.37 "/>
    <polygon class="fil2" points="64333.46,68644.04 64206.7,68644.04 64206.7,69151.19 64079.91,69151.19 64079.91,69277.95 65094.16,69277.95 65094.16,67883.37 64333.46,67883.37 "/>
    <polygon class="fil2" points="86139.94,68263.7 86013.15,68263.7 86013.15,68897.62 85886.4,68897.62 85886.4,69277.95 86773.85,69277.95 86773.85,67883.37 86139.94,67883.37 "/>
    <polygon class="fil2" points="50641.02,68644.04 51528.51,68644.04 51528.51,68517.28 51655.3,68517.28 51655.3,68010.16 51528.51,68010.16 51528.51,67883.37 50641.02,67883.37 "/>
    <polygon class="fil2" points="57233.69,68644.04 58121.15,68644.04 58121.15,68517.28 58247.94,68517.28 58247.94,68010.16 58121.15,68010.16 58121.15,67883.37 57233.69,67883.37 "/>
    <polygon class="fil2" points="4999.6,68644.04 5760.26,68644.04 5760.26,68517.28 5887.05,68517.28 5887.05,68390.49 6013.84,68390.49 6013.84,68010.16 5887.05,68010.16 5887.05,67883.37 4999.6,67883.37 "/>
    <polygon class="fil2" points="24016.85,68010.16 23890.06,68010.16 23890.06,68136.91 23763.3,68136.91 23763.3,68390.49 23890.06,68390.49 23890.06,68517.28 24016.85,68517.28 24016.85,68644.04 24777.55,68644.04 24777.55,67883.37 24016.85,67883.37 "/>
    <polygon class="fil2" points="52923.09,69277.95 53683.8,69277.95 53683.8,69151.19 53810.59,69151.19 53810.59,68644.04 53683.8,68644.04 53683.8,68517.28 52923.09,68517.28 "/>
    <polygon class="fil2" points="95268.23,68644.04 96028.94,68644.04 96028.94,68517.28 96155.69,68517.28 96155.69,68010.16 96028.94,68010.16 96028.94,67883.37 95268.23,67883.37 "/>
    <polygon class="fil2" points="2717.52,69277.95 3604.98,69277.95 3604.98,69151.19 3731.77,69151.19 3731.77,68770.83 3604.98,68770.83 3604.98,68644.04 2717.52,68644.04 "/>
    <polygon class="fil2" points="2717.52,68390.49 3604.98,68390.49 3604.98,67883.37 2717.52,67883.37 "/>
    <polygon class="fil2" points="21861.56,68390.49 21734.77,68390.49 21734.77,68644.04 21607.98,68644.04 21607.98,68770.83 22368.69,68770.83 22368.69,68644.04 22241.9,68644.04 22241.9,68263.7 22115.14,68263.7 22115.14,68010.16 21861.56,68010.16 "/>
    <polygon class="fil2" points="97677.1,68390.49 97550.31,68390.49 97550.31,68644.04 97423.52,68644.04 97423.52,68770.83 98184.22,68770.83 98184.22,68644.04 98057.43,68644.04 98057.43,68263.7 97930.64,68263.7 97930.64,68010.16 97677.1,68010.16 "/>
    <polygon class="fil2" points="71433.26,68390.49 71306.47,68390.49 71306.47,68644.04 71179.68,68644.04 71179.68,68770.83 71940.38,68770.83 71940.38,68644.04 71813.59,68644.04 71813.59,68263.7 71686.8,68263.7 71686.8,68010.16 71433.26,68010.16 "/>
    <polygon class="fil2" points="59769.31,68263.7 59642.56,68263.7 59642.56,68517.28 59515.77,68517.28 59515.77,68770.83 60149.68,68770.83 60149.68,68390.49 60022.89,68390.49 60022.89,68136.91 59896.1,68136.91 59896.1,68010.16 59769.31,68010.16 "/>
    <polygon class="fil2" points="78913.39,68136.91 78786.6,68136.91 78786.6,68517.28 78659.81,68517.28 78659.81,68770.83 79293.72,68770.83 79293.72,68517.28 79166.93,68517.28 79166.93,68136.91 79040.18,68136.91 79040.18,68010.16 78913.39,68010.16 "/>
    <polygon class="fil2" points="38216.41,68263.7 38089.62,68263.7 38089.62,68644.04 37962.86,68644.04 37962.86,68770.83 38596.78,68770.83 38596.78,68390.49 38469.99,68390.49 38469.99,68136.91 38343.2,68136.91 38343.2,68010.16 38216.41,68010.16 "/>
   </g>
   <g>
    <path class="fil3" d="M46457.24 37455.72l126.79 0 0 -380.34 126.76 0 0 -253.54 126.79 0 0 -253.58 126.79 0 0 -253.58 126.79 0 0 -126.75 126.75 0 0 -126.79 126.79 0 0 -126.79 126.79 0 0 -126.79 126.79 0 0 -126.76 253.54 0 0 126.76 126.79 0 0 126.79 126.79 0 0 126.79 126.79 0 0 126.79 126.76 0 0 126.75 126.79 0 0 126.79 126.79 0 0 126.79 126.79 0 0 126.79 126.79 0 0 126.79 126.75 0 0 126.75 253.58 0 0 126.79 126.79 0 0 126.79 126.75 0 0 126.79 126.79 0 0 126.76 126.79 0 0 126.79 126.79 0 0 126.79 126.79 0 0 126.79 126.76 0 0 126.79 126.79 0 0 126.75 126.79 0 0 126.79 126.79 0 0 126.79 126.75 0 0 126.79 126.79 0 0 126.75 126.79 0 0 126.79 126.79 0 0 126.79 126.79 0 0 126.79 126.75 0 0 126.79 126.79 0 0 126.76 126.79 0 0 126.79 126.79 0 0 253.58 -126.79 0 0 126.75 -126.79 0 0 126.79 -126.79 0 0 126.79 -126.75 0 0 126.79 -126.79 0 0 126.79 -253.58 0 0 126.75 -126.79 0 0 126.79 -253.54 0 0 126.79 -380.34 0 0 126.79 -253.58 0 0 126.76 -1394.61 0 0 -126.76 -253.55 0 0 -126.79 -253.58 0 0 -126.79 -380.33 0 0 -126.79 -126.79 0 0 -126.75 -126.79 0 0 -126.79 -126.75 0 0 -126.79 -126.79 0 0 -253.58 -126.79 0 0 -126.75 -126.79 0 0 -380.37 -126.76 0 0 -253.55 -126.79 0 0 -1521.4zm1141.04 -6339.06l126.79 0 0 -380.37 126.75 0 0 -253.55 126.79 0 0 -126.79 126.79 0 0 -126.79 126.79 0 0 -126.79 253.55 0 0 -126.75 1141.03 0 0 126.75 253.58 0 0 126.79 126.79 0 0 126.79 126.76 0 0 126.79 126.79 0 0 253.55 126.79 0 0 380.37 126.79 0 0 380.33 126.75 0 0 1014.25 -126.75 0 0 380.33 -126.79 0 0 253.58 -126.79 0 0 253.58 -126.79 0 0 253.54 -126.76 0 0 126.79 -126.79 0 0 126.79 -126.79 0 0 126.76 -126.79 0 0 126.79 -126.79 0 0 126.79 -253.54 0 0 -126.79 -126.79 0 0 -126.79 -126.79 0 0 -126.76 -126.75 0 0 -126.79 -126.79 0 0 -126.79 -126.79 0 0 -126.79 -126.79 0 0 -126.75 -126.79 0 0 -126.79 -126.76 0 0 -126.79 -126.79 0 0 -126.79 -126.79 0 0 -126.79 -126.79 0 0 -253.54 -126.75 0 0 -253.58 -126.79 0 0 -1267.79zm760.67 -1901.74l-380.34 0 0 126.79 -380.33 0 0 126.79 -126.79 0 0 126.75 -253.58 0 0 126.79 -253.54 0 0 126.79 -126.79 0 0 126.79 -126.79 0 0 126.75 -126.76 0 0 126.79 -126.79 0 0 253.58 -126.79 0 0 126.79 -126.79 0 0 126.76 -126.79 0 0 253.58 -126.75 0 0 253.54 -126.79 0 0 507.12 -126.79 0 0 1141.04 126.79 0 0 507.16 126.79 0 0 253.54 126.75 0 0 253.58 126.79 0 0 253.55 126.79 0 0 253.58 126.79 0 0 126.79 126.79 0 0 126.75 126.76 0 0 126.79 126.79 0 0 126.79 126.79 0 0 126.79 126.79 0 0 126.75 -126.79 0 0 126.79 -253.58 0 0 126.79 -126.76 0 0 126.79 -253.58 0 0 126.79 -126.79 0 0 126.76 -126.79 0 0 126.79 -253.54 0 0 126.79 -126.79 0 0 126.79 -126.79 0 0 126.75 -126.75 0 0 126.79 -126.79 0 0 126.79 -126.79 0 0 126.79 -126.79 0 0 126.79 -126.79 0 0 126.75 -126.76 0 0 253.58 -126.79 0 0 126.79 -126.79 0 0 253.55 -126.79 0 0 507.12 -126.75 0 0 1521.41 126.75 0 0 507.12 126.79 0 0 253.54 126.79 0 0 253.58 126.79 0 0 253.55 126.76 0 0 126.79 126.79 0 0 126.79 126.79 0 0 126.79 126.79 0 0 126.79 126.79 0 0 126.75 126.75 0 0 126.79 126.79 0 0 126.79 126.79 0 0 126.79 253.54 0 0 126.75 126.79 0 0 126.79 253.58 0 0 126.79 253.55 0 0 126.79 507.12 0 0 126.76 2028.53 0 0 -126.76 380.33 0 0 -126.79 380.37 0 0 -126.79 253.55 0 0 -126.79 126.79 0 0 -126.75 253.54 0 0 -126.79 126.79 0 0 -126.79 126.79 0 0 -126.79 253.58 0 0 -126.75 126.75 0 0 -126.79 126.79 0 0 -126.79 126.79 0 0 -126.79 126.79 0 0 -253.55 126.76 0 0 -126.79 126.79 0 0 -126.79 126.79 0 0 -126.79 126.79 0 0 -126.75 253.54 0 0 126.75 126.79 0 0 126.79 126.79 0 0 126.79 126.79 0 0 126.79 126.75 0 0 126.76 126.79 0 0 126.79 126.79 0 0 126.79 126.79 0 0 126.79 126.79 0 0 253.54 126.76 0 0 126.79 126.79 0 0 126.79 126.79 0 0 126.79 126.79 0 0 126.75 253.54 0 0 126.79 380.37 0 0 126.79 253.54 0 0 126.79 633.92 0 0 126.76 633.91 0 0 126.79 760.7 0 0 -126.79 126.76 0 0 -253.55 -126.76 0 0 -253.58 -126.79 0 0 -126.75 -126.79 0 0 -253.58 -126.79 0 0 -126.79 -126.79 0 0 -253.54 -126.75 0 0 -126.79 -126.79 0 0 -126.79 -126.79 0 0 -253.55 -126.79 0 0 -126.79 -126.76 0 0 -126.79 -126.78 0 0 -253.54 -126.79 0 0 -126.79 -126.79 0 0 -126.79 -126.79 0 0 -126.79 -126.76 0 0 -126.79 -126.79 0 0 -126.75 -126.79 0 0 -253.58 -126.79 0 0 -126.79 -126.75 0 0 -126.76 -126.79 0 0 -126.79 -126.79 0 0 -126.79 -126.79 0 0 -126.79 -126.79 0 0 -126.79 -126.75 0 0 -126.75 -126.79 0 0 -126.79 -126.79 0 0 -126.79 126.79 0 0 -126.79 126.79 0 0 -253.54 126.75 0 0 -126.79 126.79 0 0 -253.58 126.79 0 0 -126.76 126.79 0 0 -253.58 126.79 0 0 -126.79 126.75 0 0 -253.54 126.79 0 0 -126.79 126.79 0 0 -253.58 126.79 0 0 -126.75 126.76 0 0 -253.58 126.79 0 0 -126.79 126.79 0 0 -126.76 126.79 0 0 -253.58 126.78 0 0 -126.79 126.76 0 0 -126.79 126.79 0 0 -126.75 126.79 0 0 -126.79 253.54 0 0 -126.79 253.58 0 0 -126.79 253.58 0 0 -126.75 760.67 0 0 -126.79 126.79 0 0 -633.92 -126.79 0 0 -126.79 -4564.15 0 0 126.79 -126.79 0 0 633.92 126.79 0 0 126.79 507.13 0 0 126.75 507.12 0 0 126.79 126.79 0 0 126.79 126.79 0 0 507.12 -126.79 0 0 253.58 -126.79 0 0 253.55 -126.75 0 0 380.33 -126.79 0 0 126.79 -126.79 0 0 253.58 -126.79 0 0 253.54 -126.76 0 0 253.58 -126.79 0 0 253.55 -126.79 0 0 126.79 -253.58 0 0 -126.79 -126.75 0 0 -126.76 -126.79 0 0 -126.79 -126.79 0 0 -126.79 -126.79 0 0 -126.79 -126.75 0 0 -126.75 -126.79 0 0 -126.79 -126.79 0 0 -126.79 -126.79 0 0 -126.79 -126.79 0 0 -126.79 -126.76 0 0 -126.75 -126.79 0 0 -126.79 -126.79 0 0 -126.79 -126.79 0 0 -126.79 -126.75 0 0 -126.76 -126.79 0 0 -126.79 -126.79 0 0 -126.79 -126.79 0 0 -126.79 -253.54 0 0 -126.79 -126.79 0 0 -126.75 -126.79 0 0 -126.79 -126.79 0 0 -126.79 126.79 0 0 -126.79 126.79 0 0 -126.75 126.79 0 0 -126.79 253.54 0 0 -126.79 126.79 0 0 -126.79 126.79 0 0 -126.79 126.79 0 0 -126.76 253.54 0 0 -126.79 126.79 0 0 -126.79 126.79 0 0 -126.79 126.76 0 0 -126.75 126.79 0 0 -253.58 126.79 0 0 -126.79 126.79 0 0 -253.54 126.79 0 0 -380.37 126.75 0 0 -1014.25 -126.75 0 0 -507.12 -126.79 0 0 -253.55 -126.79 0 0 -253.58 -126.79 0 0 -126.79 -126.79 0 0 -126.79 -126.76 0 0 -126.75 -126.79 0 0 -126.79 -126.79 0 0 -126.79 -126.79 0 0 -126.79 -253.54 0 0 -126.75 -253.58 0 0 -126.79 -253.54 0 0 -126.79 -380.37 0 0 -126.79 -1774.95 0 0 126.79z"/>
    <path class="fil3" d="M68517.27 37709.3l-126.79 0 0 380.33 -126.79 0 0 380.37 -126.75 0 0 253.54 -126.79 0 0 253.58 -126.79 0 0 253.55 -126.79 0 0 253.58 -126.76 0 0 126.79 -126.79 0 0 126.75 -126.79 0 0 126.79 -126.79 0 0 126.79 -126.79 0 0 126.79 -126.75 0 0 126.79 -126.79 0 0 126.75 -126.79 0 0 126.79 -126.79 0 0 126.79 -126.75 0 0 126.79 -253.58 0 0 126.76 -253.58 0 0 126.79 -253.55 0 0 126.79 -380.33 0 0 126.79 -760.7 0 0 126.79 -1267.83 0 0 -126.79 -380.33 0 0 -126.79 -253.58 0 0 -126.79 -126.76 0 0 -126.79 -126.79 0 0 -253.55 -126.79 0 0 -507.12 -126.79 0 0 -9381.87 126.79 0 0 -253.55 126.79 0 0 -126.79 126.79 0 0 -126.79 507.13 0 0 -126.79 1394.58 0 0 126.79 760.7 0 0 126.79 380.33 0 0 126.79 253.58 0 0 126.79 253.55 0 0 126.76 253.58 0 0 126.79 253.54 0 0 126.79 126.79 0 0 126.79 126.79 0 0 126.75 126.79 0 0 126.79 126.75 0 0 126.79 126.79 0 0 126.79 126.79 0 0 126.75 126.79 0 0 126.79 126.79 0 0 126.79 126.76 0 0 253.58 126.79 0 0 126.76 126.79 0 0 253.58 126.79 0 0 253.54 126.75 0 0 380.37 126.79 0 0 507.12 126.79 0 0 633.92 126.79 0 0 2662.4 -126.79 0 0 633.92zm-10269.33 -7733.68l126.79 0 0 126.75 887.46 0 0 126.79 253.58 0 0 126.79 126.79 0 0 126.79 126.75 0 0 380.34 126.79 0 0 9888.99 -126.79 0 0 253.55 -126.75 0 0 126.79 -126.79 0 0 126.79 -126.79 0 0 126.79 -507.13 0 0 126.75 -760.7 0 0 760.7 6592.68 0 0 -126.79 760.66 0 0 -126.79 633.92 0 0 -126.75 380.37 0 0 -126.79 380.33 0 0 -126.79 380.33 0 0 -126.79 253.58 0 0 -126.75 253.55 0 0 -126.79 253.58 0 0 -126.79 253.54 0 0 -126.79 126.79 0 0 -126.79 126.79 0 0 -126.76 253.58 0 0 -126.79 126.75 0 0 -126.79 126.79 0 0 -126.79 126.79 0 0 -126.75 126.79 0 0 -126.79 126.76 0 0 -126.79 126.79 0 0 -126.79 126.79 0 0 -126.79 126.79 0 0 -126.75 126.79 0 0 -126.79 126.75 0 0 -253.58 126.79 0 0 -126.76 126.79 0 0 -253.58 126.79 0 0 -126.79 126.75 0 0 -253.54 126.79 0 0 -380.37 126.79 0 0 -253.54 126.79 0 0 -507.13 126.79 0 0 -380.37 126.76 0 0 -3042.74 -126.76 0 0 -633.91 -126.79 0 0 -253.58 -126.79 0 0 -380.33 -126.79 0 0 -253.58 -126.79 0 0 -253.55 -126.75 0 0 -126.79 -126.79 0 0 -253.58 -126.79 0 0 -126.75 -126.79 0 0 -253.58 -126.75 0 0 -126.79 -126.79 0 0 -126.75 -126.79 0 0 -126.79 -126.79 0 0 -126.79 -126.79 0 0 -126.79 -126.76 0 0 -126.76 -253.58 0 0 -126.79 -126.79 0 0 -126.79 -253.54 0 0 -126.79 -126.79 0 0 -126.79 -253.58 0 0 -126.75 -380.33 0 0 -126.79 -253.55 0 0 -126.79 -507.16 0 0 -126.79 -380.33 0 0 -126.75 -760.7 0 0 -126.79 -1394.58 0 0 -126.79 -6339.1 0 0 760.7z"/>
    <path class="fil3" d="M39737.81 37455.72l-126.79 0 0 507.16 -126.79 0 0 380.33 -126.79 0 0 380.33 -126.79 0 0 253.58 -126.75 0 0 253.55 -126.79 0 0 126.79 -126.79 0 0 253.58 -126.79 0 0 126.75 -126.75 0 0 126.79 -126.79 0 0 126.79 -126.79 0 0 126.79 -126.79 0 0 126.79 -126.79 0 0 126.75 -126.76 0 0 126.79 -126.79 0 0 126.79 -253.58 0 0 126.79 -126.75 0 0 126.76 -253.58 0 0 126.79 -253.58 0 0 126.79 -380.33 0 0 126.79 -760.7 0 0 126.79 -1141.04 0 0 -126.79 -633.88 0 0 -126.79 -126.79 0 0 -126.79 -126.79 0 0 -126.79 -126.79 0 0 -253.55 -126.75 0 0 -380.33 -126.79 0 0 -9635.42 126.79 0 0 -126.79 126.75 0 0 -126.79 126.79 0 0 -126.79 380.34 0 0 -126.79 1521.4 0 0 126.79 760.67 0 0 126.79 380.37 0 0 126.79 253.54 0 0 126.79 253.58 0 0 126.76 253.54 0 0 126.79 253.58 0 0 126.79 126.79 0 0 126.79 126.76 0 0 126.75 126.79 0 0 126.79 126.79 0 0 126.79 126.79 0 0 126.79 126.79 0 0 126.75 126.75 0 0 126.79 126.79 0 0 126.79 126.79 0 0 253.58 126.79 0 0 126.76 126.75 0 0 380.37 126.79 0 0 253.54 126.79 0 0 380.37 126.79 0 0 507.12 126.79 0 0 380.34 126.76 0 0 2535.65 -126.76 0 0 633.88zm-10269.32 -7353.35l887.45 0 0 126.79 380.34 0 0 126.79 126.79 0 0 126.79 126.79 0 0 380.34 126.79 0 0 9635.41 -126.79 0 0 507.13 -126.79 0 0 126.79 -126.79 0 0 126.79 -126.76 0 0 126.79 -760.7 0 0 126.75 -507.12 0 0 760.7 6592.64 0 0 -126.79 633.91 0 0 -126.79 760.7 0 0 -126.75 253.54 0 0 -126.79 507.13 0 0 -126.79 253.58 0 0 -126.79 380.33 0 0 -126.75 253.58 0 0 -126.79 253.54 0 0 -126.79 126.79 0 0 -126.79 253.58 0 0 -126.79 253.55 0 0 -126.76 126.79 0 0 -126.79 126.79 0 0 -126.79 126.79 0 0 -126.79 126.75 0 0 -126.75 126.79 0 0 -126.79 126.79 0 0 -126.79 126.79 0 0 -126.79 126.79 0 0 -126.79 126.75 0 0 -126.75 126.79 0 0 -126.79 126.79 0 0 -253.58 126.79 0 0 -126.76 126.76 0 0 -253.58 126.79 0 0 -126.79 126.79 0 0 -253.54 126.79 0 0 -380.37 126.79 0 0 -380.33 126.75 0 0 -253.58 126.79 0 0 -633.88 126.79 0 0 -2915.99 -126.79 0 0 -507.12 -126.79 0 0 -380.37 -126.75 0 0 -253.54 -126.79 0 0 -380.37 -126.79 0 0 -126.76 -126.79 0 0 -253.58 -126.79 0 0 -253.58 -126.76 0 0 -126.75 -126.79 0 0 -126.79 -126.79 0 0 -253.58 -126.79 0 0 -126.75 -126.75 0 0 -126.79 -126.79 0 0 -126.79 -126.79 0 0 -126.79 -253.58 0 0 -126.76 -126.75 0 0 -126.79 -126.79 0 0 -126.79 -253.58 0 0 -126.79 -253.55 0 0 -126.79 -253.58 0 0 -126.75 -253.54 0 0 -126.79 -380.37 0 0 -126.79 -380.33 0 0 -126.79 -380.34 0 0 -126.75 -760.7 0 0 -126.79 -7733.67 0 0 760.66z"/>
    <path class="fil3" d="M47851.82 56599.79l126.79 0 0 -380.37 126.79 0 0 -253.54 126.79 0 0 -126.79 126.76 0 0 -126.79 126.79 0 0 -126.79 126.79 0 0 -126.75 126.79 0 0 126.75 126.79 0 0 126.79 126.75 0 0 126.79 126.79 0 0 126.79 126.79 0 0 126.79 126.79 0 0 126.75 253.54 0 0 126.79 126.79 0 0 126.79 126.79 0 0 126.79 126.79 0 0 126.76 126.76 0 0 126.79 126.79 0 0 126.79 126.79 0 0 126.79 126.79 0 0 126.79 126.75 0 0 126.75 126.79 0 0 126.79 126.79 0 0 126.79 126.79 0 0 126.79 126.79 0 0 253.54 -126.79 0 0 126.79 -126.79 0 0 126.79 -253.58 0 0 126.79 -126.75 0 0 126.76 -253.58 0 0 126.79 -507.13 0 0 126.79 -507.12 0 0 -126.79 -507.12 0 0 -126.79 -253.58 0 0 -126.76 -126.79 0 0 -126.79 -126.76 0 0 -126.79 -126.79 0 0 -253.58 -126.79 0 0 -380.33 -126.79 0 0 -887.46zm760.71 -4183.81l126.79 0 0 -253.58 126.79 0 0 -126.75 126.75 0 0 -126.79 253.58 0 0 -126.79 507.12 0 0 126.79 253.58 0 0 126.79 126.76 0 0 126.75 126.79 0 0 253.58 126.79 0 0 253.58 126.79 0 0 760.67 -126.79 0 0 380.37 -126.79 0 0 253.54 -126.79 0 0 126.79 -126.76 0 0 126.79 -126.79 0 0 126.75 -126.79 0 0 126.79 -126.79 0 0 -126.79 -126.79 0 0 -126.75 -126.75 0 0 -126.79 -126.79 0 0 -126.79 -126.79 0 0 -126.79 -126.79 0 0 -126.75 -126.75 0 0 -126.79 -126.79 0 0 -253.58 -126.79 0 0 -1014.25zm253.58 -1014.25l-253.58 0 0 126.79 -253.58 0 0 126.76 -126.76 0 0 126.79 -126.79 0 0 126.79 -126.79 0 0 126.79 -126.79 0 0 126.75 -126.75 0 0 253.58 -126.79 0 0 253.58 -126.79 0 0 1394.58 126.79 0 0 253.58 126.79 0 0 253.54 126.75 0 0 126.79 126.79 0 0 126.79 126.79 0 0 126.79 126.79 0 0 253.55 -253.58 0 0 126.79 -126.79 0 0 126.79 -253.54 0 0 126.75 -126.79 0 0 126.79 -126.79 0 0 126.79 -126.79 0 0 126.79 -126.75 0 0 126.79 -126.79 0 0 126.75 -126.79 0 0 126.79 -126.79 0 0 253.58 -126.76 0 0 380.34 -126.79 0 0 1014.24 126.79 0 0 380.37 126.76 0 0 253.55 126.79 0 0 126.79 126.79 0 0 126.79 126.79 0 0 126.75 126.75 0 0 126.79 126.79 0 0 126.79 126.79 0 0 126.79 126.79 0 0 126.79 253.54 0 0 126.75 380.37 0 0 126.79 1521.37 0 0 -126.79 380.34 0 0 -126.75 126.79 0 0 -126.79 253.58 0 0 -126.79 253.54 0 0 -126.79 126.79 0 0 -126.79 126.79 0 0 -126.75 126.79 0 0 -126.79 126.75 0 0 -126.79 126.79 0 0 -253.55 253.58 0 0 126.76 126.76 0 0 126.79 126.79 0 0 126.79 126.79 0 0 126.79 126.79 0 0 126.75 126.79 0 0 126.79 126.75 0 0 126.79 126.79 0 0 126.79 126.79 0 0 126.79 253.54 0 0 126.75 380.37 0 0 126.79 1141.04 0 0 -380.33 -126.79 0 0 -126.79 -126.79 0 0 -126.79 -126.79 0 0 -253.54 -126.75 0 0 -126.79 -126.79 0 0 -253.58 -126.79 0 0 -126.76 -126.79 0 0 -126.79 -126.76 0 0 -253.58 -126.79 0 0 -126.79 -126.79 0 0 -126.75 -126.79 0 0 -126.79 -126.79 0 0 -126.79 -126.75 0 0 -126.79 -126.79 0 0 -126.75 -126.79 0 0 -126.79 -126.79 0 0 -126.79 126.79 0 0 -126.79 126.79 0 0 -126.79 126.79 0 0 -253.55 126.75 0 0 -126.79 126.79 0 0 -253.54 126.79 0 0 -126.79 126.79 0 0 -253.58 126.79 0 0 -126.79 126.76 0 0 -253.54 126.79 0 0 -126.79 126.79 0 0 -126.79 126.79 0 0 -126.76 126.75 0 0 -126.79 507.16 0 0 -126.79 380.33 0 0 -507.12 -2915.98 0 0 507.12 380.33 0 0 126.79 253.58 0 0 126.79 126.79 0 0 380.34 -126.79 0 0 253.54 -126.79 0 0 380.37 -126.79 0 0 253.54 -126.75 0 0 126.79 -126.79 0 0 253.58 -253.58 0 0 -126.79 -126.79 0 0 -126.79 -126.76 0 0 -126.79 -126.79 0 0 -126.75 -126.79 0 0 -126.79 -126.79 0 0 -126.79 -126.75 0 0 -126.79 -126.79 0 0 -126.79 -253.58 0 0 -126.75 -126.79 0 0 -126.79 -126.75 0 0 -126.79 -126.79 0 0 -126.79 -126.79 0 0 -253.55 126.79 0 0 -126.79 126.79 0 0 -126.79 253.54 0 0 -126.79 126.79 0 0 -126.75 126.79 0 0 -126.79 126.79 0 0 -126.79 126.75 0 0 -126.79 126.79 0 0 -253.54 126.79 0 0 -253.58 126.79 0 0 -760.67 -126.79 0 0 -380.37 -126.79 0 0 -253.54 -126.79 0 0 -126.79 -126.75 0 0 -126.79 -126.79 0 0 -126.79 -126.79 0 0 -126.76 -253.58 0 0 -126.79 -507.12 0 0 -126.79 -1267.79 0 0 126.79z"/>
    <path class="fil3" d="M95775.36 54571.26l-126.79 0 0 253.58 -126.76 0 0 126.79 -126.79 0 0 126.76 -126.79 0 0 126.79 -126.79 0 0 126.79 -253.54 0 0 126.79 -1267.83 0 0 -3423.11 126.79 0 0 -126.79 1141.04 0 0 126.79 253.54 0 0 126.75 126.79 0 0 126.79 126.79 0 0 126.79 126.79 0 0 126.79 126.76 0 0 253.54 126.79 0 0 380.37 126.79 0 0 1014.25 -126.79 0 0 380.33zm-4690.94 -2662.4l760.7 0 0 126.79 126.79 0 0 126.75 126.79 0 0 6592.68 -126.79 0 0 126.79 -126.79 0 0 126.75 -253.54 0 0 126.79 -507.16 0 0 507.12 3549.9 0 0 -507.12 -380.33 0 0 -126.79 -507.13 0 0 -126.75 -126.79 0 0 -2789.2 760.71 0 0 126.75 126.75 0 0 126.79 126.79 0 0 126.79 126.79 0 0 253.55 126.79 0 0 126.79 126.79 0 0 253.58 126.75 0 0 253.54 126.79 0 0 253.58 126.79 0 0 253.54 126.79 0 0 126.79 126.76 0 0 253.58 126.79 0 0 253.55 126.79 0 0 126.79 126.79 0 0 253.58 126.75 0 0 126.75 126.79 0 0 126.79 126.79 0 0 126.79 126.79 0 0 126.79 253.54 0 0 126.79 380.37 0 0 126.75 1014.25 0 0 126.79 507.12 0 0 -507.12 -126.79 0 0 -126.79 -253.54 0 0 -126.79 -126.79 0 0 -126.75 -126.79 0 0 -126.79 -126.79 0 0 -126.79 -126.75 0 0 -126.79 -126.79 0 0 -126.76 -126.79 0 0 -126.79 -126.79 0 0 -253.58 -126.79 0 0 -126.79 -126.76 0 0 -253.54 -126.79 0 0 -126.79 -126.79 0 0 -253.54 -126.79 0 0 -126.79 -126.75 0 0 -253.58 -126.79 0 0 -126.79 -126.79 0 0 -253.55 -126.79 0 0 -253.58 -126.79 0 0 -253.54 -126.75 0 0 -253.58 -126.79 0 0 -126.79 253.54 0 0 -126.75 253.58 0 0 -126.79 126.79 0 0 -126.79 126.79 0 0 -126.79 126.75 0 0 -126.76 126.79 0 0 -126.79 126.79 0 0 -126.79 126.79 0 0 -253.58 126.76 0 0 -253.54 126.79 0 0 -1267.83 -126.79 0 0 -380.33 -126.76 0 0 -253.58 -126.79 0 0 -126.79 -126.79 0 0 -126.75 -126.79 0 0 -126.79 -126.75 0 0 -126.79 -126.79 0 0 -126.79 -380.37 0 0 -126.76 -253.54 0 0 -126.79 -4817.73 0 0 507.13z"/>
    <path class="fil3" d="M63446 56853.34l-126.79 0 0 380.37 -126.79 0 0 253.54 -126.75 0 0 253.58 -126.79 0 0 253.54 -126.79 0 0 126.79 -126.79 0 0 126.79 -126.76 0 0 126.79 -126.79 0 0 126.76 -253.58 0 0 126.79 -126.79 0 0 126.79 -253.54 0 0 126.79 -507.12 0 0 126.75 -1394.62 0 0 -126.75 -126.79 0 0 -126.79 -126.75 0 0 -253.58 -126.79 0 0 -6339.1 126.79 0 0 -126.75 253.54 0 0 -126.79 1394.62 0 0 126.79 380.33 0 0 126.75 253.58 0 0 126.79 253.54 0 0 126.79 126.79 0 0 126.79 253.58 0 0 126.79 126.76 0 0 126.75 126.79 0 0 126.79 126.79 0 0 126.79 126.79 0 0 380.34 126.75 0 0 253.58 126.79 0 0 253.54 126.79 0 0 380.37 126.79 0 0 2155.28 -126.79 0 0 380.34zm-6465.88 -5071.27l126.79 0 0 126.79 507.12 0 0 126.79 253.58 0 0 126.75 126.79 0 0 6592.68 -126.79 0 0 126.79 -126.79 0 0 126.75 -253.58 0 0 126.79 -633.88 0 0 507.12 3930.23 0 0 -126.75 887.46 0 0 -126.79 507.12 0 0 -126.79 380.37 0 0 -126.79 380.34 0 0 -126.79 253.54 0 0 -126.75 126.79 0 0 -126.79 253.58 0 0 -126.79 126.79 0 0 -126.79 126.75 0 0 -126.76 126.79 0 0 -126.79 126.79 0 0 -126.79 126.79 0 0 -126.79 126.76 0 0 -126.79 126.79 0 0 -126.75 126.79 0 0 -253.58 126.79 0 0 -253.54 126.75 0 0 -253.58 126.79 0 0 -380.34 126.79 0 0 -380.37 126.79 0 0 -2028.49 -126.79 0 0 -380.33 -126.79 0 0 -380.37 -126.79 0 0 -253.55 -126.75 0 0 -126.79 -126.79 0 0 -126.79 -126.79 0 0 -253.54 -126.79 0 0 -126.79 -126.76 0 0 -126.79 -126.79 0 0 -126.79 -126.79 0 0 -126.79 -126.79 0 0 -126.75 -253.54 0 0 -126.79 -253.58 0 0 -126.79 -253.54 0 0 -126.79 -380.37 0 0 -126.76 -507.13 0 0 -126.79 -5198.05 0 0 380.34z"/>
    <path class="fil3" d="M6774.51 56980.13l-126.75 0 0 380.33 -126.79 0 0 253.58 -126.79 0 0 253.54 -126.79 0 0 126.79 -126.76 0 0 126.79 -126.79 0 0 126.79 -126.79 0 0 126.79 -126.79 0 0 126.76 -126.79 0 0 126.79 -253.54 0 0 126.79 -253.58 0 0 126.79 -380.33 0 0 126.75 -1394.62 0 0 -126.75 -253.54 0 0 -126.79 -126.79 0 0 -380.34 -126.79 0 0 -6212.34 126.79 0 0 -126.75 253.58 0 0 -126.79 1394.58 0 0 126.79 507.12 0 0 126.75 126.79 0 0 126.79 253.58 0 0 126.79 253.54 0 0 126.79 126.79 0 0 126.79 126.79 0 0 126.75 126.79 0 0 126.79 126.76 0 0 126.79 126.79 0 0 253.55 126.79 0 0 253.58 126.79 0 0 253.58 126.75 0 0 380.33 126.79 0 0 2282.07 -126.79 0 0 507.13zm-6339.06 -5198.06l253.54 0 0 126.79 380.37 0 0 126.79 126.76 0 0 126.75 126.79 0 0 6719.47 -126.79 0 0 126.75 -253.55 0 0 126.79 -633.91 0 0 507.12 3930.23 0 0 -126.75 1014.25 0 0 -126.79 380.33 0 0 -126.79 380.37 0 0 -126.79 253.55 0 0 -126.79 253.58 0 0 -126.75 253.54 0 0 -126.79 126.79 0 0 -126.79 253.58 0 0 -126.79 126.79 0 0 -126.76 126.75 0 0 -126.79 126.79 0 0 -126.79 126.79 0 0 -126.79 126.79 0 0 -253.54 126.76 0 0 -126.79 126.79 0 0 -253.58 126.79 0 0 -253.54 126.79 0 0 -380.37 126.79 0 0 -507.13 126.75 0 0 -2155.28 -126.75 0 0 -380.33 -126.79 0 0 -253.58 -126.79 0 0 -253.55 -126.79 0 0 -253.58 -126.79 0 0 -126.79 -126.76 0 0 -126.75 -126.79 0 0 -126.79 -126.79 0 0 -126.79 -126.79 0 0 -126.79 -126.75 0 0 -126.79 -126.79 0 0 -126.75 -253.58 0 0 -126.79 -253.54 0 0 -126.79 -253.58 0 0 -126.79 -507.13 0 0 -126.76 -380.33 0 0 -126.79 -5071.27 0 0 380.34z"/>
    <polygon class="fil3" points="36061.12,51908.86 36695.04,51908.86 36695.04,52035.65 36948.58,52035.65 36948.58,52162.4 37075.37,52162.4 37075.37,52289.19 37202.16,52289.19 37202.16,52542.77 37328.95,52542.77 37328.95,58374.74 37202.16,58374.74 37202.16,58755.08 37075.37,58755.08 37075.37,58881.87 36948.58,58881.87 36948.58,59008.62 36695.04,59008.62 36695.04,59135.41 36187.91,59135.41 36187.91,59642.53 39357.44,59642.53 39357.44,59135.41 38723.53,59135.41 38723.53,59008.62 38469.99,59008.62 38469.99,58881.87 38343.2,58881.87 38343.2,58755.08 38216.41,58755.08 38216.41,58501.5 38089.62,58501.5 38089.62,53557.02 38216.41,53557.02 38216.41,53683.81 38343.2,53683.81 38343.2,53810.6 38469.99,53810.6 38469.99,54064.14 38596.78,54064.14 38596.78,54190.93 38723.53,54190.93 38723.53,54317.72 38850.32,54317.72 38850.32,54571.26 38977.11,54571.26 38977.11,54698.05 39103.9,54698.05 39103.9,54824.84 39230.65,54824.84 39230.65,54951.63 39357.44,54951.63 39357.44,55078.39 39484.23,55078.39 39484.23,55331.97 39611.02,55331.97 39611.02,55458.76 39737.81,55458.76 39737.81,55585.51 39864.57,55585.51 39864.57,55712.3 39991.36,55712.3 39991.36,55839.09 40118.15,55839.09 40118.15,56092.67 40244.94,56092.67 40244.94,56219.42 40371.69,56219.42 40371.69,56346.21 40498.48,56346.21 40498.48,56599.79 40625.27,56599.79 40625.27,56726.55 40752.06,56726.55 40752.06,56853.34 40878.85,56853.34 40878.85,56980.13 41005.6,56980.13 41005.6,57233.71 41132.39,57233.71 41132.39,57360.46 41259.18,57360.46 41259.18,57614.04 41385.97,57614.04 41385.97,57740.83 41512.73,57740.83 41512.73,57867.58 41639.52,57867.58 41639.52,57994.37 41766.31,57994.37 41766.31,58121.16 41893.1,58121.16 41893.1,58247.95 42019.89,58247.95 42019.89,58501.5 42146.64,58501.5 42146.64,58628.29 42273.43,58628.29 42273.43,58881.87 42400.22,58881.87 42400.22,59008.62 42527.01,59008.62 42527.01,59135.41 42653.76,59135.41 42653.76,59262.2 42780.55,59262.2 42780.55,59388.99 42907.34,59388.99 42907.34,59642.53 43034.13,59642.53 43034.13,59769.32 43668.05,59769.32 43668.05,53176.68 43794.8,53176.68 43794.8,52415.98 43921.59,52415.98 43921.59,52162.4 44048.38,52162.4 44048.38,52035.65 44175.17,52035.65 44175.17,51908.86 44809.08,51908.86 44809.08,51274.94 41639.52,51274.94 41639.52,51782.07 41766.31,51782.07 41766.31,51908.86 42527.01,51908.86 42527.01,52035.65 42653.76,52035.65 42653.76,52162.4 42780.55,52162.4 42780.55,52289.19 42907.34,52289.19 42907.34,53176.68 43034.13,53176.68 43034.13,57106.92 42907.34,57106.92 42907.34,56980.13 42780.55,56980.13 42780.55,56853.34 42653.76,56853.34 42653.76,56726.55 42527.01,56726.55 42527.01,56473 42400.22,56473 42400.22,56346.21 42273.43,56346.21 42273.43,56219.42 42146.64,56219.42 42146.64,56092.67 42019.89,56092.67 42019.89,55839.09 41893.1,55839.09 41893.1,55712.3 41766.31,55712.3 41766.31,55585.51 41639.52,55585.51 41639.52,55458.76 41512.73,55458.76 41512.73,55331.97 41385.97,55331.97 41385.97,55205.18 41259.18,55205.18 41259.18,55078.39 41132.39,55078.39 41132.39,54824.84 41005.6,54824.84 41005.6,54698.05 40878.85,54698.05 40878.85,54444.47 40752.06,54444.47 40752.06,54317.72 40625.27,54317.72 40625.27,54190.93 40498.48,54190.93 40498.48,54064.14 40371.69,54064.14 40371.69,53937.35 40244.94,53937.35 40244.94,53683.81 40118.15,53683.81 40118.15,53557.02 39991.36,53557.02 39991.36,53430.23 39864.57,53430.23 39864.57,53303.44 39737.81,53303.44 39737.81,53176.68 39611.02,53176.68 39611.02,52923.1 39484.23,52923.1 39484.23,52796.31 39357.44,52796.31 39357.44,52669.56 39230.65,52669.56 39230.65,52542.77 39103.9,52542.77 39103.9,52289.19 38977.11,52289.19 38977.11,52162.4 38850.32,52162.4 38850.32,52035.65 38723.53,52035.65 38723.53,51908.86 38596.78,51908.86 38596.78,51782.07 38469.99,51782.07 38469.99,51655.28 38343.2,51655.28 38343.2,51401.73 38216.41,51401.73 38216.41,51274.94 36061.12,51274.94 "/>
    <path class="fil3" d="M83604.32 54064.14l126.76 0 0 -507.12 126.79 0 0 -253.58 126.79 0 0 -253.55 126.79 0 0 -253.58 126.75 0 0 -126.75 126.79 0 0 -126.79 126.79 0 0 -126.79 126.79 0 0 -126.79 126.79 0 0 -126.79 126.75 0 0 -126.75 253.58 0 0 -126.79 380.34 0 0 -126.79 887.49 0 0 126.79 380.33 0 0 126.79 253.58 0 0 126.75 126.76 0 0 126.79 126.79 0 0 126.79 126.79 0 0 126.79 126.79 0 0 126.79 126.75 0 0 126.75 126.79 0 0 253.58 126.79 0 0 253.55 126.79 0 0 253.58 126.79 0 0 380.33 126.75 0 0 380.37 126.79 0 0 2662.41 -126.79 0 0 507.12 -126.75 0 0 253.58 -126.79 0 0 253.54 -126.79 0 0 380.37 -126.79 0 0 126.76 -126.79 0 0 126.79 -126.75 0 0 126.79 -126.79 0 0 126.79 -253.58 0 0 126.75 -126.76 0 0 126.79 -1521.4 0 0 -126.79 -253.55 0 0 -126.75 -253.58 0 0 -126.79 -126.79 0 0 -126.79 -126.75 0 0 -126.79 -126.79 0 0 -126.76 -126.79 0 0 -126.79 -126.79 0 0 -126.79 -126.79 0 0 -253.58 -126.75 0 0 -253.54 -126.79 0 0 -380.33 -126.79 0 0 -380.37 -126.79 0 0 -507.13 -126.76 0 0 -2282.07zm1901.71 -2789.2l-633.92 0 0 126.79 -380.33 0 0 126.79 -253.58 0 0 126.76 -253.54 0 0 126.79 -253.58 0 0 126.79 -126.76 0 0 126.79 -126.79 0 0 126.75 -126.79 0 0 126.79 -126.79 0 0 126.79 -126.79 0 0 126.79 -126.75 0 0 126.79 -126.79 0 0 126.75 -126.79 0 0 126.79 -126.79 0 0 253.58 -126.75 0 0 126.76 -126.79 0 0 380.37 -126.79 0 0 253.54 -126.79 0 0 380.37 -126.79 0 0 2408.83 126.79 0 0 380.37 126.79 0 0 380.33 126.79 0 0 253.58 126.79 0 0 126.75 126.75 0 0 253.58 126.79 0 0 126.79 126.79 0 0 126.79 126.79 0 0 126.76 126.75 0 0 126.79 126.79 0 0 126.79 126.79 0 0 126.79 126.79 0 0 126.75 126.79 0 0 126.79 126.76 0 0 126.79 253.58 0 0 126.79 253.54 0 0 126.79 507.16 0 0 126.75 253.54 0 0 126.79 1774.95 0 0 -126.79 507.13 0 0 -126.75 507.12 0 0 -126.79 253.58 0 0 -126.79 253.54 0 0 -126.79 126.79 0 0 -126.79 126.79 0 0 -126.75 253.55 0 0 -126.79 126.79 0 0 -126.79 126.79 0 0 -126.79 126.79 0 0 -253.55 126.79 0 0 -126.79 126.75 0 0 -126.79 126.79 0 0 -253.54 126.79 0 0 -253.58 126.79 0 0 -380.33 126.75 0 0 -507.13 126.79 0 0 -380.37 126.79 0 0 -1521.37 -126.79 0 0 -507.12 -126.79 0 0 -380.33 -126.75 0 0 -380.37 -126.79 0 0 -253.55 -126.79 0 0 -126.79 -126.79 0 0 -253.58 -126.75 0 0 -126.75 -126.79 0 0 -126.79 -126.79 0 0 -126.79 -126.79 0 0 -126.79 -126.79 0 0 -126.79 -126.76 0 0 -126.75 -126.79 0 0 -126.79 -126.79 0 0 -126.79 -253.54 0 0 -126.79 -253.58 0 0 -126.76 -253.58 0 0 -126.79 -380.33 0 0 -126.79 -507.13 0 0 -126.79 -1267.82 0 0 126.79z"/>
    <polygon class="fil3" points="31496.98,51274.94 30989.86,51274.94 30989.86,51401.73 30355.94,51401.73 30355.94,51528.52 30102.4,51528.52 30102.4,51655.28 29848.82,51655.28 29848.82,51782.07 29468.49,51782.07 29468.49,51908.86 29341.7,51908.86 29341.7,52035.65 29088.12,52035.65 29088.12,52162.4 28961.36,52162.4 28961.36,52289.19 28834.57,52289.19 28834.57,52415.98 28707.78,52415.98 28707.78,52542.77 28580.99,52542.77 28580.99,52669.56 28454.2,52669.56 28454.2,52796.31 28327.45,52796.31 28327.45,52923.1 28200.66,52923.1 28200.66,53049.89 28073.87,53049.89 28073.87,53303.44 27947.08,53303.44 27947.08,53557.02 27820.33,53557.02 27820.33,53810.6 27693.54,53810.6 27693.54,54190.93 27566.75,54190.93 27566.75,54571.26 27439.96,54571.26 27439.96,56599.79 27566.75,56599.79 27566.75,56980.13 27693.54,56980.13 27693.54,57360.46 27820.33,57360.46 27820.33,57614.04 27947.08,57614.04 27947.08,57867.58 28073.87,57867.58 28073.87,57994.37 28200.66,57994.37 28200.66,58121.16 28327.45,58121.16 28327.45,58374.74 28454.2,58374.74 28454.2,58501.5 28580.99,58501.5 28580.99,58628.29 28707.78,58628.29 28707.78,58755.08 28961.36,58755.08 28961.36,58881.87 29088.12,58881.87 29088.12,59008.62 29214.91,59008.62 29214.91,59135.41 29468.49,59135.41 29468.49,59262.2 29722.03,59262.2 29722.03,59388.99 29975.61,59388.99 29975.61,59515.78 30482.73,59515.78 30482.73,59642.53 30863.07,59642.53 30863.07,59769.32 33018.35,59769.32 33018.35,59642.53 33779.05,59642.53 33779.05,59515.78 34539.75,59515.78 34539.75,59388.99 34793.3,59388.99 34793.3,56473 34920.09,56473 34920.09,56346.21 35046.88,56346.21 35046.88,56219.42 35554,56219.42 35554,55712.3 32004.1,55712.3 32004.1,56219.42 32891.6,56219.42 32891.6,56346.21 33145.14,56346.21 33145.14,56473 33271.93,56473 33271.93,58881.87 33145.14,58881.87 33145.14,59008.62 32891.6,59008.62 32891.6,59135.41 32764.81,59135.41 32764.81,59262.2 31623.77,59262.2 31623.77,59135.41 31243.44,59135.41 31243.44,59008.62 30863.07,59008.62 30863.07,58881.87 30736.28,58881.87 30736.28,58755.08 30482.73,58755.08 30482.73,58628.29 30355.94,58628.29 30355.94,58501.5 30229.15,58501.5 30229.15,58374.74 30102.4,58374.74 30102.4,58247.95 29975.61,58247.95 29975.61,57994.37 29848.82,57994.37 29848.82,57867.58 29722.03,57867.58 29722.03,57740.83 29595.24,57740.83 29595.24,57487.25 29468.49,57487.25 29468.49,57106.92 29341.7,57106.92 29341.7,56726.55 29214.91,56726.55 29214.91,56219.42 29088.12,56219.42 29088.12,54698.05 29214.91,54698.05 29214.91,53937.35 29341.7,53937.35 29341.7,53683.81 29468.49,53683.81 29468.49,53430.23 29595.24,53430.23 29595.24,53176.68 29722.03,53176.68 29722.03,52923.1 29848.82,52923.1 29848.82,52796.31 29975.61,52796.31 29975.61,52669.56 30102.4,52669.56 30102.4,52542.77 30229.15,52542.77 30229.15,52415.98 30355.94,52415.98 30355.94,52289.19 30482.73,52289.19 30482.73,52162.4 30736.28,52162.4 30736.28,52035.65 30989.86,52035.65 30989.86,51908.86 31370.19,51908.86 31370.19,51782.07 32764.81,51782.07 32764.81,51908.86 33145.14,51908.86 33145.14,52035.65 33398.72,52035.65 33398.72,52162.4 33525.51,52162.4 33525.51,52289.19 33652.26,52289.19 33652.26,52415.98 33779.05,52415.98 33779.05,52542.77 33905.84,52542.77 33905.84,52796.31 34032.63,52796.31 34032.63,53049.89 34159.39,53049.89 34159.39,53303.44 34286.18,53303.44 34286.18,53683.81 34793.3,53683.81 34793.3,52542.77 34666.51,52542.77 34666.51,51528.52 34412.97,51528.52 34412.97,51401.73 33779.05,51401.73 33779.05,51274.94 33018.35,51274.94 33018.35,51148.15 31496.98,51148.15 "/>
    <polygon class="fil3" points="9563.74,51908.86 10197.62,51908.86 10197.62,52035.65 10451.2,52035.65 10451.2,52289.19 10577.99,52289.19 10577.99,58755.08 10451.2,58755.08 10451.2,58881.87 10324.41,58881.87 10324.41,59008.62 9817.29,59008.62 9817.29,59135.41 9436.95,59135.41 9436.95,59642.53 15649.26,59642.53 15649.26,59515.78 15776.05,59515.78 15776.05,59008.62 15902.8,59008.62 15902.8,58374.74 16029.59,58374.74 16029.59,57487.25 15522.47,57487.25 15522.47,57740.83 15395.68,57740.83 15395.68,57994.37 15268.92,57994.37 15268.92,58374.74 15142.13,58374.74 15142.13,58501.5 15015.34,58501.5 15015.34,58628.29 14888.56,58628.29 14888.56,58755.08 14761.77,58755.08 14761.77,58881.87 14508.22,58881.87 14508.22,59008.62 12352.94,59008.62 12352.94,58881.87 12226.15,58881.87 12226.15,58755.08 12099.36,58755.08 12099.36,55712.3 14001.1,55712.3 14001.1,55839.09 14127.89,55839.09 14127.89,56092.67 14254.64,56092.67 14254.64,56599.79 14381.43,56599.79 14381.43,56726.55 14888.56,56726.55 14888.56,54064.14 14254.64,54064.14 14254.64,54571.26 14127.89,54571.26 14127.89,54824.84 14001.1,54824.84 14001.1,54951.63 13747.52,54951.63 13747.52,55078.39 11972.57,55078.39 11972.57,52035.65 12099.36,52035.65 12099.36,51908.86 13874.31,51908.86 13874.31,52035.65 14381.43,52035.65 14381.43,52162.4 14508.22,52162.4 14508.22,52289.19 14635.01,52289.19 14635.01,52542.77 14761.77,52542.77 14761.77,52796.31 14888.56,52796.31 14888.56,53303.44 15522.47,53303.44 15522.47,52796.31 15395.68,52796.31 15395.68,51274.94 9563.74,51274.94 "/>
    <polygon class="fil3" points="66108.41,51782.07 66235.2,51782.07 66235.2,51908.86 66869.11,51908.86 66869.11,52035.65 66995.9,52035.65 66995.9,52162.4 67122.65,52162.4 67122.65,52542.77 67249.44,52542.77 67249.44,58501.5 67122.65,58501.5 67122.65,58881.87 66995.9,58881.87 66995.9,59008.62 66615.53,59008.62 66615.53,59135.41 65981.62,59135.41 65981.62,59642.53 72320.71,59642.53 72320.71,59388.99 72447.5,59388.99 72447.5,58755.08 72574.29,58755.08 72574.29,58247.95 72701.08,58247.95 72701.08,57487.25 72193.96,57487.25 72193.96,57740.83 72067.17,57740.83 72067.17,57994.37 71940.38,57994.37 71940.38,58247.95 71813.59,58247.95 71813.59,58501.5 71686.8,58501.5 71686.8,58628.29 71560.05,58628.29 71560.05,58755.08 71433.26,58755.08 71433.26,58881.87 71052.92,58881.87 71052.92,59008.62 69151.18,59008.62 69151.18,58881.87 68897.6,58881.87 68897.6,58755.08 68770.85,58755.08 68770.85,58501.5 68644.06,58501.5 68644.06,55712.3 70545.76,55712.3 70545.76,55839.09 70672.55,55839.09 70672.55,55965.88 70799.34,55965.88 70799.34,56346.21 70926.13,56346.21 70926.13,56599.79 71433.26,56599.79 71433.26,54064.14 70926.13,54064.14 70926.13,54444.47 70799.34,54444.47 70799.34,54824.84 70672.55,54824.84 70672.55,54951.63 70292.22,54951.63 70292.22,55078.39 68644.06,55078.39 68644.06,52035.65 68770.85,52035.65 68770.85,51908.86 70672.55,51908.86 70672.55,52035.65 70926.13,52035.65 70926.13,52162.4 71052.92,52162.4 71052.92,52289.19 71179.68,52289.19 71179.68,52415.98 71306.47,52415.98 71306.47,52669.56 71433.26,52669.56 71433.26,53049.89 71560.05,53049.89 71560.05,53303.44 72067.17,53303.44 72067.17,51401.73 71940.38,51401.73 71940.38,51274.94 66108.41,51274.94 "/>
    <polygon class="fil3" points="78025.9,51274.94 77011.65,51274.94 77011.65,51401.73 76504.53,51401.73 76504.53,51528.52 76124.19,51528.52 76124.19,51655.28 75870.61,51655.28 75870.61,51782.07 75617.07,51782.07 75617.07,51908.86 75363.49,51908.86 75363.49,52035.65 75236.7,52035.65 75236.7,52162.4 74983.16,52162.4 74983.16,52289.19 74856.37,52289.19 74856.37,52415.98 74729.58,52415.98 74729.58,52542.77 74602.79,52542.77 74602.79,52669.56 74476.03,52669.56 74476.03,52796.31 74349.24,52796.31 74349.24,53049.89 74222.45,53049.89 74222.45,53176.68 74095.66,53176.68 74095.66,53303.44 73968.87,53303.44 73968.87,53683.81 73842.12,53683.81 73842.12,53937.35 73715.33,53937.35 73715.33,54317.72 73588.54,54317.72 73588.54,54951.63 73461.75,54951.63 73461.75,56346.21 73588.54,56346.21 73588.54,56853.34 73715.33,56853.34 73715.33,57233.71 73842.12,57233.71 73842.12,57614.04 73968.87,57614.04 73968.87,57740.83 74095.66,57740.83 74095.66,57994.37 74222.45,57994.37 74222.45,58247.95 74349.24,58247.95 74349.24,58374.74 74476.03,58374.74 74476.03,58501.5 74602.79,58501.5 74602.79,58628.29 74729.58,58628.29 74729.58,58755.08 74856.37,58755.08 74856.37,58881.87 74983.16,58881.87 74983.16,59008.62 75236.7,59008.62 75236.7,59135.41 75490.28,59135.41 75490.28,59262.2 75743.82,59262.2 75743.82,59388.99 75997.4,59388.99 75997.4,59515.78 76377.74,59515.78 76377.74,59642.53 76884.86,59642.53 76884.86,59769.32 79166.93,59769.32 79166.93,59642.53 79800.85,59642.53 79800.85,59515.78 80307.97,59515.78 80307.97,59388.99 80434.76,59388.99 80434.76,59008.62 80561.55,59008.62 80561.55,58755.08 80688.34,58755.08 80688.34,58374.74 80815.09,58374.74 80815.09,57994.37 80941.88,57994.37 80941.88,57614.04 81068.67,57614.04 81068.67,57487.25 80941.88,57487.25 80941.88,57360.46 80434.76,57360.46 80434.76,57487.25 80307.97,57487.25 80307.97,57740.83 80181.21,57740.83 80181.21,57994.37 80054.42,57994.37 80054.42,58121.16 79927.63,58121.16 79927.63,58374.74 79800.85,58374.74 79800.85,58501.5 79674.06,58501.5 79674.06,58628.29 79547.3,58628.29 79547.3,58755.08 79420.51,58755.08 79420.51,58881.87 79166.93,58881.87 79166.93,59008.62 78786.6,59008.62 78786.6,59135.41 77391.98,59135.41 77391.98,59008.62 77011.65,59008.62 77011.65,58881.87 76758.11,58881.87 76758.11,58755.08 76504.53,58755.08 76504.53,58628.29 76377.74,58628.29 76377.74,58501.5 76250.95,58501.5 76250.95,58374.74 76124.19,58374.74 76124.19,58247.95 75997.4,58247.95 75997.4,58121.16 75870.61,58121.16 75870.61,57867.58 75743.82,57867.58 75743.82,57614.04 75617.07,57614.04 75617.07,57360.46 75490.28,57360.46 75490.28,57106.92 75363.49,57106.92 75363.49,56726.55 75236.7,56726.55 75236.7,56092.67 75109.91,56092.67 75109.91,54698.05 75236.7,54698.05 75236.7,54190.93 75363.49,54190.93 75363.49,53810.6 75490.28,53810.6 75490.28,53430.23 75617.07,53430.23 75617.07,53176.68 75743.82,53176.68 75743.82,52923.1 75870.61,52923.1 75870.61,52796.31 75997.4,52796.31 75997.4,52669.56 76124.19,52669.56 76124.19,52542.77 76250.95,52542.77 76250.95,52415.98 76377.74,52415.98 76377.74,52289.19 76504.53,52289.19 76504.53,52162.4 76758.11,52162.4 76758.11,52035.65 77011.65,52035.65 77011.65,51908.86 77391.98,51908.86 77391.98,51782.07 78533.02,51782.07 78533.02,51908.86 79040.18,51908.86 79040.18,52035.65 79293.72,52035.65 79293.72,52162.4 79420.51,52162.4 79420.51,52289.19 79547.3,52289.19 79547.3,52415.98 79674.06,52415.98 79674.06,52542.77 79800.85,52542.77 79800.85,52669.56 79927.63,52669.56 79927.63,52923.1 80054.42,52923.1 80054.42,53176.68 80181.21,53176.68 80181.21,53557.02 80307.97,53557.02 80307.97,53683.81 80688.34,53683.81 80688.34,53557.02 80815.09,53557.02 80815.09,52923.1 80688.34,52923.1 80688.34,52035.65 80561.55,52035.65 80561.55,51528.52 80434.76,51528.52 80434.76,51401.73 79674.06,51401.73 79674.06,51274.94 78659.81,51274.94 78659.81,51148.15 78025.9,51148.15 "/>
    <polygon class="fil3" points="19579.49,51274.94 18818.79,51274.94 18818.79,51401.73 18438.45,51401.73 18438.45,51528.52 18184.87,51528.52 18184.87,51655.28 18058.12,51655.28 18058.12,51782.07 17804.54,51782.07 17804.54,51908.86 17677.75,51908.86 17677.75,52035.65 17551,52035.65 17551,52162.4 17424.21,52162.4 17424.21,52415.98 17297.42,52415.98 17297.42,52669.56 17170.63,52669.56 17170.63,53049.89 17043.84,53049.89 17043.84,54190.93 17170.63,54190.93 17170.63,54444.47 17297.42,54444.47 17297.42,54698.05 17424.21,54698.05 17424.21,54951.63 17551,54951.63 17551,55078.39 17677.75,55078.39 17677.75,55205.18 17804.54,55205.18 17804.54,55331.97 17931.33,55331.97 17931.33,55458.76 18184.87,55458.76 18184.87,55585.51 18311.66,55585.51 18311.66,55712.3 18565.24,55712.3 18565.24,55839.09 18818.79,55839.09 18818.79,55965.88 19072.37,55965.88 19072.37,56092.67 19325.91,56092.67 19325.91,56219.42 19452.7,56219.42 19452.7,56346.21 19706.28,56346.21 19706.28,56473 19959.82,56473 19959.82,56599.79 20086.61,56599.79 20086.61,56726.55 20213.4,56726.55 20213.4,56853.34 20340.19,56853.34 20340.19,56980.13 20466.95,56980.13 20466.95,57106.92 20593.74,57106.92 20593.74,57360.46 20720.53,57360.46 20720.53,58374.74 20593.74,58374.74 20593.74,58628.29 20466.95,58628.29 20466.95,58755.08 20340.19,58755.08 20340.19,58881.87 20213.4,58881.87 20213.4,59008.62 20086.61,59008.62 20086.61,59135.41 19833.07,59135.41 19833.07,59262.2 19072.37,59262.2 19072.37,59135.41 18692.03,59135.41 18692.03,59008.62 18565.24,59008.62 18565.24,58881.87 18311.66,58881.87 18311.66,58755.08 18184.87,58755.08 18184.87,58628.29 18058.12,58628.29 18058.12,58501.5 17931.33,58501.5 17931.33,58247.95 17804.54,58247.95 17804.54,58121.16 17677.75,58121.16 17677.75,57867.58 17551,57867.58 17551,57487.25 17424.21,57487.25 17424.21,57233.71 17297.42,57233.71 17297.42,57106.92 17170.63,57106.92 17170.63,57233.71 16790.29,57233.71 16790.29,57740.83 16917.08,57740.83 16917.08,58501.5 17043.84,58501.5 17043.84,59135.41 17170.63,59135.41 17170.63,59388.99 17424.21,59388.99 17424.21,59515.78 17677.75,59515.78 17677.75,59642.53 18184.87,59642.53 18184.87,59769.32 19959.82,59769.32 19959.82,59642.53 20466.95,59642.53 20466.95,59515.78 20720.53,59515.78 20720.53,59388.99 20974.11,59388.99 20974.11,59262.2 21227.65,59262.2 21227.65,59135.41 21354.44,59135.41 21354.44,59008.62 21481.23,59008.62 21481.23,58881.87 21607.98,58881.87 21607.98,58755.08 21734.77,58755.08 21734.77,58501.5 21861.56,58501.5 21861.56,58247.95 21988.35,58247.95 21988.35,57867.58 22115.14,57867.58 22115.14,56726.55 21988.35,56726.55 21988.35,56346.21 21861.56,56346.21 21861.56,56092.67 21734.77,56092.67 21734.77,55965.88 21607.98,55965.88 21607.98,55839.09 21481.23,55839.09 21481.23,55712.3 21354.44,55712.3 21354.44,55585.51 21227.65,55585.51 21227.65,55458.76 21100.86,55458.76 21100.86,55331.97 20974.11,55331.97 20974.11,55205.18 20720.53,55205.18 20720.53,55078.39 20466.95,55078.39 20466.95,54951.63 20213.4,54951.63 20213.4,54824.84 20086.61,54824.84 20086.61,54698.05 19833.07,54698.05 19833.07,54571.26 19579.49,54571.26 19579.49,54444.47 19325.91,54444.47 19325.91,54317.72 19072.37,54317.72 19072.37,54190.93 18945.58,54190.93 18945.58,54064.14 18818.79,54064.14 18818.79,53937.35 18692.03,53937.35 18692.03,53810.6 18565.24,53810.6 18565.24,53683.81 18438.45,53683.81 18438.45,53303.44 18311.66,53303.44 18311.66,52669.56 18438.45,52669.56 18438.45,52289.19 18565.24,52289.19 18565.24,52162.4 18692.03,52162.4 18692.03,52035.65 18818.79,52035.65 18818.79,51908.86 19072.37,51908.86 19072.37,51782.07 20086.61,51782.07 20086.61,51908.86 20340.19,51908.86 20340.19,52035.65 20466.95,52035.65 20466.95,52162.4 20593.74,52162.4 20593.74,52289.19 20720.53,52289.19 20720.53,52415.98 20847.32,52415.98 20847.32,52542.77 20974.11,52542.77 20974.11,52796.31 21100.86,52796.31 21100.86,53176.68 21227.65,53176.68 21227.65,53430.23 21734.77,53430.23 21734.77,52415.98 21607.98,52415.98 21607.98,51528.52 21481.23,51528.52 21481.23,51401.73 20847.32,51401.73 20847.32,51274.94 20086.61,51274.94 20086.61,51148.15 19579.49,51148.15 "/>
    <polygon class="fil3" points="22875.81,51908.86 23636.51,51908.86 23636.51,52035.65 23763.3,52035.65 23763.3,52162.4 23890.06,52162.4 23890.06,52796.31 24016.85,52796.31 24016.85,58121.16 23890.06,58121.16 23890.06,58881.87 23763.3,58881.87 23763.3,59008.62 23256.18,59008.62 23256.18,59135.41 22875.81,59135.41 22875.81,59642.53 26425.71,59642.53 26425.71,59135.41 25918.59,59135.41 25918.59,59008.62 25665.01,59008.62 25665.01,58881.87 25538.25,58881.87 25538.25,58755.08 25411.46,58755.08 25411.46,52289.19 25538.25,52289.19 25538.25,52035.65 25665.01,52035.65 25665.01,51908.86 26298.92,51908.86 26298.92,51782.07 26425.71,51782.07 26425.71,51401.73 22875.81,51401.73 "/>
    <polygon class="fil3" points="14381.43,69531.53 14508.22,69531.53 14508.22,69404.74 14635.01,69404.74 14635.01,69277.95 14761.77,69277.95 14761.77,69151.19 14888.56,69151.19 14888.56,68897.62 15015.34,68897.62 15015.34,68770.83 15142.13,68770.83 15142.13,68644.04 15268.92,68644.04 15268.92,68390.49 15395.68,68390.49 15395.68,68263.7 15522.47,68263.7 15522.47,68136.91 15649.26,68136.91 15649.26,69531.53 15902.8,69531.53 15902.8,67629.79 15649.26,67629.79 15649.26,67756.58 15522.47,67756.58 15522.47,67883.37 15395.68,67883.37 15395.68,68010.16 15268.92,68010.16 15268.92,68263.7 15142.13,68263.7 15142.13,68390.49 15015.34,68390.49 15015.34,68517.28 14888.56,68517.28 14888.56,68644.04 14761.77,68644.04 14761.77,68897.62 14635.01,68897.62 14635.01,69024.41 14508.22,69024.41 14508.22,67629.79 14381.43,67629.79 "/>
    <polygon class="fil3" points="73208.21,69531.53 73461.75,69531.53 73461.75,69404.74 73588.54,69404.74 73588.54,69277.95 73715.33,69277.95 73715.33,69024.41 73842.12,69024.41 73842.12,68897.62 73968.87,68897.62 73968.87,68770.83 74095.66,68770.83 74095.66,68517.28 74222.45,68517.28 74222.45,68390.49 74349.24,68390.49 74349.24,68263.7 74476.03,68263.7 74476.03,68136.91 74602.79,68136.91 74602.79,69531.53 74729.58,69531.53 74729.58,67629.79 74602.79,67629.79 74602.79,67756.58 74476.03,67756.58 74476.03,67883.37 74349.24,67883.37 74349.24,68010.16 74222.45,68010.16 74222.45,68136.91 74095.66,68136.91 74095.66,68390.49 73968.87,68390.49 73968.87,68517.28 73842.12,68517.28 73842.12,68770.83 73715.33,68770.83 73715.33,68897.62 73588.54,68897.62 73588.54,69024.41 73461.75,69024.41 73461.75,67629.79 73208.21,67629.79 "/>
    <polygon class="fil3" points="81829.37,69531.53 82082.92,69531.53 82082.92,69404.74 82209.71,69404.74 82209.71,69151.19 82336.5,69151.19 82336.5,69024.41 82463.29,69024.41 82463.29,68897.62 82590.04,68897.62 82590.04,68770.83 82716.83,68770.83 82716.83,68517.28 82843.62,68517.28 82843.62,68390.49 82970.41,68390.49 82970.41,68136.91 83097.16,68136.91 83097.16,68010.16 83223.95,68010.16 83223.95,69531.53 83350.74,69531.53 83350.74,67629.79 83223.95,67629.79 83223.95,67756.58 83097.16,67756.58 83097.16,67883.37 82970.41,67883.37 82970.41,68010.16 82843.62,68010.16 82843.62,68136.91 82716.83,68136.91 82716.83,68390.49 82590.04,68390.49 82590.04,68517.28 82463.29,68517.28 82463.29,68644.04 82336.5,68644.04 82336.5,68897.62 82209.71,68897.62 82209.71,69024.41 82082.92,69024.41 82082.92,67629.79 81829.37,67629.79 "/>
    <path class="fil3" d="M59515.77 68517.28l126.79 0 0 -253.58 126.75 0 0 -253.54 126.79 0 0 126.75 126.79 0 0 253.58 126.79 0 0 380.34 -633.91 0 0 -253.55zm253.54 -760.7l-126.75 0 0 253.58 -126.79 0 0 253.54 -126.79 0 0 253.58 -126.79 0 0 380.34 -126.76 0 0 253.57 -126.79 0 0 380.34 126.79 0 0 -126.79 126.76 0 0 -380.33 1141.03 0 0 253.54 126.79 0 0 126.79 126.79 0 0 -253.55 -126.79 0 0 -380.36 -126.79 0 0 -253.55 -126.75 0 0 -253.58 -126.79 0 0 -253.54 -126.79 0 0 -380.37 -253.58 0 0 126.79z"/>
    <path class="fil3" d="M71179.68 68644.04l126.79 0 0 -253.55 126.79 0 0 -380.33 253.54 0 0 253.54 126.79 0 0 380.34 126.79 0 0 126.79 -760.7 0 0 -126.79zm253.58 -760.67l-126.79 0 0 253.54 -126.79 0 0 253.58 -126.76 0 0 253.55 -126.79 0 0 380.37 -126.79 0 0 253.54 -126.79 0 0 253.58 126.79 0 0 -126.79 126.79 0 0 -253.55 126.79 0 0 -126.78 1014.25 0 0 126.78 126.79 0 0 253.55 126.75 0 0 126.79 126.79 0 0 -253.58 -126.79 0 0 -253.54 -126.75 0 0 -253.58 -126.79 0 0 -380.34 -126.79 0 0 -253.58 -126.79 0 0 -253.54 -126.79 0 0 -253.58 -253.54 0 0 253.58z"/>
    <path class="fil3" d="M78659.81 68517.28l126.79 0 0 -380.37 126.79 0 0 -126.75 126.79 0 0 126.75 126.75 0 0 380.37 126.79 0 0 253.55 -633.91 0 0 -253.55zm253.58 -760.7l-126.79 0 0 253.58 -126.79 0 0 253.54 -126.79 0 0 253.58 -126.76 0 0 380.34 -126.78 0 0 253.57 -126.79 0 0 380.34 126.79 0 0 -253.58 126.78 0 0 -253.54 1141.04 0 0 380.33 126.76 0 0 126.79 126.79 0 0 -380.34 -126.79 0 0 -253.57 -126.76 0 0 -380.34 -126.79 0 0 -253.58 -126.79 0 0 -253.54 -126.79 0 0 -253.58 -126.75 0 0 -126.79 -126.79 0 0 126.79z"/>
    <polygon class="fil3" points="19072.37,69531.53 19325.91,69531.53 19325.91,68644.04 19706.28,68644.04 19706.28,68770.83 19833.07,68770.83 19833.07,68897.62 19959.82,68897.62 19959.82,69024.41 20086.61,69024.41 20086.61,69277.95 20213.4,69277.95 20213.4,69404.74 20340.19,69404.74 20340.19,69531.53 20466.95,69531.53 20466.95,69277.95 20340.19,69277.95 20340.19,69151.19 20213.4,69151.19 20213.4,68897.62 20086.61,68897.62 20086.61,68770.83 19959.82,68770.83 19959.82,68263.7 20086.61,68263.7 20086.61,68136.91 20213.4,68136.91 20213.4,68010.16 20340.19,68010.16 20340.19,67756.58 20466.95,67756.58 20466.95,67629.79 20340.19,67629.79 20340.19,67756.58 20213.4,67756.58 20213.4,67883.37 20086.61,67883.37 20086.61,68010.16 19959.82,68010.16 19959.82,68263.7 19833.07,68263.7 19833.07,68390.49 19706.28,68390.49 19706.28,68517.28 19325.91,68517.28 19325.91,67629.79 19072.37,67629.79 "/>
    <polygon class="fil3" points="43794.8,69531.53 43921.59,69531.53 43921.59,68644.04 45062.63,68644.04 45062.63,69531.53 45316.21,69531.53 45316.21,67629.79 45062.63,67629.79 45062.63,68517.28 43921.59,68517.28 43921.59,67629.79 43794.8,67629.79 "/>
    <polygon class="fil3" points="75743.82,69531.53 75997.4,69531.53 75997.4,68644.04 77138.44,68644.04 77138.44,69531.53 77265.23,69531.53 77265.23,67629.79 77138.44,67629.79 77138.44,68517.28 75997.4,68517.28 75997.4,67629.79 75743.82,67629.79 "/>
    <polygon class="fil3" points="90196.96,69531.53 90323.75,69531.53 90323.75,68644.04 90830.88,68644.04 90830.88,68770.83 90957.67,68770.83 90957.67,68897.62 91084.42,68897.62 91084.42,69151.19 91211.21,69151.19 91211.21,69277.95 91338,69277.95 91338,69404.74 91464.79,69404.74 91464.79,69531.53 91591.58,69531.53 91591.58,69277.95 91464.79,69277.95 91464.79,69024.41 91338,69024.41 91338,68897.62 91211.21,68897.62 91211.21,68770.83 91084.42,68770.83 91084.42,68644.04 90957.67,68644.04 90957.67,68517.28 91084.42,68517.28 91084.42,68263.7 91211.21,68263.7 91211.21,68136.91 91338,68136.91 91338,68010.16 91464.79,68010.16 91464.79,67883.37 91591.58,67883.37 91591.58,67629.79 91338,67629.79 91338,67756.58 91211.21,67756.58 91211.21,68010.16 91084.42,68010.16 91084.42,68263.7 90957.67,68263.7 90957.67,68390.49 90830.88,68390.49 90830.88,68517.28 90323.75,68517.28 90323.75,67629.79 90196.96,67629.79 "/>
    <polygon class="fil3" points="30482.73,69531.53 30609.52,69531.53 30609.52,68644.04 31116.65,68644.04 31116.65,68770.83 31243.44,68770.83 31243.44,68897.62 31370.19,68897.62 31370.19,69151.19 31496.98,69151.19 31496.98,69277.95 31623.77,69277.95 31623.77,69404.74 31750.56,69404.74 31750.56,69531.53 31877.31,69531.53 31877.31,69277.95 31750.56,69277.95 31750.56,69151.19 31623.77,69151.19 31623.77,69024.41 31496.98,69024.41 31496.98,68897.62 31370.19,68897.62 31370.19,68644.04 31243.44,68644.04 31243.44,68390.49 31370.19,68390.49 31370.19,68263.7 31496.98,68263.7 31496.98,68136.91 31623.77,68136.91 31623.77,68010.16 31750.56,68010.16 31750.56,67756.58 31877.31,67756.58 31877.31,67629.79 31623.77,67629.79 31623.77,67756.58 31496.98,67756.58 31496.98,67883.37 31370.19,67883.37 31370.19,68136.91 31243.44,68136.91 31243.44,68390.49 31116.65,68390.49 31116.65,68517.28 30609.52,68517.28 30609.52,67629.79 30482.73,67629.79 "/>
    <polygon class="fil3" points="46076.87,67756.58 46584.03,67756.58 46584.03,67883.37 46710.79,67883.37 46710.79,69531.53 46837.58,69531.53 46837.58,67883.37 46964.37,67883.37 46964.37,67756.58 47471.49,67756.58 47471.49,67629.79 46076.87,67629.79 "/>
   </g>
  </g>
  <line class="fil4 str0" x1="263.85" y1="63498.47" x2="98731.21" y2= "63247.37" />
 </g>
</svg>
