<?xml version="1.0" encoding="UTF-8" standalone="no"?>
<!-- Created with Inkscape (http://www.inkscape.org/) -->

<svg
   xmlns:dc="http://purl.org/dc/elements/1.1/"
   xmlns:cc="http://creativecommons.org/ns#"
   xmlns:rdf="http://www.w3.org/1999/02/22-rdf-syntax-ns#"
   xmlns:svg="http://www.w3.org/2000/svg"
   xmlns="http://www.w3.org/2000/svg"
   xmlns:sodipodi="http://sodipodi.sourceforge.net/DTD/sodipodi-0.dtd"
   xmlns:inkscape="http://www.inkscape.org/namespaces/inkscape"
   id="svg2"
   version="1.1"
   inkscape:version="0.91 r13725"
   xml:space="preserve"
   width="765"
   height="990"
   viewBox="0 0 765 990"
   sodipodi:docname="kairos.svg"><metadata
     id="metadata8"><rdf:RDF><cc:Work
         rdf:about=""><dc:format>image/svg+xml</dc:format><dc:type
           rdf:resource="http://purl.org/dc/dcmitype/StillImage" /><dc:title></dc:title></cc:Work></rdf:RDF></metadata><defs
     id="defs6"><clipPath
       clipPathUnits="userSpaceOnUse"
       id="clipPath16"><path
         d="M 0,792 612,792 612,0 0,0 0,792 Z"
         id="path18"
         inkscape:connector-curvature="0" /></clipPath></defs><sodipodi:namedview
     pagecolor="#ffffff"
     bordercolor="#666666"
     borderopacity="1"
     objecttolerance="10"
     gridtolerance="10"
     guidetolerance="10"
     inkscape:pageopacity="0"
     inkscape:pageshadow="2"
     inkscape:window-width="1855"
     inkscape:window-height="1056"
     id="namedview4"
     showgrid="false"
     inkscape:zoom="0.67425131"
     inkscape:cx="492.51508"
     inkscape:cy="521.46103"
     inkscape:window-x="65"
     inkscape:window-y="24"
     inkscape:window-maximized="1"
     inkscape:current-layer="g10" /><g
     id="g10"
     inkscape:groupmode="layer"
     inkscape:label="кайрос"
     transform="matrix(1.25,0,0,-1.25,0,990)"><g
       id="g12"
       transform="translate(0.83898305,89.964529)"><g
         id="g14"
         clip-path="url(#clipPath16)"><g
           id="g20"
           transform="translate(613,449)"><path
             d="m 0,0 c 0,-83.333 -0.027,-166.667 0.096,-250 0.005,-3.424 -0.672,-4.096 -4.096,-4.094 -201.333,0.105 -402.667,0.105 -604,0 -3.423,-0.002 -4.101,0.669 -4.096,4.094 0.123,83.333 0.096,166.667 0.096,250 1.327,1.428 2.972,2.028 4.912,2.054 2.166,0.029 4.331,0.065 6.496,0.065 196.395,0.003 392.789,0.01 589.184,-0.053 C -7.555,2.065 -3.316,3.325 0,0"
             style="fill:#131212;fill-opacity:1;fill-rule:nonzero;stroke:none"
             id="path22"
             inkscape:connector-curvature="0" /></g><g
           id="g24"
           transform="translate(455,595)" /><g
           id="g28"
           transform="translate(452.8171,312.7999)"><path
             d="m 0,0 c -4.13,2.962 -9.684,2.016 -14.226,5.109 2.282,1.493 4.191,2.877 6.227,4.041 3.189,1.823 6.123,2.978 10.216,1.274 5.145,-2.142 10.86,-2.935 16.355,-4.2 1.654,-0.382 2.492,-0.533 1.802,-2.762 -2.047,-6.611 -3.282,-13.495 -5.625,-19.987 -1.878,-5.204 -7.677,-5.863 -13.007,-9.132 1.622,5.796 2.925,10.454 4.44,15.87 -10.632,-7.196 -21.909,-11.907 -33.718,-15.218 -6.145,-1.722 -12.308,-3.835 -19.008,-1.919 -9.436,2.697 -12.536,10.257 -7.236,18.619 0.868,1.369 1.618,3.014 2.868,3.907 8.864,6.334 6.489,17.021 9.962,25.43 6.106,14.784 16.572,23.869 32.276,27.233 11.068,2.371 21.195,0.141 31.1,-4.737 3.879,-1.911 7.729,0.638 11.498,1.237 4.582,0.729 8.745,0.318 12.784,-1.503 5.277,-2.379 7.294,-8.46 4.755,-14.239 C 47.18,19.276 38.847,13.456 30.347,7.905 27.709,6.182 25.688,7.898 24.236,10.051 c -1.98,2.934 -1.39,6.3 1.325,7.724 4.315,2.262 3.056,3.944 0.892,6.868 -7.697,10.398 -18.202,14.925 -30.623,13.361 -12.651,-1.592 -21.748,-9.09 -26.556,-20.996 -3.724,-9.222 -2.925,-18.385 1.658,-27.322 1.315,-2.564 2.849,-3.056 5.09,-2.077 C -15.759,-8.8 -7.058,-6.125 0,0"
             style="fill:#ffffff;fill-opacity:1;fill-rule:nonzero;stroke:none"
             id="path30"
             inkscape:connector-curvature="0" /></g><g
           id="g32"
           transform="translate(228.7217,297.1952)"><path
             d="m 0,0 -34.495,0 c 3.028,9.841 4.16,10.652 15.654,10.893 -2.72,5.457 -5.314,10.66 -8.057,16.163 -4.424,-8.313 -8.801,-16.012 -12.612,-23.982 -1.32,-2.76 -2.808,-3.633 -5.518,-3.275 -0.328,0.043 -0.669,0.036 -0.998,0.001 -14.86,-1.55 -28.669,-0.453 -36.434,15.924 -0.421,-0.421 -0.841,-0.842 -1.262,-1.263 0,-3.867 -0.203,-7.746 0.052,-11.595 0.307,-4.609 -3.017,-2.975 -5.04,-2.965 -2.012,0.011 -5.161,-1.674 -5.081,2.941 0.208,11.985 0.168,23.977 0.023,35.964 -0.061,5.057 3.551,2.602 5.609,2.905 2.048,0.301 4.832,1.069 4.502,-3.006 -0.305,-3.753 -0.065,-7.55 -0.065,-12.302 4.816,4.796 8.981,8.953 13.158,13.096 1.787,1.774 14.098,3.585 16.046,2.171 1.936,-1.405 -0.134,-2.22 -0.853,-2.955 -5.004,-5.117 -9.983,-10.268 -15.204,-15.16 -2.212,-2.073 -2.42,-3.274 -0.068,-5.441 5.014,-4.624 9.823,-9.487 14.496,-14.458 2.421,-2.575 3.389,-1.946 4.82,0.909 5.069,10.117 10.423,20.09 15.558,30.173 1.06,2.08 2.155,4.076 4.008,5.486 3.875,2.947 8.815,2.259 11.209,-2.057 C -13.672,25.767 -7.083,13.206 0,0"
             style="fill:#ffffff;fill-opacity:1;fill-rule:nonzero;stroke:none"
             id="path34"
             inkscape:connector-curvature="0" /></g><g
           id="g36"
           transform="translate(248.4464,327.9998)"><path
             d="m 0,0 c 0.679,3.897 3.557,6.192 4.706,9.41 0.698,1.957 2.637,1.595 4.275,1.593 5.665,-0.007 11.33,0.006 16.995,-0.005 7.398,-0.015 13.124,-4.329 14.535,-10.933 1.29,-6.035 -2.181,-12.241 -8.908,-15.501 5.119,-4.788 10.157,-9.499 15.194,-14.211 l -0.614,-1.344 c -4.705,0 -9.41,0.034 -14.114,-0.024 -1.196,-0.015 -1.764,0.791 -2.454,1.452 -4.381,4.2 -8.809,8.354 -13.067,12.675 -1.619,1.642 -3.404,0.86 -5.025,0.715 -1.541,-0.138 -0.902,-1.835 -0.943,-2.873 -0.086,-2.163 -0.304,-4.375 0.03,-6.488 0.746,-4.71 -1.291,-5.519 -5.645,-5.655 -4.817,-0.151 -5.781,1.536 -5.496,5.841 0.352,5.308 0.298,10.669 0.007,15.985 -0.185,3.398 0.631,4.617 4.279,4.456 7.151,-0.315 14.325,-0.093 21.489,-0.092 2.003,0 4.388,-0.269 4.221,2.718 C 29.321,0.295 27.12,0.001 25.299,0.001 16.969,-0.001 8.639,0 0,0"
             style="fill:#ffffff;fill-opacity:1;fill-rule:nonzero;stroke:none"
             id="path38"
             inkscape:connector-curvature="0" /></g><g
           id="g40"
           transform="translate(380.9996,338.7369)"><path
             d="m 0,0 c -0.898,-3.913 -3.62,-6.471 -4.989,-9.711 -0.763,-1.803 -2.288,-0.956 -3.442,-0.981 -4.996,-0.105 -9.995,-0.068 -14.993,-0.033 -1.579,0.011 -3.345,-0.117 -3.389,-1.963 -0.045,-1.863 1.702,-2.067 3.287,-2.057 4.331,0.027 8.685,-0.267 12.989,0.073 6.354,0.502 12.094,-4.03 14.102,-11.09 1.332,-4.678 -1.572,-11.275 -6.554,-14.44 -1.671,-1.061 -3.452,-1.612 -5.541,-1.583 -8.329,0.117 -16.665,0.224 -24.988,-0.026 -4.18,-0.126 -3.899,1.444 -2.466,4.285 2.441,4.84 5.442,8.054 11.703,6.926 4.034,-0.727 8.306,-0.104 12.47,-0.151 1.999,-0.022 4.561,-0.149 4.387,2.402 -0.135,1.996 -2.373,2.759 -4.667,2.662 -4.158,-0.177 -8.328,-0.062 -12.493,-0.047 -8.403,0.029 -13.431,5.032 -13.416,13.327 0.015,7.74 5.269,12.655 13.576,12.667 C -16.76,0.27 -9.097,0.254 -1.433,0.24 -1.106,0.239 -0.779,0.134 0,0"
             style="fill:#ffffff;fill-opacity:1;fill-rule:nonzero;stroke:none"
             id="path42"
             inkscape:connector-curvature="0" /></g><g
           id="g44"
           transform="translate(316.3827,340.0001)"><path
             d="m 0,0 c 14.557,0 23.529,-8.651 23.645,-22.534 0.106,-12.795 -9.879,-22.19 -23.872,-22.185 -12.889,0.004 -23.888,9.005 -24.147,22.952 C -24.586,-10.337 -12.831,1.785 0,0"
             style="fill:#ffffff;fill-opacity:1;fill-rule:nonzero;stroke:none"
             id="path46"
             inkscape:connector-curvature="0" /></g><g
           id="g48"
           transform="translate(427.3356,282.5837)"><path
             d="m 0,0 c 4.271,1.33 8.565,2.461 12.692,4.03 2.507,0.953 4.528,-0.439 6.552,-0.947 14.519,-3.638 32.077,5.428 36.24,19.32 2.404,8.024 7.974,13.123 13.147,18.647 C 72.672,29.816 65.757,10.221 53.156,0.617 34.546,-13.567 10.478,-9.689 0,0"
             style="fill:#ffffff;fill-opacity:1;fill-rule:nonzero;stroke:none"
             id="path50"
             inkscape:connector-curvature="0" /></g><g
           id="g52"
           transform="translate(230.0003,318.5063)"><path
             d="m 0,0 c 0,5.655 0.147,11.315 -0.062,16.962 -0.105,2.813 0.73,3.914 3.578,3.568 1.639,-0.2 3.33,-0.141 4.983,-0.011 1.979,0.155 2.542,-0.662 2.532,-2.572 -0.065,-12.307 -0.066,-24.614 10e-4,-36.921 0.01,-1.928 -0.586,-2.699 -2.548,-2.559 -1.82,0.131 -3.672,0.174 -5.483,-0.009 -2.441,-0.246 -3.108,0.719 -3.051,3.082 C 0.099,-12.31 0,-6.154 0,0"
             style="fill:#ffffff;fill-opacity:1;fill-rule:nonzero;stroke:none"
             id="path54"
             inkscape:connector-curvature="0" /></g><g
           id="g56"
           transform="translate(340.3146,275.554)"><path
             d="M -0.05243644,-0.36705509 C -0.64459958,-2.3726928 0.38129025,-3.419072 -2.101,-3.465 -4.372,-3.135 -2.919,-1.063 -3.293,0.178 -3.429,0.631 -3.424,1.191 -3.295,1.649 -2.851,3.218 -4.48,5.465 -2.163,6.351 0.78,7.476 1.7468559,2.8134343 3.1988559,1.6234343 4.3868559,2.4604343 1.538,6.731 4.337,6.383 6.676,6.092 5.292,4.067 5.671,2.857 5.766,2.557 5.748,2.187 5.675,1.874 5.26,0.101 6.9014364,-2.2518178 4.6954364,-3.0918178 c -4.21583895,0.619875 -4.59778386,6.2759153 -4.64299996,3.354"
             style="fill:#ffffff;fill-opacity:1;fill-rule:nonzero;stroke:none"
             id="path58"
             inkscape:connector-curvature="0"
             sodipodi:nodetypes="ccccccccccc" /></g><g
           id="g60"
           transform="translate(363.0861,281.2279)"><path
             d="m 0,0 c -1.135,-2.262 -3.292,-0.431 -4.474,-1.66 0.653,-1.423 3.595,0.622 3.382,-2.238 -0.185,-2.484 -2.694,-0.451 -3.365,-1.901 0.911,-0.84 2.093,-0.286 3.158,-0.442 0.775,-0.113 1.162,-0.479 1.173,-1.24 0.009,-0.633 0.133,-1.518 -0.697,-1.57 -2.129,-0.134 -4.961,-0.944 -6.254,0.09 -2.307,1.843 -0.687,5.164 -0.973,7.839 -0.269,2.505 1.735,1.908 3.06,1.854 C -3.362,0.667 -1.527,1.32 0,0"
             style="fill:#ffffff;fill-opacity:1;fill-rule:nonzero;stroke:none"
             id="path62"
             inkscape:connector-curvature="0" /></g><g
           id="g64"
           transform="translate(329.8508,272.0774)"><path
             d="M -0.02621822,0 C -4.9041483,1.7196759 -4.6485805,5.9746208 -8.1162182,0.006 -8.3482182,-0.378 -9.974,-0.073 -9.759,1.017 c 0.583,2.955 1.112,6.113 3.118,8.374 0.852,0.96 3.275,1.803 3.893,-1.356 0.511,-2.615 1.5284725,-4.5958538 2.56447246,-7.53685381"
             style="fill:#ffffff;fill-opacity:1;fill-rule:nonzero;stroke:none"
             id="path66"
             inkscape:connector-curvature="0"
             sodipodi:nodetypes="cccccc" /></g><g
           id="g68"
           transform="translate(287.9081,276.9845)"><path
             d="M 0,0 C 0.594,2.06 -1.487,5.613 3.175,5.031 5.032,4.799 7.435,5.711 8.024,2.913 8.554,0.399 7.6574868,-0.72457233 4.7952362,-0.73485275 3.5887076,-0.87107097 3.7461811,-1.5869449 3.7567998,-2.1386547 c -0.1959619,-1.6718199 -0.264,-3.993 -2.87200001,-2.755 C -1.1482002,-3.9286547 0.627,-1.531 0,0"
             style="fill:#ffffff;fill-opacity:1;fill-rule:nonzero;stroke:none"
             id="path70"
             inkscape:connector-curvature="0"
             sodipodi:nodetypes="ccccccc" /></g><g
           id="g72"
           transform="translate(308.5656,272.035)"><path
             d="m 0,0 c -1.026,0.474 -3.268,-1.146 -3.446,1.251 -0.205,2.764 -0.601,5.617 0.324,8.351 0.077,0.229 0.862,0.328 1.307,0.303 1.496,-0.086 0.97659958,-1.6682733 0.94059958,-2.5952733 -0.106,-2.703 -0.83383688,-6.78369281 3.78400002,-4.812 C 4.1691271,4.138947 4.432,2.094 4.402,1.195 4.376,0.374 3.895,0.038 3.172,0.01 2.177,-0.029 1.179,0 0,0"
             style="fill:#ffffff;fill-opacity:1;fill-rule:nonzero;stroke:none"
             id="path74"
             inkscape:connector-curvature="0"
             sodipodi:nodetypes="ccccccccc" /></g><g
           id="g76"
           transform="translate(380.9489,280.865)"><path
             d="m 0,0 c -3.772,-0.546 -4.2768729,-1.2797436 -4.044,-5.076 0.063,-1.253 1.315,-3.859 -1.54,-3.658 -2.57,0.18 -1.4026186,2.3662542 -0.9751631,4.195964 0.8566017,2.9021652 0.8721822,4.45992795 -2.396,4.68799998 C -3.2745297,2.6662807 -5.01,1.479 0,0"
             style="fill:#ffffff;fill-opacity:1;fill-rule:nonzero;stroke:none"
             id="path78"
             inkscape:connector-curvature="0"
             sodipodi:nodetypes="cccccc" /></g><g
           id="g80"
           transform="translate(153.1942,551.9634)" /><g
           id="g84"
           transform="translate(280.7294,545.1772)" /><g
           id="g88"
           transform="translate(340,550.5675)" /><g
           id="g92"
           transform="translate(343.5598,530.011)" /><g
           id="g96"
           transform="translate(426.8351,514.9081)" /><g
           id="g100"
           transform="translate(240.9996,550.9783)" /><g
           id="g104"
           transform="translate(342.5948,511.5359)" /><g
           id="g108"
           transform="translate(329.7593,505.2352)" /><g
           id="g112"
           transform="translate(288.0374,510.2986)" /><g
           id="g116"
           transform="translate(358.0882,507.5479)" /><g
           id="g120"
           transform="translate(375.7736,515.0688)" /><g
           id="g124"
           transform="translate(313.4048,505.9966)" /><g
           id="g128"
           transform="translate(411.764,535.1268)" /><g
           id="g132"
           transform="translate(494.1543,578.8407)" /><g
           id="g136"
           transform="translate(486.0675,346.8627)"><path
             d="M 0,0 7.829,0 C 7.607,-2.382 6.583,-4.945 4.773,-5.087 3.547,-5.183 2.091,-2.352 0,0"
             style="fill:#ffffff;fill-opacity:1;fill-rule:nonzero;stroke:none"
             id="path138"
             inkscape:connector-curvature="0" /></g><g
           id="g140"
           transform="translate(411.3986,302.6954)"><path
             d="M 0,0 C 0.531,-2.236 1.743,-3.971 2.925,-6.246 0.603,-6.826 -2.189,-7.58 -3.066,-6.032 -4.524,-3.459 -0.691,-2.327 0,0"
             style="fill:#ffffff;fill-opacity:1;fill-rule:nonzero;stroke:none"
             id="path142"
             inkscape:connector-curvature="0" /></g><g
           id="g144"
           transform="translate(316.2209,306)"><path
             d="M 0,0 C -7.474,-0.197 -12.374,4.97 -13.128,11.759 -13.818,17.973 -7.338,23.939 -0.502,24 6.611,24.064 12.686,18.779 12.779,12.448 12.883,5.389 7.408,0.056 0,0"
             style="fill:#131212;fill-opacity:1;fill-rule:nonzero;stroke:none"
             id="path146"
             inkscape:connector-curvature="0" /></g><g
           id="g148"
           transform="translate(328.9999,550.6497)" /></g></g></g></svg>