<?xml version="1.0" encoding="UTF-8" standalone="no"?>
<!-- Created with Inkscape (http://www.inkscape.org/) -->

<svg
   xmlns:dc="http://purl.org/dc/elements/1.1/"
   xmlns:cc="http://creativecommons.org/ns#"
   xmlns:rdf="http://www.w3.org/1999/02/22-rdf-syntax-ns#"
   xmlns:svg="http://www.w3.org/2000/svg"
   xmlns="http://www.w3.org/2000/svg"
   xmlns:sodipodi="http://sodipodi.sourceforge.net/DTD/sodipodi-0.dtd"
   xmlns:inkscape="http://www.inkscape.org/namespaces/inkscape"
   id="svg2"
   version="1.1"
   inkscape:version="0.91 r13725"
   width="755.25"
   height="990.25"
   viewBox="0 0 755.25 990.25"
   sodipodi:docname="khospis.svg">
  <metadata
     id="metadata8">
    <rdf:RDF>
      <cc:Work
         rdf:about="">
        <dc:format>image/svg+xml</dc:format>
        <dc:type
           rdf:resource="http://purl.org/dc/dcmitype/StillImage" />
        <dc:title></dc:title>
      </cc:Work>
    </rdf:RDF>
  </metadata>
  <defs
     id="defs6" />
  <sodipodi:namedview
     pagecolor="#ffffff"
     bordercolor="#666666"
     borderopacity="1"
     objecttolerance="10"
     gridtolerance="10"
     guidetolerance="10"
     inkscape:pageopacity="0"
     inkscape:pageshadow="2"
     inkscape:window-width="1855"
     inkscape:window-height="1056"
     id="namedview4"
     showgrid="false"
     units="px"
     inkscape:zoom="0.68771029"
     inkscape:cx="483.87411"
     inkscape:cy="576.66908"
     inkscape:window-x="65"
     inkscape:window-y="24"
     inkscape:window-maximized="1"
     inkscape:current-layer="svg2" />
  <path
     style="fill:#000000"
     d="m -36.48647,474.97759 0.133885,-489.146646 414.513495,0 414.51351,0 0.13386,489.146646 0.13391,489.14661 -414.78128,0 -414.781263,0 0.133883,-489.14661 z m 827.82547,-0.15756 0,-487.413734 -413.17809,0 -413.178078,0 0,487.413734 0,487.41377 413.178078,0 413.17809,0 0,-487.41377 z M 356.52716,820.40811 C 285.23731,816.50692 215.56974,791.83194 158.24,750.17846 l -5.18583,-3.76783 201.49215,-0.31506 c 110.8207,-0.17329 212.15489,-0.23832 225.18708,-0.14456 25.83518,0.18595 24.61604,-0.0144 19.83589,3.26314 -0.7324,0.50221 -4.57669,3.16631 -8.54288,5.92022 -10.28426,7.14082 -9.86674,6.87433 -21.99571,14.04002 -28.64501,16.92339 -54.01221,27.79488 -87.16826,37.35733 -39.83015,11.48727 -82.55469,16.21751 -125.33528,13.87639 z M 163.69291,735.70908 c -7.86991,-1.5817 -15.15947,-4.49271 -21.42613,-8.5563 -2.09184,-1.35644 -4.05304,-2.28419 -4.35823,-2.06167 -0.30519,0.22249 -0.4015,0.11176 -0.21403,-0.24608 0.18746,-0.35779 -0.60227,-1.38688 -1.755,-2.28679 -3.00406,-2.34512 -9.13063,-9.74027 -12.00189,-14.48692 -10.8894,-18.00186 -13.9538,-45.59937 -7.55872,-68.07278 2.57429,-9.04655 6.10514,-16.19542 11.89694,-24.08764 1.55051,-2.11279 2.64193,-4.07233 2.42537,-4.35447 -0.21656,-0.28215 -0.0841,-0.30242 0.29408,-0.045 0.42425,0.28861 1.45587,-0.35055 2.69173,-1.6677 16.89188,-18.00271 48.31593,-22.64612 73.23952,-10.82233 7.74429,3.6739 17.06025,11.05965 21.1599,16.77568 0.81455,1.1357 1.74274,1.97038 2.0627,1.85487 0.31994,-0.11554 0.40658,-0.005 0.19254,0.24903 -0.21406,0.25251 0.41587,1.76485 1.39984,3.36072 0.98396,1.59596 2.19093,3.83253 2.68213,4.97025 0.52341,1.21226 1.13896,1.88929 1.48705,1.63554 0.32993,-0.24055 0.44551,-0.14967 0.26004,0.20435 -0.18368,0.35056 0.52597,3.12549 1.57692,6.16648 2.96974,8.59291 4.06497,15.93827 4.0882,27.41843 0.0282,13.94053 -2.01333,25.29535 -6.3772,35.46905 -0.71173,1.65922 -1.14734,3.29676 -0.96809,3.63893 0.17926,0.34217 0.0995,0.54419 -0.17731,0.44897 -0.71675,-0.24663 -5.50978,8.34381 -5.09604,9.1335 0.18879,0.36038 0.10863,0.48414 -0.17825,0.27501 -0.59073,-0.43072 -7.25948,7.31763 -6.8517,7.96088 0.14519,0.22904 0.12657,0.30165 -0.0415,0.16125 -0.16792,-0.14033 -2.15104,1.3086 -4.40686,3.21989 -7.9649,6.74838 -17.55568,11.39231 -27.79035,13.45639 -7.09151,1.43019 -19.87629,1.57063 -26.25577,0.2885 z m 22.83668,-6.99519 c 5.31937,-1.29614 8.4337,-2.7229 13.13049,-6.01539 4.45884,-3.12561 13.43811,-13.3274 12.97727,-14.74409 -0.16382,-0.50359 -0.019,-0.84525 0.32332,-0.76247 0.34107,0.0824 1.65643,-1.97674 2.92302,-4.57608 8.21075,-16.85019 10.80486,-35.67331 7.85929,-57.02771 -2.783,-20.17585 -12.74701,-35.34764 -27.83292,-42.38013 -13.21957,-6.16247 -29.85785,-4.8096 -41.73005,3.39311 -2.01845,1.39457 -2.21562,1.71997 -1.60249,2.64468 0.62348,0.94036 0.60003,0.96288 -0.21682,0.20805 -0.78248,-0.72303 -1.13281,-0.66117 -2.40376,0.42442 -3.00211,2.56429 -7.76743,8.78824 -7.3454,9.5938 0.26579,0.50735 0.1967,0.63174 -0.19308,0.34754 -0.64888,-0.47304 -3.18703,3.82464 -5.64041,9.55052 -6.61423,15.43683 -8.51523,40.1747 -4.53911,59.06756 2.14412,10.18792 8.62502,23.0675 14.47178,28.76 6.54022,6.36771 14.83883,10.79929 22.59093,12.064 4.12975,0.67366 13.42835,0.37808 17.22794,-0.54781 z m -41.0665,-16.48837 c -0.66443,-0.99949 -0.64553,-1.02173 0.20168,-0.23795 0.51415,0.47568 0.9348,0.97194 0.9348,1.10275 0,0.51867 -0.43865,0.18482 -1.13648,-0.8648 z m 158.18154,23.46007 c -12.6736,-2.33303 -24.09683,-9.09094 -32.05002,-18.96043 -1.90964,-2.36977 -3.65235,-4.24531 -3.87269,-4.16787 -0.22036,0.0773 -0.34956,-0.0719 -0.28714,-0.33177 0.23034,-0.95926 -1.25466,-3.32954 -1.82534,-2.91347 -0.35591,0.2595 -0.43871,0.14153 -0.20875,-0.29741 0.65593,-1.25198 -0.21053,-2.14179 -1.19842,-1.23074 -0.77156,0.71162 -0.80201,0.68925 -0.2335,-0.17159 0.53694,-0.81307 0.27316,-1.88268 -1.47634,-5.98632 -2.43017,-5.70031 -4.36987,-12.67333 -5.68445,-20.4349 -1.14054,-6.734 -1.29662,-26.16067 -0.25569,-31.8221 1.36481,-7.42287 3.40911,-14.56432 5.47044,-19.11015 2.2965,-5.06444 2.4082,-5.43825 1.42584,-4.77137 -0.38793,0.26334 -0.48118,0.21294 -0.22257,-0.1204 0.24482,-0.31551 0.64072,-0.57359 0.87975,-0.57359 0.23903,0 1.52459,-1.74671 2.85681,-3.88156 1.33221,-2.1348 3.82084,-5.53244 5.53027,-7.55026 1.70942,-2.01781 3.04795,-3.88655 2.9745,-4.15276 -0.0734,-0.26621 0.16692,-0.41315 0.53416,-0.32649 0.36724,0.0868 0.60168,-0.21801 0.52094,-0.67699 -0.0807,-0.45897 0.0886,-0.66286 0.37636,-0.4531 0.28776,0.20978 1.67585,-0.587 3.08471,-1.7706 5.12169,-4.30291 13.27692,-8.49414 20.99029,-10.78758 15.51247,-4.61234 32.12634,-3.50686 49.29787,3.28026 5.93591,2.34619 7.30295,3.1038 7.04244,3.90283 -0.40217,1.23341 -2.21259,8.90103 -2.94937,12.49151 -0.30227,1.47294 -0.80299,2.67812 -1.1127,2.67812 -0.30969,0 -1.95971,-1.48872 -3.66667,-3.30827 -5.41661,-5.77379 -13.63507,-10.80253 -20.83489,-12.74849 -7.14702,-1.93169 -18.66948,-0.94225 -25.90709,2.22465 -5.83737,2.55425 -14.52953,9.40379 -13.81099,10.88329 0.19857,0.40882 0.16433,0.53309 -0.0761,0.27617 -0.59803,-0.63912 -1.94319,0.76442 -1.51532,1.5811 0.19377,0.3699 0.087,0.46891 -0.24494,0.2269 -0.34027,-0.24806 -1.52943,1.04075 -2.81813,3.05431 -1.96575,3.07135 -2.14282,3.61374 -1.49699,4.58529 0.65431,0.98426 0.63828,1.01494 -0.15036,0.28783 -0.77376,-0.71338 -1.0792,-0.40198 -2.47189,2.52056 -10.01114,21.00802 -10.0256,54.65904 -0.0322,75.33444 0.92559,1.91501 1.84462,3.13773 2.17647,2.89583 0.3485,-0.25408 0.41868,-0.12149 0.17842,0.33705 -0.53318,1.01769 3.31693,6.81933 6.96604,10.49695 2.55702,2.57708 3.01976,2.82843 3.82898,2.08045 0.8155,-0.75377 0.84326,-0.7341 0.24344,0.17224 -0.78835,1.19126 -0.26466,1.69873 4.96979,4.81577 6.78821,4.04239 10.25439,4.87428 20.27895,4.86697 7.8494,-0.005 9.65347,-0.20133 13.30354,-1.44269 5.1096,-1.73776 13.11623,-6.35656 18.63659,-10.75097 2.23733,-1.78099 4.14922,-3.23818 4.24862,-3.23818 0.2261,0 -0.62411,11.38093 -0.92782,12.41965 -0.34733,1.18798 -10.77324,6.88024 -15.24941,8.32573 -9.7052,3.13399 -25.07668,4.11216 -35.23527,2.24209 z m 385.13433,0.54966 c -10.12124,-1.79326 -18.62775,-5.16431 -24.99218,-9.90429 -1.25956,-0.93809 -2.55866,-1.50977 -2.8869,-1.27041 -0.32824,0.23931 -0.44982,0.1545 -0.27013,-0.18841 0.17964,-0.34301 -1.36555,-2.28642 -3.43372,-4.31876 -8.55822,-8.40974 -14.75515,-21.39426 -17.88365,-37.47188 -1.1195,-5.75311 -1.58594,-24.3531 -0.77487,-30.89691 1.65534,-13.35504 5.86683,-24.66876 12.91906,-34.70614 1.12222,-1.59721 1.86616,-3.10957 1.65324,-3.36075 -0.21292,-0.25118 -0.0267,-0.36216 0.41413,-0.24664 0.4856,0.12732 0.73112,-0.16231 0.62322,-0.73517 -0.0982,-0.51983 0.005,-0.72856 0.23,-0.46377 0.55003,0.6488 3.47044,-2.7112 3.05148,-3.51083 -0.18856,-0.36003 -0.0616,-0.43499 0.29557,-0.17457 0.35057,0.25559 1.50368,-0.34671 2.6198,-1.36841 3.29055,-3.01205 8.13227,-6.20971 12.97248,-8.56741 15.59586,-7.59684 34.02028,-8.72723 51.89902,-3.18417 4.81614,1.49319 7.37127,2.49121 13.33407,5.20825 l 1.42848,0.65092 -0.96804,3.0269 c -0.53245,1.6648 -1.37967,5.22454 -1.88277,7.9105 -0.53326,2.84721 -1.18761,4.8836 -1.56921,4.8836 -0.35998,0 -1.23724,-0.73961 -1.9495,-1.64361 -2.16807,-2.75168 -7.90107,-7.3045 -8.57723,-6.81155 -0.38663,0.28188 -0.48593,0.1864 -0.25822,-0.24825 0.45491,-0.8683 -4.40825,-3.84644 -10.19743,-6.24472 -3.88781,-1.6106 -4.7455,-1.72478 -12.97669,-1.72748 -7.06581,-0.002 -9.50235,0.23322 -12.28586,1.18766 -6.94079,2.37994 -12.03193,5.63661 -17.43376,11.15184 -3.3429,3.41313 -6.67782,8.24058 -6.36246,9.20997 0.13996,0.43028 -0.0188,0.71478 -0.3527,0.6323 -0.96557,-0.23853 -4.62396,8.0975 -6.57138,14.9734 -2.84588,10.04847 -3.66165,17.50109 -3.30292,30.17372 0.40913,14.45082 1.8751,21.89473 6.34338,32.21019 5.49821,12.69298 13.71273,21.09534 25.00902,25.58088 8.74591,3.47281 21.2458,3.31675 30.46012,-0.3803 4.9694,-1.99387 12.35202,-6.58137 11.91961,-7.40673 -0.19268,-0.36775 -0.0908,-0.47398 0.23007,-0.23996 0.78854,0.57488 4.48084,-2.07557 4.04646,-2.90462 -0.21105,-0.40281 -0.092,-0.47855 0.30154,-0.19164 0.68908,0.50235 2.86031,-1.39172 2.46352,-2.1491 -0.12701,-0.24245 0.15007,-0.44089 0.6157,-0.44089 0.72069,0 0.79724,0.61728 0.51451,4.14847 -0.18274,2.28161 -0.33398,5.19789 -0.33606,6.4806 -0.005,2.21128 -0.18177,2.44961 -3.43832,4.59796 -6.23729,4.11482 -14.21033,7.06091 -23.00673,8.50123 -3.53361,0.5786 -18.75144,0.73965 -21.63375,0.22898 z M 16.96064,733.89864 c 0.18985,-0.5836 1.324077,-2.7616 2.520515,-4.83998 1.243857,-2.16074 2.01318,-4.11162 1.796633,-4.55601 -0.208292,-0.42735 -0.182012,-0.56685 0.05841,-0.30994 0.498539,0.53277 1.870829,-0.61641 1.870829,-1.56666 0,-0.3466 -0.420655,-0.24097 -0.934792,0.23472 -0.845922,0.78259 -0.865557,0.76064 -0.206555,-0.23101 0.400527,-0.60267 0.915076,-0.95958 1.143441,-0.79311 0.228369,0.16651 0.802069,-0.39376 1.274897,-1.24501 1.031797,-1.85765 1.094086,-2.4558 0.191968,-1.84335 -0.387933,0.26333 -0.481192,0.21291 -0.22257,-0.12041 0.24483,-0.31551 0.648076,-0.57361 0.896112,-0.57361 0.790583,0 3.78547,-5.37705 3.402275,-6.10845 -0.204457,-0.39026 -0.128628,-0.52813 0.170522,-0.30997 0.72432,0.52804 10.480916,-16.37527 9.991255,-17.30991 -0.216797,-0.41381 -0.147766,-0.5569 0.160304,-0.33232 0.742295,0.54122 17.40828,-29.05561 17.024904,-30.23417 -0.165257,-0.50802 -0.578765,-0.71919 -0.92051,-0.47001 -0.387895,0.28279 -0.47622,0.17707 -0.235636,-0.28218 0.763457,-1.45727 -28.099534,-55.93134 -29.207221,-55.12375 -0.319057,0.23263 -0.397688,0.1022 -0.184149,-0.30533 0.204951,-0.39122 -1.050503,-3.20806 -2.789893,-6.25972 l -3.162536,-5.54841 9.517081,-0.0198 9.517079,-0.0198 13.31739,26.93895 13.31739,26.93887 1.782327,-3.27042 c 0.980282,-1.79881 4.751842,-8.58655 8.381243,-15.08386 3.789842,-6.78467 6.436272,-12.12384 6.216852,-12.54271 -0.2282,-0.43554 -0.148813,-0.55918 0.197136,-0.30693 0.597562,0.43566 4.418488,-6.45005 9.412539,-16.96242 l 2.722688,-5.73118 7.03506,0.0356 c 3.86929,0.0196 6.92718,0.24139 6.7953,0.4931 -0.13184,0.2517 -0.53251,0.32808 -0.89035,0.16975 -0.66104,-0.29249 -3.43238,3.94663 -3.18788,4.87627 0.0734,0.27928 -0.0755,0.4369 -0.33072,0.35024 -0.25535,-0.0868 -3.06059,4.09591 -6.233883,9.29456 -17.415793,28.53151 -20.071573,33.08561 -19.703712,33.78777 0.229405,0.43789 0.165538,0.58394 -0.153569,0.35131 -0.667984,-0.48698 -5.660981,8.1982 -5.208996,9.06091 0.17731,0.33844 0.58329,0.42516 0.902175,0.19265 0.3544,-0.25838 0.425393,-0.12798 0.182617,0.33535 -0.284364,0.54282 -0.592057,0.56732 -1.083313,0.0864 -0.512735,-0.50202 -0.905706,-0.27644 -1.554942,0.89243 -1.137269,2.04756 -1.102111,2.53071 0.370128,5.08654 1.184814,2.0569 1.283214,2.10361 2.2524,1.0693 0.984566,-1.05069 0.987086,-1.04384 0.08826,0.23907 -0.898817,1.28298 -0.782705,1.59741 4.072078,11.02745 8.935753,17.35711 10.108349,19.45182 10.662708,19.04764 0.316583,-0.23081 0.383642,-0.0875 0.159361,0.34055 -0.509531,0.97254 1.748543,5.25679 2.486927,4.71848 0.343659,-0.25055 0.414573,-0.11765 0.178082,0.33373 -0.224523,0.42861 0.625223,2.69851 1.982602,5.29602 1.306552,2.50026 4.962349,9.5083 8.123943,15.57342 3.16163,6.06509 6.31869,12.03517 7.01573,13.26683 0.69702,1.23163 1.26761,2.36586 1.26795,2.52057 3.6e-4,0.15464 -4.33636,0.19779 -9.637142,0.096 -9.614954,-0.18482 -9.639196,-0.18885 -10.227932,-1.71314 -0.324571,-0.84039 -0.778747,-1.39043 -1.009265,-1.22229 -0.230538,0.16806 -0.593099,-0.0265 -0.805685,-0.43224 -0.24139,-0.46074 -0.154977,-0.56894 0.230171,-0.28814 1.086446,0.79207 0.695862,-0.27917 -3.456588,-9.48003 -2.333742,-5.17107 -4.308045,-8.85444 -4.622955,-8.62478 -0.316521,0.23074 -0.388072,0.0923 -0.168705,-0.32643 0.210401,-0.40158 -1.344626,-4.32404 -3.473595,-8.76179 -5.427939,-11.31444 -6.627362,-13.48559 -7.143865,-12.93156 -0.24917,0.26724 -0.278509,0.12837 -0.06519,-0.30864 0.381977,-0.78252 -1.148346,-4.09364 -6.005974,-12.99507 l -2.367038,-4.33751 -3.933692,7.17313 c -2.163531,3.94525 -3.822419,7.52422 -3.686423,7.95327 0.135999,0.42906 -0.04454,0.71263 -0.401218,0.63013 -0.356662,-0.0824 -0.615531,0.34325 -0.57525,0.94596 0.04027,0.60279 -0.127944,0.94931 -0.373826,0.77003 -0.627257,-0.45728 -1.699105,2.10197 -1.24408,2.9705 0.224051,0.42761 0.136422,0.54103 -0.218266,0.28243 -0.914996,-0.66713 -20.297786,38.61141 -19.657085,39.83433 0.177371,0.33857 -2.358578,0.59826 -6.108044,0.62549 -3.526229,0.026 -6.688101,0.24832 -7.026372,0.49496 -0.410449,0.29925 -0.500222,0.0955 -0.269873,-0.61273 z m 376.87863,0.55055 c -0.19064,-0.22497 -3.61189,-0.40015 -7.60273,-0.38932 l -7.25616,0.0196 -0.0136,-69.29372 -0.0137,-69.2938 51.55154,0 51.55156,0 0.001,69.47301 0.001,69.473 -7.74624,-0.18995 -7.74627,-0.1899 0,-64.14127 0,-64.1413 -17.48303,-0.38976 c -9.61569,-0.2144 -25.83987,-0.21412 -36.05377,6e-4 l -18.57074,0.39036 -0.13602,64.54068 c -0.075,35.4974 -0.29203,64.35664 -0.48269,64.13175 z m 121.469,-0.16333 -2.27022,-0.23543 0,-69.12169 0,-69.12169 7.74472,-0.0791 7.74468,-0.079 0,52.8532 c 0,42.84679 0.13098,52.85321 0.69185,52.85321 1.03766,0 21.31069,-27.65238 20.87819,-28.47794 -0.21339,-0.40738 -0.12782,-0.52785 0.2034,-0.28633 0.71424,0.52076 4.49069,-4.58181 4.03493,-5.45178 -0.18336,-0.34998 -0.088,-0.45749 0.21186,-0.23883 0.84991,0.61969 2.36235,-1.74486 1.98604,-3.10489 -0.22072,-0.79752 -0.17099,-0.93393 0.14967,-0.41092 0.6754,1.10156 4.59127,-3.64448 4.14331,-5.02165 -0.17712,-0.54452 -0.068,-1.1752 0.24242,-1.40158 0.35605,-0.25958 0.43849,0.006 0.22322,0.72399 -0.21302,0.70872 0.39133,0.31954 1.60806,-1.03552 1.07212,-1.19405 1.8895,-2.61187 1.81633,-3.15071 -0.0731,-0.53881 0.14817,-0.91641 0.49191,-0.83902 0.88688,0.19968 4.01298,-4.1709 3.57763,-5.00187 -0.19876,-0.37934 -0.12104,-0.5145 0.17269,-0.30039 0.60564,0.44155 28.65405,-37.14254 28.65405,-38.39562 0,-0.44677 0.18014,-0.68098 0.40032,-0.52048 0.51804,0.37772 4.21771,-4.70857 4.07254,-5.59889 -0.0605,-0.37257 0.15935,-0.6903 0.48914,-0.70608 0.32974,-0.0157 1.73416,-1.51732 3.12089,-3.33685 l 2.5214,-3.30825 3.95677,0 3.95675,0 0,69.2938 0,69.29378 -7.20579,-0.0196 c -3.96316,-0.009 -7.44859,0.15752 -7.74542,0.3739 -0.36186,0.26379 -0.53962,-17.88835 -0.53962,-55.09614 0,-53.64583 -0.0331,-55.48956 -0.992,-55.48956 -1.18219,0 -9.81731,11.85257 -9.32283,12.79646 0.18189,0.34715 0.0805,0.44878 -0.22531,0.22583 -0.7028,-0.51243 -13.58115,17.18489 -13.13088,18.04434 0.18298,0.34929 0.0763,0.44814 -0.23707,0.21973 -0.69164,-0.50432 -3.99994,4.2466 -3.45367,4.95956 0.21246,0.2774 0.13339,0.33493 -0.17578,0.12802 -0.60569,-0.40552 -16.61954,21.37333 -16.39769,22.3009 0.0733,0.30716 -0.1084,0.48748 -0.40411,0.40084 -0.77395,-0.22678 -9.10839,11.56119 -8.7107,12.32018 0.18288,0.34916 0.0872,0.45598 -0.21271,0.23732 -0.84991,-0.61967 -2.36236,1.74486 -1.98603,3.10489 0.22162,0.80092 0.17189,0.93525 -0.15113,0.40828 -0.65109,-1.06242 -4.19598,3.16254 -3.60305,4.29428 0.25256,0.48204 0.19032,0.622 -0.16224,0.36497 -0.31456,-0.2293 -1.67375,1.06891 -3.02051,2.88499 -2.34754,3.16582 -3.138,4.84589 -1.8318,3.89355 0.38514,-0.28078 0.47155,-0.17259 0.23018,0.28818 -0.21262,0.40582 -0.57535,0.60015 -0.80612,0.43182 -0.61162,-0.44588 -2.79546,2.48812 -2.31583,3.11126 0.22302,0.28982 0.14325,0.35081 -0.17729,0.13556 -0.58738,-0.39447 -3.24864,3.24893 -3.01501,4.12766 0.0691,0.25993 -0.0739,0.40173 -0.31786,0.31508 -0.4751,-0.16875 -3.82368,4.0537 -8.87017,11.18498 -1.71676,2.42606 -3.26813,4.42971 -3.4474,4.45265 -0.17926,0.0226 -1.34756,-0.0643 -2.59617,-0.19375 z m -372.05615,-4.02201 c 0.36236,-0.43063 0.79336,-0.62427 0.95783,-0.43024 0.16448,0.194 -0.132,0.54639 -0.6588,0.783 -0.7613,0.34198 -0.82265,0.26957 -0.29903,-0.35276 z m 589.08425,0.12175 c -0.16901,-0.32262 -0.10312,-0.7355 0.14653,-0.9175 0.24961,-0.18199 0.45387,0.0819 0.45387,0.58661 0,1.06254 -0.16847,1.15538 -0.6004,0.33089 z M 545.88931,677.41023 c 0.53175,-0.69314 1.08703,-1.26025 1.23394,-1.26025 0.1469,0 -0.16801,0.56711 -0.69976,1.26025 -0.53177,0.69317 -1.08702,1.2603 -1.23394,1.2603 -0.14688,0 0.16801,-0.56713 0.69976,-1.2603 z m 190.18623,-57.92937 c -0.16903,-0.32263 -0.10311,-0.73551 0.14652,-0.9175 0.24961,-0.18199 0.45387,0.0819 0.45387,0.58661 0,1.06254 -0.16847,1.15536 -0.60039,0.33089 z m -142.05079,-8.35067 c 0.15427,-0.29449 0.50425,-0.37226 0.77775,-0.17284 0.6989,0.50952 0.62022,0.70822 -0.28048,0.70822 -0.42777,0 -0.65153,-0.24092 -0.49727,-0.53538 z M 147.0656,597.53993 c -0.66443,-0.99946 -0.64555,-1.02175 0.20168,-0.23794 0.51415,0.47567 0.93479,0.97192 0.93479,1.10276 0,0.51862 -0.43865,0.18483 -1.13647,-0.86482 z m 31.45042,-13.26439 -3.07144,-0.189 0,-32.67989 0,-32.67989 3.20598,-0.21351 3.20597,-0.21351 0.002,4.09593 0.002,4.09589 1.03441,-1.85109 c 0.56891,-1.01812 0.88934,-2.15237 0.71208,-2.52057 -0.17728,-0.36819 -0.13022,-0.46468 0.10462,-0.2144 0.23478,0.25026 1.13315,-0.24606 1.9964,-1.10296 0.86324,-0.85686 2.15029,-1.72991 2.86009,-1.94005 0.70979,-0.21016 1.19466,-0.56453 1.07745,-0.7875 -0.1172,-0.22296 1.98774,-0.24734 4.67766,-0.0543 3.46651,0.24895 5.51297,0.7339 7.02742,1.66533 1.17517,0.72275 2.37704,1.3445 2.67082,1.38165 0.29381,0.0373 0.53497,0.28025 0.53592,0.54015 10e-4,0.25996 0.63836,1.46511 1.41644,2.67811 3.13408,4.886 4.43012,11.70889 3.58716,18.88449 -1.34125,11.41775 -6.65252,18.08263 -14.96954,18.78462 -4.7107,0.39761 -7.64262,-0.87331 -10.52525,-4.56246 l -2.14498,-2.74516 -0.0486,14.87329 c -0.0267,8.18031 -0.10194,14.88914 -0.16737,14.90848 -0.0653,0.0195 -1.50101,-0.0498 -3.19031,-0.15379 z m 18.07915,-27.16158 c 2.33539,-1.25116 3.9268,-3.73538 5.33093,-8.32154 1.17012,-3.8218 1.20318,-13.68902 0.0612,-18.25462 -0.96622,-3.86273 -3.69354,-7.8343 -4.98001,-7.25194 -0.43209,0.19562 -0.65568,0.1075 -0.49681,-0.19563 0.83439,-1.59267 -5.7381,-1.739 -8.19829,-0.18253 -7.4434,4.70917 -8.96335,25.42578 -2.36675,32.25831 1.05376,1.09145 2.24511,1.81394 2.67227,1.6206 0.4239,-0.19191 0.6345,-0.0888 0.468,0.22893 -0.16652,0.31784 0.24166,0.70132 0.90706,0.8522 2.59624,0.58868 4.50303,0.37097 6.60244,-0.75378 z m 28.21007,15.47482 5.08761,-11.56065 -7.50157,-20.72721 c -4.12586,-11.39996 -7.78334,-20.93862 -8.12768,-21.19701 -0.34435,-0.2584 1.21693,-0.47414 3.46952,-0.47945 l 4.09562,-0.008 0.83333,2.67812 c 0.45832,1.47293 1.45101,4.66304 2.20595,7.08908 2.34147,7.5242 7.81294,22.36999 8.24458,22.36999 0.62765,0 6.06783,-15.2517 10.39547,-29.14403 l 0.93241,-2.99316 2.64544,0 c 2.35174,0 2.59054,0.12243 2.15092,1.10276 -0.27196,0.60651 -2.17822,5.49797 -4.2361,10.86992 -2.05788,5.37194 -4.51529,11.75212 -5.46087,14.17816 -4.09814,10.5144 -12.1897,32.53631 -13.83417,37.65092 -0.50703,1.57696 -0.80147,1.73287 -3.27262,1.73287 l -2.71546,0 5.08762,-11.56067 z m 259.30303,-12.08404 -0.18232,-3.45306 1.60251,-0.005 c 1.33588,-0.004 1.74917,-0.39765 2.484,-2.36218 7.44205,-19.89592 8.96874,-24.27761 8.66252,-24.86209 -0.21664,-0.4135 -0.11439,-0.50945 0.25554,-0.23974 0.33918,0.24728 0.61669,0.17354 0.61669,-0.16389 0,-0.33742 0.74218,-2.90621 1.64925,-5.70845 l 1.64928,-5.09497 2.28757,0 2.28757,0 5.65976,16.54119 c 8.20936,23.99277 7.33882,21.88358 9.03511,21.89099 1.42645,0.005 1.46897,0.10826 1.46897,3.52469 0,1.93507 -0.18027,3.40881 -0.40062,3.27501 -4.03557,-2.45058 -4.12189,-2.46083 -19.01998,-2.26136 -12.52827,0.16771 -14.72832,0.34216 -16.18626,1.2833 l -1.68729,1.08917 -0.1823,-3.45306 z m 26.26248,-9.91029 c -2.56876,-8.26174 -3.99733,-12.45997 -5.84496,-17.17684 -0.81568,-2.0825 -1.66811,-4.47402 -1.89428,-5.31449 l -0.41114,-1.52816 -0.75066,1.69009 c -0.78304,1.76305 -6.05936,17.1773 -8.39829,24.5349 l -1.35216,4.25344 10.32981,0 10.32988,0 -2.0082,-6.45894 z m 12.03802,11.54361 c -0.16899,-0.32265 -0.10311,-0.73549 0.14654,-0.9175 0.24961,-0.18197 0.45388,0.0819 0.45388,0.58659 0,1.06253 -0.16848,1.15538 -0.60042,0.33091 z M 26.055441,560.96467 c -3.354986,-1.41218 -6.160142,-3.85626 -8.155536,-7.10573 -0.822206,-1.33894 -1.685622,-2.23129 -1.918707,-1.98301 -0.233085,0.24828 -0.2667,0.12717 -0.07469,-0.26915 0.192003,-0.39635 -0.05968,-1.95595 -0.559287,-3.46579 -0.725105,-2.19133 -0.894414,-4.65229 -0.839148,-12.19731 0.09716,-13.26522 1.651001,-20.99779 5.374585,-26.74628 0.798087,-1.23212 1.385858,-2.47393 1.306157,-2.75963 -0.07972,-0.28569 0.08488,-0.35192 0.365752,-0.14714 0.280871,0.20479 1.40376,-0.34261 2.49531,-1.21644 3.536,-2.83075 10.377953,-4.46734 20.390285,-4.87738 l 4.406877,-0.18048 0,2.55671 0,2.55672 -8.413128,-0.0315 c -7.980962,-0.0298 -8.564042,0.0528 -11.351048,1.60776 -3.372295,1.88159 -5.539176,4.24899 -7.01705,7.66634 -1.013517,2.3436 -2.186683,8.02332 -1.657247,8.02332 0.147734,0 1.018111,-0.54338 1.934164,-1.2075 4.881436,-3.53891 13.71971,-4.08904 19.090751,-1.18832 8.920353,4.81762 12.476248,18.12603 7.973339,29.84129 -2.957101,7.69349 -8.314826,11.72523 -16.05062,12.07823 -3.408397,0.15554 -5.228629,-0.0824 -7.300753,-0.9547 z m 10.987155,-2.93388 c 4.395227,-2.68122 7.148766,-9.69782 7.183963,-18.30626 0.02502,-6.1124 -0.909985,-11.35365 -1.896993,-10.63405 -0.367967,0.26828 -0.440291,0.14232 -0.19124,-0.33305 0.594334,-1.13445 -2.181715,-5.48143 -4.2343,-6.63046 -2.186682,-1.22409 -6.673645,-1.28484 -8.971867,-0.12149 -2.647496,1.34013 -5.02769,4.53747 -6.307282,8.47258 -1.345568,4.138 -1.671831,13.8114 -0.609608,18.07433 0.994845,3.9925 3.348138,7.75059 5.721067,9.13625 2.562954,1.49662 7.13805,1.66482 9.30626,0.34215 z m 31.485377,3.18552 c -3.554907,-1.498 -6.581277,-4.00104 -8.349525,-6.90566 -2.733257,-4.48981 -3.47483,-7.52497 -3.486822,-14.27105 -0.01223,-6.87639 1.129912,-11.09701 4.198345,-15.51442 0.992486,-1.42881 1.677507,-2.74769 1.522269,-2.93081 -0.15524,-0.18313 0.03424,-0.30546 0.42106,-0.2719 0.386828,0.0336 1.905198,-0.63135 3.374157,-1.47763 2.227049,-1.28305 3.46965,-1.53926 7.478336,-1.54191 4.339626,-0.003 5.091577,0.1808 7.726423,1.88724 4.979427,3.22487 8.031503,9.61411 8.031503,16.81309 l 0,3.03634 -13.163187,0 -13.163182,0 0.335676,3.78859 c 0.374365,4.2253 2.185608,9.10858 3.124528,8.42403 0.346152,-0.25236 0.447498,-0.15081 0.241642,0.24212 -0.604992,1.15478 3.421536,4.47579 6.370548,5.25435 1.523222,0.40211 3.820414,0.54344 5.104857,0.31405 2.744187,-0.49008 6.672425,-2.98473 6.461914,-4.1037 -0.0808,-0.42909 0.114711,-0.58952 0.434297,-0.35655 0.319584,0.23302 1.046665,-0.0735 1.615732,-0.68094 1.004891,-1.07283 1.034676,-1.04057 1.034676,1.1214 0,1.22428 -0.357925,2.57641 -0.795382,3.00468 -0.437436,0.42828 -0.640677,1.07396 -0.451627,1.43478 0.204105,0.38961 0.08375,0.46655 -0.296366,0.18945 -0.352055,-0.25669 -0.930036,-0.19643 -1.284399,0.13388 -0.354374,0.33033 -2.035478,1.20544 -3.735814,1.94467 -3.575662,1.55459 -9.640145,1.77621 -12.749659,0.4659 z m 14.505748,-27.69916 c 0,-3.17927 -0.955548,-6.86711 -1.648424,-6.36195 -0.261806,0.19086 -0.334869,-0.0869 -0.162348,-0.6172 0.457638,-1.40687 -2.740769,-4.99843 -4.082623,-4.58448 -0.578742,0.17852 -0.917545,0.0675 -0.752905,-0.24676 0.164639,-0.31426 -0.804257,-0.57138 -2.153094,-0.57138 -2.958295,0 -6.405969,1.5361 -5.846111,2.60473 0.224764,0.429 0.158599,0.5734 -0.15725,0.34314 -1.179131,-0.85968 -3.930336,4.93666 -4.657449,9.81248 l -0.352389,2.36302 9.906296,0 9.906297,0 0,-2.7416 z m 59.826689,27.57477 c -1.32207,-0.55858 -3.18639,-1.71146 -4.14294,-2.56196 -0.95655,-0.8505 -1.9841,-1.3678 -2.28345,-1.14955 -0.29934,0.21824 -0.49026,0.16305 -0.42427,-0.12264 0.0659,-0.28572 -0.65761,-1.93725 -1.60798,-3.67015 -0.95037,-1.7329 -2.08009,-4.54911 -2.51049,-6.25824 -1.12995,-4.48709 -1.00816,-11.61695 0.26599,-15.57278 0.57673,-1.79046 0.91942,-3.50191 0.76157,-3.80322 -0.15787,-0.3013 -0.0889,-0.48884 0.15332,-0.41671 0.24217,0.0722 1.61558,-1.22998 3.052,-2.8935 6.79368,-7.86782 17.85076,-8.88684 25.21983,-2.32427 5.42081,4.82754 7.95654,15.13439 5.83825,23.73036 -1.14878,4.66156 -3.1722,8.79938 -5.14387,10.51902 -0.82968,0.72363 -1.35923,1.62505 -1.17678,2.00315 0.18247,0.37809 0.15468,0.50037 -0.0618,0.27174 -0.21644,-0.22863 -1.75731,0.32337 -3.42419,1.22666 -3.87061,2.09753 -10.81281,2.58639 -14.51523,1.02209 z m 11.02731,-3.17859 c 3.70495,-2.07401 7.13436,-10.83576 7.13436,-18.22761 0,-8.04667 -2.63661,-15.22292 -6.41002,-17.44662 -2.0314,-1.19714 -6.59819,-1.46727 -8.71962,-0.51579 -1.97822,0.88726 -5.25981,4.5245 -4.94772,5.48395 0.15111,0.4645 0.003,0.77706 -0.3277,0.69455 -1.07665,-0.26803 -2.61661,7.0756 -2.63727,12.57643 -0.0329,8.76189 2.32943,14.88912 6.75024,17.50836 2.11584,1.25359 6.85518,1.21565 9.15773,-0.0734 z m 112.7485,3.52228 c -1.11127,-0.32461 -2.72654,-1.02091 -3.5895,-1.54735 -0.86295,-0.52642 -1.86581,-0.88339 -2.22856,-0.79326 -0.36277,0.0901 -0.6705,-0.15087 -0.68383,-0.5356 -0.0133,-0.3847 -0.93302,-1.80251 -2.0437,-3.15069 -3.78042,-4.58884 -5.54538,-11.74134 -4.67985,-18.96494 0.60294,-5.03204 1.67239,-7.78246 4.36686,-11.23082 5.41288,-6.92736 15.50712,-9.1763 24.07587,-5.36399 2.78523,1.23918 3.03821,1.51044 2.93792,3.15021 -0.0603,0.98685 -0.27044,1.67764 -0.46686,1.53508 -0.19645,-0.14254 -0.51601,0.594 -0.71018,1.63675 -0.19413,1.04277 -0.46142,1.89593 -0.59393,1.89593 -0.13255,0 -1.01278,-1.03701 -1.9561,-2.3044 -5.32771,-7.15819 -14.66873,-5.69468 -18.73037,2.93453 -3.77319,8.01634 -2.69553,19.82633 2.35252,25.78136 2.30351,2.7174 4.39246,3.88017 7.69259,4.28195 3.45957,0.42123 6.15074,-0.55152 9.52334,-3.44232 1.40933,-1.20799 2.68499,-2.0517 2.83483,-1.87494 0.14984,0.17677 0.0725,1.27405 -0.17166,2.43843 -0.37044,1.76581 -0.97371,2.43071 -3.63609,4.00747 -2.71052,1.60529 -3.87683,1.90901 -7.7324,2.01363 -2.49722,0.0677 -5.44963,-0.14242 -6.5609,-0.46703 z m 35.0603,-0.60344 c -4.20132,-1.6174 -8.06103,-5.63052 -10.1355,-10.53834 -1.40065,-3.31368 -1.53764,-4.2272 -1.53764,-10.25423 0,-5.74079 0.173,-7.03349 1.30706,-9.76719 0.71889,-1.73289 1.28799,-3.49404 1.26471,-3.91365 -0.0234,-0.41964 0.11919,-0.7032 0.3166,-0.63014 0.19743,0.0732 1.36507,-0.88087 2.59479,-2.1198 1.81845,-1.83207 2.11364,-2.41456 1.58134,-3.1203 -0.54914,-0.72805 -0.50951,-0.73876 0.24614,-0.0668 0.71223,0.63343 1.15407,0.64102 2.11204,0.0362 4.444,-2.80567 12.16011,-3.21259 17.81661,-0.93956 2.05476,0.8257 3.90223,1.38002 4.10544,1.23186 0.38183,-0.27836 -0.0463,1.63962 -1.19736,5.36502 l -0.66258,2.14433 -1.6553,-2.18811 c -3.29207,-4.35169 -6.81432,-5.64268 -11.65642,-4.27236 -3.76649,1.06589 -7.47062,5.38248 -8.65455,10.0855 -1.21235,4.81593 -1.09105,11.73153 0.28165,16.05964 2.05352,6.47469 5.78628,10.13264 10.96032,10.74076 3.46053,0.40672 7.51836,-0.81341 7.26691,-2.18505 -0.0807,-0.44035 0.10995,-0.61346 0.42372,-0.38471 0.31377,0.22876 1.41719,-0.34592 2.45207,-1.27707 1.03486,-0.93115 2.01482,-1.53582 2.17769,-1.34369 0.16287,0.19214 0.14192,1.31903 -0.0465,2.50422 -0.30333,1.90749 -0.7247,2.35855 -3.66974,3.92853 -4.47927,2.38788 -10.88032,2.75697 -15.69143,0.90483 z m 233.94694,0.0931 c -4.19025,-1.70815 -7.49826,-5.25071 -9.45743,-10.12813 -1.53327,-3.81703 -1.6634,-4.65868 -1.6634,-10.7575 0,-5.96694 0.15165,-7.00384 1.54477,-10.5623 2.72825,-6.96906 7.67111,-10.84076 14.48024,-11.3423 2.68912,-0.19807 4.41421,0.0249 6.14293,0.79446 1.32205,0.58845 2.80678,1.10271 3.29932,1.14281 0.49258,0.0401 0.78631,0.28148 0.65276,0.5364 -0.1336,0.2549 0.23557,0.76554 0.82033,1.13469 2.77627,1.75279 5.91091,10.01235 5.91091,15.57499 l 0,2.72125 -13.08707,0 -13.08709,0 0.0288,2.99317 c 0.0326,3.36078 1.54998,8.66443 2.47891,8.66443 0.33438,0 0.80831,0.25814 1.05316,0.57364 0.26282,0.33865 0.14327,0.36726 -0.29187,0.0698 -1.69668,-1.15982 -0.12333,1.34612 1.84818,2.94368 2.73935,2.2198 6.54139,3.28337 9.7246,2.72028 2.99619,-0.52998 3.78682,-0.97486 7.45014,-4.19204 2.42128,-2.12642 2.73471,-2.26346 2.34403,-1.02475 -0.24806,0.78646 -0.38279,1.94645 -0.29946,2.57772 0.19,1.43852 -3.75391,4.50219 -7.47389,5.80583 -3.5433,1.24172 -9.03624,1.13284 -12.41912,-0.24615 z m 15.16426,-28.16028 c -0.40043,-4.57644 -2.1527,-8.74231 -4.35166,-10.34552 -2.42645,-1.76911 -9.47846,-1.74019 -8.54843,0.035 0.16047,0.30628 -0.0506,0.40188 -0.4691,0.21244 -0.46162,-0.20894 -1.52589,0.71 -2.70632,2.33683 -1.82683,2.51776 -2.50367,4.39908 -3.32462,9.24138 l -0.34141,2.01364 10.02359,0 10.02359,0 -0.30564,-3.49384 z m 53.50353,28.37894 c -5.51495,-2.08227 -10.20948,-7.55201 -11.8086,-13.75853 -0.37126,-1.44084 -0.66564,-5.02999 -0.65419,-7.9759 0.0177,-4.59937 0.24048,-5.89041 1.57567,-9.13704 0.85525,-2.07946 1.53408,-4.13225 1.50855,-4.56173 -0.0257,-0.4295 0.13465,-0.64886 0.35602,-0.48747 0.5942,0.43323 2.21834,-1.89583 1.74827,-2.50713 -0.22098,-0.28736 -0.0908,-0.31082 0.2893,-0.0522 0.84666,0.57623 2.36744,-0.78856 1.89133,-1.69734 -0.18905,-0.36084 -0.10353,-0.48099 0.18996,-0.26698 0.29352,0.21401 1.83299,-0.22612 3.42106,-0.97804 2.33325,-1.10476 4.01512,-1.37239 8.76322,-1.39448 5.29249,-0.0247 6.18091,0.14129 8.94864,1.67138 l 3.07274,1.69873 -0.93609,2.97419 c -0.51487,1.6358 -1.07942,2.85632 -1.25464,2.71225 -0.17521,-0.14406 -0.77614,0.16342 -1.33542,0.68328 -0.95274,0.88556 -0.96753,0.87124 -0.23497,-0.22689 0.71273,-1.0684 0.61022,-1.35766 -1.15899,-3.27031 -5.13201,-5.54812 -13.80673,-3.78365 -17.67377,3.59498 -2.06577,3.94167 -2.91608,9.97411 -2.14975,15.25173 0.67524,4.65029 2.17545,8.76537 2.98135,8.17781 0.33684,-0.24557 0.39724,-0.1 0.15246,0.3673 -1.05755,2.01861 4.57934,6.25604 9.04556,6.79981 3.4326,0.41795 5.97932,-0.51534 9.1177,-3.34136 1.31165,-1.1811 2.51748,-2.14744 2.67955,-2.14744 0.16212,0 0.22013,1.05605 0.12895,2.3468 -0.1529,2.16369 -0.40949,2.49351 -3.2892,4.22701 -2.68379,1.61555 -3.81153,1.90488 -8.01249,2.05573 -3.23016,0.1159 -5.72831,-0.1413 -7.36222,-0.75822 z m -511.66253,0.0837 c 0,-0.13035 1.298503,-3.4622 2.885566,-7.40417 4.678104,-11.61957 8.377554,-22.18661 8.083684,-23.09008 -0.15052,-0.46272 -0.0574,-0.68367 0.2068,-0.49102 0.47748,0.34814 3.78062,-9.03192 3.78062,-10.736 0,-0.64634 0.71483,-0.89136 2.60025,-0.89136 l 2.60025,0 1.91653,5.82878 c 2.98762,9.08638 8.00119,23.46109 10.65931,30.56183 l 2.41783,6.45896 -3.55355,-6.5e-4 -3.55354,-6.3e-4 -0.97303,-3.93753 c -1.0833,-4.38378 -7.68455,-24.14864 -9.32588,-27.92276 l -1.05319,-2.42171 -1.06163,2.49111 c -1.36449,3.20182 -5.81013,16.3186 -8.478258,25.01495 l -2.077171,6.77035 -2.537301,0.003 c -1.395523,0.002 -2.53729,-0.10293 -2.53729,-0.23329 z m 236.63592,-21.18787 0,-21.42476 3.205,0 3.20502,0 0,9.13702 c 0,5.95944 0.19499,9.13704 0.56068,9.13704 1.21031,0 3.73235,-1.97313 3.38049,-2.64478 -0.21566,-0.41162 -0.12517,-0.52427 0.21938,-0.27307 0.72542,0.52891 7.66443,-7.77491 7.21458,-8.63356 -0.17749,-0.3388 -0.063,-0.42664 0.25437,-0.19524 0.31864,0.2323 1.73113,-1.13154 3.15399,-3.0454 2.56845,-3.45474 2.58717,-3.46614 5.69289,-3.47407 1.71379,-0.004 3.03584,0.23443 2.93793,0.53067 -0.0979,0.29625 -3.54342,3.93913 -7.65664,8.09533 -4.11321,4.15616 -7.76114,7.95834 -8.10652,8.44926 -0.50985,0.72468 1.07526,3.23211 8.42629,13.32946 l 9.05424,12.43691 -3.93553,0 -3.93552,0 -6.45165,-8.97952 c -7.49982,-10.43838 -9.43699,-12.74105 -10.23144,-12.16186 -0.37607,0.27418 -0.57754,4.03514 -0.57754,10.78124 l 0,10.36014 -3.20502,0 -3.205,0 0,-21.42481 z m 37.92586,0 0,-21.42476 3.20501,0 3.20498,0 0.0242,15.28089 0.0242,15.2809 2.70761,-3.46574 c 4.77725,-6.11495 11.67262,-16.49214 11.35783,-17.09299 -0.16775,-0.32021 -0.059,-0.50428 0.24147,-0.40904 0.77319,0.24499 4.94637,-6.42668 4.5241,-7.23271 -0.20087,-0.3834 -0.0946,-0.48038 0.2505,-0.22875 0.32957,0.24029 0.90528,-0.14124 1.27935,-0.84784 0.45847,-0.86601 1.24759,-1.28472 2.42123,-1.28472 l 1.74109,0 0,21.42476 0,21.42481 -3.20501,0 -3.205,0 0,-15.41148 0,-15.41146 -2.45181,3.09214 c -1.49662,1.88751 -2.29689,3.38788 -2.05413,3.85122 0.2306,0.44017 0.17293,0.59524 -0.13728,0.36906 -0.78208,-0.57021 -3.57318,3.07715 -3.07801,4.0223 0.25225,0.4815 0.18783,0.6182 -0.16882,0.35818 -0.77137,-0.56239 -7.25,8.81807 -6.74973,9.77299 0.22604,0.43142 0.14948,0.56 -0.18726,0.3145 -0.50739,-0.36994 -5.19432,6.23195 -5.86041,8.25485 -0.14265,0.43323 -1.07495,0.7877 -2.07179,0.7877 l -1.81242,0 0,-21.42481 z m 42.19918,0 0,-21.42476 3.1955,0 3.19551,0 0.14303,15.28089 0.14305,15.2809 3.65949,-5.0411 c 7.53115,-10.37454 11.62056,-16.71161 11.24581,-17.42689 -0.23271,-0.4442 -0.14629,-0.55589 0.22224,-0.28721 0.36391,0.26534 1.59992,-1.19511 3.11737,-3.68348 2.22094,-3.64198 2.71958,-4.12311 4.27311,-4.12311 l 1.75875,0 -0.11964,21.1097 c -0.0771,13.61122 0.0701,21.204 0.41455,21.37505 0.29377,0.14592 -1.08837,0.28768 -3.07148,0.31506 l -3.60562,0.0497 -0.0118,-15.59599 c -0.0117,-15.44901 -0.0215,-15.5813 -1.02656,-14.03825 -0.55809,0.85677 -0.87615,1.82216 -0.70684,2.14532 0.1693,0.32319 0.0618,0.40822 -0.23893,0.18896 -0.70548,-0.51432 -6.20538,6.91783 -5.75518,7.77711 0.18725,0.35743 0.0497,0.57193 -0.30565,0.47669 -0.87485,-0.23446 -10.71351,14.1061 -10.38747,15.1405 0.14222,0.45121 0.0188,0.64552 -0.27445,0.43179 -0.29319,-0.21374 -0.95144,0.47864 -1.46284,1.53864 -0.73682,1.52728 -1.29009,1.92808 -2.66584,1.93124 l -1.73607,0.003 0,-21.42479 z m 161.20018,2.10767 0.14893,-19.31779 -6.56844,0.39272 -6.56836,0.39271 -0.0557,-2.50005 -0.0557,-2.50002 16.22362,0 16.22361,0 0,2.50745 0,2.50746 -6.69243,-0.40013 -6.69245,-0.40014 0.1489,19.31779 0.1489,19.31782 -3.20501,0 -3.205,0 0.14887,-19.31782 z m 61.01324,-2.10767 0,-21.42476 3.07146,6.1e-4 3.07146,6.3e-4 0,8.76967 c 0,4.82329 0.16217,8.96056 0.36036,9.19389 0.84467,0.99438 3.0551,-0.83659 7.89294,-6.53804 2.83317,-3.33887 6.05093,-7.27581 7.15068,-8.74877 1.94684,-2.60752 2.08651,-2.6781 5.30167,-2.6781 3.89584,0 4.59195,-1.12966 -6.01606,9.76268 -3.96619,4.07252 -7.28994,7.64842 -7.38608,7.94649 -0.26372,0.81767 15.40211,22.06151 15.96581,21.65052 0.26885,-0.19602 0.35528,0.0543 0.19204,0.55613 -0.17067,0.52468 0.22301,1.34211 0.92619,1.92317 1.16582,0.96327 1.02245,1.01057 -3.06258,1.01057 l -4.28562,0 -3.08263,-4.42033 c -1.74321,-2.4997 -3.33401,-4.23708 -3.66119,-3.99857 -0.34283,0.25 -0.42471,0.12823 -0.20095,-0.29887 0.45008,-0.85896 -8.03888,-12.70692 -9.10445,-12.70692 -0.39769,0 -0.76417,0.63802 -0.81444,1.41782 -0.0501,0.7798 -0.14486,1.84315 -0.21029,2.36303 -0.0654,0.51985 -0.14445,4.70243 -0.17571,9.29457 l -0.0568,8.34939 -2.93792,0 -2.93792,0 0,-21.42481 z m 37.39167,0 0,-21.42476 3.20501,0 3.20501,0 0,15.40073 0,15.40071 2.67083,-3.33142 c 2.44537,-3.05018 3.41183,-4.76945 2.17358,-3.86666 -0.2735,0.19939 -0.64047,0.0891 -0.81552,-0.24494 -0.17649,-0.3369 0.15608,-0.49973 0.74665,-0.36556 0.7948,0.18056 1.95977,-1.02369 4.59241,-4.74717 2.09366,-2.96112 3.37005,-5.28961 3.14015,-5.72842 -0.2328,-0.44436 -0.15694,-0.57138 0.19012,-0.31834 0.33475,0.24407 2.22143,-2.21082 4.4894,-5.8414 3.52469,-5.64248 4.08383,-6.26713 5.64802,-6.30998 l 1.73603,-0.0475 0,21.42476 0,21.4248 -3.205,0 -3.205,0 0,-15.55889 c 0,-13.55006 -0.0974,-15.40185 -0.75386,-14.34267 -0.41469,0.66893 -0.63717,1.43908 -0.4945,1.71141 0.14268,0.27235 0,0.41724 -0.31477,0.32204 -0.73213,-0.22079 -8.50154,10.46033 -14.72894,20.24888 -4.38921,6.89915 -4.9586,7.55937 -6.54356,7.58793 l -1.73606,0.0313 0,-21.42479 z m 42.19921,0 0,-21.42476 3.20499,0 3.20499,0 0,15.57873 0,15.57872 2.37983,-3.13346 c 2.30077,-3.02935 3.08432,-4.63181 1.81099,-3.70342 -0.38513,0.28081 -0.47157,0.17261 -0.23017,-0.28816 0.21259,-0.40579 0.60094,-0.58147 0.86294,-0.39044 0.55051,0.40136 7.25901,-8.98817 12.60469,-17.64195 3.31418,-5.36523 3.84018,-5.94611 5.40736,-5.97169 l 1.73605,-0.0283 0,21.42477 0,21.42478 -3.205,0 -3.205,0 0,-15.47513 0,-15.47511 -2.66903,3.59802 c -2.25596,3.04119 -2.56592,3.75388 -2.00312,4.60519 0.57962,0.8767 0.55254,0.90274 -0.20886,0.20114 -0.76631,-0.70612 -1.63096,0.30915 -6.97665,8.19182 -3.35606,4.94881 -6.80843,10.19696 -7.67193,11.66252 -1.29464,2.19728 -1.8745,2.66699 -3.30606,2.67809 l -1.73602,0.0136 0,-21.42479 z M 292.72242,521.81941 c -0.172,-0.3283 -0.0849,-0.7629 0.19325,-0.96578 0.2783,-0.20291 0.64669,-0.10029 0.81869,0.22798 0.17198,0.32828 0.0849,0.76288 -0.19329,0.96576 -0.27827,0.20288 -0.64668,0.10029 -0.81865,-0.22796 z m 126.16411,-7.96972 c -2.486,-0.71068 -5.86126,-2.27929 -6.69249,-3.11029 -0.0843,-0.0845 0.11768,-0.85568 0.44915,-1.71392 l 0.60271,-1.56042 3.29001,1.59699 c 4.70416,2.28343 11.50384,2.277 16.22716,-0.0151 l 3.32214,-1.61229 0.82157,1.47914 c 0.79689,1.43477 0.75562,1.51882 -1.37566,2.80147 -2.59018,1.55882 -8.40979,3.11429 -11.43185,3.05552 -1.17517,-0.0229 -3.52089,-0.43725 -5.21274,-0.92091 z m 303.04907,0.33858 c -1.30102,-0.32295 -3.6522,-1.21631 -5.22489,-1.98529 -2.1713,-1.06163 -2.77255,-1.6336 -2.49836,-2.3767 0.19855,-0.53823 0.37781,-1.41406 0.39829,-1.94631 0.0202,-0.53225 0.44886,-0.96772 0.95191,-0.96772 0.50305,0 0.82243,0.17607 0.70966,0.39128 -0.37328,0.71246 3.38876,2.432 6.89779,3.15288 4.13083,0.8486 9.18639,0.10251 12.63835,-1.86485 1.26464,-0.72079 2.34532,-1.24159 2.40139,-1.15734 0.49877,0.74896 1.3578,3.14847 1.19564,3.33974 -0.11331,0.13366 -1.83296,0.96543 -3.82149,1.84839 -4.05855,1.80211 -9.96622,2.47992 -13.64829,1.56592 z m -12.68972,-20.31644 c -0.005,-0.42769 -1.45657,-3.32971 -3.22524,-6.44893 -5.25969,-9.27562 -11.47263,-24.01695 -18.85647,-44.73998 -1.23489,-3.46578 -3.05938,-8.38251 -4.05438,-10.92609 -0.99505,-2.54357 -1.80916,-4.74962 -1.80916,-4.90232 0,-0.68949 -6.30821,-15.71404 -9.73151,-23.17791 -8.4986,-18.52966 -20.93006,-43.4425 -26.60124,-53.30928 -1.09563,-1.90618 -2.92211,-5.16715 -4.05893,-7.24661 -2.97781,-5.4472 -12.94168,-22.11632 -15.51717,-25.95962 -1.2069,-1.801 -2.38029,-3.07704 -2.60759,-2.83563 -0.22729,0.24142 -0.27158,0.14414 -0.0986,-0.21614 0.71114,-1.47984 -17.76108,-27.22709 -18.92504,-26.37848 -0.23991,0.17492 -0.30587,-0.0825 -0.14663,-0.57221 0.41343,-1.27098 -15.19321,-18.38725 -21.94326,-24.06578 -0.8239,-0.69315 -2.59038,-2.67809 -3.92543,-4.41097 -6.29296,-8.16815 -21.45309,-25.36029 -28.66232,-32.50418 -12.27371,-12.1624 -20.51068,-19.58852 -21.18335,-19.09806 -0.34967,0.2549 -0.45742,0.1603 -0.25571,-0.22466 0.19551,-0.3732 -1.81969,-2.54011 -4.59143,-4.93708 -2.71699,-2.34956 -6.14179,-5.31186 -7.61076,-6.58286 -10.08331,-8.72462 -14.21733,-10.99572 -20.03125,-11.00451 -2.84378,-0.004 -3.93142,0.31328 -6.01029,1.75482 -3.34116,2.3169 -4.67482,5.36259 -4.66785,10.6601 0.008,6.78366 1.87058,10.18738 9.60162,17.5551 1.61134,1.53563 3.41414,3.26392 4.00626,3.84066 0.59207,0.57674 2.87932,2.80638 5.08276,4.95476 13.3422,13.00879 33.01899,34.96224 40.82247,45.54588 l 3.16222,4.28877 -1.29338,1.48478 -1.29339,1.48481 -7.02064,-7.34889 c -3.86136,-4.04189 -9.63035,-10.08005 -12.82002,-13.41811 -6.6249,-6.93324 -27.58819,-28.63429 -32.77476,-33.92827 -10.75021,-10.97278 -32.85936,-31.71937 -36.03129,-33.81071 -3.29114,-2.16998 -8.5321,-3.579 -11.44932,-3.07819 -6.53605,1.1221 -11.44329,8.14241 -10.50907,15.03432 0.7439,5.48798 2.20299,7.58242 14.44007,20.72781 11.72539,12.59576 20.1889,21.6532 21.35184,22.85019 0.33673,0.34657 1.30116,1.33904 2.14319,2.20548 0.84206,0.86646 1.36815,1.2405 1.16907,0.83122 -0.19908,-0.40927 -0.1494,-0.89908 0.11037,-1.08846 0.25976,-0.18938 0.44396,0.17549 0.40931,0.81087 -0.0748,1.37095 7.78646,10.27657 8.84271,10.01762 0.39015,-0.0956 0.65693,0.15342 0.59284,0.55347 -0.0642,0.40008 3.61452,4.74655 8.17467,9.65881 7.33375,7.90008 8.39579,8.83476 9.19729,8.09456 0.80256,-0.74106 0.8276,-0.71813 0.21924,0.20038 -0.60179,0.90854 0.37916,2.18099 7.90701,10.25653 4.72672,5.0706 8.80515,9.06537 9.06321,8.87722 0.25806,-0.18816 0.64312,-0.008 0.85573,0.39569 0.26437,0.50457 0.14935,0.56918 -0.36371,0.2044 -0.63743,-0.45319 -0.64075,-0.37412 -0.022,0.52584 0.40052,0.58256 0.9013,0.93303 1.11284,0.7788 0.86327,-0.62936 0.34747,1.96903 -0.64743,3.26147 l -1.07137,1.39179 -4.17164,-4.44352 c -2.59563,-2.76486 -4.41563,-4.26561 -4.81758,-3.97254 -0.3861,0.28146 -0.50747,0.20653 -0.3017,-0.18627 0.30617,-0.58439 -5.06897,-6.37701 -19.33434,-20.83604 -2.45603,-2.48935 -4.71662,-4.34301 -5.02357,-4.11921 -0.30695,0.22379 -0.40812,0.12061 -0.2248,-0.22927 0.1833,-0.3499 -3.96923,-5.07251 -9.22786,-10.49471 -8.92977,-9.2075 -10.80089,-10.94163 -9.8523,-9.13099 0.23805,0.45433 0.14633,0.55629 -0.24426,0.27151 -0.34398,-0.25076 -0.50558,-0.68473 -0.35909,-0.96432 0.14648,-0.27957 -1.23175,-2.0599 -3.06275,-3.95619 -1.83098,-1.89632 -5.95379,-6.17205 -9.16173,-9.50166 -3.20799,-3.3296 -6.06954,-5.88114 -6.35901,-5.67007 -0.28946,0.21106 -0.36497,0.0757 -0.16777,-0.30067 0.1972,-0.3764 -0.16992,-1.12104 -0.81585,-1.65474 -0.9388,-0.77572 -1.34246,-0.81597 -2.01205,-0.20067 -0.72166,0.66312 -0.74484,0.62938 -0.16748,-0.24361 0.58139,-0.87899 -0.7938,-2.50753 -10.37609,-12.28771 -12.83727,-13.10239 -14.07126,-14.24185 -14.97859,-13.83113 -0.37159,0.16822 -0.6184,0.008 -0.54848,-0.35168 0.19947,-1.0317 -4.80255,-3.10941 -8.4542,-3.51167 -12.02966,-1.32518 -18.16441,11.86445 -11.10652,23.87883 2.15986,3.67668 26.35865,30.82593 27.03583,30.33221 0.30938,-0.22555 0.41653,-0.13148 0.23814,0.20906 -0.30964,0.59101 5.79924,8.25227 6.31912,7.92491 0.13761,-0.0868 0.26008,0.0551 0.27217,0.31508 0.0487,1.04575 4.00424,5.20355 4.66562,4.90416 0.39025,-0.17666 0.57579,-0.0661 0.41228,0.24618 -0.37758,0.72074 19.49378,23.42185 20.1094,22.97303 0.25146,-0.18331 0.39114,0.0423 0.31042,0.50119 -0.0807,0.45897 0.17155,0.75661 0.56064,0.66137 0.38907,-0.0953 0.57869,0.0725 0.42139,0.37276 -0.1573,0.30024 0.59559,1.51241 1.67311,2.69371 1.07749,1.18129 1.60897,1.58066 1.18108,0.88751 -0.71786,-1.16285 -0.7062,-1.19386 0.1509,-0.40119 0.5109,0.47249 0.81759,1.07159 0.68149,1.33135 -0.13607,0.25975 0.64778,1.41106 1.74193,2.55848 1.09413,1.1474 5.53524,6.16517 9.86907,11.15054 4.77278,5.49028 8.12262,8.88729 8.49568,8.6153 0.34249,-0.2497 0.47213,-0.1746 0.29203,0.16917 -0.17816,0.34005 1.21389,2.41624 3.09344,4.61374 3.02516,3.537 3.34902,4.14613 2.82195,5.30793 -0.32748,0.72184 -0.55481,1.38332 -0.50516,1.46995 0.0497,0.0868 -0.03,0.15756 -0.17681,0.15756 -0.1469,0 -0.52185,0 -0.83324,0 -0.31138,0 -1.86059,-1.4442 -3.44269,-3.20936 -1.5821,-1.7651 -3.1361,-3.02007 -3.45334,-2.78877 -0.31811,0.23191 -0.51097,0.0462 -0.43002,-0.41399 0.0807,-0.45897 -0.17155,-0.7566 -0.56063,-0.66137 -0.38909,0.0953 -0.56904,-0.0909 -0.39994,-0.41378 0.35786,-0.68302 -11.35642,-13.70728 -12.09654,-13.4493 -0.27323,0.0953 -0.36398,-0.0804 -0.20168,-0.39012 0.32534,-0.62102 -6.0702,-7.43971 -6.74123,-7.1872 -0.23025,0.0868 -0.35853,-0.19691 -0.28508,-0.63013 0.0733,-0.43323 -0.16694,-0.71678 -0.53417,-0.63015 -0.36723,0.0868 -0.60762,-0.11074 -0.53418,-0.43861 0.20713,-0.92459 -14.06238,-16.46247 -14.69504,-16.00122 -0.30812,0.22465 -0.4052,0.11254 -0.21573,-0.24911 0.52042,-0.9934 -21.32562,-24.34778 -22.1875,-23.71939 -0.24938,0.18181 -0.38736,-0.045 -0.30664,-0.50396 0.0812,-0.46154 -0.26844,-0.79589 -0.78225,-0.74811 -0.51099,0.0475 -0.80565,-0.14918 -0.65484,-0.43706 0.15083,-0.28789 -1.59447,-2.18487 -3.87844,-4.21553 -2.28398,-2.03067 -5.23479,-4.67019 -6.55737,-5.86564 -1.32256,-1.19545 -3.96669,-3.02364 -5.87583,-4.06268 -3.04199,-1.65552 -4.06582,-1.88914 -8.27877,-1.88914 -4.12862,0 -5.13143,0.2188 -7.10131,1.54947 -2.81628,1.90245 -5.28271,6.1436 -5.76103,9.90647 -1.04234,8.19954 1.73671,14.97546 10.55663,25.73943 3.53669,4.31625 6.68123,7.66483 6.98786,7.44126 0.30663,-0.22354 0.40776,-0.12063 0.22475,0.22868 -0.80177,1.53039 33.14116,37.26915 34.51397,36.33998 0.3529,-0.23886 0.46083,-0.19917 0.23985,0.0883 -0.22099,0.28737 -0.003,1.04172 0.48342,1.67638 0.97188,1.26686 2.07835,1.58782 1.46986,0.42638 -0.23803,-0.45437 -0.14633,-0.5563 0.24428,-0.27154 0.34398,0.2508 0.50066,0.6941 0.34818,0.98513 -0.39951,0.76261 2.91112,3.88336 3.59256,3.38655 0.31432,-0.22918 0.4205,-0.12847 0.23597,0.22375 -0.37452,0.71486 18.61554,19.2987 19.72054,19.2987 0.38569,0 0.59905,0.19507 0.47414,0.43349 -0.12489,0.2384 2.46972,3.08771 5.7658,6.33174 9.12014,8.9762 13.52514,14.24697 16.54459,19.79637 5.16204,9.48718 7.36529,21.09264 4.61936,24.33192 -2.98956,3.52671 -11.3971,6.28311 -19.19785,6.29405 -8.9634,0.0125 -14.8881,-1.80202 -21.73506,-6.6568 -2.20155,-1.56097 -4.2537,-2.65525 -4.56033,-2.4317 -0.3066,0.22353 -0.40023,0.10642 -0.20805,-0.26052 0.61539,-1.17464 -12.55837,-10.57687 -13.94201,-9.95054 -0.39618,0.17935 -0.57918,0.0566 -0.40661,-0.27275 0.38218,-0.72947 -4.25747,-2.3292 -8.27075,-2.8517 -6.26376,-0.81549 -14.91222,2.28574 -18.42033,6.60533 -1.48892,1.83332 -2.90582,6.41182 -2.63581,8.51724 0.54497,4.2496 0.85796,5.35757 1.40149,4.9613 0.34873,-0.25426 0.43897,-0.14224 0.22085,0.27412 -0.20288,0.38723 0.21599,1.797 0.93084,3.13282 1.75375,3.27728 8.36221,10.35195 9.2812,9.93593 0.40181,-0.18188 0.60553,-0.0919 0.45266,0.19974 -0.31533,0.6019 2.60335,3.1423 7.70076,6.7026 1.90963,1.33381 4.38323,3.37759 5.49686,4.54178 1.1136,1.16414 2.29252,1.92143 2.6198,1.68281 0.33445,-0.24383 0.44669,-0.15059 0.25626,0.21289 -0.33568,0.64074 2.30463,2.91453 8.98704,7.73946 1.90298,1.37406 9.65245,6.23452 17.22106,10.8011 7.5686,4.56655 17.56146,11.09902 22.20635,14.51657 12.8445,9.4506 19.30105,12.98265 31.88434,17.44235 8.46537,3.00028 16.21297,4.92754 28.31085,7.04248 12.06489,2.10921 19.30237,3.78174 22.96916,5.30805 4.15856,1.73101 9.08084,4.38348 9.08084,4.89338 0,0.26945 -83.45823,0.48992 -185.46274,0.48992 -126.5784,0 -185.28902,-0.20494 -184.91558,-0.64547 1.04829,-1.23664 13.13351,-4.3858 24.12307,-6.28602 13.23869,-2.28912 19.63776,-3.81718 28.049,-6.69791 11.16822,-3.82499 21.46161,-8.6947 20.84923,-9.8636 -0.19735,-0.37672 -0.0762,-0.45545 0.28997,-0.18848 0.72025,0.52511 5.53829,-2.52627 12.89027,-8.16368 5.66813,-4.34624 8.41008,-6.12407 23.77044,-15.41227 13.31558,-8.05178 19.31126,-12.19376 24.89326,-17.19695 4.84396,-4.34171 5.74814,-5.08017 12.0906,-9.87475 2.44526,-1.84848 4.24759,-3.61628 4.05725,-3.97955 -0.18833,-0.35949 -0.0926,-0.47149 0.2127,-0.24889 1.57852,1.15085 11.19268,-11.09716 10.64613,-13.56268 -0.13927,-0.62827 -0.0616,-1.00261 0.17256,-0.83186 0.77965,0.56838 1.13119,-4.03247 0.5164,-6.7583 -0.83229,-3.69028 -2.56947,-6.19204 -5.69152,-8.19658 -5.42543,-3.48342 -13.72902,-4.63524 -19.76021,-2.74102 -5.22337,1.64053 -18.1741,10.47161 -17.43247,11.88718 0.18834,0.35949 0.0865,0.46694 -0.22661,0.23875 -0.31298,-0.22821 -2.36252,0.83596 -4.55456,2.36477 -9.91367,6.91418 -21.35268,8.95594 -31.97827,5.7079 -4.15448,-1.26996 -9.32152,-4.31254 -10.04975,-5.91777 -2.18496,-4.81616 1.59445,-18.43327 7.52643,-27.11743 1.51867,-2.22327 2.4797,-4.18172 2.2668,-4.61938 -0.20331,-0.41786 -0.18753,-0.56676 0.035,-0.3309 0.4702,0.49834 11.31708,-10.17922 11.11765,-10.94413 -0.0734,-0.2817 0.075,-0.4413 0.32972,-0.35466 0.80797,0.27476 4.9171,-3.98486 4.53947,-4.70568 -0.21627,-0.41278 -0.11285,-0.50728 0.25869,-0.23642 0.70023,0.51054 12.51369,-10.80754 12.10161,-11.59414 -0.142,-0.27104 0.15987,-0.45391 0.67084,-0.40641 0.51383,0.0477 0.86346,-0.28659 0.78227,-0.74812 -0.0808,-0.45897 0.0654,-0.67982 0.32469,-0.49078 0.58977,0.42999 15.36206,-13.94346 15.17939,-14.76953 -0.0734,-0.33213 0.078,-0.533 0.3363,-0.44637 0.25839,0.0868 1.23445,-0.50165 2.16898,-1.30733 1.31457,-1.13328 1.56505,-1.65543 1.10672,-2.30693 -0.4369,-0.62102 -0.42373,-0.96505 0.0501,-1.31058 0.3928,-0.28638 0.50333,-0.20265 0.2843,0.2154 -0.19708,0.3762 -0.13004,0.8504 0.14896,1.05384 0.27902,0.20344 3.17889,-2.35463 6.44414,-5.68454 5.21642,-5.31976 5.85273,-6.18136 5.24371,-7.10035 -0.62382,-0.9413 -0.59727,-0.9571 0.26546,-0.15776 0.85872,0.79558 1.17593,0.63776 3.0442,-1.51431 1.14709,-1.32134 2.03776,-2.71348 1.97933,-3.09362 -0.0583,-0.38017 0.21244,-0.61314 0.602,-0.51771 0.92943,0.22768 13.12822,-13.32035 20.42928,-22.68877 7.06482,-9.0653 9.08306,-13.39773 9.45882,-20.30467 0.21299,-3.91531 0.0648,-5.11826 -0.92947,-7.54099 -3.23791,-7.8904 -10.36901,-10.41489 -18.84812,-6.67247 -3.81734,1.68488 -9.6124,6.18119 -9.13674,7.08907 0.19393,0.37018 0.10367,0.49159 -0.20048,0.26978 -0.59915,-0.4368 -4.75898,3.18805 -4.57398,3.98577 0.0619,0.26701 -0.29863,0.44793 -0.80124,0.40207 -0.50262,-0.0459 -0.84779,0.29212 -0.76706,0.75111 0.0807,0.45897 -0.0777,0.67084 -0.35211,0.4708 -0.71119,-0.51849 -7.08202,5.91642 -6.65827,6.72528 0.20053,0.38274 0.10008,0.48772 -0.2337,0.24435 -0.60236,-0.43918 -2.48171,1.38645 -11.46733,11.13954 -4.4866,4.86986 -5.11735,5.79621 -4.54041,6.66852 0.5867,0.88707 0.55945,0.91106 -0.21905,0.19298 -0.77038,-0.71059 -1.28585,-0.3844 -3.86188,2.44392 -1.63503,1.79516 -2.82034,3.55491 -2.63401,3.91058 0.18632,0.35564 0.1057,0.47668 -0.17921,0.26897 -0.60047,-0.43778 -16.00567,16.36832 -15.80564,17.24294 0.0732,0.32118 -0.0721,0.51303 -0.32353,0.42638 -0.77092,-0.2657 -12.38783,12.83318 -12.01404,13.54667 0.20079,0.38326 0.0979,0.48451 -0.2414,0.23723 -0.33433,-0.24374 -2.86377,2.02935 -5.81438,5.22511 -4.9778,5.39141 -5.26924,5.60677 -6.21733,4.59459 -1.19762,-1.27854 -2.37338,-3.65434 -1.48968,-3.01004 0.75867,0.55314 27.95322,-30.41564 27.4882,-31.3032 -0.1988,-0.37952 -0.0995,-0.4867 0.22891,-0.24724 0.74939,0.54635 10.37259,-10.23197 9.91507,-11.10523 -0.19022,-0.36308 -0.0955,-0.47764 0.21034,-0.25462 0.61166,0.44594 1.89449,-1.02204 1.47383,-1.68661 -0.14435,-0.22803 -0.10774,-0.27943 0.0812,-0.11424 0.52842,0.46187 8.77438,-8.54154 8.42817,-9.20238 -0.16751,-0.31973 0.0138,-0.50342 0.40284,-0.40819 0.38908,0.0953 0.64136,-0.20239 0.56064,-0.66136 -0.0807,-0.45898 0.0674,-0.67835 0.32923,-0.48748 0.47009,0.34273 2.10948,-1.38533 2.18323,-2.30133 0.021,-0.25992 0.13017,-0.40171 0.24274,-0.31506 0.34567,0.26608 9.68128,-10.52349 9.54145,-11.02746 -0.072,-0.25995 0.0623,-0.40172 0.29853,-0.31507 0.62374,0.22868 16.61794,-17.90418 16.49776,-18.70379 -0.0558,-0.37017 0.17358,-0.61227 0.50936,-0.53798 0.93561,0.20696 12.03607,-13.00075 13.63995,-16.22922 4.06596,-8.18462 2.3584,-16.75332 -4.07898,-20.46874 -2.70454,-1.56093 -3.38757,-1.69 -7.63914,-1.44364 -3.74186,0.21684 -5.25241,0.61729 -7.60692,2.01673 -2.88289,1.71346 -6.6496,4.89303 -9.9392,8.38987 -0.91278,0.97031 -3.73503,3.87141 -6.27164,6.44692 -4.49621,4.56513 -4.58912,4.71544 -3.69986,5.98633 0.88469,1.26434 0.88161,1.27102 -0.10153,0.22178 -0.96954,-1.03467 -1.14285,-0.95228 -3.97676,1.89042 -1.62966,1.63475 -3.34322,3.39758 -3.80791,3.91744 -0.46467,0.5199 -2.26006,2.36303 -3.98971,4.09592 -8.96836,8.98507 -13.88716,14.28183 -13.90894,14.97769 -0.0133,0.42671 -0.28402,0.71667 -0.60146,0.64437 -0.7855,-0.17897 -12.53894,11.76129 -12.20491,12.39889 0.14629,0.27922 -0.13808,0.89423 -0.63195,1.36673 -0.61754,0.59085 -0.77264,0.61315 -0.49674,0.0714 0.72977,-1.43295 -0.50608,-0.81759 -1.96448,0.97816 -1.03085,1.26928 -1.27118,1.95809 -0.85466,2.44946 0.41652,0.49134 0.39298,0.81955 -0.0837,1.16713 -0.41249,0.30073 -0.52775,0.22495 -0.30491,-0.20038 0.19707,-0.37619 0.12376,-0.85498 -0.16292,-1.06402 -0.6207,-0.45252 -4.94348,3.9925 -4.5721,4.70142 0.14132,0.2697 -0.16113,0.4515 -0.67212,0.404 -0.51097,-0.0475 -0.86896,0.26804 -0.79549,0.70127 0.0734,0.43322 -0.0819,0.71679 -0.34492,0.63014 -0.77723,-0.25591 -17.13943,16.67991 -16.77922,17.36748 0.18117,0.34579 0.0861,0.4513 -0.21135,0.23445 -0.62026,-0.45222 -7.43866,6.32182 -7.2362,7.18913 0.0735,0.31466 -0.16693,0.5012 -0.53417,0.41456 -0.36724,-0.0868 -0.60165,0.21801 -0.52091,0.67698 0.0808,0.459 -0.0712,0.67552 -0.33787,0.48119 -0.72861,-0.53121 -3.34698,2.13606 -2.93336,2.9882 0.19678,0.40547 0.16546,0.53214 -0.0696,0.28149 -0.2351,-0.25066 -1.32043,0.37857 -2.41183,1.39829 l -1.98438,1.85403 -1.19026,-1.4946 -1.19027,-1.49462 2.31457,-2.50282 c 1.27303,-1.37655 3.09646,-3.27311 4.05205,-4.21458 0.95562,-0.94145 1.57951,-2.01327 1.38643,-2.38182 -0.19308,-0.36854 -0.1103,-0.49455 0.1839,-0.28003 0.69334,0.5055 3.51306,-2.95103 2.97613,-3.64825 -0.22445,-0.29148 -0.10674,-0.32533 0.26156,-0.0752 0.4237,0.2877 2.87598,-1.91482 6.67707,-5.99708 3.30411,-3.54846 10.74685,-11.53389 16.53947,-17.74541 5.79262,-6.2115 10.47992,-11.61981 10.41627,-12.01844 -0.0637,-0.39864 0.22482,-0.63814 0.64112,-0.5322 0.41626,0.10587 2.21907,-1.47798 4.00623,-3.51984 1.78716,-2.04186 6.85289,-7.51622 11.25723,-12.16525 4.4043,-4.6491 8.61086,-9.1097 9.34792,-9.91249 0.73704,-0.80281 3.93264,-4.19791 7.10134,-7.54469 7.74351,-8.17865 9.94851,-13.43311 8.39095,-19.99557 -2.44726,-10.31125 -13.80514,-12.92629 -23.31279,-5.36755 -2.65991,2.11465 -13.31275,11.90488 -16.95384,15.58098 -0.62241,0.6284 -2.21254,2.12601 -3.53363,3.32805 -6.18887,5.63114 -14.88191,14.77288 -14.5856,15.33845 0.18147,0.34638 0.0849,0.45112 -0.21455,0.23279 -0.29946,-0.21832 -3.76195,2.89231 -7.6944,6.91256 -3.93249,4.02021 -8.57907,8.76293 -10.32576,10.53938 -8.32821,8.46993 -16.03973,16.96148 -15.90741,17.5164 0.0807,0.3385 -0.0629,0.46265 -0.31897,0.2759 -0.25618,-0.18675 -4.24909,3.62027 -8.87319,8.46005 -4.62406,4.83981 -8.51686,8.79963 -8.65063,8.79963 -0.13379,0 -0.72031,-0.52432 -1.3034,-1.16515 -1.04979,-1.15376 -0.95261,-3.24584 0.1508,-3.24584 0.29379,0 0.39104,-0.44006 0.21605,-0.97794 -0.17495,-0.53786 -0.11856,-0.83247 0.12531,-0.65466 0.49486,0.36082 4.16132,-3.85778 3.95123,-4.54624 -0.0735,-0.24069 0.0467,-0.45526 0.26708,-0.47682 0.65129,-0.0637 18.50144,-21.33735 18.37993,-21.90503 -0.0612,-0.28568 0.10008,-0.36533 0.35858,-0.17697 0.45866,0.3344 2.90732,-2.28449 2.63304,-2.8161 -0.0762,-0.1476 -0.0447,-0.20502 0.0698,-0.12765 0.52738,0.35616 4.29637,-3.79513 3.98508,-4.38929 -0.19369,-0.36969 -0.10829,-0.49437 0.18976,-0.27708 0.29805,0.21729 1.95774,-1.10426 3.68817,-2.93687 3.5908,-3.80276 11.65202,-11.79288 18.79508,-18.62926 2.68203,-2.56687 4.74738,-4.9133 4.58972,-5.21427 -0.15768,-0.30098 0.005,-0.46932 0.36258,-0.37413 0.35711,0.0954 1.27637,-1.23706 2.04281,-2.96069 1.16881,-2.62845 1.39356,-3.95754 1.39356,-8.24087 0,-4.65045 -0.13686,-5.31868 -1.53083,-7.47462 -0.84195,-1.30221 -2.28421,-2.90955 -3.205,-3.57192 -3.38041,-2.43161 -11.62448,-1.10051 -16.98807,2.74293 -5.63182,4.03563 -20.29019,16.79904 -31.78971,27.68006 -6.49618,6.14681 -8.17317,8.0509 -6.37295,7.23598 0.57666,-0.26105 0.78724,-0.168 0.56774,0.25095 -0.19185,0.36622 -0.71479,0.50023 -1.16202,0.29777 -0.68987,-0.3123 -4.1775,2.65394 -7.48552,6.36648 -0.36375,0.40821 -3.22984,3.38878 -6.36909,6.62353 -3.13928,3.23473 -9.09141,10.17496 -13.22701,15.42279 -4.27564,5.42549 -9.93872,11.80286 -13.12799,14.78383 -6.48523,6.06166 -20.17226,21.98049 -26.76307,31.12707 -4.35307,6.04112 -12.62419,18.48319 -17.59371,26.46591 -5.56133,8.93341 -14.85395,25.80159 -14.5554,26.42131 0.1788,0.37111 0.12422,0.4596 -0.12129,0.19665 -0.39277,-0.42064 -2.80031,3.56613 -5.61615,9.30008 -0.51062,1.03969 -3.18705,6.28563 -5.94767,11.65756 -6.760603,13.15563 -9.63824,19.44382 -9.243105,20.19804 0.180917,0.34531 0.0707,0.54992 -0.244877,0.4547 -0.820277,-0.24751 -14.461666,29.82132 -15.808673,34.84595 -0.225438,0.84098 -1.077232,3.23042 -1.892865,5.30991 -0.81563,2.07944 -3.450168,9.16854 -5.854523,15.75351 -5.708646,15.63459 -11.740773,30.05437 -15.186562,36.30332 l -2.762096,5.00906 -16.525661,0.002 -16.525666,0.002 -0.43024,-6.16488 c -0.487524,-6.98561 -0.116023,-26.66824 0.699147,-37.04171 3.322319,-42.27819 14.31448,-83.04417 32.339456,-119.93539 1.74945,-3.58057 3.759764,-7.69222 4.467366,-9.13706 0.707601,-1.44481 3.181102,-5.96745 5.496669,-10.05029 2.315568,-4.08285 4.04314,-7.7421 3.839045,-8.13167 -0.214425,-0.40927 -0.132178,-0.53411 0.194823,-0.2957 0.321434,0.23434 3.051567,-3.46645 6.320031,-8.56708 5.892911,-9.1962 9.117042,-13.88846 12.639072,-18.39428 1.099724,-1.40692 1.8896,-2.90909 1.755272,-3.33816 -0.13434,-0.42906 -0.03761,-0.71262 0.215051,-0.63013 0.587326,0.19177 20.062926,-22.99047 19.897746,-23.68466 -0.068,-0.2857 0.0836,-0.36834 0.33697,-0.18366 0.55438,0.40421 4.52974,-4.25858 4.08153,-4.78732 -0.17245,-0.20344 0.016,-0.32737 0.41878,-0.27538 0.40277,0.0522 2.16153,-1.3805 3.90833,-3.18333 1.7468,-1.80281 4.9788,-5.03248 7.18223,-7.17707 3.59029,-3.49432 5.57449,-5.30852 14.3799,-13.14779 14.93631,-13.29742 35.7495,-28.1208 56.05917,-39.92598 7.37718,-4.28805 13.24282,-7.9973 13.03477,-8.24273 -0.20808,-0.24546 -0.007,-0.27863 0.44471,-0.0738 0.45265,0.20493 2.48852,-0.51473 4.52413,-1.59918 2.03562,-1.08445 6.46543,-3.25627 9.84402,-4.82625 40.2845,-18.71954 77.97974,-29.04506 124.19381,-34.01931 7.9147,-0.85189 15.85298,-1.09714 36.05628,-1.11391 26.40503,-0.022 33.43542,0.39337 53.41669,3.15543 32.2533,4.45844 71.65165,15.58706 98.01963,27.68702 18.98801,8.71337 26.16048,12.3753 38.19292,19.49947 18.29039,10.82943 29.49895,18.55479 44.77678,30.86198 3.91495,3.15369 7.51501,6.01755 8.00018,6.36414 0.4852,0.34656 1.12812,0.9432 1.42868,1.32584 0.30054,0.38265 2.83003,2.67635 5.62106,5.09712 10.92286,9.47383 27.47816,26.93952 38.11568,40.21158 3.18924,3.9791 6.05077,7.05089 6.359,6.82619 0.3369,-0.24563 0.40055,-0.10356 0.15966,0.35629 -0.24877,0.47487 0.68427,2.12439 2.46096,4.35079 1.57393,1.97229 4.78184,6.42158 7.12883,9.88736 2.34691,3.46578 4.39231,6.44319 4.54533,6.61647 0.88398,1.00124 7.97714,12.72939 11.34928,18.76543 2.17305,3.88962 4.17163,6.85901 4.44133,6.59858 0.2697,-0.2604 0.30923,-0.21252 0.0879,0.10631 -0.22136,0.31893 -0.0406,1.23096 0.40116,2.02675 4.52374,8.14459 14.7204,31.30331 19.10598,43.39369 9.3456,25.76456 15.43464,53.55657 18.36175,83.80869 0.93228,9.63541 1.41651,45.71015 0.62605,46.64348 -0.20212,0.23872 -7.01446,0.39085 -15.13851,0.33813 -9.48321,-0.0613 -15.00864,0.13684 -15.43489,0.55415 -0.46793,0.45816 -0.6667,0.42048 -0.6734,-0.12767 z M 479.3174,460.79942 c -0.66444,-0.99943 -0.64555,-1.02173 0.20167,-0.23791 0.88981,0.82319 1.17277,1.34065 0.73313,1.34065 -0.11094,0 -0.53158,-0.49623 -0.9348,-1.10274 z M 332.81175,425.45903 c -0.15131,-0.28881 0.0643,-0.52512 0.47915,-0.52512 0.41483,0 0.63045,0.23631 0.47915,0.52512 -0.15131,0.28882 -0.36694,0.52512 -0.47915,0.52512 -0.11222,0 -0.32784,-0.2363 -0.47915,-0.52512 z m 93.92026,-0.23197 c -0.22015,-0.45005 -0.20356,-0.60806 0.0369,-0.35113 0.2404,0.25692 0.73829,0.17227 1.10639,-0.18811 0.47316,-0.46325 0.78663,-0.41548 1.06962,0.16298 0.22013,0.45005 0.20356,0.60806 -0.0369,0.35113 -0.24042,-0.25692 -0.7383,-0.17226 -1.10642,0.18813 -0.47313,0.46324 -0.78662,0.41547 -1.06959,-0.163 z m -16.07594,-12.76323 c 0,-0.50462 0.20423,-0.76859 0.45386,-0.58658 0.24961,0.18197 0.31555,0.59486 0.14652,0.91748 -0.43194,0.82449 -0.60038,0.73165 -0.60038,-0.3309 z M 316.6427,395.45005 c 0,-0.50462 0.20423,-0.76859 0.45385,-0.5866 0.24961,0.18199 0.31555,0.59486 0.14653,0.9175 -0.43193,0.82444 -0.60038,0.73163 -0.60038,-0.3309 z M 120.19265,342.62086 c 0.20059,-0.62143 0.49928,-0.97117 0.66375,-0.77714 0.16446,0.194 3.3e-4,0.70244 -0.36473,1.12991 -0.52754,0.6177 -0.5889,0.54533 -0.29902,-0.35277 z m 338.00427,-0.73278 c 0,-0.50462 0.20423,-0.76856 0.45386,-0.58659 0.24961,0.18201 0.31555,0.59487 0.14652,0.91752 -0.43194,0.82445 -0.60038,0.73159 -0.60038,-0.33093 z m -149.95146,-7.38963 c 0.15428,-0.29445 0.50425,-0.37225 0.77775,-0.17284 0.69891,0.50954 0.62021,0.70824 -0.2805,0.70824 -0.42776,0 -0.65152,-0.2409 -0.49725,-0.5354 z M 430.54668,316.4111 c -0.16101,-0.30731 0.12529,-0.94534 0.63617,-1.41782 0.82058,-0.75889 0.85158,-0.74208 0.26585,0.14411 -0.36471,0.55173 -0.50493,1.18976 -0.3116,1.4178 0.19331,0.22807 0.20541,0.41463 0.0268,0.41463 -0.1785,0 -0.45631,-0.25142 -0.61729,-0.55872 z m -97.31795,-6.20043 c 0.88811,-1.23831 1.93174,-1.42482 1.93174,-0.34526 0,0.21061 -0.16076,0.19324 -0.35727,-0.0384 -0.19651,-0.23181 -0.85753,0.0753 -1.46895,0.68267 -1.1088,1.10121 -1.10905,1.10044 -0.10552,-0.29887 z m -1.80742,0.21984 c 0,-0.13086 0.42066,-0.62708 0.9348,-1.10274 0.84721,-0.7838 0.86612,-0.76153 0.20168,0.23791 -0.69782,1.04965 -1.13648,1.38346 -1.13648,0.86483 z m 184.75358,-20.39919 c -0.66439,-0.99945 -0.64554,-1.02175 0.20171,-0.23793 0.88976,0.82322 1.17277,1.34067 0.7331,1.34067 -0.11091,0 -0.53157,-0.49623 -0.93481,-1.10274 z M 447.9436,274.54037 c -0.44173,-0.62786 -0.41325,-0.84022 0.11263,-0.84022 0.38705,0 0.70374,0.37809 0.70374,0.84022 0,0.46209 -0.0507,0.84018 -0.11265,0.84018 -0.0619,0 -0.37865,-0.37809 -0.70372,-0.84018 z m -175.54773,-3.57082 c 0.53176,-0.69316 1.08702,-1.26028 1.23391,-1.26028 0.1469,0 -0.16799,0.56712 -0.69975,1.26028 -0.53175,0.69318 -1.08702,1.26029 -1.2339,1.26029 -0.14689,0 0.16799,-0.56711 0.69974,-1.26029 z m 162.33597,-12.13021 -1.01756,-1.41779 1.20187,1.2004 c 0.66103,0.66024 1.20186,1.29824 1.20186,1.41782 0,0.50426 -0.42987,0.13199 -1.38617,-1.20043 z m -101.38052,-9.40986 c 0.15425,-0.29445 0.50424,-0.37224 0.77773,-0.17286 0.6989,0.50954 0.6202,0.70826 -0.28048,0.70826 -0.42777,0 -0.65154,-0.24092 -0.49725,-0.5354 z m 84.00272,-8.54913 c -0.66444,-0.99943 -0.64554,-1.02173 0.20168,-0.23791 0.8898,0.8232 1.17276,1.34065 0.73311,1.34065 -0.11093,0 -0.53159,-0.49623 -0.93479,-1.10274 z"
     id="path3378"
     inkscape:connector-curvature="0" />
</svg>
