<?xml version="1.0" encoding="UTF-8" standalone="no"?>
<!-- Created with Inkscape (http://www.inkscape.org/) -->

<svg
   xmlns:dc="http://purl.org/dc/elements/1.1/"
   xmlns:cc="http://creativecommons.org/ns#"
   xmlns:rdf="http://www.w3.org/1999/02/22-rdf-syntax-ns#"
   xmlns:svg="http://www.w3.org/2000/svg"
   xmlns="http://www.w3.org/2000/svg"
   xmlns:sodipodi="http://sodipodi.sourceforge.net/DTD/sodipodi-0.dtd"
   xmlns:inkscape="http://www.inkscape.org/namespaces/inkscape"
   id="svg2"
   version="1.1"
   inkscape:version="0.91 r13725"
   xml:space="preserve"
   width="755"
   height="990"
   viewBox="0 0 755 989.99995"
   sodipodi:docname="lon.svg"><metadata
     id="metadata8"><rdf:RDF><cc:Work
         rdf:about=""><dc:format>image/svg+xml</dc:format><dc:type
           rdf:resource="http://purl.org/dc/dcmitype/StillImage" /><dc:title></dc:title></cc:Work></rdf:RDF></metadata><defs
     id="defs6"><clipPath
       clipPathUnits="userSpaceOnUse"
       id="clipPath16"><path
         d="m 0,850.39 1190.549,0 0,-850.39 L 0,0 0,850.39 Z"
         id="path18"
         inkscape:connector-curvature="0" /></clipPath></defs><sodipodi:namedview
     pagecolor="#ffffff"
     bordercolor="#666666"
     borderopacity="1"
     objecttolerance="10"
     gridtolerance="10"
     guidetolerance="10"
     inkscape:pageopacity="0"
     inkscape:pageshadow="2"
     inkscape:window-width="1855"
     inkscape:window-height="1056"
     id="namedview4"
     showgrid="false"
     inkscape:zoom="0.59678375"
     inkscape:cx="741.98571"
     inkscape:cy="382.46562"
     inkscape:window-x="65"
     inkscape:window-y="24"
     inkscape:window-maximized="1"
     inkscape:current-layer="g12" /><g
     id="g10"
     inkscape:groupmode="layer"
     inkscape:label="лон"
     transform="matrix(1.25,0,0,-1.25,0,989.99995)"><g
       id="g12"
       transform="matrix(0.96923328,0,0,0.98675415,-272.80494,-17.846439)"><g
         id="g14"
         clip-path="url(#clipPath16)"
         transform="matrix(1.0113369,0,0,1,-6.0386373,-33.962844)"><g
           id="g20"
           transform="translate(675.3999,331.0312)"><path
             d="m 0,0 40.867,0 0,82.095 L 104.502,0 l 36.185,0 0,149.654 -40.861,0 0,-79.103 L 38.528,149.654 0,149.654 0,0 Z m -103.24,34.418 c -22.555,0 -38.093,18.816 -38.093,40.411 0,22.019 15.114,40.401 37.671,40.401 22.772,0 38.309,-18.804 38.309,-40.401 0,-22.025 -15.109,-40.411 -37.887,-40.411 m -0.422,-37.413 c 45.978,0 80.453,34.852 80.453,77.824 0,43.403 -34.048,77.82 -80.031,77.82 -45.968,0 -80.452,-34.851 -80.452,-77.82 0,-43.4 34.056,-77.824 80.03,-77.824 M -304.181,0 l 113.446,0 0,36.345 -72.153,0 0,113.309 -41.293,0 0,-149.654 z"
             style="fill:#000000;fill-opacity:1;fill-rule:nonzero;stroke:none"
             id="path22"
             inkscape:connector-curvature="0" /></g><g
           id="g24"
           transform="translate(720.6333,656.3935)"><path
             d="m 0,0 -175.638,-45.461 0,43.901 -163.77,0 0,-86.898 -92.567,-24.217 0,-292.137 609.986,0 0,289.387 L 0,0 Z m -216.481,-42.418 0,-55.82 209.33,54.194 144.317,-93.581 0,-226.346 -528.296,0 0,219.755 92.57,24.227 0,77.571 82.079,0 z"
             style="fill:#000000;fill-opacity:1;fill-rule:nonzero;stroke:none"
             id="path26"
             inkscape:connector-curvature="0" /></g></g></g></g></svg>