<?xml version="1.0" encoding="UTF-8" standalone="no"?>
<!-- Created with Inkscape (http://www.inkscape.org/) -->

<svg
   xmlns:dc="http://purl.org/dc/elements/1.1/"
   xmlns:cc="http://creativecommons.org/ns#"
   xmlns:rdf="http://www.w3.org/1999/02/22-rdf-syntax-ns#"
   xmlns:svg="http://www.w3.org/2000/svg"
   xmlns="http://www.w3.org/2000/svg"
   xmlns:sodipodi="http://sodipodi.sourceforge.net/DTD/sodipodi-0.dtd"
   xmlns:inkscape="http://www.inkscape.org/namespaces/inkscape"
   id="svg2"
   version="1.1"
   inkscape:version="0.91 r13725"
   xml:space="preserve"
   width="755"
   height="990"
   viewBox="0 0 755 990"
   sodipodi:docname="lonmedia.svg"><metadata
     id="metadata8"><rdf:RDF><cc:Work
         rdf:about=""><dc:format>image/svg+xml</dc:format><dc:type
           rdf:resource="http://purl.org/dc/dcmitype/StillImage" /><dc:title></dc:title></cc:Work></rdf:RDF></metadata><defs
     id="defs6"><clipPath
       clipPathUnits="userSpaceOnUse"
       id="clipPath16"><path
         d="M 0,192 192,192 192,0 0,0 0,192 Z"
         id="path18"
         inkscape:connector-curvature="0" /></clipPath><clipPath
       clipPathUnits="userSpaceOnUse"
       id="clipPath56"><path
         d="M 0,192 192,192 192,0 0,0 0,192 Z"
         id="path58"
         inkscape:connector-curvature="0" /></clipPath></defs><sodipodi:namedview
     pagecolor="#ffffff"
     bordercolor="#666666"
     borderopacity="1"
     objecttolerance="10"
     gridtolerance="10"
     guidetolerance="10"
     inkscape:pageopacity="0"
     inkscape:pageshadow="2"
     inkscape:window-width="1855"
     inkscape:window-height="1056"
     id="namedview4"
     showgrid="false"
     inkscape:zoom="0.49166667"
     inkscape:cx="243.06144"
     inkscape:cy="759.64084"
     inkscape:window-x="65"
     inkscape:window-y="24"
     inkscape:window-maximized="1"
     inkscape:current-layer="g10" /><g
     id="g10"
     inkscape:groupmode="layer"
     inkscape:label="лонмедиа"
     transform="matrix(1.25,0,0,-1.25,0,990)"><g
       id="g12"
       transform="matrix(4.1094328,0,0,4.4367887,-93.894687,-21.592751)"><g
         id="g14"
         clip-path="url(#clipPath16)"><g
           id="g20"
           transform="translate(161.1816,94.773)"><path
             d="m 0,0 c -0.573,-0.155 -1.105,-0.376 -1.543,-0.62 l -0.355,-0.198 -0.607,1.416 0.291,0.161 c 0.575,0.317 1.242,0.589 1.95,0.777 0.651,0.173 1.336,0.275 2.015,0.275 1.284,0 2.584,-0.386 3.519,-1.165 0.828,-0.69 1.369,-1.679 1.369,-2.97 l 0,-7.056 -1.771,0 -0.028,1.057 C 4.432,-8.665 3.991,-8.934 3.529,-9.136 2.756,-9.473 1.928,-9.624 1.102,-9.624 c -1.176,0 -2.313,0.348 -3.129,1.032 -0.744,0.626 -1.22,1.521 -1.22,2.678 0,1.219 0.509,2.115 1.306,2.728 0.895,0.689 2.149,1.002 3.434,1.002 0.673,0 1.361,-0.086 2.012,-0.248 0.434,-0.107 0.852,-0.248 1.237,-0.419 l 0,0.547 0.001,0 C 4.738,-1.538 4.401,-0.946 3.892,-0.532 3.278,-0.033 2.414,0.219 1.557,0.219 1.034,0.219 0.502,0.136 0,0 m 3.334,-7.595 c 0.51,0.234 0.987,0.585 1.408,1.081 l 0,2.06 c -0.381,0.223 -0.825,0.401 -1.301,0.529 -0.561,0.151 -1.164,0.231 -1.762,0.231 -0.904,0 -1.749,-0.192 -2.327,-0.614 -0.468,-0.342 -0.763,-0.849 -0.763,-1.545 0,-0.66 0.278,-1.167 0.718,-1.517 0.518,-0.413 1.264,-0.622 2.066,-0.622 0.684,0 1.35,0.117 1.961,0.397"
             style="fill:#000000;fill-opacity:1;fill-rule:evenodd;stroke:none"
             id="path22"
             inkscape:connector-curvature="0" /></g><g
           id="g24"
           transform="translate(153.4861,99.7551)"><path
             d="m 0,0 c 0.194,0.181 0.459,0.293 0.751,0.293 0.292,0 0.558,-0.113 0.752,-0.294 0.201,-0.188 0.326,-0.448 0.326,-0.736 0,-0.289 -0.125,-0.549 -0.326,-0.737 -0.194,-0.181 -0.46,-0.293 -0.752,-0.293 -0.292,0 -0.558,0.111 -0.752,0.292 -0.201,0.188 -0.325,0.449 -0.325,0.738 0,0.288 0.124,0.549 0.326,0.737 m 1.69,-3.804 0,-10.558 -1.897,0 0,10.926 1.897,0 0,-0.368 z"
             style="fill:#000000;fill-opacity:1;fill-rule:evenodd;stroke:none"
             id="path26"
             inkscape:connector-curvature="0" /></g><g
           id="g28"
           transform="translate(149.8915,100.7841)"><path
             d="m 0,0 0,-15.391 -1.766,0 -0.029,0.984 c -0.359,-0.317 -0.741,-0.559 -1.132,-0.742 -0.77,-0.361 -1.568,-0.486 -2.281,-0.486 -1.622,0 -2.91,0.558 -3.802,1.55 -0.902,1.002 -1.385,2.437 -1.385,4.174 l 0,0.012 10e-4,0 c 0.002,1.73 0.415,3.142 1.24,4.131 0.839,1.007 2.085,1.564 3.735,1.564 l 0.007,0 c 0.652,0 1.236,-0.081 1.894,-0.362 0.486,-0.206 1.006,-0.521 1.621,-0.992 l 0,5.926 L 0,0.368 0,0 Z m -3.322,-13.631 c 0.504,0.239 0.996,0.634 1.425,1.261 l 0,4.839 c -0.753,0.685 -1.312,1.097 -1.806,1.336 -0.492,0.239 -0.932,0.304 -1.454,0.304 -1.151,0 -1.967,-0.346 -2.496,-0.973 -0.583,-0.69 -0.845,-1.738 -0.845,-3.054 0,-1.25 0.317,-2.297 0.955,-3.008 0.588,-0.656 1.464,-1.037 2.634,-1.037 0.509,0 1.059,0.083 1.587,0.332"
             style="fill:#000000;fill-opacity:1;fill-rule:evenodd;stroke:none"
             id="path30"
             inkscape:connector-curvature="0" /></g><g
           id="g32"
           transform="translate(133.9563,86.9788)"><path
             d="M 0,0 C 0.527,0.126 1.041,0.317 1.516,0.58 L 1.788,0.73 2.729,-0.459 2.401,-0.68 C 1.834,-1.062 1.198,-1.348 0.514,-1.54 -0.182,-1.734 -0.924,-1.83 -1.69,-1.83 c -1.743,0 -3.126,0.581 -4.09,1.564 -1.01,1.029 -1.549,2.49 -1.549,4.177 0,1.655 0.515,3.123 1.513,4.159 0.934,0.968 2.277,1.552 4.004,1.552 1.656,0 2.968,-0.444 3.872,-1.309 C 2.953,7.457 3.43,6.208 3.43,4.584 3.43,4.393 3.419,4.148 3.395,3.879 3.375,3.655 3.345,3.421 3.304,3.2 l -0.056,-0.302 -8.627,0 c 0.154,-0.89 0.53,-1.622 1.095,-2.147 0.633,-0.587 1.514,-0.921 2.597,-0.93 l 0.004,0 C -1.13,-0.191 -0.56,-0.134 0,0 M -4.417,6.981 C -5.039,6.339 -5.383,5.419 -5.429,4.347 l 7.012,0 0.005,0.066 C 1.596,4.542 1.6,4.67 1.6,4.791 1.6,5.928 1.297,6.726 0.734,7.23 0.163,7.741 -0.693,7.976 -1.785,7.976 c -1.144,0 -2.026,-0.37 -2.632,-0.995"
             style="fill:#000000;fill-opacity:1;fill-rule:evenodd;stroke:none"
             id="path34"
             inkscape:connector-curvature="0" /></g><g
           id="g36"
           transform="translate(107.8316,96.3187)"><path
             d="m 0,0 1.4,0 0.029,-1.087 c 0.404,0.35 0.789,0.637 1.189,0.857 0.613,0.338 1.249,0.515 2.025,0.515 0.748,0 1.522,-0.181 2.201,-0.544 0.501,-0.268 0.95,-0.635 1.301,-1.102 0.644,0.562 1.202,0.952 1.761,1.213 0.666,0.311 1.317,0.433 2.091,0.433 1.128,0 2.306,-0.394 3.155,-1.196 0.73,-0.69 1.214,-1.672 1.214,-2.952 l 0,-7.063 -1.897,0 0,6.856 c 0,0.832 -0.292,1.462 -0.735,1.897 -0.521,0.512 -1.258,0.765 -1.985,0.765 -0.531,0 -0.969,-0.063 -1.431,-0.283 -0.444,-0.21 -0.923,-0.566 -1.536,-1.144 0.04,-0.133 0.074,-0.27 0.1,-0.413 0.043,-0.23 0.066,-0.469 0.066,-0.72 l 0,-6.958 -1.898,0 0,6.856 c 0,0.832 -0.29,1.462 -0.732,1.897 -0.521,0.512 -1.255,0.765 -1.98,0.765 -0.519,0 -0.941,-0.113 -1.371,-0.364 C 2.535,-2.025 2.086,-2.416 1.53,-2.968 l 0,-7.958 -1.898,0 L -0.368,0 0,0 Z"
             style="fill:#000000;fill-opacity:1;fill-rule:evenodd;stroke:none"
             id="path38"
             inkscape:connector-curvature="0" /></g><g
           id="g40"
           transform="translate(94.5553,96.3187)"><path
             d="m 0,0 1.4,0 0.03,-1.157 c 0.475,0.38 0.921,0.69 1.385,0.925 0.67,0.339 1.364,0.517 2.212,0.517 1.207,0 2.47,-0.392 3.381,-1.187 0.79,-0.69 1.314,-1.675 1.314,-2.961 l 0,-7.063 -1.897,0 0,6.856 c 0,0.822 -0.324,1.449 -0.816,1.883 -0.59,0.52 -1.424,0.779 -2.251,0.779 -0.598,0 -1.086,-0.114 -1.584,-0.374 C 2.682,-2.039 2.168,-2.439 1.529,-3.009 l 0,-7.917 -1.897,0 L -0.368,0 0,0 Z"
             style="fill:#000000;fill-opacity:1;fill-rule:evenodd;stroke:none"
             id="path42"
             inkscape:connector-curvature="0" /></g><g
           id="g44"
           transform="translate(81.5465,95.0179)"><path
             d="m 0,0 c 0.97,0.977 2.361,1.562 4.124,1.562 1.759,0 3.161,-0.573 4.138,-1.557 1.014,-1.022 1.559,-2.475 1.559,-4.177 0,-1.693 -0.53,-3.152 -1.551,-4.177 -0.967,-0.97 -2.361,-1.541 -4.146,-1.541 -1.764,0 -3.156,0.583 -4.126,1.557 -1.028,1.032 -1.571,2.495 -1.571,4.161 0,1.667 0.543,3.135 1.573,4.172 m 6.905,-1.193 c -0.647,0.686 -1.595,1.069 -2.781,1.069 -1.183,0 -2.123,-0.394 -2.768,-1.077 -0.668,-0.708 -1.032,-1.737 -1.032,-2.971 0,-1.234 0.363,-2.262 1.032,-2.97 C 2,-7.824 2.94,-8.217 4.124,-8.217 c 1.204,0 2.146,0.382 2.786,1.059 0.661,0.7 1.014,1.727 1.014,2.986 0,1.262 -0.361,2.282 -1.019,2.979"
             style="fill:#000000;fill-opacity:1;fill-rule:evenodd;stroke:none"
             id="path46"
             inkscape:connector-curvature="0" /></g><g
           id="g48"
           transform="translate(73.6707,101.1623)"><path
             d="m 0,0 1.53,0 0,-11.121 c 0,-0.531 0.054,-1.003 0.17,-1.408 0.111,-0.388 0.277,-0.713 0.504,-0.968 0.215,-0.241 0.486,-0.425 0.818,-0.55 0.349,-0.13 0.766,-0.196 1.256,-0.193 l 0.37,0.002 0,-1.621 -0.358,-0.01 c -0.733,-0.022 -1.382,0.062 -1.945,0.244 -0.588,0.191 -1.084,0.489 -1.486,0.888 l -0.002,10e-4 c -0.411,0.414 -0.719,0.932 -0.924,1.546 -0.201,0.603 -0.301,1.295 -0.301,2.069 L -0.368,0 0,0 Z"
             style="fill:#000000;fill-opacity:1;fill-rule:evenodd;stroke:none"
             id="path50"
             inkscape:connector-curvature="0" /></g></g></g><g
       id="g52"
       transform="matrix(4.1094328,0,0,4.4367887,-93.894687,-21.592751)"><g
         id="g54"
         clip-path="url(#clipPath56)"><g
           id="g60"
           transform="translate(42.0307,102.3885)"><path
             d="m 0,0 0,-0.365 c 0,-0.565 0.458,-1.022 1.022,-1.022 0.564,0 1.022,0.457 1.022,1.022 L 2.044,0 C 2.044,0.564 1.586,1.022 1.022,1.022 0.458,1.022 0,0.564 0,0 m 2.044,-19.026 0,0.365 c 0,0.565 -0.458,1.022 -1.022,1.022 C 0.458,-17.639 0,-18.096 0,-18.661 l 0,-0.365 c 0,-0.564 0.458,-1.022 1.022,-1.022 0.564,0 1.022,0.458 1.022,1.022 m 8.812,10.214 -0.365,0 c -0.565,0 -1.022,-0.458 -1.022,-1.022 0,-0.565 0.457,-1.022 1.022,-1.022 l 0.365,0 c 0.565,0 1.022,0.457 1.022,1.022 0,0.564 -0.457,1.022 -1.022,1.022 m -19.026,-2.044 0.365,0 c 0.565,0 1.022,0.457 1.022,1.022 0,0.564 -0.457,1.022 -1.022,1.022 l -0.365,0 c -0.564,0 -1.022,-0.458 -1.022,-1.022 0,-0.565 0.458,-1.022 1.022,-1.022 M 7.124,-1.837 6.866,-2.095 C 6.467,-2.492 6.465,-3.137 6.862,-3.536 7.259,-3.935 7.904,-3.937 8.303,-3.54 l 0.258,0.258 c 0.399,0.397 0.401,1.042 0.004,1.441 -0.396,0.399 -1.042,0.401 -1.441,0.004 m -13.457,-1.899 0.258,-0.258 c 0.399,-0.399 1.046,-0.399 1.445,0 0.399,0.399 0.399,1.046 0,1.445 l -0.258,0.258 c -0.399,0.399 -1.046,0.399 -1.445,0 -0.399,-0.399 -0.399,-1.046 0,-1.445 m 14.894,-12.008 -0.258,0.258 c -0.399,0.397 -1.044,0.395 -1.441,-0.004 -0.397,-0.399 -0.395,-1.045 0.004,-1.441 l 0.258,-0.258 c 0.399,-0.397 1.045,-0.395 1.441,0.004 0.397,0.399 0.395,1.044 -0.004,1.441 m -14.175,6.341 c 0.047,1.878 0.825,3.584 2.062,4.821 1.254,1.254 2.978,2.032 4.895,2.032 1.923,0 3.664,-0.779 4.924,-2.039 1.26,-1.26 2.039,-3.001 2.039,-4.924 0,-1.067 -0.227,-2.058 -0.63,-2.942 -0.563,-1.238 -1.467,-2.245 -2.565,-2.941 -1.099,-0.697 -2.393,-1.086 -3.735,-1.086 -0.974,0 -1.977,0.207 -2.955,0.652 -0.511,0.234 -0.737,0.838 -0.503,1.35 0.234,0.511 0.838,0.736 1.349,0.502 0.691,-0.314 1.407,-0.46 2.109,-0.46 0.951,0 1.866,0.274 2.641,0.766 0.777,0.492 1.414,1.2 1.807,2.064 0.28,0.614 0.439,1.319 0.439,2.095 0,1.359 -0.551,2.589 -1.441,3.479 -0.89,0.89 -2.12,1.44 -3.479,1.44 -1.35,0 -2.566,-0.549 -3.45,-1.433 -0.881,-0.881 -1.435,-2.089 -1.472,-3.417 0.002,-0.023 0.003,-0.046 0.003,-0.069 l 0,-10.963 c 0,-0.577 0.235,-1.101 0.615,-1.481 0.38,-0.38 0.904,-0.616 1.481,-0.616 l 14.49,0 c 0.023,0 0.044,0.01 0.06,0.026 0.015,0.015 0.025,0.037 0.025,0.059 l 0,14.197 c 0,0.564 0.457,1.022 1.022,1.022 l 4.293,0 c 0.026,0 0.044,0.003 0.052,0.008 0.01,0.007 0.021,0.022 0.029,0.042 0.009,0.022 0.012,0.041 0.01,0.055 -0.003,0.01 -0.013,0.025 -0.031,0.043 L 1.403,9.775 C 1.39,9.788 1.368,9.795 1.343,9.795 1.318,9.795 1.297,9.788 1.283,9.775 L -15.784,-7.121 c -0.018,-0.018 -0.029,-0.033 -0.03,-0.043 -0.003,-0.014 0,-0.033 0.009,-0.055 0.008,-0.02 0.019,-0.035 0.03,-0.042 0.008,-0.005 0.025,-0.008 0.051,-0.008 l 4.293,0 c 0.565,0 1.022,-0.458 1.022,-1.022 l 0,-14.197 c 0,-0.023 0.01,-0.044 0.025,-0.059 0.016,-0.016 0.037,-0.026 0.06,-0.026 l 2.486,0 c 0.564,0 1.022,-0.457 1.022,-1.021 0,-0.565 -0.458,-1.022 -1.022,-1.022 l -2.486,0 c -0.587,0 -1.119,0.239 -1.505,0.624 -0.385,0.385 -0.624,0.917 -0.624,1.504 l 0,13.175 -3.271,0 c -0.432,0 -0.839,0.128 -1.185,0.359 -0.342,0.23 -0.615,0.558 -0.78,0.961 -0.165,0.402 -0.203,0.826 -0.121,1.228 0.082,0.408 0.282,0.785 0.589,1.089 L -0.154,11.22 c 0.417,0.413 0.959,0.619 1.497,0.619 0.539,0 1.08,-0.206 1.497,-0.619 L 19.907,-5.676 c 0.307,-0.304 0.507,-0.681 0.589,-1.089 0.082,-0.402 0.044,-0.826 -0.121,-1.228 -0.165,-0.403 -0.438,-0.731 -0.78,-0.961 -0.346,-0.231 -0.753,-0.359 -1.185,-0.359 l -3.271,0 0,-13.175 c 0,-0.587 -0.239,-1.119 -0.625,-1.504 -0.385,-0.385 -0.917,-0.624 -1.504,-0.624 l -14.49,0 c -1.141,0 -2.176,0.465 -2.926,1.214 -0.749,0.749 -1.214,1.785 -1.214,2.926 l 0,10.963 c 0,0.037 0.002,0.074 0.006,0.11"
             style="fill:#000000;fill-opacity:1;fill-rule:evenodd;stroke:none"
             id="path62"
             inkscape:connector-curvature="0" /></g></g></g></g></svg>