<?xml version="1.0" encoding="UTF-8" standalone="no"?>
<!-- Created with Inkscape (http://www.inkscape.org/) -->

<svg
   xmlns:dc="http://purl.org/dc/elements/1.1/"
   xmlns:cc="http://creativecommons.org/ns#"
   xmlns:rdf="http://www.w3.org/1999/02/22-rdf-syntax-ns#"
   xmlns:svg="http://www.w3.org/2000/svg"
   xmlns="http://www.w3.org/2000/svg"
   xmlns:sodipodi="http://sodipodi.sourceforge.net/DTD/sodipodi-0.dtd"
   xmlns:inkscape="http://www.inkscape.org/namespaces/inkscape"
   id="svg2"
   version="1.1"
   inkscape:version="0.91 r13725"
   xml:space="preserve"
   width="755"
   height="990"
   viewBox="0 0 755 990"
   sodipodi:docname="mcdonalds.svg"><metadata
     id="metadata8"><rdf:RDF><cc:Work
         rdf:about=""><dc:format>image/svg+xml</dc:format><dc:type
           rdf:resource="http://purl.org/dc/dcmitype/StillImage" /><dc:title></dc:title></cc:Work></rdf:RDF></metadata><defs
     id="defs6"><clipPath
       clipPathUnits="userSpaceOnUse"
       id="clipPath16"><path
         d="M 0,192 192,192 192,0 0,0 0,192 Z"
         id="path18"
         inkscape:connector-curvature="0" /></clipPath></defs><sodipodi:namedview
     pagecolor="#ffffff"
     bordercolor="#666666"
     borderopacity="1"
     objecttolerance="10"
     gridtolerance="10"
     guidetolerance="10"
     inkscape:pageopacity="0"
     inkscape:pageshadow="2"
     inkscape:window-width="1855"
     inkscape:window-height="1056"
     id="namedview4"
     showgrid="false"
     inkscape:zoom="0.49166667"
     inkscape:cx="-15.88466"
     inkscape:cy="655.3418"
     inkscape:window-x="65"
     inkscape:window-y="24"
     inkscape:window-maximized="1"
     inkscape:current-layer="g10" /><g
     id="g10"
     inkscape:groupmode="layer"
     inkscape:label="мак"
     transform="matrix(1.25,0,0,-1.25,0,990)"><g
       id="g12"
       transform="matrix(3.1327507,0,0,2.9940003,4.8874549,107.384)"><g
         id="g14"
         clip-path="url(#clipPath16)"><g
           id="g20"
           transform="translate(88.036,119.3392)"><path
             d="m 0,0 c 0.748,2.441 1.418,4.731 2.149,7 3.004,9.321 6.601,18.388 11.707,26.789 3.09,5.082 6.643,9.789 11.387,13.475 3.074,2.389 6.467,4.093 10.378,4.613 4.536,0.604 8.602,-0.675 12.339,-3.158 4.754,-3.158 8.268,-7.493 11.336,-12.215 5.097,-7.846 8.686,-16.402 11.722,-25.208 3.868,-11.219 6.635,-22.723 8.837,-34.371 1.578,-8.35 2.819,-16.752 3.785,-25.193 0.891,-7.778 1.55,-15.578 2.014,-23.396 0.525,-8.844 0.767,-17.693 0.822,-26.55 0.005,-0.954 -0.266,-1.135 -1.164,-1.13 -6.491,0.041 -12.983,0.038 -19.474,0.002 -0.805,-0.004 -0.997,0.211 -0.996,1.003 0.008,9.337 -0.185,18.672 -0.566,28 -0.423,10.347 -1.074,20.681 -2.017,30.996 -0.888,9.705 -1.994,19.382 -3.526,29.006 -1.862,11.705 -4.116,23.327 -8.032,34.555 -1.602,4.592 -3.454,9.076 -6.453,12.981 -0.723,0.942 -1.535,1.804 -2.484,2.522 -2.537,1.918 -5.185,1.976 -7.804,0.161 C 31.919,38.468 30.468,36.521 29.193,34.438 26.573,30.161 24.801,25.511 23.266,20.764 20.519,12.272 18.659,3.569 17.113,-5.208 15.45,-14.649 14.244,-24.153 13.321,-33.692 12.497,-42.217 11.903,-50.76 11.5,-59.318 c -0.443,-9.423 -0.68,-18.85 -0.69,-28.282 -0.001,-0.763 -0.209,-0.954 -0.959,-0.95 -6.555,0.029 -13.11,0.028 -19.666,10e-4 -0.756,-0.003 -1.052,0.139 -1.049,0.982 0.022,5.979 -0.043,11.958 -0.242,17.934 -0.27,8.115 -0.673,16.223 -1.267,24.322 -0.593,8.096 -1.352,16.174 -2.389,24.224 -1.73,13.437 -3.966,26.782 -7.879,39.786 -1.556,5.172 -3.384,10.248 -6.107,14.948 -1.288,2.223 -2.741,4.324 -4.805,5.917 -2.885,2.227 -5.76,2.201 -8.563,-0.111 -2.267,-1.869 -3.76,-4.333 -5.086,-6.898 -2.95,-5.706 -4.83,-11.804 -6.47,-17.981 -2.37,-8.928 -4.035,-17.997 -5.425,-27.123 -1.338,-8.783 -2.359,-17.603 -3.171,-26.446 -0.697,-7.574 -1.218,-15.162 -1.62,-22.759 -0.649,-12.231 -0.978,-24.469 -0.954,-36.716 0.001,-0.654 -0.147,-0.87 -0.839,-0.868 -6.683,0.027 -13.366,0.025 -20.049,10e-4 -0.647,-0.002 -0.785,0.201 -0.783,0.809 0.028,9.402 0.336,18.793 0.911,28.177 0.4,6.541 0.936,13.069 1.649,19.581 1.319,12.036 3.134,23.998 5.708,35.835 2.568,11.806 5.773,23.425 10.344,34.631 2.866,7.027 6.213,13.803 10.745,19.934 2.291,3.098 4.856,5.936 7.962,8.253 7.283,5.432 15.315,5.516 22.744,0.255 4.672,-3.309 8.234,-7.633 11.321,-12.38 C -9.728,27.453 -5.971,18.382 -2.848,9.028 -1.868,6.093 -0.983,3.127 0,0"
             style="fill:#000000;fill-opacity:1;fill-rule:nonzero;stroke:none"
             id="path22"
             inkscape:connector-curvature="0" /></g><g
           id="g24"
           transform="translate(180.92,25.4136)"><path
             d="M 0,0 C 0.003,-2.602 1.896,-4.591 4.385,-4.609 6.874,-4.626 8.849,-2.551 8.827,0.06 8.806,2.647 6.881,4.606 4.372,4.593 1.859,4.58 -0.003,2.623 0,0 M 4.434,5.387 C 7.479,5.379 9.832,2.999 9.807,-0.047 9.782,-3.021 7.391,-5.398 4.421,-5.399 1.397,-5.401 -0.988,-3.021 -1.004,0.015 -1.02,3.032 1.372,5.395 4.434,5.387"
             style="fill:#000000;fill-opacity:1;fill-rule:nonzero;stroke:none"
             id="path26"
             inkscape:connector-curvature="0" /></g><g
           id="g28"
           transform="translate(184.9513,25.7565)"><path
             d="M 0,0 C 0.913,0.074 1.868,-0.106 1.901,1.013 1.936,2.18 0.923,1.945 0.215,2.043 -0.371,2.124 -0.872,2.084 -0.751,1.24 -0.665,0.639 -1.034,-0.246 0,0 M 2.966,-3.354 C 2.224,-3.633 1.872,-3.373 1.59,-2.855 c -0.305,0.558 -0.701,1.068 -0.999,1.629 -0.245,0.461 -0.617,0.522 -1.043,0.442 -0.488,-0.093 -0.259,-0.509 -0.279,-0.785 -0.036,-0.476 -0.028,-0.957 -0.007,-1.434 0.018,-0.399 -0.184,-0.479 -0.527,-0.474 -0.319,0.004 -0.458,0.119 -0.457,0.446 0.007,1.787 0.008,3.574 -0.002,5.361 -0.002,0.359 0.122,0.534 0.498,0.516 C -0.304,2.803 0.622,2.933 1.541,2.738 2.317,2.573 2.797,2.133 2.887,1.335 2.982,0.501 2.768,-0.237 1.907,-0.525 1.357,-0.71 1.363,-0.888 1.652,-1.304 c 0.45,-0.648 0.855,-1.328 1.314,-2.05"
             style="fill:#000000;fill-opacity:1;fill-rule:nonzero;stroke:none"
             id="path30"
             inkscape:connector-curvature="0" /></g></g></g><path
       style="fill:#1a1a1a;fill-opacity:1"
       d="m 13.964206,778.14972 c -1.093138,-6.59536 1.062395,-76.72647 3.423878,-111.3972 15.471545,-227.14956 77.706622,-405.42099 154.733476,-443.23166 39.61582,-19.44647 82.99002,0.23031 119.16105,54.05762 19.19419,28.56351 33.56459,59.14874 49.36794,105.07218 4.7335,13.75517 9.31298,25.00941 10.17665,25.00941 0.86368,0 5.40509,-11.25424 10.09202,-25.00941 31.32015,-91.91788 71.89685,-148.74609 116.66327,-163.38845 15.63993,-5.11556 36.70095,-3.42416 51.95036,4.1721 84.81073,42.24712 151.43597,255.67962 157.28781,503.86795 l 1.23484,52.37289 -40.56851,0 -40.56848,0 -2.4736,-73.72882 c -7.33652,-218.67405 -35.56562,-376.75769 -77.55407,-434.30459 -17.01041,-23.31348 -41.92503,-22.41701 -58.75766,2.11421 -38.37848,55.93137 -64.4909,185.68711 -73.57041,365.58021 -1.10097,21.81356 -2.01051,53.16102 -2.02121,69.66102 l -0.0194,30 -41.36856,0 -41.36857,0 -1.31795,-54.40678 C 302.54618,440.171 257.4572,254.92938 203.88484,254.92938 c -16.6231,0 -27.74408,9.82884 -40.9667,36.20681 -37.17597,74.16278 -61.04756,230.89237 -66.587619,437.18302 l -1.379194,51.35594 -40.367146,0 c -22.20193,0 -40.480919,-0.68645 -40.619975,-1.52543 z"
       id="path3377"
       inkscape:connector-curvature="0"
       transform="matrix(0.8,0,0,-0.8,0,792)" /></g></svg>