<?xml version="1.0" encoding="UTF-8"?>
<!DOCTYPE svg PUBLIC "-//W3C//DTD SVG 1.1//EN" "http://www.w3.org/Graphics/SVG/1.1/DTD/svg11.dtd">
<!-- Creator: CorelDRAW 2017 -->
<svg xmlns="http://www.w3.org/2000/svg" xml:space="preserve" width="990mm" height="990mm" version="1.1" style="shape-rendering:geometricPrecision; text-rendering:geometricPrecision; image-rendering:optimizeQuality; fill-rule:evenodd; clip-rule:evenodd"
viewBox="0 0 99000 99000"
 xmlns:xlink="http://www.w3.org/1999/xlink">
 <defs>
  <style type="text/css">
   <![CDATA[
    .fil0 {fill:#E63B24;fill-rule:nonzero}
   ]]>
  </style>
 </defs>
 <g id="__x0023_Layer_x0020_1">
  <metadata id="CorelCorpID_0Corel-Layer"/>
  <g id="_1083585952">
   <path class="fil0" d="M70172.65 38574c-1485.45,0 -2688.08,1008.22 -2688.08,2250.41 0,1242.5 1202.63,2249.79 2688.08,2249.79 1484.43,0 2686.98,-1007.29 2686.98,-2249.79 0,-1242.19 -1202.55,-2250.41 -2686.98,-2250.41z"/>
   <path class="fil0" d="M25971.33 43828.63c-1741.19,0 -3084.14,791.42 -4012.52,1919.91l0 -1405.3 -6518.29 0 0 2305.2 2170.03 0 0 13777.58 4348.26 0 0 -5996.74c905.83,1062.54 2230.51,1784.98 4012.52,1784.98 3420.96,0 5974.1,-2771.97 5974.1,-6192.15 0,-3419.87 -2553.14,-6193.48 -5974.1,-6193.48zm-1544.14 9711.84l0 0c-1805.65,-221.8 -2492.03,-1862.39 -2492.03,-3518.36 0,-1676.73 822.17,-3260.75 2492.03,-3519.92 1717,-265.66 3147.9,1333.97 3147.9,3519.92 0,2182.36 -1422.55,3731.57 -3147.9,3518.36z"/>
   <polygon class="fil0" points="66206.41,46648.44 68376.12,46648.44 68376.12,55728.21 72724.46,55728.21 72724.46,44343.24 66206.41,44343.24 "/>
   <path class="fil0" d="M96342.56 43074.2c1483.26,0 2687.45,-1007.29 2687.45,-2249.79 0,-1242.19 -1204.19,-2250.41 -2687.45,-2250.41 -1484.67,0 -2689.16,1008.22 -2689.16,2250.41 0,1242.5 1204.49,2249.79 2689.16,2249.79z"/>
   <polygon class="fil0" points="92376.63,46648.44 94546.59,46648.44 94546.59,55728.21 98893.75,55728.21 98893.75,44343.24 92376.63,44343.24 "/>
   <path class="fil0" d="M64553.71 49260.73l-3.74 -1.79c-90.61,-3304.06 -2297.4,-5599.66 -5640.47,-5430.31 -1652.38,85.14 -2915.26,827.4 -3795.49,1877.45l0 -1362.84 -6516.96 0 0 2305.2 2169.72 0 0 9079.77 4347.24 0 0 -6211.97c131.5,-1477.49 860.1,-2780.71 2360.61,-3014.05 1716.92,-265.66 2710.39,1333.97 2710.39,3519.92l0 5706.1 4368.7 0 0 -6253.33 0.86 0c0,-17.87 -0.86,-34.42 -0.86,-52.99l0 -161.16z"/>
   <path class="fil0" d="M90941.13 49260.73l-2.96 -1.79c-93.26,-3304.06 -2298.49,-5599.66 -5641.49,-5430.31 -1653.24,85.14 -2916.11,827.4 -3795.25,1877.45l0 -1362.84 -6518.6 0 0 2305.2 2170.03 0 0 9079.77 4348.57 0 0 -6211.97c131.42,-1477.49 859.01,-2780.71 2359.51,-3014.05 1718.02,-265.66 2710.4,1333.97 2710.4,3519.92l1.09 0 0 5706.1 4368.7 0 0 -6253.33 1.09 0c0,-19.75 -1.09,-38.09 -1.09,-56.9l0 -157.25z"/>
   <path class="fil0" d="M7446.78 43733.03c-4129.74,0 -7476.8,2536.59 -7476.8,6258.17 0,3681.55 3347.06,6260.2 7476.8,6260.2 4129.97,0 7477.03,-2550.71 7477.03,-6260.2 0,-3693.64 -3347.06,-6258.17 -7477.03,-6258.17zm0 9951.03l0 0c-1728.32,0 -3131.2,-1564.81 -3131.2,-3629.64 0,-2066.63 1402.88,-3741.25 3131.2,-3741.25 1728.23,0 3131.11,1674.62 3131.11,3741.25 0,2064.83 -1402.88,3629.64 -3131.11,3629.64z"/>
   <path class="fil0" d="M40594.72 43742.63c-4125.21,0 -7111.4,2586.3 -7111.4,6011.72 0,468.32 53.46,922.76 151.64,1360.42 310.21,1527.67 1257.17,2835.73 2573.5,3795.8 2137.49,1558.34 7327.03,2268.13 10878.17,-735.08l-1247.81 -1787.62c-1044.28,716.5 -3385.22,1473.11 -5272.11,1095.31l0 -6.71c-9.13,0 -19.05,0 -29.27,0 -1235.95,-255.98 -2270,-1006.35 -2607.69,-2581.86l9661.73 6.72c0,0 33.41,-755.53 33.41,-1146.98 0,-3425.42 -2777.36,-6011.72 -7030.17,-6011.72zm-2745.66 5081.07l0 0c31.45,-1734.72 1301.27,-2681.52 2745.66,-2681.52 1479.21,0 2777.28,800.55 2755.82,2681.52l-5501.48 0z"/>
  </g>
 </g>
</svg>
