<?xml version="1.0" encoding="UTF-8"?>
<!DOCTYPE svg PUBLIC "-//W3C//DTD SVG 1.1//EN" "http://www.w3.org/Graphics/SVG/1.1/DTD/svg11.dtd">
<!-- Creator: CorelDRAW 2017 -->
<svg xmlns="http://www.w3.org/2000/svg" xml:space="preserve" width="755mm" height="990mm" version="1.1" style="shape-rendering:geometricPrecision; text-rendering:geometricPrecision; image-rendering:optimizeQuality; fill-rule:evenodd; clip-rule:evenodd"
viewBox="0 0 75500 99000"
 xmlns:xlink="http://www.w3.org/1999/xlink">
 <defs>
  <style type="text/css">
   <![CDATA[
    .fil1 {fill:black}
    .fil2 {fill:#262626}
    .fil5 {fill:#4D3333}
    .fil0 {fill:#986667}
    .fil3 {fill:#E88D8C}
    .fil6 {fill:#F5AFAF}
    .fil4 {fill:#FCEBEC}
   ]]>
  </style>
 </defs>
 <g id="Layer_x0020_1">
  <metadata id="CorelCorpID_0Corel-Layer"/>
  <g id="_1055596480">
   <g>
    <path class="fil0" d="M50950.5 52590.71c153.73,66.8 116.83,60.13 295.58,51.16 23.21,-1.17 144.29,-18.95 168.57,-24.42 131.65,-29.6 76.48,-12.52 89.22,-44.04 -2.57,0.14 -135.72,5.3 -144.09,4.4 -95.49,-10.32 -92.56,-24.42 -133.17,-44.34l-276.11 57.24z"/>
    <path class="fil0" d="M67773.63 50881.75c-6,-129.05 -32.37,-98.11 99.28,-67.49 -61.95,-98.16 7.4,-52.82 -93.28,-119.35 -117.51,-77.66 -10.53,-14.7 -148.56,-57.91 44.79,206.23 -20.46,115.48 142.56,244.75z"/>
    <path class="fil0" d="M61161.52 42463.31l-32.18 -34.55 -219.38 38.79c7.33,9.72 7.2,225.56 251.56,-4.24z"/>
    <path class="fil0" d="M57967.56 54553.01c-81.73,-157.64 20.48,-49.89 -126.45,-151.17 -38.32,-26.42 -86,-24.57 -132,-26.59l258.45 177.76z"/>
    <path class="fil0" d="M48054.7 52112.74c55.12,-137.07 -93.34,-129 109.93,-97.91l-165.35 -55.26 55.42 153.17z"/>
    <path class="fil0" d="M66656.03 51004.48l65.41 -153.08 -167.94 73.57c130.58,-18.68 99.36,-48.74 102.53,79.51z"/>
    <path class="fil0" d="M69874.11 49557.38c5.75,-111.11 -25.15,-86.69 79.6,-86.69l-117.72 -88.44 38.12 175.13z"/>
    <path class="fil0" d="M69157.87 51212.67l44.03 -175.8c-32.42,192.81 26.62,90.18 -44.03,175.8z"/>
   </g>
   <g>
    <path class="fil1" d="M74479.46 46727.36c4.96,-366.03 -77.06,-517.21 -393.54,-629.84 -367.23,-130.68 -637.93,-134.95 -716.97,225.91 -127.67,582.79 351.58,879.46 1110.51,403.93z"/>
    <path class="fil1" d="M37444.52 56945.21c393.02,37.85 468.23,-83.68 472.86,-470.59 4.7,-393.45 -64.11,-522.1 -477.31,-483.1l4.45 953.69z"/>
    <polygon class="fil1" points="33277.84,56666.96 33539.9,56654.77 33401.37,56210.5 "/>
   </g>
   <g>
    <path class="fil2" d="M20171.73 57258.73l379.38 -2.07 9.2 -890.27c172.36,389.6 292.37,1290.92 631.73,745.74 57.96,-93.1 143.72,-530.68 283,-764.71l4.09 902.08 385.63 8.8c-7.87,-419.95 46.65,-1234.04 -39.99,-1588.8l-442.72 3.43 -351.48 1026.66 -377.76 -1035.62 -442.24 3.65 -38.84 1591.11z"/>
    <path class="fil2" d="M37440.07 55991.52c413.2,-39 482.01,89.65 477.31,483.1 -4.63,386.91 -79.84,508.44 -472.86,470.59l-4.45 -953.69zm-388.75 1260.54c770.9,29.09 1243.99,34.49 1243.09,-778.03 -0.91,-828.02 -467.16,-791.63 -1201,-807.61 -104.81,367.16 -42.05,1166.26 -42.09,1585.64z"/>
    <path class="fil2" d="M437.18 57248.73l324.84 20.39 14.08 -634.67c144.39,45.81 359.88,486.85 407.05,615.05l484.3 5.56c-127.52,-335.34 -416.42,-577.5 -472.5,-898.41 112.42,-210.51 359.98,-443.59 410.61,-690.23l-403.9 4.75c-94.75,140.6 -281.41,534 -432.99,601.54l-4.72 -563.12 -351.23 -40.22c-57.09,348.56 -44.07,1443.43 24.46,1579.36z"/>
    <path class="fil2" d="M8906.19 56885.88c-131.82,111.42 -185.24,177.76 -374.75,26.42 -229.13,-182.98 78.21,-174.77 -466.73,-179.43 40.79,347.52 131.9,477.02 486.55,535.5 418.58,69 503.61,-84.3 743.42,-214.06 47.86,-1038.6 -802.3,-457.48 -795.24,-1059.7 492.14,-186.34 152.5,174.47 790.63,157.63 -75.53,-668.25 -948.9,-589.2 -1135.24,-250.68 -150.46,273.35 -3.71,487.56 201.99,595.26 308.49,161.5 499.56,82.91 549.37,389.06z"/>
    <path class="fil2" d="M33401.37 56210.5l138.53 444.27 -262.06 12.19 123.53 -456.46zm-708.17 1041.81c452,5.97 396.81,59.09 491.46,-306.58l417.88 8.88c201.69,283.77 -24.5,355.56 516.82,281.02 -84.61,-330.73 -398.04,-1299.25 -533.85,-1567.68l-359.5 12.85 -532.81 1571.51z"/>
    <path class="fil2" d="M42108.96 56932.37c-162.11,72.43 -207.78,98.22 -362.7,-13.33 -238.48,-171.71 84.56,-188.61 -460.56,-184.62 74.18,694.8 824.57,652.94 1188.4,329.42 186.86,-986.64 -788.55,-515.3 -769.36,-1019.98 121.15,-265.91 419.39,53.49 496.93,83.28 143.98,55.32 146.02,33.7 307.84,31.25 -150.47,-774.83 -1044.3,-508.41 -1159.18,-230.54 -296.14,716.29 803.52,476.72 758.63,1004.52z"/>
    <path class="fil2" d="M13106.44 56919.04c-160.12,82.63 -197.27,125.2 -355.09,7.67 -227.03,-169.09 72.48,-183.28 -482.03,-196.91 86.6,653.41 669.62,717.67 1228.44,289.1l10.44 -349.36c-483.42,-446.35 -989.08,-418.67 -781.05,-664.68 190.92,-108.25 180.04,-79.98 335.54,19.25 201.07,128.28 15.03,166.49 427.37,115.81 -74.91,-674.75 -994.91,-557.9 -1142.49,-218.04 -319.88,736.54 781.11,487.46 758.87,997.16z"/>
    <path class="fil2" d="M24834.4 55680.93c205.25,716.39 404.85,487.45 478.69,1321.15l56.84 244.33 330.97 15.17c-11.68,-943.8 265.19,-896.04 509.22,-1579.48l-420.52 -18.25 -246.88 613.94 -182.31 -263.48c-64.41,-137.33 -129.78,-263.4 -188.44,-340.19l-337.57 6.81z"/>
    <path class="fil2" d="M4635.63 57257.2l329.43 -2.09c90.93,-166.5 68.77,-899.94 64.79,-1194.85 -0.45,-32.9 -3.28,-145.35 -7.18,-173.82 -25.69,-187.89 23.72,-47.4 -57.61,-207.42l-235.18 -7.24 -94.25 1585.42z"/>
    <path class="fil2" d="M17047.82 56672.52c159.82,-395.86 36.29,-648.46 -407.82,-523.88 -244.61,388.72 -29.98,744 407.82,523.88z"/>
    <path class="fil2" d="M29260.22 56695.63l402.31 48.85c363.88,-909.76 -761.71,-807.95 -402.31,-48.85z"/>
   </g>
   <g>
    <path class="fil3" d="M69747.61 45285.93c-148.13,-450.74 -1055.63,-1267.92 -1438.51,-1583.61 -2085.93,-1719.88 -4613.58,-1674.18 -7113.82,-1017.21 1590.4,9.37 2755.26,230.61 4038.62,857.71 1143.26,558.63 2096.16,1129.32 2549.54,2269.15 383.01,-10.71 1682.81,-384.3 1964.17,-526.04z"/>
    <path class="fil3" d="M73212.9 54859.61c331.62,-969.15 151.03,-3732.93 40.17,-4834.72 -30.5,43.04 -40.71,55.73 -76.91,143.09l-75.38 286.75c-29.18,122.65 -65.84,254.6 -99.29,371.23 -74.41,259.48 -146.39,442.04 -265.37,678.98 -578.59,1152.08 -1460.76,2411.67 -2492.71,3187.9 337.23,903.05 721.76,532.69 1563.36,165.37 329.19,-143.68 988.74,51.91 1406.13,1.4z"/>
    <path class="fil3" d="M70649.04 54003.17c667.32,-408.36 1718.27,-2114.74 2033.26,-2899.13 571.45,-1423.02 375.8,-2612.86 -132.1,-4001.1 -660.25,-1804.67 -1512.66,-3143.61 -3038.8,-4252.73 -327.61,-238.08 -1156.63,-740.94 -1618.42,-856.27l209.5 149.52c842.67,486.22 609.99,351.49 1423.61,930.01 25.12,17.86 75.11,49.54 102.61,69.5 9.75,7.06 23.94,17.06 33.59,24.33l344.22 304.54c720.76,693.3 1036.07,1034.36 1534.35,1878.68 285.56,483.9 520.28,1035.43 678.65,1607.17 589.8,2129.1 312.4,3721.25 -656.4,5609.19l-688.69 1073.33c-111.43,145.19 -139.1,151.8 -225.38,362.96z"/>
    <path class="fil3" d="M51205.38 54857.81c330.14,313.83 1468.77,379.05 1978.71,377.62 872.03,-2.42 1280.3,-205.09 2006.55,-355.26l-265.21 -1688.98 -52.23 413.52c-707.33,255.41 -373.56,81.64 -797.81,198.39 -256,70.44 -76.13,105.63 -400.24,241.18l-522.48 177.79c-14.42,5.25 -29.62,11.12 -44.15,16.3l-927.09 252.93c-162.95,60.14 -218.54,364.51 -962.25,243.23l410.03 3.64c-118.34,110.69 65.5,56.82 -236.21,122.49 -45.12,9.82 -125.71,-1.96 -187.62,-2.85z"/>
    <path class="fil3" d="M57875.15 43757.43c272.45,-198.35 580.85,-536.64 868.27,-768.82 -371.23,-263.11 -812.13,-218.71 -1090.12,-269.21l-213.88 -64 155.72 -1495.23 -321.94 72.72c126.94,119.88 156.54,-78.37 5.27,274.2l-637.15 1367.61c-267.01,538.73 -239.14,242.45 -206.8,524.31 338.14,-1.36 1158.27,-39.73 1397.72,247.55 66.69,80.01 123.85,-151.95 42.91,110.87z"/>
    <path class="fil3" d="M59235.65 56953.53c315.26,-105.35 771.61,-847.81 841,-1243.71 -164.98,-119.28 -656.68,-274.97 -916.26,-388.3 -339.23,-148.08 -545.25,-326.49 -856.87,-439.07 165.53,325.99 353.79,629.63 539.11,992.78 217.5,426.16 261.7,624.16 393.02,1078.3z"/>
    <path class="fil3" d="M48715.73 52062.8c477.2,245.36 1550.11,95.04 2100.57,80.07l1088.35 -639.48c163.1,-169.82 299.39,-353.77 380.73,-688.25 217.09,-892.74 -210.98,-1379.09 -846.52,-1850.53 200.21,315.11 502.71,637.26 549.53,1229.29 43.89,555.03 -112.14,999.29 -385.1,1290.29 -574.68,612.7 -1903.72,613.11 -2887.56,578.61z"/>
    <path class="fil3" d="M64568.88 57752.53c-101.83,-385.44 137.05,-1175.17 360.55,-1585.95 76.37,-140.42 283.33,-351.16 305.84,-484.06l-1015 141.53 621.5 -6.83c-177.81,107.83 -468.33,129.2 -861.14,171.82 39.75,650.01 139.13,1486.85 588.25,1763.49z"/>
    <path class="fil3" d="M53537.19 49257.43c386.61,207.79 1084.6,156.92 1538.87,-302.99 9.39,-9.48 21.49,-22.63 30.72,-31.7 72.06,-70.66 33.67,-41.64 100.37,-89.26 143.58,-411.69 201.19,-845.48 404.46,-1303.53 -15.93,-15.49 -28.97,-36.66 -37.87,-54.84l-74.14 -289.76c-5.62,-304.15 37.35,-390.56 -10.67,-847.82 -72.14,-686.77 90.66,-537.52 159.9,-1062.2 -171.92,88.16 -282.75,231.5 -405.6,382.63 -305.07,375.32 212.35,726.28 47.59,2112.52 -127.86,1075.82 -599.47,1560.31 -1753.63,1486.95z"/>
    <path class="fil3" d="M49155.45 48341.67c34.78,-190.99 959.77,-941.34 1114.49,-2094.65 -289.52,252.9 -651.66,1011.41 -1964.81,2167.84l850.32 -73.19z"/>
    <path class="fil3" d="M52235.94 41813.88c129.2,114.7 87.46,3.24 74.54,244.75 -1,18.82 -45.32,181.22 -51.29,202.68 -167.63,603.1 -411.6,948.25 -447.24,1169.92l639.53 -143.16 11.14 -1586.75 -226.68 112.56z"/>
    <path class="fil3" d="M50507.66 50488.12c89.79,-215.68 157.97,-712.87 -299.44,-804.6 -30.82,162.37 -77.53,316.72 -38.25,498.13 48.8,225.41 119.66,276.13 337.69,306.47z"/>
    <path class="fil3" d="M52692.65 52680.83c145.77,-70.55 261.3,-233.23 408.53,-346.76 321.49,-247.89 389.43,-43.31 605.83,-211.28 -99.01,-394.22 -755.25,-252.1 -1014.36,558.04z"/>
    <path class="fil3" d="M51078.7 42890.33l343.76 -335.75c-110.44,53.54 -34.71,-6.89 -163.06,112.13 -122.61,113.71 -94.73,88.77 -180.7,223.62z"/>
   </g>
   <g>
    <path class="fil4" d="M57217.38 44957.08c-584.37,949.38 -964.34,1940.27 -1219.42,3227.85 -117.6,593.57 -459.44,3574.66 -217.11,4054.04l8.98 -922.83c462,-15.7 -22.71,81.42 569.53,-486.83 102.01,-97.9 228.74,-170.4 290.32,-240.06 163.08,-184.51 15.86,-213.88 372.21,-215.4 155.87,-706.85 306.12,-536.38 530.9,-938.45l394.38 -3.7c9.52,-13.03 21.14,-49.49 25.22,-40 43.02,99.76 -19.15,-13.1 152.35,-210.21 61.36,-70.53 163.82,-172.12 234.63,-232.18l226.28 -187.94c8.37,-9.34 18.49,-23.69 26.49,-33.29 258.58,-310.1 210.09,-143.72 426.68,-456.36 316.83,-457.32 459.31,-284.83 750.57,-658.88 356.91,-458.41 77.5,-311.42 657.96,-690.27l1216.97 -1138.04c-5.75,-15.55 -25.25,-50.69 -29.59,-39.97l-76.31 -100.88c-44.4,-83.2 -78.54,48.9 -11.86,-102.15 82.51,-186.92 524.51,-381.08 768.67,-808.98 93.88,275.83 -81.54,134.35 173.36,229.74 384.28,-578.69 -460.87,21.12 195.91,-565.6l184.92 -170.22c288.57,-258.85 204.59,-114.87 384.65,-438.62 134.8,0.33 256.83,8.95 388.7,-18.14 134.83,-27.72 135.91,-80.56 318.72,-43.29l-122.3 -295.79 352.58 3.84c-42.77,-26.4 -62.86,-82.35 -99.06,-125.98 -1235.12,-370.27 -2303.86,-533.7 -3633.17,-328.21 -314.54,48.62 -896.13,325.11 -1104.29,204.36 100.06,-260.85 1154.88,-686.06 1387.87,-791.5 1928.61,-872.93 3684.26,-743.81 5605.04,-359.15 72.04,-59.07 123.36,-98.49 183.82,-138.2 -232.35,-5.18 -630.16,-86.39 -803.77,-205.02 -9.67,-6.6 -21.92,-19.54 -31.02,-26.41l-58.44 -51.77c-16.15,-12.35 -74.11,-51.64 -92.04,-59.51l456.54 -7.08c49.65,-89.26 59.62,7.3 -20.31,-142.22 -2050.44,-227.83 -3585.58,-158.57 -5321.45,674.85 -754.67,362.35 -1421.71,761.53 -1948.04,1225.51 -406.88,358.69 -1371.6,1193.04 -1496.07,1652.94z"/>
    <path class="fil4" d="M47276.7 50548.26c-155.57,-294.54 -202.79,-396.73 -70.89,-755.1 82.83,-224.99 254.38,-444.92 529.45,-337.72 307.99,120.03 314.37,1169.36 -458.56,1092.82zm711.29 -1777.99c-528.28,73.13 -993.81,495.44 -1199.85,834.92 -308.27,507.9 -184.87,1267.04 166.92,1538.78 297.89,75.29 419.04,268.4 1153.95,389.36 303.32,49.92 1053.55,123.2 1335.65,60.23 -10.84,-3.59 -143.62,-33.84 -147.25,-36.06 -154.72,-94.28 -64.18,52.21 -141.29,-140.35 15.17,-11.08 39.42,-41.52 49.76,-26.47l213.31 -65.47c50.8,-6.91 204.17,-0.19 265.45,-0.5 -327.78,10.11 -111.35,13.78 -177.16,-142.77l88.91 -112.12c96.5,-130.13 1.37,16.37 73.8,-104.86 47.79,-79.99 59.79,-163.47 131.28,-233.81 85.88,-84.46 -28.24,-58.26 201.19,-51.89l44.47 5.27c2.55,-0.5 15.05,-3.97 17.32,-4.99l62.11 -72.24c-186.69,-471.23 -280.24,-599.83 -24.47,-1083.14 266.13,-56.14 336.11,-54.6 484.83,111.35 192.1,-182.24 -1.8,-102.6 244.99,-238.53 226.32,75.13 65.53,-43.47 202.98,154.3 21.15,-228.54 12.9,-105.99 48.56,-214.37l-331.83 -18.57c11.79,-8.72 36.02,-39.69 40.69,-27.09l80.24 -73.54c52.88,-138.74 -940.41,-406.89 -1095.5,-427.85 -629.11,-85.1 -1161.9,-75.63 -1789.06,-19.59z"/>
    <path class="fil4" d="M51422.46 42554.58l-343.76 335.75 17.6 -13.18c-175.82,253.75 -262.2,375.48 -492.7,608.02 -210.89,212.76 -285.88,388.54 -450.97,611.6 -177.32,239.58 -693.04,1054.63 -738.21,1329.1l724.89 -57.84c-65.04,-251.68 -174.45,-364.63 -300.95,-505.97 265.83,36.51 417.15,249.64 581.94,483.06 274.63,4.74 545.21,-10 823.67,-22.35 514.39,-22.82 364.38,2.7 661.03,-251.68 232.66,-199.51 839.55,-422.24 1220.55,-481.14 51.49,-196.04 127.4,-147.74 -298.05,-169.74l293.72 -64.68 -233.68 -115.94 73.81 -766.53c-699.29,-16.37 -1278.88,59.6 -1910.17,132.91 158.63,-410.01 776.38,-1063.88 852.62,-1369.72 -200.19,78.61 -101.86,39.82 -258.5,174.81 -100.5,86.59 -91.28,83.89 -222.84,143.52z"/>
    <path class="fil4" d="M48754.54 53204.76l295 315c433.24,151.31 974.47,644.82 1538.43,308.34 -5.37,-300.07 -44.69,-296.4 -225.98,-471.12 159.85,-42.63 117.15,-34.92 233.21,-119.95 9.85,-7.22 23.45,-19.5 32.84,-26.41l67.62 -47.5c9.62,-6.67 51.54,-30.1 68.03,-40.66 1.73,-269.38 -75.59,-555.67 186.81,-531.75 -10.06,-5.55 -89.32,-49.54 -113.55,-64.7l-76.54 -57.49c453.17,-27.21 -49.61,36.97 124.31,-169.31 52.77,-62.59 224.8,-40.52 350.3,-117.61 -147.87,-84.03 -202.56,-42.03 -418.72,-38.73 -550.46,14.97 -1623.37,165.29 -2100.57,-80.07l-278.11 -8.22c-166.64,66.81 -58.36,-27.14 -142.44,97.2l459.36 1052.98z"/>
    <path class="fil4" d="M49155.45 48341.67c420.79,-3.27 856.8,38.92 1241.68,148.1 431.53,122.43 740.06,335.59 986.65,412.7 471.68,50.44 207.66,-65.08 345.4,-182.59 82.89,-70.71 10.51,-14.45 98.44,-42.94l74.03 -14.2c169.25,-44.64 -58.78,110.38 96.21,-31.1 -488.06,-338.58 -708.55,-572.29 -1096.24,-1048.79 -561.57,-690.25 -560.63,-1534.79 -631.68,-1335.83 -154.72,1153.31 -1079.71,1903.66 -1114.49,2094.65z"/>
    <path class="fil4" d="M55815.45 42107.12c-176.7,267.53 -540.6,556.27 -643.28,902.21 268.45,78.58 206.45,111.32 405.87,-17.97l199.88 -208.96c206.02,-336.44 295.68,-488.11 405.96,-898.41l-159.48 46.02c-92.15,27.89 -32.69,-23.33 -115.75,44.34 -93.96,76.58 -51.82,39.57 -93.2,132.77z"/>
   </g>
   <g>
    <path class="fil5" d="M73212.9 54859.61c-417.39,50.51 -1076.94,-145.08 -1406.13,-1.4 -841.6,367.32 -1226.13,737.68 -1563.36,-165.37 1031.95,-776.23 1914.12,-2035.82 2492.71,-3187.9 118.98,-236.94 190.96,-419.5 265.37,-678.98 33.45,-116.63 70.11,-248.58 99.29,-371.23l75.38 -286.75c36.2,-87.36 46.41,-100.05 76.91,-143.09 110.86,1101.79 291.45,3865.57 -40.17,4834.72zm-25224.91 -6089.34c650.83,-417.6 1998.55,-229.21 2689.02,35.97 1337.14,513.55 2123.45,3001.81 -1197.18,3063.35 -871.06,16.15 -2195.23,-86.51 -2524.77,-725.62 -351.79,-271.74 -475.19,-1030.88 -166.92,-1538.78 206.04,-339.48 671.57,-761.79 1199.85,-834.92zm22661.05 5232.9c-81.04,209.78 -613.02,628.73 -827.93,762.05 -881.08,546.55 -1432,502.98 -1554.83,861.32 -63.74,185.96 -108.7,454.73 -155.07,658.39 -76.54,336.17 -212.38,974.53 -350.09,1224.2 -949.84,56.94 -1434.75,-237.91 -1741.14,-82.29 -128.45,65.24 -1361.94,712.12 -1451.1,325.69 -449.12,-276.64 -548.5,-1113.48 -588.25,-1763.49 392.81,-42.62 683.33,-63.99 861.14,-171.82l-621.5 6.83c-1690.54,-18.98 -3202.86,-33.27 -4819.5,-628.13l-1274.09 -546.11 176.84 232.64c311.62,112.58 517.64,290.99 856.87,439.07 259.58,113.33 751.28,269.02 916.26,388.3 -69.39,395.9 -525.74,1138.36 -841,1243.71 -479.11,13 -1269.59,-200.7 -1602.38,-145.42 -452.26,75.14 -1091.32,331.32 -1515.58,204.42 -348.66,-471 -741.11,-2235.46 -847.32,-2967.58 -448.06,-3088.46 -75.06,-5900.14 1519.66,-8549.27 123.5,-205.15 242.69,-417.47 427.35,-538.6 124.47,-459.9 1089.19,-1294.25 1496.07,-1652.94 526.33,-463.98 1193.37,-863.16 1948.04,-1225.51 1735.87,-833.42 3271.01,-902.68 5321.45,-674.85 469,75.88 1685.6,393.1 1910.04,590.16 461.79,115.33 1290.81,618.19 1618.42,856.27 1526.14,1109.12 2378.55,2448.06 3038.8,4252.73 507.9,1388.24 703.55,2578.08 132.1,4001.1 -314.99,784.39 -1365.94,2490.77 -2033.26,2899.13zm3830.42 -7275.81c-758.93,475.53 -1238.18,178.86 -1110.51,-403.93 79.04,-360.86 349.74,-356.59 716.97,-225.91 316.48,112.63 398.5,263.81 393.54,629.84zm-16604.31 -2969.93c-103.55,157.88 -211.63,267.83 -344.65,422.27 -134.88,156.61 -233.66,262.31 -357.26,409.01 -308.35,365.98 -636.69,899.47 -880.58,1351.89 -95.87,177.87 -169.3,327.42 -259.56,505.71 -163.01,321.99 -364.98,710.47 -421.49,1083.64 -203.27,458.05 -260.88,891.84 -404.46,1303.53 -135.52,698.3 -240.53,1355.8 -279.51,2077.51 -33.05,612.32 69.46,1822.68 -2.21,2280.2l265.21 1688.98c-726.25,150.17 -1134.52,352.84 -2006.55,355.26 -509.94,1.43 -1648.57,-63.79 -1978.71,-377.62 -526.93,-12.88 -1494.27,-729.05 -1913.69,-1075.68 -171.94,-142.1 -135.25,-67.69 -242.15,-262.37l-295 -315c-324.28,-312.77 -489.5,-621.58 -699.84,-1092.02l-55.42 -153.17 165.35 55.26 272.99 39.75 278.11 8.22c983.84,34.5 2312.88,34.09 2887.56,-578.61 272.96,-291 428.99,-735.26 385.1,-1290.29 -46.82,-592.03 -349.32,-914.18 -549.53,-1229.29 -83.45,25.62 -55.08,33.95 -55.08,-62.14 -246.59,-77.11 -555.12,-290.27 -986.65,-412.7 -384.88,-109.18 -820.89,-151.37 -1241.68,-148.1l-850.32 73.19c1313.15,-1156.43 1675.29,-1914.94 1964.81,-2167.84 71.05,-198.96 70.11,645.58 631.68,1335.83 387.69,476.5 608.18,710.21 1096.24,1048.79 634.23,306.32 744.46,416.38 1539.33,625.79 1154.16,73.36 1625.77,-411.13 1753.63,-1486.95 164.76,-1386.24 -352.66,-1737.2 -47.59,-2112.52 122.85,-151.13 233.68,-294.47 405.6,-382.63l79.08 -159.12 -3694.25 155.27c238.48,-260.91 576.18,-424.35 941.19,-540.57 391.1,-124.54 373,-25.2 150.7,-140.96 -381,58.9 -987.89,281.63 -1220.55,481.14 -296.65,254.38 -146.64,228.86 -661.03,251.68 -278.46,12.35 -549.04,27.09 -823.67,22.35 -164.79,-233.42 -316.11,-446.55 -581.94,-483.06 126.5,141.34 235.91,254.29 300.95,505.97l-724.89 57.84c-168.52,-63.68 -0.33,120.68 -104.3,-86.7l776.4 -1313.54c200.18,-303.88 719.79,-998.01 1009.78,-1148.48l-17.6 13.18c85.97,-134.85 58.09,-109.91 180.7,-223.62 128.35,-119.02 52.62,-58.59 163.06,-112.13 99.34,-213.2 212.92,-232.37 386.99,-391.92 151.32,-138.68 252.05,-218.59 426.49,-348.78l226.68 -112.56 -11.14 1586.75c670.85,-258.1 1845.95,-302.57 2616.75,-348.9 161.72,-298.45 414.38,-735.71 747.22,-832.05 41.38,-93.2 -0.76,-56.19 93.2,-132.77 83.06,-67.67 23.6,-16.45 115.75,-44.34 121.95,-249.24 137.76,-179.5 432.24,-350.52 38.38,-22.31 105.57,-65.21 149.96,-89.26 205.1,-111.15 428.37,-203.68 666.6,-257.34l321.94 -72.72 -155.72 1495.23 213.88 64c277.99,50.5 718.89,6.1 1090.12,269.21 -287.42,232.18 -595.82,570.47 -868.27,768.82zm6662.18 14304.54l448.27 0c168.29,-91.1 406.75,-118.9 638.28,-201.88 222.93,-79.89 427.52,-259.32 614.78,-271.18 431.84,-27.34 1009.39,193.1 1627.47,95.06 347.54,-413.7 354.49,-1437.87 578.25,-1942.26 106.95,-241.07 935.31,-472.56 1601.51,-894.95 469.12,661.8 424.15,766.75 1398.2,421.71 383.98,-136.02 386.3,-291.81 816.81,-243.5 386.51,43.35 731.59,90.46 1119.85,7.45 324.11,-1111.17 241.32,-3369.89 110,-4568.21 -265.97,-2426.83 -844.27,-3434.51 -926.48,-4006.03 222.32,-133.3 370.56,-301.24 729.95,-347.04 -108.63,361.91 -213.17,711.34 128.5,947.18 289.34,199.74 788.04,146.77 1062.55,-38.45 272.25,-183.69 343.1,-524.19 113.42,-841.87 -292.11,-404.04 -523.7,-235.02 -882.6,-452.98 532.45,-378.75 599.28,-448.72 1407.1,-500.76 -618.5,-136.87 -1045.5,66.96 -1405.98,381.98 -412.12,360.11 -338.39,53.01 -1245.54,628.6l-990.27 -1711.97c-416.62,-623.88 -849.62,-1000.41 -1338.64,-1422.48 -2794.96,-2412.33 -7269.91,-2724.05 -10402.4,-772.08 -1339.2,834.52 -292.82,315.01 -2060.09,184.53 17.97,-510.5 106.35,-966.01 95.18,-1574.02 -1142.19,-34.28 -2460.57,1061.17 -2859.57,1797.23 -823.31,-35.74 -1551.8,212.17 -2268.32,239.48 24.2,-524.92 105.24,-1215.12 -101.76,-1614.3 -802.35,344.59 -2303.46,1933.65 -2842.68,2810.48l-703.13 1247.06c-280.52,144.2 -2786.14,210.72 -3367.31,272.61l384.88 600.63c-314.32,520.61 -725.96,1054.28 -639.68,1886.64 77.31,745.94 748.3,1093.5 1560.86,861.32 -124.36,245.98 -609.07,575.24 -531.53,1438.63 69.38,772.43 584.31,1101.82 1137.73,1344.32 286.87,125.7 166.58,-17.64 282.93,248.63 348.73,798.18 454.79,1107.32 1246.14,1808.56 1505.66,1334.22 3612.77,2007.8 6160.26,1199.27 316.85,654.31 339.49,1613.21 772.38,2144.8 411.36,36.07 934.06,-50.38 1317.78,-139.82 1252.9,-292.07 1797.82,557.72 2436.99,-322.91 223.59,-308.07 329.59,-657.51 537.88,-980.19 1668.09,184.48 1107.62,408.22 3476.68,273.97 31.04,414.15 69.41,782.73 199.66,1153.5 160.49,456.79 262.32,519.33 561.69,853.24z"/>
    <path class="fil5" d="M69747.61 45285.93c-281.36,141.74 -1581.16,515.33 -1964.17,526.04 -453.38,-1139.83 -1406.28,-1710.52 -2549.54,-2269.15 -1283.36,-627.1 -2448.22,-848.34 -4038.62,-857.71 2500.24,-656.97 5027.89,-702.67 7113.82,1017.21 382.88,315.69 1290.38,1132.87 1438.51,1583.61zm-8586.09 -2822.62c-244.36,229.8 -244.23,13.96 -251.56,4.24l219.38 -38.79c1116.5,-245.63 1143.11,-476.48 2698.27,-528.12 2198.31,-73.02 4857.35,957.29 6101.56,2708.79 112.06,157.76 270.25,353.21 252.92,563.07 -292.91,56.16 -348.01,-115.01 -810.22,-711.02 -356.31,-459.46 -1185.35,-1111.14 -1699.52,-1416.61 -330.79,-196.52 -680.7,-380.55 -1071.98,-513.78 -1355.97,-461.74 -2680.38,-604.31 -4117.15,-328.69 -394.86,75.74 -933.65,215.49 -1321.7,260.91zm2931.19 845.18c1186.53,261.08 3295.01,1481.16 3537.64,2732.45 882.34,-28.67 2072.13,-517.53 2789.02,-791.76 -14.99,-392.23 -469.6,-950.84 -680.42,-1153.3 -176.71,-169.72 -276.42,-278.61 -465.64,-475.74 -129.09,-134.47 -308.69,-261.78 -489.53,-391.98 -392.87,-282.82 -686.04,-442.92 -1144.68,-679.87 -357.71,-184.79 -1044.68,-371.26 -1290.94,-514.3 -1920.78,-384.66 -3676.43,-513.78 -5605.04,359.15 -232.99,105.44 -1287.81,530.65 -1387.87,791.5 208.16,120.75 789.75,-155.74 1104.29,-204.36 1329.31,-205.49 2398.05,-42.06 3633.17,328.21z"/>
    <path class="fil5" d="M67773.63 50881.75c-163.02,-129.27 -97.77,-38.52 -142.56,-244.75 138.03,43.21 31.05,-19.75 148.56,57.91 100.68,66.53 31.33,21.19 93.28,119.35 72.43,168.02 230.98,240.25 368.22,365.39 199.67,182.11 138.46,277.01 401.93,282.54 131.5,-250.47 -78.14,-854.89 -97.68,-1213.24l394.4 752.08c106.48,174.94 133.1,160.01 218.09,211.64 70.65,-85.62 11.61,17.01 44.03,-175.8 -303.49,-498.96 -136.07,-336.63 -285.87,-575.71 -330.21,-527.04 -241.75,-516.76 -456.36,-572.87 -229.58,238.37 -3.63,649.6 59.52,1325.24 -176.57,-146.52 -334.17,-288.92 -510.44,-449.61 -377.9,-344.46 -362.2,-438.84 -535.4,-317.24 -143.97,133.1 -83.4,155.9 26.05,350.93 74.11,132.03 355.66,877.34 604.38,948.72 75.15,-105.62 131.31,24.71 -108.13,-438.84 -90.83,-175.84 -161.09,-255.82 -222.02,-425.74z"/>
    <path class="fil5" d="M66656.03 51004.48c-3.17,-128.25 28.05,-98.19 -102.53,-79.51 -209.86,263.87 -200.29,716.23 -373.83,949.6 -86.45,-113.04 -109.18,-172.93 -166.74,-287.06 -144.95,-287.39 -57.39,-203.9 -244.88,-226.95 -84.94,157.45 -40.77,143.58 68.63,334.81 70.75,123.68 109.69,277.12 162.18,374.1 37.42,69.14 148.97,208.45 209.16,320.74 158.74,296.1 104.2,202.14 206.86,258.46 258.33,-326.16 -275.35,-213.49 0,-782.68 304.64,98 650.9,466.33 940.07,256.8 -30.84,-34.27 -31.56,-40.16 -93.75,-82.94 -42.17,-29.01 -60.35,-36.08 -113.09,-62.36 -91.9,-45.79 -155.34,-68.54 -244.62,-110.13 -152.23,-70.9 -284.88,-141.54 -440.65,-222.33l193.19 -640.55z"/>
    <path class="fil5" d="M51226.61 52533.47c40.61,19.92 37.68,34.02 133.17,44.34 8.37,0.9 141.52,-4.26 144.09,-4.4 963.73,13.55 1551.86,-1048.43 1991.61,-1784.75 80.58,-134.9 150.87,-283.49 258.05,-389.19 148.57,-146.53 188.46,-100.99 366.05,-195.27 -601.13,-68.39 -738.8,473.52 -1339.07,1280.46 -375.72,505.06 -695.57,907.03 -1553.9,1048.81z"/>
    <path class="fil5" d="M69953.71 49470.69c161.28,200.98 236.13,226.11 387.53,360.53 -126.52,146.5 -222.58,161.85 -407.59,226.74l-59.54 -500.58 -38.12 -175.13 117.72 88.44zm518.63 510.7c265.15,149.57 251.23,294.25 543.58,222.98 -80.97,-159.56 6.92,-21.36 -84.29,-125.67 -11.85,-13.55 -51.57,-47.42 -64.39,-59.62l-450.86 -433.51c-655.8,-414.73 -439.4,-411.62 -730.81,-353.68 -22.75,275 41.13,558.94 73.41,834.41 73.03,622.91 0.7,614.48 202.43,705.94 112.05,-192.24 44.05,-212.5 -0.42,-496l511.35 -294.85z"/>
    <path class="fil5" d="M50507.66 50488.12c-218.03,-30.34 -288.89,-81.06 -337.69,-306.47 -39.28,-181.41 7.43,-335.76 38.25,-498.13 457.41,91.73 389.23,588.92 299.44,804.6zm-381.1 119.18c881.41,271.82 645.03,-494.6 460.36,-971.79 -148.72,-165.95 -218.7,-167.49 -484.83,-111.35 -255.77,483.31 -162.22,611.91 24.47,1083.14z"/>
    <path class="fil5" d="M47357.55 50361.1c-48.39,-232.01 27.4,-831.97 271.81,-726.46 162.66,70.23 116.35,300.11 63.25,466.45 -73.71,230.87 -104.93,253.56 -335.06,260.01zm-80.85 187.16c772.93,76.54 766.55,-972.79 458.56,-1092.82 -275.07,-107.2 -446.62,112.73 -529.45,337.72 -131.9,358.37 -84.68,460.56 70.89,755.1z"/>
    <path class="fil5" d="M69531.49 50944.14c188.54,-90.08 205.59,-37.45 58.79,-217.89 -185.89,69.16 -210.83,-30.96 -58.79,217.89z"/>
    <path class="fil5" d="M67693.87 51848.14c-41.18,-102.56 -92.32,-54.81 -130.48,-54.58 -94.96,252.27 -16.47,164.01 94,207.5 82.49,-120.38 134.23,90.41 36.48,-152.92z"/>
    <path class="fil5" d="M71327.28 49865.27l-201.31 14.17c58.89,179.46 -8.72,126.52 154.2,156.32 102.62,-114.08 80.93,21.99 47.11,-170.49z"/>
    <path class="fil5" d="M58126.68 54649.81c-51.01,-75.11 182.55,-72.6 -159.12,-96.8 16.12,24.9 -5,21.09 70.59,72.36 159.87,108.43 -137.78,-27.17 88.53,24.44z"/>
   </g>
   <g>
    <path class="fil6" d="M58126.68 54649.81c-226.31,-51.61 71.34,83.99 -88.53,-24.44 -75.59,-51.27 -54.47,-47.46 -70.59,-72.36 341.67,24.2 108.11,21.69 159.12,96.8zm-159.12 -96.8l-258.45 -177.76c46,2.02 93.68,0.17 132,26.59 146.93,101.28 44.72,-6.47 126.45,151.17zm9689.83 -2551.95c-110.47,-43.49 -188.96,44.77 -94,-207.5 38.16,-0.23 89.3,-47.98 130.48,54.58 97.75,243.33 46.01,32.54 -36.48,152.92zm-1103.89 -1076.09l167.94 -73.57 -65.41 153.08 -193.19 640.55c155.77,80.79 288.42,151.43 440.65,222.33 89.28,41.59 152.72,64.34 244.62,110.13 52.74,26.28 70.92,33.35 113.09,62.36 62.19,42.78 62.91,48.67 93.75,82.94 -289.17,209.53 -635.43,-158.8 -940.07,-256.8 -275.35,569.19 258.33,456.52 0,782.68 -102.66,-56.32 -48.12,37.64 -206.86,-258.46 -60.19,-112.29 -171.74,-251.6 -209.16,-320.74 -52.49,-96.98 -91.43,-250.42 -162.18,-374.1 -109.4,-191.23 -153.57,-177.36 -68.63,-334.81 187.49,23.05 99.93,-60.44 244.88,226.95 57.56,114.13 80.29,174.02 166.74,287.06 173.54,-233.37 163.97,-685.73 373.83,-949.6zm3036.78 -198.72c146.8,180.44 129.75,127.81 -58.79,217.89 -152.04,-248.85 -127.1,-148.73 58.79,-217.89zm-388.38 310.62l-44.03 175.8c-84.99,-51.63 -111.61,-36.7 -218.09,-211.64l-394.4 -752.08c19.54,358.35 229.18,962.77 97.68,1213.24 -263.47,-5.53 -202.26,-100.43 -401.93,-282.54 -137.24,-125.14 -295.79,-197.37 -368.22,-365.39 -131.65,-30.62 -105.28,-61.56 -99.28,67.49 60.93,169.92 131.19,249.9 222.02,425.74 239.44,463.55 183.28,333.22 108.13,438.84 -248.72,-71.38 -530.27,-816.69 -604.38,-948.72 -109.45,-195.03 -170.02,-217.83 -26.05,-350.93 173.2,-121.6 157.5,-27.22 535.4,317.24 176.27,160.69 333.87,303.09 510.44,449.61 -63.15,-675.64 -289.1,-1086.87 -59.52,-1325.24 214.61,56.11 126.15,45.83 456.36,572.87 149.8,239.08 -17.62,76.75 285.87,575.71zm1924.07 -1157.43l201.31 -14.17c33.82,192.48 55.51,56.41 -47.11,170.49 -162.92,-29.8 -95.31,23.14 -154.2,-156.32zm-1440.4 -647.55c291.41,-57.94 75.01,-61.05 730.81,353.68l450.86 433.51c12.82,12.2 52.54,46.07 64.39,59.62 91.21,104.31 3.32,-33.89 84.29,125.67 -292.35,71.27 -278.43,-73.41 -543.58,-222.98l-511.35 294.85c44.47,283.5 112.47,303.76 0.42,496 -201.73,-91.46 -129.4,-83.03 -202.43,-705.94 -32.28,-275.47 -96.16,-559.41 -73.41,-834.41zm-3337.41 -7197.9c246.26,143.04 933.23,329.51 1290.94,514.3 458.64,236.95 751.81,397.05 1144.68,679.87 180.84,130.2 360.44,257.51 489.53,391.98 189.22,197.13 288.93,306.02 465.64,475.74 210.82,202.46 665.43,761.07 680.42,1153.3 -716.89,274.23 -1906.68,763.09 -2789.02,791.76 -242.63,-1251.29 -2351.11,-2471.37 -3537.64,-2732.45 36.2,43.63 56.29,99.58 99.06,125.98l-352.58 -3.84 122.3 295.79c-182.81,-37.27 -183.89,15.57 -318.72,43.29 -131.87,27.09 -253.9,18.47 -388.7,18.14 -180.06,323.75 -96.08,179.77 -384.65,438.62l-184.92 170.22c-656.78,586.72 188.37,-13.09 -195.91,565.6 -254.9,-95.39 -79.48,46.09 -173.36,-229.74 -244.16,427.9 -686.16,622.06 -768.67,808.98 -66.68,151.05 -32.54,18.95 11.86,102.15l76.31 100.88c4.34,-10.72 23.84,24.42 29.59,39.97l-1216.97 1138.04c-580.46,378.85 -301.05,231.86 -657.96,690.27 -291.26,374.05 -433.74,201.56 -750.57,658.88 -216.59,312.64 -168.1,146.26 -426.68,456.36 -8,9.6 -18.12,23.95 -26.49,33.29l-226.28 187.94c-70.81,60.06 -173.27,161.65 -234.63,232.18 -171.5,197.11 -109.33,309.97 -152.35,210.21 -4.08,-9.49 -15.7,26.97 -25.22,40l-394.38 3.7c-224.78,402.07 -375.03,231.6 -530.9,938.45 -356.35,1.52 -209.13,30.89 -372.21,215.4 -61.58,69.66 -188.31,142.16 -290.32,240.06 -592.24,568.25 -107.53,471.13 -569.53,486.83l-8.98 922.83c-242.33,-479.38 99.51,-3460.47 217.11,-4054.04 255.08,-1287.58 635.05,-2278.47 1219.42,-3227.85 -184.66,121.13 -303.85,333.45 -427.35,538.6 -1594.72,2649.13 -1967.72,5460.81 -1519.66,8549.27 106.21,732.12 498.66,2496.58 847.32,2967.58 424.26,126.9 1063.32,-129.28 1515.58,-204.42 332.79,-55.28 1123.27,158.42 1602.38,145.42 -131.32,-454.14 -175.52,-652.14 -393.02,-1078.3 -185.32,-363.15 -373.58,-666.79 -539.11,-992.78l-176.84 -232.64 1274.09 546.11c1616.64,594.86 3128.96,609.15 4819.5,628.13l1015 -141.53c-22.51,132.9 -229.47,343.64 -305.84,484.06 -223.5,410.78 -462.38,1200.51 -360.55,1585.95 89.16,386.43 1322.65,-260.45 1451.1,-325.69 306.39,-155.62 791.3,139.23 1741.14,82.29 137.71,-249.67 273.55,-888.03 350.09,-1224.2 46.37,-203.66 91.33,-472.43 155.07,-658.39 122.83,-358.34 673.75,-314.77 1554.83,-861.32 214.91,-133.32 746.89,-552.27 827.93,-762.05 86.28,-211.16 113.95,-217.77 225.38,-362.96l688.69 -1073.33c968.8,-1887.94 1246.2,-3480.09 656.4,-5609.19 -158.37,-571.74 -393.09,-1123.27 -678.65,-1607.17 -498.28,-844.32 -813.59,-1185.38 -1534.35,-1878.68l-344.22 -304.54c-9.65,-7.27 -23.84,-17.27 -33.59,-24.33 -27.5,-19.96 -77.49,-51.64 -102.61,-69.5 -813.62,-578.52 -580.94,-443.79 -1423.61,-930.01l-209.5 -149.52c-224.44,-197.06 -1441.04,-514.28 -1910.04,-590.16 79.93,149.52 69.96,52.96 20.31,142.22l-456.54 7.08c17.93,7.87 75.89,47.16 92.04,59.51l58.44 51.77c9.1,6.87 21.35,19.81 31.02,26.41 173.61,118.63 571.42,199.84 803.77,205.02 -60.46,39.71 -111.78,79.13 -183.82,138.2z"/>
    <path class="fil6" d="M52692.65 52680.83c259.11,-810.14 915.35,-952.26 1014.36,-558.04 -216.4,167.97 -284.34,-36.61 -605.83,211.28 -147.23,113.53 -262.76,276.21 -408.53,346.76zm-1188.78 -107.42c-12.74,31.52 42.43,14.44 -89.22,44.04 -24.28,5.47 -145.36,23.25 -168.57,24.42 -178.75,8.97 -141.85,15.64 -295.58,-51.16l276.11 -57.24c858.33,-141.78 1178.18,-543.75 1553.9,-1048.81 600.27,-806.94 737.94,-1348.85 1339.07,-1280.46 -177.59,94.28 -217.48,48.74 -366.05,195.27 -107.18,105.7 -177.47,254.29 -258.05,389.19 -439.75,736.32 -1027.88,1798.3 -1991.61,1784.75zm-120.09 -3670.94c0,96.09 -28.37,87.76 55.08,62.14 635.54,471.44 1063.61,957.79 846.52,1850.53 -81.34,334.48 -217.63,518.43 -380.73,688.25l-1088.35 639.48c216.16,-3.3 270.85,-45.3 418.72,38.73 -125.5,77.09 -297.53,55.02 -350.3,117.61 -173.92,206.28 328.86,142.1 -124.31,169.31l76.54 57.49c24.23,15.16 103.49,59.15 113.55,64.7 -262.4,-23.92 -185.08,262.37 -186.81,531.75 -16.49,10.56 -58.41,33.99 -68.03,40.66l-67.62 47.5c-9.39,6.91 -22.99,19.19 -32.84,26.41 -116.06,85.03 -73.36,77.32 -233.21,119.95 181.29,174.72 220.61,171.05 225.98,471.12 -563.96,336.48 -1105.19,-157.03 -1538.43,-308.34 106.9,194.68 70.21,120.27 242.15,262.37 419.42,346.63 1386.76,1062.8 1913.69,1075.68 61.91,0.89 142.5,12.67 187.62,2.85 301.71,-65.67 117.87,-11.8 236.21,-122.49l-410.03 -3.64c743.71,121.28 799.3,-183.09 962.25,-243.23l927.09 -252.93c14.53,-5.18 29.73,-11.05 44.15,-16.3l522.48 -177.79c324.11,-135.55 144.24,-170.74 400.24,-241.18 424.25,-116.75 90.48,57.02 797.81,-198.39l52.23 -413.52c71.67,-457.52 -30.84,-1667.88 2.21,-2280.2 38.98,-721.71 143.99,-1379.21 279.51,-2077.51 -66.7,47.62 -28.31,18.6 -100.37,89.26 -9.23,9.07 -21.33,22.22 -30.72,31.7 -454.27,459.91 -1152.26,510.78 -1538.87,302.99 -794.87,-209.41 -905.1,-319.47 -1539.33,-625.79 -154.99,141.48 73.04,-13.54 -96.21,31.1l-74.03 14.2c-87.93,28.49 -15.55,-27.77 -98.44,42.94 -137.74,117.51 126.28,233.03 -345.4,182.59z"/>
    <path class="fil6" d="M56024.4 41930.01l159.48 -46.02c-110.28,410.3 -199.94,561.97 -405.96,898.41l-199.88 208.96c-199.42,129.29 -137.42,96.55 -405.87,17.97 102.68,-345.94 466.58,-634.68 643.28,-902.21 -332.84,96.34 -585.5,533.6 -747.22,832.05 -770.8,46.33 -1945.9,90.8 -2616.75,348.9l-639.53 143.16c35.64,-221.67 279.61,-566.82 447.24,-1169.92 5.97,-21.46 50.29,-183.86 51.29,-202.68 12.92,-241.51 54.66,-130.05 -74.54,-244.75 -174.44,130.19 -275.17,210.1 -426.49,348.78 -174.07,159.55 -287.65,178.72 -386.99,391.92 131.56,-59.63 122.34,-56.93 222.84,-143.52 156.64,-134.99 58.31,-96.2 258.5,-174.81 -76.24,305.84 -693.99,959.71 -852.62,1369.72 631.29,-73.31 1210.88,-149.28 1910.17,-132.91l-73.81 766.53 233.68 115.94 -293.72 64.68c425.45,22 349.54,-26.3 298.05,169.74 222.3,115.76 240.4,16.42 -150.7,140.96 -365.01,116.22 -702.71,279.66 -941.19,540.57l3694.25 -155.27 -79.08 159.12c-69.24,524.68 -232.04,375.43 -159.9,1062.2 48.02,457.26 5.05,543.67 10.67,847.82l74.14 289.76c8.9,18.18 21.94,39.35 37.87,54.84 56.51,-373.17 258.48,-761.65 421.49,-1083.64 90.26,-178.29 163.69,-327.84 259.56,-505.71 243.89,-452.42 572.23,-985.91 880.58,-1351.89 123.6,-146.7 222.38,-252.4 357.26,-409.01 133.02,-154.44 241.1,-264.39 344.65,-422.27 80.94,-262.82 23.78,-30.86 -42.91,-110.87 -239.45,-287.28 -1059.58,-248.91 -1397.72,-247.55 -32.34,-281.86 -60.21,14.42 206.8,-524.31l637.15 -1367.61c151.27,-352.57 121.67,-154.32 -5.27,-274.2 -238.23,53.66 -461.5,146.19 -666.6,257.34 -44.39,24.05 -111.58,66.95 -149.96,89.26 -294.48,171.02 -310.29,101.28 -432.24,350.52z"/>
    <path class="fil6" d="M47987.99 48770.27c627.16,-56.04 1159.95,-65.51 1789.06,19.59 155.09,20.96 1148.38,289.11 1095.5,427.85l-80.24 73.54c-4.67,-12.6 -28.9,18.37 -40.69,27.09l331.83 18.57c-35.66,108.38 -27.41,-14.17 -48.56,214.37 -137.45,-197.77 23.34,-79.17 -202.98,-154.3 -246.79,135.93 -52.89,56.29 -244.99,238.53 184.67,477.19 421.05,1243.61 -460.36,971.79l-62.11 72.24c-2.27,1.02 -14.77,4.49 -17.32,4.99l-44.47 -5.27c-229.43,-6.37 -115.31,-32.57 -201.19,51.89 -71.49,70.34 -83.49,153.82 -131.28,233.81 -72.43,121.23 22.7,-25.27 -73.8,104.86l-88.91 112.12c65.81,156.55 -150.62,152.88 177.16,142.77 -61.28,0.31 -214.65,-6.41 -265.45,0.5l-213.31 65.47c-10.34,-15.05 -34.59,15.39 -49.76,26.47 77.11,192.56 -13.43,46.07 141.29,140.35 3.63,2.22 136.41,32.47 147.25,36.06 -282.1,62.97 -1032.33,-10.31 -1335.65,-60.23 -734.91,-120.96 -856.06,-314.07 -1153.95,-389.36 329.54,639.11 1653.71,741.77 2524.77,725.62 3320.63,-61.54 2534.32,-2549.8 1197.18,-3063.35 -690.47,-265.18 -2038.19,-453.57 -2689.02,-35.97z"/>
    <path class="fil6" d="M61129.34 42428.76l32.18 34.55c388.05,-45.42 926.84,-185.17 1321.7,-260.91 1436.77,-275.62 2761.18,-133.05 4117.15,328.69 391.28,133.23 741.19,317.26 1071.98,513.78 514.17,305.47 1343.21,957.15 1699.52,1416.61 462.21,596.01 517.31,767.18 810.22,711.02 17.33,-209.86 -140.86,-405.31 -252.92,-563.07 -1244.21,-1751.5 -3903.25,-2781.81 -6101.56,-2708.79 -1555.16,51.64 -1581.77,282.49 -2698.27,528.12z"/>
    <path class="fil6" d="M49414.42 45425.87c45.17,-274.47 560.89,-1089.52 738.21,-1329.1 165.09,-223.06 240.08,-398.84 450.97,-611.6 230.5,-232.54 316.88,-354.27 492.7,-608.02 -289.99,150.47 -809.6,844.6 -1009.78,1148.48l-776.4 1313.54c103.97,207.38 -64.22,23.02 104.3,86.7z"/>
    <path class="fil6" d="M47357.55 50361.1c230.13,-6.45 261.35,-29.14 335.06,-260.01 53.1,-166.34 99.41,-396.22 -63.25,-466.45 -244.41,-105.51 -320.2,494.45 -271.81,726.46z"/>
    <path class="fil6" d="M48754.54 53204.76l-459.36 -1052.98c84.08,-124.34 -24.2,-30.39 142.44,-97.2l-272.99 -39.75c-203.27,-31.09 -54.81,-39.16 -109.93,97.91 210.34,470.44 375.56,779.25 699.84,1092.02z"/>
    <path class="fil6" d="M69953.71 49470.69c-104.75,0 -73.85,-24.42 -79.6,86.69l59.54 500.58c185.01,-64.89 281.07,-80.24 407.59,-226.74 -151.4,-134.42 -226.25,-159.55 -387.53,-360.53z"/>
   </g>
  </g>
 </g>
</svg>
