<?xml version="1.0" encoding="UTF-8" standalone="no"?>
<!-- Created with Inkscape (http://www.inkscape.org/) -->

<svg
   xmlns:dc="http://purl.org/dc/elements/1.1/"
   xmlns:cc="http://creativecommons.org/ns#"
   xmlns:rdf="http://www.w3.org/1999/02/22-rdf-syntax-ns#"
   xmlns:svg="http://www.w3.org/2000/svg"
   xmlns="http://www.w3.org/2000/svg"
   xmlns:sodipodi="http://sodipodi.sourceforge.net/DTD/sodipodi-0.dtd"
   xmlns:inkscape="http://www.inkscape.org/namespaces/inkscape"
   id="svg2"
   version="1.1"
   inkscape:version="0.91 r13725"
   xml:space="preserve"
   width="765"
   height="990"
   viewBox="0 0 765 990"
   sodipodi:docname="tarzania.svg"><metadata
     id="metadata8"><rdf:RDF><cc:Work
         rdf:about=""><dc:format>image/svg+xml</dc:format><dc:type
           rdf:resource="http://purl.org/dc/dcmitype/StillImage" /><dc:title></dc:title></cc:Work></rdf:RDF></metadata><defs
     id="defs6"><clipPath
       clipPathUnits="userSpaceOnUse"
       id="clipPath16"><path
         d="M 0,792 612,792 612,0 0,0 0,792 Z"
         id="path18"
         inkscape:connector-curvature="0" /></clipPath></defs><sodipodi:namedview
     pagecolor="#ffffff"
     bordercolor="#666666"
     borderopacity="1"
     objecttolerance="10"
     gridtolerance="10"
     guidetolerance="10"
     inkscape:pageopacity="0"
     inkscape:pageshadow="2"
     inkscape:window-width="1855"
     inkscape:window-height="1056"
     id="namedview4"
     showgrid="false"
     inkscape:zoom="0.33712566"
     inkscape:cx="1222.9485"
     inkscape:cy="425.14045"
     inkscape:window-x="65"
     inkscape:window-y="24"
     inkscape:window-maximized="1"
     inkscape:current-layer="g10" /><g
     id="g10"
     inkscape:groupmode="layer"
     inkscape:label="тарзания"
     transform="matrix(1.25,0,0,-1.25,0,990)"><g
       id="g12"
       transform="matrix(1.7042622,0,0,1.8895925,-227.36687,-372.71269)"><g
         id="g14"
         clip-path="url(#clipPath16)"><g
           id="g20"
           transform="translate(468.921,445.8166)"><path
             d="m 0,0 c 5.168,0.045 7.827,2.082 8.615,7.168 0.347,2.246 0.23,4.605 0.024,6.886 -0.233,2.571 -1.731,4.53 -4.098,5.497 -2.045,0.836 -4.223,1.501 -6.404,1.816 -3.374,0.489 -6.034,-0.881 -7.947,-3.785 -1.531,-2.324 -1.982,-4.815 -1.763,-7.531 C -11.192,5.34 -8.527,1.975 -3.986,0.729 -2.688,0.373 -1.33,0.237 0,0 m 22.136,22.707 c -1.338,-23.629 -5.338,-46.796 -12.04,-69.494 -0.75,-2.539 -1.198,-2.787 -3.797,-2.19 -3.345,0.768 -6.688,1.543 -10.026,2.339 -2.197,0.524 -2.491,1.003 -1.646,3.204 2.469,6.431 4.343,13.026 5.632,19.79 0.253,1.332 0.561,2.674 0.614,4.02 0.189,4.757 -3.917,7.357 -8.119,5.104 -1.088,-0.584 -2.055,-1.522 -2.865,-2.478 -5.219,-6.166 -8.884,-13.247 -11.97,-20.656 -0.399,-0.958 -0.754,-1.935 -1.156,-2.892 -0.391,-0.931 -0.996,-1.33 -2.081,-1.015 -3.448,1.001 -6.931,1.879 -10.371,2.906 -1.716,0.513 -1.992,1.14 -1.593,2.858 0.143,0.62 0.367,1.224 0.583,1.825 3.717,10.357 9.473,19.337 17.922,26.494 0.244,0.207 0.504,0.397 0.735,0.616 1.332,1.265 1.343,1.602 0.103,2.918 -0.713,0.755 -1.469,1.474 -2.139,2.266 -4.093,4.829 -5.599,10.471 -5.272,16.712 0.258,4.93 1.857,9.379 4.662,13.398 3.544,5.078 8.512,7.352 14.629,7.035 5.781,-0.299 11.337,-1.826 16.844,-3.493 2.901,-0.878 5.764,-1.886 8.633,-2.871 2.551,-0.875 2.891,-1.384 2.823,-4 -0.021,-0.8 -0.069,-1.598 -0.105,-2.396"
             style="fill:#231f20;fill-opacity:1;fill-rule:nonzero;stroke:none"
             id="path22"
             inkscape:connector-curvature="0" /></g><g
           id="g24"
           transform="translate(190.1353,402.2459)"><path
             d="m 0,0 c -0.84,-0.495 -1.471,-0.979 -2.182,-1.266 -3.697,-1.494 -7.413,-2.938 -11.123,-4.399 -0.149,-0.058 -0.296,-0.124 -0.45,-0.165 -2.873,-0.773 -4.18,-0.088 -5.057,2.772 -1.124,3.665 -2.226,7.338 -3.259,11.03 -2.606,9.314 -4.965,18.688 -6.099,28.316 -0.617,5.237 -1.061,10.493 -1.668,15.731 -0.201,1.737 -0.551,3.477 -1.042,5.154 -0.502,1.716 -1.181,2.052 -3.017,2.09 -2.942,0.061 -5.047,-1.307 -6.45,-3.805 -1.212,-2.159 -2.235,-4.432 -3.549,-6.524 -1.096,-1.746 -2.351,-3.442 -3.792,-4.908 -2.026,-2.061 -4.125,-1.473 -4.702,1.369 -1.026,5.055 -1.059,10.17 0.079,15.223 0.477,2.119 1.959,3.589 3.761,4.781 6.446,4.265 13.402,7.408 20.804,9.596 6.443,1.905 12.991,3.287 19.639,4.268 4.034,0.596 7.294,-0.6 9.758,-3.759 2.519,-3.231 4.534,-6.774 5.664,-10.751 1.207,-4.25 -0.539,-6.061 -4.797,-4.866 -1.676,0.47 -3.27,1.27 -4.855,2.019 -1.515,0.716 -2.945,1.612 -4.455,2.339 -3.667,1.764 -6.497,0.502 -7.503,-3.449 -0.41,-1.61 -0.71,-3.327 -0.62,-4.971 0.281,-5.099 0.629,-10.203 1.213,-15.275 C -12.202,27.517 -7.654,15.448 -1.78,3.821 -1.176,2.626 -0.647,1.394 0,0"
             style="fill:#231f20;fill-opacity:1;fill-rule:nonzero;stroke:none"
             id="path26"
             inkscape:connector-curvature="0" /></g><g
           id="g28"
           transform="translate(415.0044,409.8747)"><path
             d="m 0,0 c 0.343,1.154 0.548,2.059 0.878,2.915 3.314,8.598 5.667,17.474 7.684,26.447 0.245,1.09 0.463,2.195 0.569,3.306 0.13,1.369 -0.598,1.995 -1.891,1.598 C 6.579,34.063 5.892,33.678 5.416,33.184 0.147,27.713 -5.31,22.4 -10.228,16.627 -12.83,13.573 -14.526,9.732 -16.53,6.19 c -1.28,-2.263 -1.783,-2.663 -4.338,-2.436 -1.273,0.114 -2.554,0.24 -3.8,0.508 -1.835,0.395 -2.294,0.92 -2.164,2.816 0.379,5.5 0.692,11.013 1.34,16.484 1.114,9.409 3.937,18.421 6.836,27.4 0.171,0.532 0.37,1.055 0.557,1.582 0.393,1.112 1.151,1.734 2.357,1.608 2.144,-0.222 4.298,-0.406 6.418,-0.774 1.394,-0.243 1.743,-0.888 1.245,-2.27 -0.976,-2.705 -2.063,-5.37 -3.156,-8.03 -1.764,-4.295 -3.433,-8.614 -4.047,-13.258 -0.021,-0.158 -0.063,-0.314 -0.087,-0.472 -0.117,-0.783 -0.403,-1.667 0.493,-2.147 0.941,-0.505 1.655,0.045 2.303,0.726 3.75,3.939 7.491,7.888 11.275,11.795 2.726,2.815 5.582,5.508 8.256,8.37 3.043,3.256 7.146,2.511 10.508,1.516 1.522,-0.451 1.745,-1.974 1.707,-3.39 C 19.095,43.339 19.066,40.454 18.834,37.586 17.838,25.268 15.563,13.201 11.548,1.489 11.341,0.884 11.105,0.289 10.891,-0.313 10.572,-1.208 9.87,-1.574 9.007,-1.446 6.104,-1.017 3.21,-0.521 0,0"
             style="fill:#231f20;fill-opacity:1;fill-rule:nonzero;stroke:none"
             id="path30"
             inkscape:connector-curvature="0" /></g><g
           id="g32"
           transform="translate(364.9542,467.9039)"><path
             d="m 0,0 c -0.765,-1.613 -1.448,-3.11 -2.179,-4.582 -1.277,-2.572 -2.68,-5.087 -3.838,-7.71 -0.568,-1.288 -0.85,-2.75 -0.999,-4.162 -0.177,-1.688 0.521,-2.34 2.185,-2.436 0.318,-0.018 0.646,-0.022 0.958,0.031 4.185,0.715 8.278,-0.064 12.372,-0.773 2.721,-0.471 3.296,-0.016 3.315,2.766 0.031,4.397 -1.272,8.505 -2.773,12.563 -1.219,3.295 -1.041,3.709 2.478,3.912 1.812,0.104 3.675,-0.074 5.467,-0.397 1.862,-0.337 3.208,-1.518 3.471,-3.5 0.524,-3.955 1.138,-7.91 1.391,-11.886 0.689,-10.862 -0.825,-21.523 -3.32,-32.068 -0.88,-3.716 -1.305,-4.057 -5.006,-3.706 -1.745,0.165 -3.49,0.43 -5.203,0.798 -2.093,0.45 -2.777,1.652 -2.124,3.675 0.265,0.82 0.765,1.577 1.232,2.316 2.838,4.503 3.683,9.487 3.44,14.689 -0.121,2.605 -1.219,3.725 -3.885,3.957 -3.258,0.283 -6.534,0.447 -9.804,0.476 -2.914,0.027 -3.77,-0.673 -4.518,-3.592 -1.146,-4.469 -1.405,-8.983 -0.28,-13.518 0.288,-1.16 0.566,-2.338 0.664,-3.524 0.115,-1.398 -0.325,-1.963 -1.738,-2.043 -3.191,-0.18 -6.389,-0.268 -9.585,-0.285 -1.524,-0.008 -1.903,0.378 -1.955,2.092 -0.095,3.113 -0.268,6.251 0.006,9.342 1.032,11.642 2.909,23.137 6.626,34.267 0.202,0.606 0.381,1.22 0.588,1.824 0.725,2.115 2.232,3.403 4.434,3.427 C -5.72,1.985 -2.879,1.626 0,0"
             style="fill:#231f20;fill-opacity:1;fill-rule:nonzero;stroke:none"
             id="path34"
             inkscape:connector-curvature="0" /></g><g
           id="g36"
           transform="translate(329.0514,447.0413)"><path
             d="m 0,0 c 0.202,0.322 0.305,0.449 0.366,0.593 0.06,0.142 0.128,0.309 0.109,0.455 -0.653,4.995 -2.746,9.295 -6.376,12.786 -1.531,1.473 -2.877,1.463 -4.419,-0.024 -3.216,-3.103 -5.106,-6.891 -5.379,-11.393 -0.12,-1.976 0.351,-2.397 2.196,-1.868 3.965,1.137 7.875,0.812 11.79,-0.197 C -1.125,0.2 -0.521,0.106 0,0 m -27.34,-11.317 c 0.581,7.173 1.651,14.16 4.476,20.806 2.425,5.705 6.063,10.488 10.773,14.477 2.758,2.336 3.95,2.452 7.127,0.798 3.274,-1.705 5.749,-4.285 7.811,-7.282 4.794,-6.97 7.575,-14.721 8.903,-23.039 1.085,-6.803 0.757,-13.533 -0.924,-20.201 -0.555,-2.201 -0.711,-2.367 -2.889,-2.382 -2.392,-0.016 -4.796,-0.02 -7.174,0.197 -1.709,0.156 -1.911,0.553 -1.542,2.229 0.514,2.337 1.218,4.634 1.705,6.976 0.509,2.45 0.396,4.913 -0.141,7.371 -0.343,1.571 -1.214,2.531 -2.715,3.034 -3.806,1.274 -7.677,1.485 -11.574,0.615 -2.327,-0.519 -3.364,-1.946 -3.618,-4.75 -0.345,-3.806 0.305,-7.482 1.633,-11.048 0.223,-0.598 0.513,-1.171 0.731,-1.77 0.631,-1.729 0.363,-2.258 -1.392,-2.332 -2.633,-0.112 -5.273,-0.136 -7.91,-0.118 -1.468,0.011 -1.837,0.363 -2.04,2.353 -0.478,4.682 -0.835,9.376 -1.24,14.066"
             style="fill:#231f20;fill-opacity:1;fill-rule:nonzero;stroke:none"
             id="path38"
             inkscape:connector-curvature="0" /></g><g
           id="g40"
           transform="translate(198.3848,432.8188)"><path
             d="m 0,0 c 0.525,-0.091 0.697,-0.178 0.826,-0.135 4.669,1.566 9.334,3.144 14,4.718 1.357,0.457 1.487,0.626 1.071,2.082 -1.166,4.081 -3.6,7.254 -7.133,9.556 C 6.687,17.574 5.294,17.294 3.862,15.259 0.644,10.687 -0.145,5.501 0,0 m -9.748,-5.643 c 0.139,8.395 1.25,15.061 3.883,21.423 1.544,3.732 3.636,7.071 6.756,9.762 2.465,2.125 4.819,2.25 7.641,0.699 8.344,-4.588 14.094,-11.405 17.714,-20.109 3.137,-7.538 4.635,-15.433 4.911,-23.57 0.082,-2.41 -0.021,-2.474 -2.433,-2.882 -2.205,-0.373 -4.407,-0.761 -6.612,-1.132 -2.093,-0.352 -2.408,-0.014 -2.028,2.133 0.209,1.179 0.443,2.355 0.61,3.54 0.398,2.809 0.181,5.596 -0.575,8.316 -0.945,3.404 -2.591,4.498 -6.009,3.918 -3.874,-0.658 -7.212,-2.547 -10.249,-4.954 -1.465,-1.16 -1.804,-2.883 -1.367,-4.582 0.493,-1.919 1.25,-3.778 1.995,-5.622 0.508,-1.256 1.228,-2.424 1.789,-3.661 0.787,-1.735 0.633,-2.168 -1.246,-2.792 -2.194,-0.728 -4.46,-1.242 -6.653,-1.974 -1.338,-0.446 -2.068,-0.029 -2.709,1.143 -2.126,3.892 -3.681,7.996 -4.435,12.354 -0.543,3.141 -0.786,6.333 -0.983,7.99"
             style="fill:#231f20;fill-opacity:1;fill-rule:nonzero;stroke:none"
             id="path42"
             inkscape:connector-curvature="0" /></g><g
           id="g44"
           transform="translate(292.8484,444.7003)"><path
             d="m 0,0 c 0.759,-0.65 1.223,-1.068 1.708,-1.461 4.108,-3.336 5.717,-7.618 4.61,-12.784 -1.431,-6.683 -5.661,-10.798 -12.197,-12.466 -5.433,-1.386 -10.943,-1.336 -16.389,-0.025 -1.602,0.385 -3.191,1.096 -4.601,1.959 -3.237,1.979 -4.676,5.685 -3.863,9.353 0.328,1.48 1.029,2.008 2.559,1.844 0.952,-0.102 1.891,-0.326 2.843,-0.422 2.181,-0.221 4.013,-0.788 4.703,-3.269 0.342,-1.234 1.465,-1.875 2.771,-1.961 2.629,-0.172 5.265,-0.471 7.891,-0.41 3.648,0.086 6.049,1.988 6.795,4.993 0.858,3.459 -0.418,6.527 -3.428,8.459 -3.147,2.021 -6.449,2.019 -9.901,0.994 -3.606,-1.071 -3.759,-0.94 -3.836,2.774 -0.023,1.12 -0.038,2.242 0.021,3.359 0.102,1.933 0.439,2.149 2.361,1.971 2.38,-0.22 4.768,-0.487 7.151,-0.483 1.322,0.003 2.705,0.353 3.95,0.832 3.844,1.476 5.757,5.412 4.707,9.369 -0.437,1.648 -1.399,2.803 -2.949,3.56 -5.232,2.556 -11.587,0.982 -14.964,-3.774 -0.648,-0.912 -1.209,-1.884 -1.835,-2.812 -0.717,-1.062 -1.705,-1.33 -2.935,-1.026 -2.154,0.533 -3.925,2.555 -4.099,4.78 -0.201,2.577 0.829,4.687 2.576,6.476 2.58,2.643 5.733,4.3 9.298,5.19 6.535,1.632 12.833,1.063 18.864,-2.032 C 6.18,20.746 8.01,17.087 7.493,12.326 7.263,10.21 6.686,8.085 5.945,6.083 5.155,3.951 3.672,2.247 1.594,1.145 1.125,0.897 0.721,0.525 0,0"
             style="fill:#231f20;fill-opacity:1;fill-rule:nonzero;stroke:none"
             id="path46"
             inkscape:connector-curvature="0" /></g><g
           id="g48"
           transform="translate(237.6228,449.5453)"><path
             d="m 0,0 c -0.044,-0.004 -0.088,-0.007 -0.132,-0.011 0.249,-2.38 0.401,-4.777 0.779,-7.136 0.315,-1.969 1.582,-2.713 3.281,-1.855 4.645,2.346 8.233,5.802 9.955,10.811 1.025,2.98 -0.231,5.135 -3.179,6.217 C 8.152,8.962 5.664,8.479 3.207,7.672 1.261,7.032 0.202,5.598 0.02,3.59 -0.088,2.403 0,1.197 0,0 m 9.172,-33.817 c -0.66,-0.294 -1.071,-0.592 -1.515,-0.656 -3.161,-0.456 -6.325,-0.901 -9.497,-1.271 -1.461,-0.171 -1.763,0.138 -2.094,1.905 -0.955,5.103 -1.764,10.236 -2.841,15.313 -2.009,9.474 -2.963,19.096 -4.209,28.677 -0.349,2.676 0.275,3.945 2.808,4.817 2.174,0.748 4.453,1.42 6.727,1.599 4.772,0.375 9.571,0.51 14.359,0.515 1.626,0.002 3.335,-0.479 4.864,-1.093 3.744,-1.503 5.742,-4.423 6.184,-8.42 0.442,-4.004 -0.499,-7.729 -2.991,-10.816 -2.243,-2.78 -4.836,-5.305 -7.455,-7.749 -2.097,-1.958 -4.433,-3.669 -6.723,-5.41 -1.546,-1.175 -2.2,-2.635 -2.068,-4.562 0.173,-2.511 0.878,-4.859 1.907,-7.133 0.847,-1.874 1.673,-3.757 2.544,-5.716"
             style="fill:#231f20;fill-opacity:1;fill-rule:nonzero;stroke:none"
             id="path50"
             inkscape:connector-curvature="0" /></g><g
           id="g52"
           transform="translate(402.2127,388.9359)"><path
             d="M 0,0 C 2.019,3.755 2.954,6.898 2.405,8.182 1.977,8.289 1.472,8.416 0.987,8.538 -0.239,5.815 -1.4,3.237 -2.596,0.581 -1.798,0.403 -0.958,0.215 0,0 M 5.234,10.568 C 5.17,6.678 4.598,3.185 3.583,-0.334 4.178,-0.642 4.648,-0.884 5.362,-1.253 5.139,-2.465 4.903,-3.754 4.624,-5.272 c -1.062,0.118 -1.885,0.209 -2.91,0.322 0.274,0.843 0.478,1.474 0.78,2.401 -2.512,0.453 -4.882,0.881 -7.389,1.333 -0.17,-0.872 -0.3,-1.539 -0.472,-2.418 -0.73,0.136 -1.459,0.272 -2.349,0.438 0,1.119 -0.148,2.151 0.055,3.108 0.122,0.574 0.749,1.076 1.226,1.529 0.664,0.631 1.622,1.056 2.058,1.801 0.999,1.706 1.778,3.543 2.604,5.346 0.359,0.784 0.615,1.615 1.034,2.733 1.957,-0.247 3.879,-0.489 5.973,-0.753"
             style="fill:#231f20;fill-opacity:1;fill-rule:nonzero;stroke:none"
             id="path54"
             inkscape:connector-curvature="0" /></g><g
           id="g56"
           transform="translate(305.3205,394.6691)"><path
             d="m 0,0 -2.157,0 0,9.13 C -4.516,6.134 -5.45,3.076 -6.383,-0.179 c -0.775,-0.053 -1.533,-0.104 -2.489,-0.17 -1.011,4.454 -1.086,8.764 -0.497,13.273 0.805,0.077 1.481,0.142 2.341,0.224 0.072,-2.331 -0.784,-4.468 -0.248,-7.154 1.254,2.095 2.219,3.783 3.265,5.42 0.42,0.658 0.921,1.343 1.552,1.77 1.172,0.795 2.122,0.339 2.454,-1.019 C 0.672,9.399 0.709,3.121 0,0"
             style="fill:#231f20;fill-opacity:1;fill-rule:nonzero;stroke:none"
             id="path58"
             inkscape:connector-curvature="0" /></g><g
           id="g60"
           transform="translate(254.3074,391.0187)"><path
             d="M 0,0 C -0.761,-0.157 -1.446,-0.297 -2.298,-0.473 -2.53,2.544 -2.751,5.42 -2.971,8.296 -3.155,8.309 -3.338,8.322 -3.522,8.335 -5.293,5.586 -5.896,2.414 -6.491,-0.9 c -0.796,-0.119 -1.546,-0.232 -2.467,-0.37 -1.491,4.238 -1.974,8.463 -1.965,12.82 0.371,0.203 0.625,0.395 0.911,0.486 0.368,0.117 0.761,0.154 1.429,0.279 0.074,-2.288 0.144,-4.452 0.214,-6.615 0.143,-0.039 0.286,-0.077 0.429,-0.116 0.256,0.41 0.556,0.8 0.761,1.235 0.713,1.518 1.356,3.07 2.105,4.569 0.275,0.551 0.688,1.107 1.182,1.459 1.191,0.851 2.118,0.527 2.506,-0.914 C -0.344,8.062 0.243,4.13 0,0"
             style="fill:#231f20;fill-opacity:1;fill-rule:nonzero;stroke:none"
             id="path62"
             inkscape:connector-curvature="0" /></g><g
           id="g64"
           transform="translate(322.1561,394.6481)"><path
             d="m 0,0 -2.835,0 c -0.737,4.273 -0.471,8.303 0.378,12.301 0.293,1.38 0.776,1.47 3.152,0.923 -0.424,-1.502 -0.847,-3.005 -1.37,-4.86 1.753,0.185 3.189,0.337 4.9,0.518 -0.409,1.483 -0.779,2.822 -1.146,4.153 2.272,0.865 2.856,0.614 3.339,-1.63 C 7.218,7.691 7.162,3.962 6.393,-0.043 5.485,-0.121 4.528,-0.203 3.294,-0.308 3.697,1.171 4.054,2.287 4.301,3.426 4.736,5.429 4.363,6.228 3.018,6.395 1.27,6.612 -0.404,5.532 -0.47,3.934 -0.519,2.766 -0.205,1.583 0,0"
             style="fill:#231f20;fill-opacity:1;fill-rule:nonzero;stroke:none"
             id="path66"
             inkscape:connector-curvature="0" /></g><g
           id="g68"
           transform="translate(310.3613,402.4262)"><path
             d="M 0,0 C 1.76,-0.069 2.554,0.829 3.103,1.906 3.272,2.238 3.076,3.063 2.776,3.27 1.919,3.863 0.549,3.303 0.266,2.294 0.08,1.632 0.097,0.914 0,0 m 2.356,-1.539 c -1.302,-0.377 -2.399,-0.748 -2.225,-2.365 0.107,-1.001 0.538,-1.631 1.533,-1.799 0.939,-0.159 1.743,0.129 2.233,0.967 0.517,0.881 0.062,1.804 -1.541,3.197 m -4.344,7.042 c 1.9,0.028 3.653,0.23 5.363,0.036 C 5.898,5.254 6.667,3.06 5.109,0.983 4.875,0.671 4.602,0.388 4.28,0.013 4.916,-0.849 5.606,-1.617 6.107,-2.493 7.721,-5.317 6.415,-7.635 3.198,-7.704 1.538,-7.74 -0.123,-7.71 -1.853,-7.71 -2.961,-3.328 -2.716,0.839 -1.988,5.503"
             style="fill:#231f20;fill-opacity:1;fill-rule:nonzero;stroke:none"
             id="path70"
             inkscape:connector-curvature="0" /></g><g
           id="g72"
           transform="translate(339.1223,400.0492)"><path
             d="M 0,0 C -0.397,1.269 -0.638,2.617 -1.228,3.788 -2.017,5.354 -3.357,5.37 -4.384,3.919 -5.484,2.365 -5.848,0.563 -5.556,-1.285 -5.463,-1.873 -4.89,-2.574 -4.345,-2.87 -2.017,-4.134 -0.197,-2.857 0,0 m -2.527,-6.116 c -4.874,0.158 -6.787,2.613 -5.685,7.36 0.456,1.964 1.174,3.828 2.694,5.253 C -3.654,8.246 -1.399,8.23 0.109,6.232 2.107,3.586 3.127,0.62 2.141,-2.756 1.332,-5.528 0.401,-6.211 -2.527,-6.116"
             style="fill:#231f20;fill-opacity:1;fill-rule:nonzero;stroke:none"
             id="path74"
             inkscape:connector-curvature="0" /></g><g
           id="g76"
           transform="translate(380.172,396.9857)"><path
             d="m 0,0 c 0.078,0.02 0.156,0.041 0.233,0.061 -0.314,1.13 -0.482,2.329 -0.977,3.373 -0.66,1.393 -1.788,1.493 -2.858,0.362 -1.196,-1.264 -1.689,-2.859 -1.821,-4.555 -0.138,-1.766 0.799,-2.765 2.654,-2.944 1.643,-0.16 2.578,0.681 2.763,2.513 C 0.034,-0.797 0,-0.397 0,0 m -2.183,-6.552 c -0.242,0.02 -0.642,0.046 -1.039,0.09 -3.975,0.437 -5.535,2.361 -4.902,6.309 0.414,2.58 1.468,4.916 3.631,6.548 1.933,1.458 3.91,1.293 5.228,-0.658 C 2.809,2.668 3.589,-0.669 1.901,-4.23 0.928,-6.284 0.255,-6.672 -2.183,-6.552"
             style="fill:#231f20;fill-opacity:1;fill-rule:nonzero;stroke:none"
             id="path78"
             inkscape:connector-curvature="0" /></g><g
           id="g80"
           transform="translate(361.9361,398.5832)"><path
             d="M 0,0 C -0.329,1.215 -0.511,2.495 -1.022,3.628 -1.759,5.261 -3.067,5.383 -4.161,4.001 -5.285,2.581 -5.717,0.881 -5.732,-0.901 -5.74,-1.843 -5.233,-2.514 -4.346,-2.939 -1.934,-4.093 -0.195,-2.902 0,0 m -2.158,-6.171 c -0.558,0.038 -1.119,0.052 -1.673,0.121 -3.502,0.436 -5.044,2.389 -4.586,5.928 0.346,2.681 1.263,5.135 3.457,6.887 1.845,1.474 3.86,1.33 5.242,-0.567 C 2.48,3.182 3.216,-0.163 1.729,-3.748 0.894,-5.76 0.034,-6.248 -2.158,-6.171"
             style="fill:#231f20;fill-opacity:1;fill-rule:nonzero;stroke:none"
             id="path82"
             inkscape:connector-curvature="0" /></g><g
           id="g84"
           transform="translate(217.4517,392.3734)"><path
             d="M 0,0 C -0.363,1.426 -0.954,2.439 -2.371,2.915 -3.83,1.837 -4.128,0.411 -3.98,-1.373 -2.578,-0.889 -1.334,-0.46 0,0 m -2.279,-8.026 c -1.053,-0.229 -1.883,-0.41 -2.601,-0.567 -2.665,2.809 -2.32,9.969 0.278,12.955 1.434,1.649 2.047,1.775 3.821,0.433 C 2.977,1.95 3.806,-2.083 3.831,-6.667 2.914,-6.887 2.098,-7.083 1.024,-7.341 c 0,1.311 0.104,2.414 -0.026,3.488 -0.156,1.28 -0.793,1.626 -2.006,1.321 -2.274,-0.573 -2.851,-1.7 -1.971,-3.864 0.178,-0.439 0.374,-0.872 0.7,-1.63"
             style="fill:#231f20;fill-opacity:1;fill-rule:nonzero;stroke:none"
             id="path86"
             inkscape:connector-curvature="0" /></g><g
           id="g88"
           transform="translate(438.5092,385.9097)"><path
             d="M 0,0 C 1.65,-0.166 2.891,-0.291 4.229,-0.426 4.618,0.953 4.6,2.295 3.502,2.915 2.312,3.588 1.513,2.353 0.794,1.531 0.506,1.202 0.373,0.738 0,0 m 5.029,-8.129 c -0.924,0.127 -1.398,0.155 -1.851,0.265 -0.377,0.091 -0.73,0.278 -1.169,0.452 0.523,1.052 1.108,1.987 1.461,3.002 0.4,1.15 -0.061,1.802 -1.242,2.114 -2.198,0.582 -3.326,-0.232 -3.494,-2.513 -0.039,-0.542 -0.107,-1.081 -0.185,-1.857 -0.953,0.27 -1.762,0.499 -2.512,0.712 C -4.6,-1.57 -1.758,3.772 2.006,5.461 3.987,6.35 4.604,6.164 5.638,4.217 6.756,2.11 7.21,-0.133 6.627,-2.484 6.173,-4.316 5.603,-6.119 5.029,-8.129"
             style="fill:#231f20;fill-opacity:1;fill-rule:nonzero;stroke:none"
             id="path90"
             inkscape:connector-curvature="0" /></g><g
           id="g92"
           transform="translate(267.0337,402.9925)"><path
             d="m 0,0 c -1.933,-1.282 -2.102,-1.624 -1.949,-3.928 1.225,0.265 2.433,0.527 3.691,0.799 C 1.834,-1.589 1.167,-0.65 0,0 m -1.165,-10.876 c -1.114,-0.08 -1.959,-0.14 -2.737,-0.196 -2.047,3.852 -1.297,9.759 1.515,12.675 1.56,1.618 2.381,1.653 4.046,0.152 1.663,-1.498 2.608,-3.39 3.095,-5.556 0.463,-2.051 0.525,-4.096 0.169,-6.307 -0.86,-0.109 -1.691,-0.215 -2.736,-0.348 0.151,1.172 0.351,2.095 0.373,3.022 0.041,1.737 -0.758,2.301 -2.427,1.817 -2.181,-0.632 -2.527,-1.281 -1.859,-3.491 0.136,-0.451 0.285,-0.899 0.561,-1.768"
             style="fill:#231f20;fill-opacity:1;fill-rule:nonzero;stroke:none"
             id="path94"
             inkscape:connector-curvature="0" /></g><g
           id="g96"
           transform="translate(209.7659,383.2488)"><path
             d="m 0,0 c -0.872,-0.318 -1.666,-0.607 -2.822,-1.028 -0.184,1.218 -0.33,2.2 -0.481,3.181 -0.327,2.128 -0.666,4.255 -0.98,6.385 -0.159,1.079 -0.341,2.105 -1.776,2.082 -1.442,-0.023 -2.987,-1.241 -3.062,-2.526 -0.036,-0.622 0.076,-1.284 0.266,-1.881 0.799,-2.5 1.653,-4.981 2.493,-7.487 -2.194,-1.308 -2.935,-1.171 -3.488,1.176 -0.727,3.091 -1.161,6.252 -1.695,9.387 -0.209,1.232 0.361,1.963 1.57,2.257 1.548,0.377 3.082,0.806 4.628,1.187 1.068,0.263 1.879,-0.087 2.376,-1.096 C -1.189,8.016 -0.184,4.204 0,0"
             style="fill:#231f20;fill-opacity:1;fill-rule:nonzero;stroke:none"
             id="path98"
             inkscape:connector-curvature="0" /></g><g
           id="g100"
           transform="translate(232.3951,401.1673)"><path
             d="m 0,0 c 0.983,0.143 1.735,0.253 2.579,0.376 0.17,-1.886 0.322,-3.581 0.507,-5.631 1.657,1.512 2.056,3.14 2.515,4.731 C 6.066,1.089 6.052,1.093 8.22,1.084 8.395,-0.255 7.686,-1.341 7.192,-2.477 6.401,-4.298 6.383,-4.308 7.789,-5.736 c 1.613,-1.639 2.717,-3.49 2.723,-6.11 -0.914,-0.124 -1.735,-0.234 -2.583,-0.349 -0.805,2.051 -1.062,4.204 -2.983,5.498 -2.509,-1.907 0.226,-3.86 -0.247,-5.97 -0.814,-0.154 -1.7,-0.322 -2.712,-0.513 C 0.427,-8.897 -0.094,-4.676 0,0"
             style="fill:#231f20;fill-opacity:1;fill-rule:nonzero;stroke:none"
             id="path102"
             inkscape:connector-curvature="0" /></g><g
           id="g104"
           transform="translate(273.6772,406.29)"><path
             d="m 0,0 c 0.935,0.068 1.695,0.124 2.603,0.19 l 0,-5.591 c 2.087,1.608 2.456,3.791 3.306,5.824 l 2.163,0 C 8.23,-1.701 6.367,-3.005 6.045,-4.958 7.854,-7.068 9.56,-9.272 9.442,-12.564 8.575,-12.668 7.759,-12.766 6.835,-12.877 6.145,-10.802 5.987,-8.655 4.461,-7.069 3.08,-7.53 2.887,-8.519 3.057,-9.576 3.219,-10.583 3.576,-11.559 3.886,-12.689 3.221,-12.905 2.725,-13.105 2.21,-13.225 1.145,-13.474 0.58,-13.056 0.382,-11.943 -0.31,-8.07 -0.649,-4.195 0,0"
             style="fill:#231f20;fill-opacity:1;fill-rule:nonzero;stroke:none"
             id="path106"
             inkscape:connector-curvature="0" /></g><g
           id="g108"
           transform="translate(431.7937,387.7501)"><path
             d="m 0,0 c 0.377,-1.611 0.829,-3.068 1.043,-4.558 0.382,-2.665 -0.292,-3.133 -2.845,-2.145 -0.152,1.694 -0.306,3.396 -0.48,5.323 -1.953,-0.389 -2.472,-1.759 -3.142,-2.963 -0.832,-1.495 -0.826,-1.498 -2.766,-0.764 0.501,2.541 1.165,3.516 4.138,5.997 -0.13,0.456 -0.3,0.968 -0.419,1.491 -0.229,1.007 -0.561,2.013 -0.616,3.031 -0.132,2.454 0.321,2.706 2.855,1.688 0.413,-1.542 -0.642,-3.441 0.837,-4.982 1.63,0.935 1.656,2.72 2.46,4.14 C 1.775,6.104 2.443,5.959 3.078,5.821 3.12,3.423 3.044,3.282 0,0"
             style="fill:#231f20;fill-opacity:1;fill-rule:nonzero;stroke:none"
             id="path110"
             inkscape:connector-curvature="0" /></g><g
           id="g112"
           transform="translate(224.7023,393.4772)"><path
             d="M 0,0 C 0.21,-0.091 0.42,-0.183 0.63,-0.274 1.421,0.56 2.348,1.306 2.97,2.252 3.73,3.41 3.001,4.513 1.633,4.516 0.446,4.519 -0.292,3.825 -0.278,2.576 -0.268,1.716 -0.098,0.859 0,0 M 2.115,-6.781 C 1.052,-7.017 0.209,-7.204 -0.73,-7.412 -0.974,-6.906 -1.274,-6.514 -1.353,-6.081 -1.978,-2.631 -2.587,0.822 -3.146,4.283 -3.38,5.73 -3.103,6.189 -1.68,6.461 -0.279,6.728 1.169,6.922 2.589,6.882 5.525,6.798 6.835,4.452 5.354,1.871 4.737,0.795 3.772,-0.12 2.84,-0.971 0.742,-2.89 0.712,-2.854 1.775,-5.634 1.888,-5.929 1.956,-6.241 2.115,-6.781"
             style="fill:#231f20;fill-opacity:1;fill-rule:nonzero;stroke:none"
             id="path114"
             inkscape:connector-curvature="0" /></g><g
           id="g116"
           transform="translate(413.9117,390.9499)"><path
             d="m 0,0 c -1.057,-0.042 -2.009,-1.11 -2.017,-2.265 -0.009,-1.183 1.138,-2.151 2.437,-2.056 1.166,0.085 1.925,1.059 1.821,2.336 C 2.145,-0.809 1.18,0.046 0,0 M -1.308,1.936 C -0.379,1.851 0.166,1.829 0.703,1.748 2.98,1.405 4.443,-0.011 4.856,-2.246 5.346,-4.897 3.31,-6.952 0.641,-6.457 c -1.7,0.315 -3.385,0.706 -5.089,1.065 -0.354,2.975 0.327,5.599 0.934,8.225 0.215,0.928 0.531,1.835 0.828,2.742 0.767,2.342 1.361,2.537 3.639,1.154 C 0.241,5.22 -0.48,3.691 -1.308,1.936"
             style="fill:#231f20;fill-opacity:1;fill-rule:nonzero;stroke:none"
             id="path118"
             inkscape:connector-curvature="0" /></g><g
           id="g120"
           transform="translate(390.4695,388.9658)"><path
             d="m 0,0 c -1.09,0.129 -1.992,0.236 -2.949,0.349 -0.42,1.999 -0.184,3.799 0.2,5.585 0.38,1.762 0.815,3.513 1.32,5.671 -1.548,-0.514 -2.712,-0.901 -3.881,-1.289 -0.092,2.433 0.446,3.327 2.563,3.432 1.899,0.094 3.849,-0.052 5.719,-0.4 C 5.158,12.941 5.445,11.345 3.707,9.522 3.106,9.977 2.492,10.441 1.651,11.078 -0.575,7.655 -0.211,3.934 0,0"
             style="fill:#231f20;fill-opacity:1;fill-rule:nonzero;stroke:none"
             id="path122"
             inkscape:connector-curvature="0" /></g><g
           id="g124"
           transform="translate(291.3476,394.1749)"><path
             d="M 0,0 C -1.076,-0.096 -1.979,-0.176 -3.024,-0.269 -4.35,3.342 -3.79,6.932 -3.738,10.552 -5.279,10.941 -6.01,9.507 -7.149,9.155 c -0.764,1.979 -0.517,3.095 1.208,3.553 2.057,0.546 4.227,0.895 6.351,0.905 2.179,0.011 2.63,-1.411 1.24,-3.493 -0.675,0.328 -1.363,0.661 -2.298,1.115 C -2.185,7.383 -0.902,3.823 0,0"
             style="fill:#231f20;fill-opacity:1;fill-rule:nonzero;stroke:none"
             id="path126"
             inkscape:connector-curvature="0" /></g><g
           id="g128"
           transform="translate(346.4456,393.912)"><path
             d="m 0,0 -2.803,0 c -0.405,2.969 -0.079,5.814 0.18,8.651 0.101,1.109 0.383,2.201 0.555,3.305 0.174,1.117 0.866,1.619 1.927,1.802 C 1.751,14.084 4.103,13.66 6.27,12.469 5.844,11.748 5.421,11.034 4.968,10.27 4.408,10.435 4.035,10.537 3.666,10.654 1.304,11.401 0.262,10.815 0.128,8.407 -0.01,5.946 0.078,3.472 0.062,1.003 0.06,0.7 0.025,0.397 0,0"
             style="fill:#231f20;fill-opacity:1;fill-rule:nonzero;stroke:none"
             id="path130"
             inkscape:connector-curvature="0" /></g><g
           id="g132"
           transform="translate(425.1964,395.9117)"><path
             d="m 0,0 c -2.156,-4.194 -2.781,-8.491 -3.132,-12.977 -1.023,0.213 -1.773,0.37 -2.706,0.564 -0.045,4.536 0.982,8.711 2.977,12.952 C -2.006,0.378 -1.198,0.226 0,0"
             style="fill:#231f20;fill-opacity:1;fill-rule:nonzero;stroke:none"
             id="path134"
             inkscape:connector-curvature="0" /></g><g
           id="g136"
           transform="translate(468.921,445.8166)"><path
             d="m 0,0 c -1.33,0.237 -2.688,0.373 -3.986,0.729 -4.541,1.246 -7.206,4.611 -7.587,9.322 -0.219,2.716 0.232,5.207 1.763,7.531 1.913,2.904 4.573,4.274 7.947,3.785 2.181,-0.315 4.359,-0.98 6.404,-1.816 C 6.908,18.584 8.406,16.625 8.639,14.054 8.845,11.773 8.962,9.414 8.615,7.168 7.827,2.082 5.168,0.045 0,0"
             style="fill:#ffffff;fill-opacity:1;fill-rule:nonzero;stroke:none"
             id="path138"
             inkscape:connector-curvature="0" /></g><g
           id="g140"
           transform="translate(329.0514,447.0413)"><path
             d="m 0,0 c -0.521,0.106 -1.125,0.2 -1.713,0.352 -3.915,1.009 -7.825,1.334 -11.79,0.197 -1.845,-0.529 -2.316,-0.108 -2.196,1.868 0.273,4.502 2.163,8.29 5.379,11.393 1.542,1.487 2.888,1.497 4.419,0.024 C -2.271,10.343 -0.178,6.043 0.475,1.048 0.494,0.902 0.426,0.735 0.366,0.593 0.305,0.449 0.202,0.322 0,0"
             style="fill:#ffffff;fill-opacity:1;fill-rule:nonzero;stroke:none"
             id="path142"
             inkscape:connector-curvature="0" /></g><g
           id="g144"
           transform="translate(198.3848,432.8188)"><path
             d="m 0,0 c -0.145,5.501 0.644,10.687 3.862,15.259 1.432,2.035 2.825,2.315 4.902,0.962 3.533,-2.302 5.967,-5.475 7.133,-9.556 C 16.313,5.209 16.183,5.04 14.826,4.583 10.16,3.009 5.495,1.431 0.826,-0.135 0.697,-0.178 0.525,-0.091 0,0"
             style="fill:#ffffff;fill-opacity:1;fill-rule:nonzero;stroke:none"
             id="path146"
             inkscape:connector-curvature="0" /></g><g
           id="g148"
           transform="translate(237.6228,449.5453)"><path
             d="M 0,0 C 0,1.197 -0.088,2.403 0.02,3.59 0.202,5.598 1.261,7.032 3.207,7.672 5.664,8.479 8.152,8.962 10.704,8.026 13.652,6.944 14.908,4.789 13.883,1.809 12.161,-3.2 8.573,-6.656 3.928,-9.002 2.229,-9.86 0.962,-9.116 0.647,-7.147 0.269,-4.788 0.117,-2.391 -0.132,-0.011 -0.088,-0.007 -0.044,-0.004 0,0"
             style="fill:#ffffff;fill-opacity:1;fill-rule:nonzero;stroke:none"
             id="path150"
             inkscape:connector-curvature="0" /></g><g
           id="g152"
           transform="translate(402.2127,388.9359)"><path
             d="M 0,0 C -0.958,0.215 -1.798,0.403 -2.596,0.581 -1.4,3.237 -0.239,5.815 0.987,8.538 1.472,8.416 1.977,8.289 2.405,8.182 2.954,6.898 2.019,3.755 0,0"
             style="fill:#ffffff;fill-opacity:1;fill-rule:nonzero;stroke:none"
             id="path154"
             inkscape:connector-curvature="0" /></g><g
           id="g156"
           transform="translate(312.7168,400.8868)"><path
             d="M 0,0 C 1.603,-1.393 2.058,-2.316 1.542,-3.197 1.051,-4.034 0.247,-4.323 -0.691,-4.164 -1.686,-3.996 -2.118,-3.365 -2.225,-2.365 -2.398,-0.748 -1.301,-0.377 0,0"
             style="fill:#ffffff;fill-opacity:1;fill-rule:nonzero;stroke:none"
             id="path158"
             inkscape:connector-curvature="0" /></g><g
           id="g160"
           transform="translate(310.3613,402.4262)"><path
             d="M 0,0 C 0.097,0.914 0.08,1.632 0.266,2.294 0.549,3.303 1.919,3.863 2.776,3.27 3.076,3.063 3.272,2.238 3.103,1.906 2.554,0.829 1.76,-0.069 0,0"
             style="fill:#ffffff;fill-opacity:1;fill-rule:nonzero;stroke:none"
             id="path162"
             inkscape:connector-curvature="0" /></g><g
           id="g164"
           transform="translate(339.1223,400.0492)"><path
             d="m 0,0 c -0.197,-2.857 -2.017,-4.134 -4.345,-2.87 -0.545,0.296 -1.118,0.997 -1.211,1.585 -0.292,1.848 0.072,3.65 1.172,5.204 1.027,1.451 2.367,1.435 3.156,-0.131 C -0.638,2.617 -0.397,1.269 0,0"
             style="fill:#ffffff;fill-opacity:1;fill-rule:nonzero;stroke:none"
             id="path166"
             inkscape:connector-curvature="0" /></g><g
           id="g168"
           transform="translate(380.172,396.9857)"><path
             d="m 0,0 c 0,-0.397 0.034,-0.797 -0.006,-1.19 -0.185,-1.832 -1.12,-2.673 -2.763,-2.513 -1.855,0.179 -2.792,1.178 -2.654,2.944 0.132,1.696 0.625,3.291 1.821,4.555 1.07,1.131 2.198,1.031 2.858,-0.362 C -0.249,2.39 -0.081,1.191 0.233,0.061 0.156,0.041 0.078,0.02 0,0"
             style="fill:#ffffff;fill-opacity:1;fill-rule:nonzero;stroke:none"
             id="path170"
             inkscape:connector-curvature="0" /></g><g
           id="g172"
           transform="translate(361.9361,398.5832)"><path
             d="m 0,0 c -0.195,-2.902 -1.934,-4.093 -4.346,-2.939 -0.887,0.425 -1.394,1.096 -1.386,2.038 0.015,1.782 0.447,3.482 1.571,4.902 1.094,1.382 2.402,1.26 3.139,-0.373 C -0.511,2.495 -0.329,1.215 0,0"
             style="fill:#ffffff;fill-opacity:1;fill-rule:nonzero;stroke:none"
             id="path174"
             inkscape:connector-curvature="0" /></g><g
           id="g176"
           transform="translate(217.4517,392.3734)"><path
             d="m 0,0 c -1.334,-0.46 -2.578,-0.889 -3.98,-1.373 -0.148,1.784 0.15,3.21 1.609,4.288 C -0.954,2.439 -0.363,1.426 0,0"
             style="fill:#ffffff;fill-opacity:1;fill-rule:nonzero;stroke:none"
             id="path178"
             inkscape:connector-curvature="0" /></g><g
           id="g180"
           transform="translate(438.5092,385.9097)"><path
             d="M 0,0 C 0.373,0.738 0.506,1.202 0.794,1.531 1.513,2.353 2.312,3.588 3.502,2.915 4.6,2.295 4.618,0.953 4.229,-0.426 2.891,-0.291 1.65,-0.166 0,0"
             style="fill:#ffffff;fill-opacity:1;fill-rule:nonzero;stroke:none"
             id="path182"
             inkscape:connector-curvature="0" /></g><g
           id="g184"
           transform="translate(267.0337,402.9925)"><path
             d="M 0,0 C 1.167,-0.65 1.834,-1.589 1.742,-3.129 0.484,-3.401 -0.724,-3.663 -1.949,-3.928 -2.102,-1.624 -1.933,-1.282 0,0"
             style="fill:#ffffff;fill-opacity:1;fill-rule:nonzero;stroke:none"
             id="path186"
             inkscape:connector-curvature="0" /></g><g
           id="g188"
           transform="translate(224.7023,393.4772)"><path
             d="M 0,0 C -0.098,0.859 -0.268,1.716 -0.278,2.576 -0.292,3.825 0.446,4.519 1.633,4.516 3.001,4.513 3.73,3.41 2.97,2.252 2.348,1.306 1.421,0.56 0.63,-0.274 0.42,-0.183 0.21,-0.091 0,0"
             style="fill:#ffffff;fill-opacity:1;fill-rule:nonzero;stroke:none"
             id="path190"
             inkscape:connector-curvature="0" /></g><g
           id="g192"
           transform="translate(413.9117,390.9499)"><path
             d="M 0,0 C 1.18,0.046 2.145,-0.809 2.241,-1.985 2.345,-3.262 1.586,-4.236 0.42,-4.321 -0.879,-4.416 -2.026,-3.448 -2.017,-2.265 -2.009,-1.11 -1.057,-0.042 0,0"
             style="fill:#ffffff;fill-opacity:1;fill-rule:nonzero;stroke:none"
             id="path194"
             inkscape:connector-curvature="0" /></g></g></g></g></svg>