<?xml version="1.0" encoding="UTF-8"?>
<!DOCTYPE svg PUBLIC "-//W3C//DTD SVG 1.1//EN" "http://www.w3.org/Graphics/SVG/1.1/DTD/svg11.dtd">
<!-- Creator: CorelDRAW 2017 -->
<svg xmlns="http://www.w3.org/2000/svg" xml:space="preserve" width="1050mm" height="1050mm" version="1.1" style="shape-rendering:geometricPrecision; text-rendering:geometricPrecision; image-rendering:optimizeQuality; fill-rule:evenodd; clip-rule:evenodd"
viewBox="0 0 105000 105000"
 xmlns:xlink="http://www.w3.org/1999/xlink">
 <defs>
  <style type="text/css">
   <![CDATA[
    .fil1 {fill:#BDBDBD}
    .fil2 {fill:#FA2A05}
    .fil0 {fill:white}
   ]]>
  </style>
 </defs>
 <g id="Layer_x0020_1">
  <metadata id="CorelCorpID_0Corel-Layer"/>
  <g id="_1076583792">
   <g>
    <path class="fil0" d="M63012.03 45613.55c-333.15,91.2 -604.39,-27.31 -1154.96,628.27 -1080.87,1286.99 -815.56,5463.5 1796.63,4773.66 1315.01,-347.26 1769.55,-1998.47 1618.82,-3075.16l-85.03 -789.79c-3.58,-13.1 -88.38,-208.92 -95.1,-224.26 -79.65,-182.16 -85.08,-220.02 -177.55,-387.61l-1427.51 -1026.55c-310.51,-18.04 -470.4,100.1 -475.3,101.44z"/>
    <path class="fil0" d="M22753.37 49362.98c1707.25,9.63 926.04,104.48 2101.2,-150.29 354.36,-76.81 832.53,-548.97 992.63,-884.89 374.38,-785.5 630.22,-2246.02 -230.7,-3215.22 -405.36,-456.37 -671.68,-481.15 -1157.22,-678.01 -18.31,-7.42 -39.31,-17.35 -57.35,-24.79 -474.15,-195.28 -1031.12,-122.87 -1649.07,-106.86l0.51 5060.06z"/>
    <path class="fil0" d="M56900.97 48302.78l-455.56 232.09c-236.22,75.72 -435.43,134.21 -681.75,163.27 -830.49,98.01 -2713.76,188.58 -2450.88,1609.07 202.86,1096.31 2558.28,1285.01 3386.34,-222.73l132.64 -272.02c130.26,-322.87 69.21,-1088.08 69.21,-1509.68z"/>
    <path class="fil0" d="M69613.25 47570.16l3993.5 -0.02c-49.11,-484.85 -241.37,-1093.81 -588.61,-1451.49 -375.49,-386.81 -675.42,-602.26 -1449.78,-592.42 -842.53,10.69 -1490.67,514.92 -1808.68,1260.29 -7.56,17.74 -16.47,39.5 -23.84,57.45 -144.47,351.77 -125.44,300.41 -122.59,726.19z"/>
    <path class="fil0" d="M104654.67 50992.82l0 -5379.27 -1141.27 0 -0.03 5134.39c299.91,350.66 526.31,244.88 1141.3,244.88z"/>
    <path class="fil0" d="M27736.37 62066.68c117.16,-38.94 1641.6,6.38 1373.5,-1247.67l-190.85 -358.12c-17.03,-22.27 -127.89,-151.19 -142.28,-165.65 -363.34,-365.17 -435.8,-71.87 -1020.72,-228.99 88.64,426.42 94.39,1590.2 -19.65,2000.43z"/>
    <path class="fil0" d="M18843.54 60933.97c-3.63,3.24 -128.23,77.78 -185.34,134.24 -197.45,195.24 -195.84,434.69 -100.09,668.26l264.36 352.23c292.4,194.55 389.6,22.31 390.57,21.62 626.89,-434.49 88.06,-1582.97 -369.5,-1176.35z"/>
    <path class="fil0" d="M1567.72 62182.97c698.42,-112.06 744.42,-761.91 581.82,-1031.37 -190.21,-315.22 -526.94,-388.22 -719.06,-195.8 -46.2,46.27 -164.06,351.26 -175.88,427.79 -65.38,423.24 197.71,597.05 313.12,799.38z"/>
    <path class="fil0" d="M16643.26 56207.46c-194.18,165.12 -346.43,441.67 -213.95,824.67 280.43,810.83 1042.76,274.68 851.44,-535.18 -69.28,-293.3 -370.43,-516.54 -637.49,-289.49z"/>
    <path class="fil0" d="M24221.98 56207.46c-191.85,170.5 -402.13,307.09 -224.95,841.65 15.27,46.08 199.28,272.09 275.61,323.28 341.88,229.25 294.2,32.16 358.44,-24.04 338.07,-295.73 353.84,-905.2 -51.65,-1161.93 -224.03,-141.84 -252.51,-72.21 -357.45,21.04z"/>
    <path class="fil0" d="M11590.78 56207.46c-226.08,114.28 -206.4,-34.07 -301.13,230.08 -122.61,341.88 134.37,1262.78 581.5,946.03 405.63,-287.38 380.87,-999.72 77.75,-1200.41 -288.77,-191.2 -349.32,19.87 -358.12,24.3z"/>
    <path class="fil0" d="M5716.13 60876.18c-2.22,0.76 -120.86,65.63 -171.84,116.77l-68.77 80.92c-7.97,12.03 -21.62,32.34 -28.37,45.48 -70.78,137.93 -36.36,7.58 -58.88,232.09 -2.77,27.58 -0.62,213.1 4.83,234.88l105.5 169.53c28.41,42.97 60.08,112.84 128.34,165.05 701.76,536.54 994.18,-1360.08 89.19,-1044.72z"/>
    <path class="fil0" d="M8005.15 62075.69l0.19 81.48c694.64,0 219.1,-15.02 652.55,-244.89l-0.11 -244.88c-755.26,-10.16 -813.84,297.2 -652.63,408.29z"/>
    <path class="fil0" d="M26468.73 56452.34l937.07 -4.18c19.22,-200.55 20.98,-73.18 -131.39,-196.28 -415.8,-335.92 -544.95,0.12 -805.68,200.46z"/>
    <path class="fil0" d="M16072.83 61179.27l815.73 -0.07 -176.11 -279.48c-207.28,-177.39 -623.24,75.6 -639.62,279.55z"/>
    <path class="fil0" d="M31963.69 61097.38l0.14 81.89 815.59 -0.07 -255.67 -316.77c-505.87,-9.93 -238.97,64.68 -560.06,234.95z"/>
    <path class="fil0" d="M13872.55 56370.85l0.12 81.91 815.61 -0.09 -255.69 -316.75c-505.87,-9.93 -238.97,64.68 -560.04,234.93z"/>
    <path class="fil0" d="M36445.74 61097.38l815.73 81.82c-15.39,-44.56 -73.6,-179.04 -76.21,-182.6l-65.05 -69.9c-281.29,-273.55 -570.29,115.43 -674.47,170.68z"/>
    <path class="fil0" d="M18925.03 56370.85l815.73 81.82 -176.11 -279.47c-260.38,-222.84 -537.15,143.32 -639.62,197.65z"/>
   </g>
   <g>
    <path class="fil1" d="M39298.77 52214.37l1547.93 0c-0.41,-941.25 -104.2,-2645.57 -2.96,-3494.43 59.97,-502.75 1371.8,-1228.87 1632.78,-1721.04 198.75,374.8 631.44,856.99 881.52,1221.5l2331.48 3294.53c114.67,162 125.02,157.65 247.68,323.28 134.1,181.08 150.78,149.16 206.86,376.16l2036.89 0c-67.87,-479.6 -4.34,-258.14 -242.99,-568.33l-4239.47 -5706.11c85.19,-188.64 1744.23,-1698.66 2139.27,-2099.54l1140.79 -1058.67c176.99,-177.04 346.38,-372.97 527.63,-521.37 469.23,-384.11 423.05,-139.87 592.86,-720.58 -2707.81,0 -1677.18,-481.5 -4257.12,2098.43 -537.06,537.05 -1052.19,970.68 -1589.08,1507.59l-1143.45 1141.08c-130.93,127.25 -309.33,263.43 -277.84,393.02l15.4 -5140.12 -1548.6 0 0.42 10674.6z"/>
    <path class="fil1" d="M63012.03 45613.55c4.9,-1.34 164.79,-119.48 475.3,-101.44l1427.51 1026.55c92.47,167.59 97.9,205.45 177.55,387.61 6.72,15.34 91.52,211.16 95.1,224.26l85.03 789.79c150.73,1076.69 -303.81,2727.9 -1618.82,3075.16 -2612.19,689.84 -2877.5,-3486.67 -1796.63,-4773.66 550.57,-655.58 821.81,-537.07 1154.96,-628.27zm2201.08 5623.32c0,1159.55 41.21,2331.28 -1150.29,2806.07 -594.36,236.85 -2013.05,331.77 -2450.93,-626.28l-181.45 -389.88c-13.05,-23.66 -28.34,-54.66 -47.84,-78.17l-1384.08 0c-1.73,3014.45 4369.34,2896.04 5604.08,1692.6 1299.35,-1266.39 995.06,-3097.18 995.06,-5197.15 0,-1656.85 0,-3313.72 0,-4970.59l-1303.05 0 0 896.42c56.34,-130.17 78.65,29.5 -28.21,-143.27 -4.96,-8.06 -132.45,-148 -146.24,-161.86 -827.45,-831.99 -1440.63,-789.84 -2605.75,-751.05 -900,29.96 -1861.7,918.59 -2267.96,1737.4 -521.11,1050.33 -585.49,3509.9 -61.28,4564.03 1150.77,2314.11 4096.6,1893.59 4920.04,898.4 167.5,-202.42 191.85,-204.87 107.9,-276.67z"/>
    <path class="fil1" d="M56900.97 48302.78c0,421.6 61.05,1186.81 -69.21,1509.68l-132.64 272.02c-828.06,1507.74 -3183.48,1319.04 -3386.34,222.73 -262.88,-1420.49 1620.39,-1511.06 2450.88,-1609.07 246.32,-29.06 445.53,-87.55 681.75,-163.27l455.56 -232.09zm-4726.51 -1385.35c723.74,0 1310.09,139.2 1440.88,-329.78 4.48,-16.08 10.9,-42.55 15.82,-60.59 359.49,-1317.76 1933.34,-1183.25 2573.94,-916.91 846.46,351.95 1045.42,1510.51 161.59,1789.26l-990.41 138.76c-1106.68,154.1 -1596.33,62.46 -2445.42,521.97 -849.71,459.85 -1076.76,1023.84 -1069.43,1952.69 5.5,695.88 -37.63,793.97 232.29,1282.81 223.26,404.34 324.63,526.4 733.1,774.13 812.91,493 1591.22,456.43 2495.86,246.36l724.14 -280.32c160.13,-86.12 1136.5,-627.17 935.62,-798.94 70.94,1005.87 921.62,1313.33 1789.4,1110.35 485.42,-113.56 410.07,-205.34 410.07,-1191.43l-805.77 -173.57c-65.35,-170.53 81.54,-3961.21 -60.48,-4859.9l-133.1 -618.64c-213.82,-528.46 -551.4,-770.13 -1044.49,-975 -881.04,-366.07 -2592.45,-414.76 -3408.82,-81.06 -1086.9,444.28 -1554.79,1158.9 -1554.79,2469.81z"/>
    <path class="fil1" d="M69613.25 47570.16c-2.85,-425.78 -21.88,-374.42 122.59,-726.19 7.37,-17.95 16.28,-39.71 23.84,-57.45 318.01,-745.37 966.15,-1249.6 1808.68,-1260.29 774.36,-9.84 1074.29,205.61 1449.78,592.42 347.24,357.68 539.5,966.64 588.61,1451.49l-3993.5 0.02zm5378.04 2037.28l-1303.46 0 -152.07 187.55c-421.32,624.63 -626.42,1488.82 -2280.27,1358.81 -360.73,-28.36 -577.22,-119.24 -844,-320.85 -379.6,-286.86 -687.41,-820.89 -773.23,-1205.29 -30.35,-135.95 -10.18,-47.77 -24.95,-203.61l-81.82 -632.34 5541.72 0c-0.56,-1969.34 -110.77,-3603.64 -2130.26,-4342.91 -389.74,-142.69 -1187.27,-267.52 -1699.77,-189.98 -1178.77,178.41 -2050.17,527.59 -2716.44,1758.75 -400.3,739.66 -679.79,2278.46 -523.36,3187.43l145.42 519.42c261.86,1221.69 914.39,2119.73 2092.97,2550.82l998.13 187.5c290,2.57 618.94,16.75 902.86,-22.66 1447.57,-200.88 2768.49,-1294.94 2848.53,-2832.64z"/>
    <path class="fil1" d="M77924.99 45450.97l0 -1058.97 -1386.23 0 1.69 7822.37 1465.16 0c0.88,-1437.42 17.95,-2885.07 0.81,-4321.2 -6,-501.69 -65.56,-471.38 103.47,-907.62 93.14,-240.43 174.98,-464.73 363.73,-663.9 388.17,-409.58 691.11,-640.05 1302.54,-759.48 717.67,-140.17 1143.47,127.31 1408.34,521.65 286.04,425.87 329.91,995.01 327.19,1729.72 -5.43,1466.55 -0.24,2934.17 -0.24,4400.83l1465.79 0c0.16,-761.37 69.32,-5174.44 -59.92,-5755.43l-91.06 -401.02c-285.15,-1788.45 -1976.44,-2123.67 -3497.85,-1690.27 -403.86,115.06 -1621.85,896.53 -1403.42,1083.32z"/>
    <path class="fil1" d="M93572.22 51155.4l0 1058.97 1384.94 0 -0.4 -7822.37 -1466.45 0c0.43,1482.23 250.75,4915.28 -408.2,5885.76 -100.84,148.53 -350.57,394.11 -506.66,523.17 -220.37,182.21 -440.98,249.92 -728.94,272.35 -442.74,34.44 -1021.09,-41.58 -1298.5,-389.01 -389.88,-488.28 -317.81,-1160.75 -317.76,-1973.64 0.05,-1439.54 0,-2879.09 0,-4318.63l-1467.73 0 1.59 5214.94c-4.68,1964.3 657.08,2797.87 2692.26,2774.17 1317.58,-15.34 2393.83,-1084.25 2115.85,-1225.71z"/>
    <path class="fil1" d="M87704.01 41457.88l-1058.58 0c-1830.79,24.86 -1629.84,1541.99 -1629.84,2934.12l-1059.39 0 0 1221.55 1059.62 0 -0.23 6600.82 1465.81 0 0.23 -6600.82 1303 0 0.85 -1221.55 -1304.08 0c0.23,-427.91 -34.35,-968.29 74.79,-1272.7 152.72,-425.94 583.86,-357.96 1147.82,-357.96l0 -1303.46z"/>
    <path class="fil1" d="M104654.67 52214.37l0 -1221.55c-614.99,0 -841.39,105.78 -1141.3,-244.88l0.03 -5134.39 1141.27 0 0 -1221.55 -1141.3 -0.07 0 -2118.74 -1466.43 0 0.41 2118.81 -1059.8 0 0.41 1221.55 1059.39 0c0,1521.27 1.87,3042.64 -0.04,4563.89 -1.62,1280.31 35.5,2112.95 1463.41,2122.42 442.48,2.92 811.57,25.69 1143.95,-85.49z"/>
    <polygon class="fil1" points="48914.77,52214.37 50380.81,52214.37 50380.81,41539.77 48915,41539.77 "/>
    <path class="fil1" d="M98297.92 45613.96l0 -1221.96 -1384.54 0 0 7822.37 1466.43 0c-0.41,-1479.02 -39.98,-3010.83 -3.62,-4482.88 16.19,-655.04 270.43,-1151.62 629.12,-1488.65 158.61,-149.02 432.58,-348.58 677.62,-420.35 345.53,-101.25 773.3,-45.95 1141.23,-45.95l0 -1547.54c-1065.18,0 -1870.7,139.69 -2470.5,1147.54 -124.81,209.73 -141.44,171.75 -55.74,237.42z"/>
    <path class="fil1" d="M27736.37 62066.68c114.04,-410.23 108.29,-1574.01 19.65,-2000.43 584.92,157.12 657.38,-136.18 1020.72,228.99 14.39,14.46 125.25,143.38 142.28,165.65l190.85 358.12c268.1,1254.05 -1256.34,1208.73 -1373.5,1247.67zm-742.85 660.13c1774.01,0 2974.72,179.44 2938.75,-1714.09 -36.66,-1931.11 -1381.56,-1626.26 -2938.75,-1626.26l0 3340.35z"/>
    <path class="fil1" d="M5393.1 61586.32c-5.45,-21.78 -7.6,-207.3 -4.83,-234.88 22.52,-224.51 -11.9,-94.16 58.88,-232.09 6.75,-13.14 20.4,-33.45 28.37,-45.48l68.77 -80.92c50.98,-51.14 169.62,-116.01 171.84,-116.77 904.99,-315.36 612.57,1581.26 -89.19,1044.72 -68.26,-52.21 -99.93,-122.08 -128.34,-165.05l-105.5 -169.53zm444.91 1955.81l-163.62 0c-40.33,-0.58 -81.45,-1.39 -124.16,-2.73 -590.49,-18.43 -853.6,-272.74 -885.43,-893.28l814.51 0c281.47,623.59 518.66,324.77 815.31,-0.41 -0.07,-632.64 36.76,222.61 -970.29,-42.55 -1181.66,-311.14 -802.33,-2950.94 739.41,-2357.73 371.93,143.13 262.41,484.13 230.88,37.42l735.58 0c-14.49,2527.42 313.99,3235.97 -1192.19,3259.28z"/>
    <path class="fil1" d="M25042.24 60756.66c103.9,-290.16 113.53,-362.23 28.25,-664.61l1759.22 -135.55 0 -407.46c-346.8,-287.44 -1906.42,-162.58 -2525.43,-162.58l0 3340.35 1956.9 12.04c119.91,-3.21 217.25,-9.06 330.05,-44.33 234.83,-73.44 80.34,0.78 238.48,-130.29l0 -407.46c-360.93,-299.14 -1552.39,-166.18 -1786.25,-95.01 100.46,-286.92 110.35,-442.59 31.92,-736.29l1591.36 -146.61 0 -325.97c-346.34,-275.26 -1357.33,-169.69 -1624.5,-96.23z"/>
    <path class="fil1" d="M16643.26 56207.46c267.06,-227.05 568.21,-3.81 637.49,289.49 191.32,809.86 -571.01,1346.01 -851.44,535.18 -132.48,-383 19.77,-659.55 213.95,-824.67zm-1058.58 2607.74l814.51 0 -0.4 -1059.39c-18.89,49.89 -253.96,-84.27 54.27,135.02 109.47,77.89 1587.73,615.38 1662.64,-1108.66 50.22,-1155.97 -829.31,-1474.8 -1474.13,-1270.32l-323.46 207.48c342.29,-306.26 -79.77,-242.11 -81.89,-244.46l-651.54 0 0 3340.33z"/>
    <path class="fil1" d="M11590.78 56207.46c8.8,-4.43 69.35,-215.5 358.12,-24.3 303.12,200.69 327.88,913.03 -77.75,1200.41 -447.13,316.75 -704.11,-604.15 -581.5,-946.03 94.73,-264.15 75.05,-115.8 301.13,-230.08zm571.24 -488.13c-153.08,-396.55 -1608.5,-525.59 -1714.69,804.95 -42.82,536.56 87.11,955.94 340.77,1217.04 351.29,361.61 1019.22,310.31 1373.11,177.48 78.87,-183.34 23.77,-243.82 0.81,81.47l811.97 0 2.15 -3340.32 -814.12 0 0 1059.38z"/>
    <path class="fil1" d="M24221.98 56207.46c104.94,-93.25 133.42,-162.88 357.45,-21.04 405.49,256.73 389.72,866.2 51.65,1161.93 -64.24,56.2 -16.56,253.29 -358.44,24.04 -76.33,-51.19 -260.34,-277.2 -275.61,-323.28 -177.18,-534.56 33.1,-671.15 224.95,-841.65zm571.26 -488.13c31.58,-83.36 190.74,41.33 -67.96,-123.12 -264.84,-168.33 -745.64,-129.17 -1013.3,-2.84l-294.53 221.76c-278.12,316.47 -761.54,2243.54 892.17,2189.05 394.09,-12.98 467.66,-33.1 645.78,-248.37 -357.61,360.75 368.26,244.46 651.95,244.46l0 -3340.32 -814.52 0 0.41 1059.38z"/>
    <path class="fil1" d="M18843.54 60933.97c457.56,-406.62 996.39,741.86 369.5,1176.35 -0.97,0.69 -98.17,172.93 -390.57,-21.62l-264.36 -352.23c-95.75,-233.57 -97.36,-473.02 100.09,-668.26 57.11,-56.46 181.71,-131 185.34,-134.24zm571.26 -488.54c267.61,-228.83 -746.55,-287.99 -1081.2,-126.84 -894.41,430.7 -613.72,2019.17 -113.56,2312.33 200.05,117.28 50.04,68.96 364.91,97.42 454.75,41.11 778.1,12.47 992.01,-246.02 -357.61,360.75 368.26,244.49 651.93,244.49l0.41 -3340.35 -814.5 0 0 1058.97z"/>
    <path class="fil1" d="M8005.15 62075.69c-161.21,-111.09 -102.63,-418.45 652.63,-408.29l0.11 244.88c-433.45,229.87 42.09,244.89 -652.55,244.89l-0.19 -81.48zm-814.11 -978.72c217.21,0 460.57,32.29 664.15,-40.66l292.82 -224.9c255.07,-178.29 415.47,-24.55 509.88,184.48 -455.62,236.26 -501.08,110.53 -1005.5,255.02 -870.91,249.48 -684.63,1482.72 269.95,1533.91 982.07,52.67 605.18,-553.11 816.63,-78.01l733.03 0c0,-989.67 182.49,-2132.75 -381.51,-2411.92 -358.38,-177.36 -1737.49,-473.68 -1899.45,782.08z"/>
    <path class="fil1" d="M18925.03 56370.85c102.47,-54.33 379.24,-420.49 639.62,-197.65l176.11 279.47 -815.73 -81.82zm815.32 1629.42c521.27,0 708.68,-427.85 733.03,-895.58 -688.96,0 -597.48,-20.75 -977.5,325.96 -460.91,10.28 -195.38,-127.26 -570.85,-326.38l1632.78 -81.89c-2.96,-769.57 -38.95,-1193.02 -619.45,-1447.19 -1166.23,-510.6 -2258.26,609.03 -1694.52,1856.45 253.08,559.97 703.21,568.63 1496.51,568.63z"/>
    <path class="fil1" d="M26468.73 56452.34c260.73,-200.34 389.88,-536.38 805.68,-200.46 152.37,123.1 150.61,-4.27 131.39,196.28l-937.07 4.18zm1664.86 652.35l-732.61 0c-401.62,599.74 -320.68,343.61 -815.73,81.08l1629.82 -163.39c0,-2238.57 -2231.81,-1767.33 -2426.68,-660.15 -357.47,2030.81 1778.08,1840.33 2166.57,1297.6 153.45,-214.37 138.14,-241.12 178.63,-555.14z"/>
    <path class="fil1" d="M13872.55 56370.85c321.07,-170.25 54.17,-244.86 560.04,-234.93l255.69 316.75 -815.61 0.09 -0.12 -81.91zm1548.33 733.84c-1228.51,0 -222.36,244.46 -1385.35,244.46l-162.86 -326.77 1629.71 0c0,-787.2 -130.5,-1389.95 -968.33,-1539.2 -865.75,-154.21 -1315.73,342.35 -1443.59,970.71 -361.98,1778.61 1644.35,1929.57 2171.81,1222.94 138.21,-185.15 141.17,-232.06 158.61,-572.14z"/>
    <path class="fil1" d="M16072.83 61179.27c16.38,-203.95 432.34,-456.94 639.62,-279.55l176.11 279.48 -815.73 0.07zm570.85 977.9c-446.04,11.59 -330.96,-209.04 -570.46,-408.27l1629.43 0c0,-651.42 9.49,-1422.62 -967.34,-1544.22 -1308.26,-162.87 -1771.65,1023.15 -1320.99,1933.06 152.16,307.25 299.49,498.03 647.4,568.19 835.64,168.51 1511.69,42.69 1559.43,-874.73 -107.13,0 -314.69,-9.01 -421.59,6.19 -195.75,27.86 -161.5,24.7 -281.13,100.65 -109.1,69.28 -88.2,93.67 -157.59,151.54 -261.54,218.11 209.75,26.68 -117.16,67.59z"/>
    <path class="fil1" d="M36445.74 61097.38c104.18,-55.25 393.18,-444.23 674.47,-170.68l65.05 69.9c2.61,3.56 60.82,138.04 76.21,182.6l-815.73 -81.82zm1548.34 733.82c-313.97,0 -462.74,-32.02 -703.49,102.98 -193.07,108.29 -290.66,356.27 -610.53,141.3l-234.32 -326.58 1629.84 0c0,-651.42 9.49,-1422.62 -967.34,-1544.22 -1617.09,-201.31 -1799.67,1713.17 -1081.26,2298.02 284.91,231.97 1897.36,667.95 1967.1,-671.5z"/>
    <path class="fil1" d="M31963.69 61097.38c321.09,-170.27 54.19,-244.88 560.06,-234.95l255.67 316.77 -815.59 0.07 -0.14 -81.89zm1548.35 733.82c-117.03,0 -303.38,-8.64 -420.01,7.69 -190.46,26.71 -166.69,29.23 -283.39,95.43 -126.03,71.52 -207.3,188.75 -319.8,214.81 -166.04,38.46 -298.84,-44.63 -386.23,-133.36 -72.28,-73.41 -118.57,-168.68 -138.51,-266.87l1629.43 0c0,-837.68 -197.13,-1449.71 -967.31,-1544.31 -1860.47,-228.5 -1853.06,2305.45 -672.83,2505.06 861.56,145.69 1512.95,12.1 1558.65,-878.45z"/>
    <path class="fil1" d="M29111.49 55556.34l-813.24 0 -0.85 2443.93 814.5 0c-0.41,-381.86 -6,-765.83 -4.99,-1146.98 1.5,-558.19 82.4,-412.27 249.46,-727.3 713.21,17.23 489.35,1109.72 489.35,1874.28l814.5 0c-0.62,-1045.52 370.32,-2792.12 -1158.53,-2518.59 -536.27,95.96 -462.25,425.48 -390.2,74.66z"/>
    <path class="fil1" d="M33349.87 58245.16l0 570.04c1175.82,0 1191.57,-85.29 1547.59,-1183.46l528.9 -1415.85c132.22,-344.05 133.61,-194.52 79.97,-659.55l-689.61 0c-56.34,124.63 -540.77,1399.03 -408.27,1466.46 -64.12,-358.79 -316.12,-1136.31 -515.36,-1401.8 -14.11,-18.81 -35.22,-44.22 -54.67,-64.66l-733.04 0 792.45 2261.05c53.52,284.82 -90.58,221.05 -230.96,275.91 -26.14,10.21 -46.38,15.27 -73.64,26.75l-243.36 125.11z"/>
    <path class="fil1" d="M1567.72 62182.97c-115.41,-202.33 -378.5,-376.14 -313.12,-799.38 11.82,-76.53 129.68,-381.52 175.88,-427.79 192.12,-192.42 528.85,-119.42 719.06,195.8 162.6,269.46 116.6,919.31 -581.82,1031.37zm-1059 -270.69c157.17,1069.05 1982.12,1116.15 2366.34,220.61 326.38,-760.73 -32.22,-2366.78 -1623.56,-1879.63 -721.32,220.84 -852.97,909.54 -742.78,1659.02z"/>
    <path class="fil1" d="M24113.66 60118.89l26.84 -732.43c-640.86,0 -2335.98,-129.52 -2688.42,162.58l0 407.46c155.37,128.76 14.92,53.38 241.44,130.28 226.7,76.95 402.29,32.3 654.98,32.3l-0.42 2607.73 896.01 0 2.95 -2607.73 866.62 -0.19z"/>
    <path class="fil1" d="M10287.32 62726.81c125.62,-151.58 91.11,-65.23 154.82,-320.26l4.96 -900.74c13.61,-335.13 91.09,-597.8 362.97,-640.7 572.63,-90.34 374.06,1328.23 371.1,1861.7l817.07 0c0,-681.86 157.34,-1854.54 -177.13,-2261.37 -183.87,-223.7 -543.01,-338.63 -975.33,-250.27 -550.75,112.59 -429.33,539.2 -395.49,67.68l-731.79 0 -11.78 1875.4c8.34,313.01 38.63,405.59 173.14,568.56l407.46 0z"/>
    <path class="fil1" d="M39010.78 61056.57c453.06,-307.35 393.63,-197.21 695.43,-40.68l0 1710.92 814.11 0c0,-1268.84 291.08,-2244.49 -577.59,-2474.19 -1150.47,-304.25 -1017.16,682.32 -970.34,30.23l-733.03 0c0,657.01 -128.88,2092.26 162.58,2443.96l407.46 0 168.72 -402.98c2.68,-16.72 -0.37,-368.19 -0.99,-412.75 -4.69,-324.58 30.21,-472.42 -80.09,-779.3l113.74 -75.21z"/>
    <path class="fil1" d="M8738.97 55822.94c-25.13,-248.63 -16.44,-266.6 -733.01,-266.6l0 2443.93 819.59 0c-5.5,-383.09 -6.44,-765.02 -9.61,-1148 -6.37,-773.11 16.52,-287.89 249,-726.28 932.27,22.52 173.87,1297.45 651.92,1874.28l407.47 0c131.07,-158.14 56.87,-3.65 130.28,-238.46 35.48,-113.49 34.44,-128.73 44.1,-247.33l-60.82 -1628.87c-175.96,-516.56 -908.9,-484.69 -1232.46,-333.75 -307.6,143.47 -155.6,53.34 -266.46,271.08z"/>
    <path class="fil1" d="M21451.27 55556.34l-732.61 0 -9.38 1792.81c-0.17,33.8 12.08,310.72 17.14,330.89 63.8,254.93 29.22,168.7 154.81,320.23l406.82 0c344.03,-412.98 53.4,-1030.39 184.15,-1483.02 4.92,-17.02 13.44,-39.01 19.59,-55.04 250.8,-653.96 675.58,-182.47 693.72,-172.84l0 1710.9 814.5 0c-0.39,-380.06 -1.89,-760.19 1.13,-1140.26 1.46,-182.93 8.25,-401.13 -13.9,-579.85 -17.37,-139.92 5.98,-35.83 -42.11,-225.69 -17.58,-69.37 -44.61,-166.04 -91.25,-253.52 -9.72,-18.28 -20.19,-38.67 -31.32,-55.74 -184.69,-283.46 -574.62,-313.63 -894.46,-268.86 -616.24,86.25 -513.95,606.02 -476.83,79.99z"/>
    <path class="fil1" d="M15257.91 60282.85c-672.21,0 -1772.53,-123.7 -2117.97,162.58l0 325.99c152.67,126.52 66.48,91.2 323.21,154.82l654.68 7.73c-264.17,100.77 -484.66,451.66 -652.2,664.59 -414.23,526.43 -407.19,163.94 -407.19,1128.25l1795.15 11.78c118.59,-9.65 133.84,-8.59 247.33,-44.07 234.81,-73.44 80.32,0.78 238.48,-130.29l0 -325.96c-151.69,-125.73 -65.23,-91.29 -320.6,-154.84l-901.78 -7.74c282.01,-107.57 443.27,-439.75 639.85,-675.05 422.17,-505.36 501.04,-186.3 501.04,-1117.79z"/>
    <path class="fil1" d="M34245.23 60282.85l-813.86 0c34.07,510.95 226.75,896.54 384.57,1292.73 83.62,209.86 135.46,335.5 213.49,589.6l298.24 561.63 732.71 0c96.4,-485.19 248.49,-740.61 397.97,-1191.01 142.02,-427.91 308.55,-736.01 335.46,-1252.95l-651.54 0c-18.85,22.25 -36.98,50.73 -50.54,71.36l-90.55 134.3c-241.86,412.75 -210.63,915.13 -428.95,1098.22l35.11 -137.83c-40.21,-170.46 -79.44,-232.99 -126.1,-378.75l-236.01 -787.3z"/>
    <path class="fil1" d="M30986.6 55555.95c-437.95,2.72 -350.26,-93.12 -293.87,317.74 44.51,324.23 20.39,81.61 159.11,225.11 162.21,167.82 134.76,-466.85 134.76,1575.51 247.2,241.1 490.26,400.62 897.21,336.89 121.55,-19.03 44.49,2.03 167.4,-41 223.57,-78.29 85.77,-5.96 238.44,-132.5 0,-864.43 19.01,-290.53 -488.93,-570.43l0.07 -1141.28c441.21,0 552.64,152.55 472.09,-324.05 -63.36,-374.87 99.72,-242.16 -472.16,-245.99l0 -733.03 -814.12 0 0 733.03z"/>
    <path class="fil1" d="M41912.37 62696.64c234.47,-74.77 81.13,-2.58 237.79,-132.41 0,-806.37 70.41,-307.11 -407.46,-570.45l0 -1140.89c403.17,-2.7 442.65,140.73 381.64,-324.34 -45.62,-347.89 215.38,-242.09 -381.64,-246.09l0.4 -733.03 -814.51 0 0 733.03c-607.18,4.07 -336.27,-117.07 -407.46,325.97 187.04,254.37 -338.97,239.45 407.46,244.46 0,1320.38 -222.2,1943.38 732.66,1890.28 79.05,-4.39 176,-22.55 251.12,-46.53z"/>
    <path class="fil1" d="M3849.07 62726.81c0,-2112.12 111.53,-1526.26 597.71,-1806.23 219.8,-126.59 217.21,37.03 217.21,-719.2 -1080.18,16.33 -850.91,589.49 -814.53,81.47l-814.5 0 -0.39 2443.96 814.5 0z"/>
    <path class="fil1" d="M32381.8 57843.84l722.77 -5.7c0,-301.21 50.04,-2699.79 -32.29,-2939.71 -76.83,-223.91 -2.49,-84.29 -130.28,-238.48l-406.82 0c-292.51,377.82 -153.38,2728.31 -153.38,3183.89z"/>
    <polygon class="fil1" points="12161.63,62726.81 12976.14,62726.81 12976.55,60282.85 12162.02,60282.85 "/>
    <polygon class="fil1" points="6946.57,58000.27 7760.66,58000.27 7760.66,55556.34 6946.57,55556.34 "/>
    <path class="fil1" d="M3605.41 56126.38l0 325.96c156.81,129.96 -5.61,62.7 237.47,136.94l1554.79 32.83c417.24,5.19 457.29,-8.67 651.68,-169.77l0 -325.96c-315.32,-261.31 -2121.46,-267.27 -2443.94,0z"/>
    <path class="fil1" d="M3695.5 57104.27l3.19 325.94c151.86,134.54 -22.64,59.58 226.94,136.99l1472.04 32.82c417.24,5.18 457.29,-8.66 651.68,-169.76l0 -325.99c-317.28,-262.95 -2042.6,-269.78 -2353.85,0z"/>
    <polygon class="fil1" points="12162.02,60037.58 12882.33,60037.58 12886.14,59386.27 12161.63,59386.46 "/>
    <polygon class="fil1" points="7093.31,55309.77 7760.66,55311.07 7760.66,54659.95 7037.84,54659.95 "/>
   </g>
   <g>
    <path class="fil2" d="M22753.37 49362.98l-0.51 -5060.06c617.95,-16.01 1174.92,-88.42 1649.07,106.86 18.04,7.44 39.04,17.37 57.35,24.79 485.54,196.86 751.86,221.64 1157.22,678.01 860.92,969.2 605.08,2429.72 230.7,3215.22 -160.1,335.92 -638.27,808.08 -992.63,884.89 -1175.16,254.77 -393.95,159.92 -2101.2,150.29zm-2975.28 -7905.1l5530.54 0 1440.3 372.16c581.92,225.88 1021.67,479.77 1407.21,911.76l364.15 372.65c1129.4,1220.37 1306.07,4104.15 891.13,5526.84 -31.84,109.14 -107.58,360.89 -115.16,381.12 -455.16,1213.03 -1073.39,2102.61 -2302.81,2651.35l-1070.62 345.44c-353.66,57.8 -492.14,107.28 -808.31,163.55 -463.04,82.42 -5090.9,31.62 -5781.22,31.62l0 -10756.07 444.79 -0.42z"/>
    <path class="fil2" d="M9962.33 52214.37l8641.47 -4.5c504.18,-74.34 -460.84,120.88 158.89,-35.11 161.07,-40.55 201.98,-82.61 239.43,-363.6l4.41 -981.75c-0.21,-487.73 1.06,-975.42 -1.96,-1463.15l-5710.86 -2.94 4.12 -1142.06 5688.72 0.02 19.54 -2687.27 -5623.16 -0.37 0.81 -1142.48 5602.81 0 20 -2932.86 -9044.76 0 0.54 10756.07z"/>
    <path class="fil2" d="M345.33 44391.16l2852.62 0.05 16.87 7503.2c42.11,235.18 38.2,289.77 467.61,323.03l3018.85 -3.07 0 -7823.21 2954.49 0 -20.84 -2846.22 -9289.6 -5.17 0 2851.39z"/>
    <path class="fil2" d="M29764.25 48139.79l2605.84 -1.16c132.73,-288.08 259.02,-551.72 422.75,-819.43 141.53,-231.46 325.62,-447.23 393.65,-728.27l664.61 1110.6c55.53,84.29 91.63,146.27 135.87,192.13 112.64,116.74 168.59,244 745.05,253.38l1874.12 -10.05c-73.99,-550.75 -505.26,-990.02 -836.1,-1425.57 -10.58,-13.95 -26.54,-31.85 -37.06,-45.74l-1227.48 -1837.58c-28.49,-111.87 -0.26,-135.48 18.85,-184.43l640.07 -983.51c241.86,-393.37 150.8,-79.25 424.37,-639.33l417.42 -551.42c446.27,-663.78 469.88,-536.02 521.02,-1011.11l-2525.84 0c-4.67,21.8 -17.61,30.72 -21.88,63.38l-48.46 123.77c-1.18,2.61 -107.93,209.63 -115.06,222.99l-629.5 1056.71c-33.98,-172.35 -247.47,-464.91 -352.86,-678.89l-380.98 -787.96 -2546.2 0c52.71,600.85 34.88,304.22 513.17,960.61l1393.11 2034.25c221.04,317.19 314.25,97.81 -383.46,1132.25l-1665.02 2554.38z"/>
    <path class="fil2" d="M594.12 58000.27c240.17,0 484.64,0 729.11,0 18.73,-19.75 44.49,-76.66 54.63,-60.75l224.92 -262.81c140.89,-204.73 94.5,52.76 127.91,-337.05 49.96,23.1 81.24,-36.73 310.28,415.08 108.43,213.89 25.31,-61.51 97.59,245.53l895.59 -0.25c-71.93,-511.04 -647.4,-1171.31 -733.42,-1221.71 55.39,-550.48 483.32,-375.84 553.56,-1213.24 -1197.2,-30.81 -759.57,316.15 -1123.6,489.38 -77.92,-585.96 -382.42,-506.17 -1047.82,-487.6 129.64,1158.12 1110.16,660.48 256.46,1653.85 -372.61,433.58 -328.09,385.81 -345.21,779.57z"/>
   </g>
  </g>
 </g>
</svg>
