<?xml version="1.0" encoding="UTF-8" standalone="no"?>
<!-- Created with Inkscape (http://www.inkscape.org/) -->

<svg
   xmlns:dc="http://purl.org/dc/elements/1.1/"
   xmlns:cc="http://creativecommons.org/ns#"
   xmlns:rdf="http://www.w3.org/1999/02/22-rdf-syntax-ns#"
   xmlns:svg="http://www.w3.org/2000/svg"
   xmlns="http://www.w3.org/2000/svg"
   xmlns:sodipodi="http://sodipodi.sourceforge.net/DTD/sodipodi-0.dtd"
   xmlns:inkscape="http://www.inkscape.org/namespaces/inkscape"
   id="svg2"
   version="1.1"
   inkscape:version="0.91 r13725"
   xml:space="preserve"
   width="765"
   height="990"
   viewBox="0 0 765 990"
   sodipodi:docname="uber.svg"><metadata
     id="metadata8"><rdf:RDF><cc:Work
         rdf:about=""><dc:format>image/svg+xml</dc:format><dc:type
           rdf:resource="http://purl.org/dc/dcmitype/StillImage" /><dc:title></dc:title></cc:Work></rdf:RDF></metadata><defs
     id="defs6"><clipPath
       clipPathUnits="userSpaceOnUse"
       id="clipPath16"><path
         d="M 0,192 192,192 192,0 0,0 0,192 Z"
         id="path18"
         inkscape:connector-curvature="0" /></clipPath></defs><sodipodi:namedview
     pagecolor="#ffffff"
     bordercolor="#666666"
     borderopacity="1"
     objecttolerance="10"
     gridtolerance="10"
     guidetolerance="10"
     inkscape:pageopacity="0"
     inkscape:pageshadow="2"
     inkscape:window-width="1855"
     inkscape:window-height="1056"
     id="namedview4"
     showgrid="false"
     borderlayer="false"
     inkscape:zoom="0.49166667"
     inkscape:cx="255.30235"
     inkscape:cy="485.16553"
     inkscape:window-x="65"
     inkscape:window-y="24"
     inkscape:window-maximized="1"
     inkscape:current-layer="g10" /><g
     id="g10"
     inkscape:groupmode="layer"
     inkscape:label="убер"
     transform="matrix(1.25,0,0,-1.25,0,990)"><g
       id="g12"
       transform="matrix(4.1257199,0,0,4.1343631,-89.969108,-20.436376)"><g
         id="g14"
         clip-path="url(#clipPath16)"><g
           id="g20"
           transform="translate(96.1958,68.1915)"><path
             d="m 0,0 0,0.061 c 13.345,0 26.689,-0.004 40.034,0.002 3.177,0.002 5.215,2.031 5.246,5.187 0.016,1.66 0.03,3.32 0.031,4.98 0.021,24.965 0.039,49.931 0.057,74.896 0.003,3.379 -2.045,5.438 -5.415,5.441 -26.594,0.022 -53.187,0.042 -79.781,0.061 -3.438,0.003 -5.558,-2.08 -5.556,-5.549 0.011,-26.529 0.034,-53.059 0.075,-79.589 10e-4,-0.782 0.111,-1.611 0.384,-2.339 0.793,-2.112 2.573,-3.15 5.178,-3.15 C -26.498,-0.001 -13.249,0 0,0 m 0.025,94.537 c 13.316,0 26.633,-0.091 39.947,0.047 5.098,0.052 9.451,-3.99 9.435,-9.489 -0.073,-26.631 -0.028,-53.262 -0.019,-79.893 0.002,-5.269 -3.889,-9.21 -9.174,-9.218 -9.612,-0.012 -19.223,-0.001 -28.835,0.001 -17.083,0.004 -34.167,0.007 -51.251,0.011 -5.618,0.002 -9.425,3.801 -9.424,9.439 0.005,26.631 0.049,53.263 0.002,79.894 -0.009,5.341 4.386,9.256 9.181,9.217 13.379,-0.11 26.759,-0.039 40.138,-0.039 l 0,0.03 z"
             style="fill:#000000;fill-opacity:1;fill-rule:nonzero;stroke:none"
             id="path22"
             inkscape:connector-curvature="0" /></g><g
           id="g24"
           transform="translate(67.6964,40.5953)"><path
             d="m 0,0 c 1.335,0 2.603,0 3.872,0 2.902,0 5.805,-0.019 8.707,0.008 1.884,0.018 3.317,1.469 3.297,3.262 C 15.857,5.035 14.448,6.408 12.597,6.427 8.739,6.465 4.881,6.488 1.023,6.511 0.685,6.513 0.345,6.469 0,6.446 L 0,0 Z m -0.059,-9.134 c 0.357,-0.026 0.605,-0.06 0.853,-0.06 3.927,-0.004 7.854,-0.01 11.78,0.001 1.935,0.005 3.44,1.426 3.537,3.303 0.103,1.974 -1.289,3.697 -3.286,3.746 C 9.028,-2.052 5.228,-2.1 1.429,-2.122 0.551,-2.128 -0.03,-2.704 -0.048,-3.568 -0.085,-5.385 -0.059,-7.203 -0.059,-9.134 M -2.248,8.622 c 0.333,0 0.643,0 0.953,0 4.437,0 8.875,-0.015 13.312,0.006 2.486,0.013 4.483,-0.867 5.494,-3.218 1.013,-2.357 0.475,-4.492 -1.395,-6.27 -0.044,-0.042 -0.065,-0.108 -0.13,-0.222 1.233,-1.023 2.018,-2.319 2.241,-3.952 0.401,-2.924 -1.871,-6.096 -4.804,-6.182 -5.195,-0.153 -10.399,-0.043 -15.671,-0.043 l 0,19.881 z"
             style="fill:#000000;fill-opacity:1;fill-rule:nonzero;stroke:none"
             id="path26"
             inkscape:connector-curvature="0" /></g><g
           id="g28"
           transform="translate(148.6826,47.041)"><path
             d="m 0,0 0,-7.829 c 1.69,0 3.311,-0.001 4.931,0 2.522,0 5.044,-0.02 7.565,0.007 2.248,0.024 3.897,1.749 3.87,3.99 C 16.339,-1.57 14.631,0.044 12.161,0.061 8.395,0.087 4.628,0.069 0.862,0.065 0.583,0.065 0.305,0.024 0,0 m -0.068,-17.682 -2.169,0 0,19.808 c 0.185,0.018 0.337,0.047 0.49,0.047 4.726,0.003 9.452,0.04 14.178,-0.01 3.356,-0.036 5.848,-2.473 6.081,-5.808 0.21,-3.002 -2.032,-5.679 -5.206,-6.219 -0.149,-0.025 -0.293,-0.077 -0.606,-0.162 0.712,-0.908 1.349,-1.724 1.989,-2.538 0.611,-0.778 1.24,-1.543 1.833,-2.334 0.526,-0.701 1.062,-1.268 2.077,-0.955 0.18,0.056 0.523,-0.252 0.721,-0.459 0.303,-0.319 0.546,-0.695 0.811,-1.043 -1.516,-1.323 -3.721,-1.02 -5.08,0.679 -1.495,1.87 -3.003,3.732 -4.429,5.653 -0.57,0.768 -1.162,1.101 -2.138,1.068 -2.265,-0.076 -4.534,-0.018 -6.801,-0.025 -1.274,-0.004 -1.735,-0.453 -1.747,-1.721 -0.015,-1.628 -0.004,-3.257 -0.004,-4.886 0,-0.343 0,-0.686 0,-1.095"
             style="fill:#000000;fill-opacity:1;fill-rule:nonzero;stroke:none"
             id="path30"
             inkscape:connector-curvature="0" /></g><g
           id="g32"
           transform="translate(120.0818,40.5423)"><path
             d="m 0,0 0,-2.182 c -1.697,0 -3.347,0 -4.997,0 -1.532,0 -3.064,-0.01 -4.596,0.003 -0.848,0.008 -1.548,-0.359 -1.595,-1.186 -0.103,-1.834 -0.032,-3.678 -0.032,-5.62 l 16.787,0 0,-2.199 -19.013,0 0,19.781 18.377,0 0,-2.177 -1.058,0 c -4.723,0 -9.447,-0.016 -14.17,0.015 -0.751,0.005 -0.997,-0.203 -0.975,-0.967 0.051,-1.839 0.016,-3.681 0.016,-5.468 L 0,0 Z"
             style="fill:#000000;fill-opacity:1;fill-rule:nonzero;stroke:none"
             id="path34"
             inkscape:connector-curvature="0" /></g><g
           id="g36"
           transform="translate(42.5757,49.115)"><path
             d="m 0,0 2.256,0 0,-1.083 c 0,-3.573 -0.097,-7.15 0.025,-10.72 0.152,-4.415 -2.584,-7.2 -6.329,-8.009 -3.374,-0.73 -6.733,-0.725 -9.861,0.995 -2.465,1.356 -3.728,3.493 -3.737,6.328 -0.01,2.808 -0.015,5.616 0.005,8.424 0.006,0.834 -0.18,1.499 -1.011,1.88 -0.165,0.075 -0.305,0.367 -0.321,0.571 -0.045,0.535 -0.015,1.077 -0.015,1.617 2.089,-0.03 3.534,-1.504 3.548,-3.6 0.019,-2.584 -0.019,-5.169 0.01,-7.753 0.046,-4.062 1.527,-5.894 5.551,-6.402 1.801,-0.228 3.714,-0.127 5.499,0.22 2.944,0.572 4.364,2.538 4.376,5.537 C 0.012,-8.357 0,-4.72 0,-1.082 0,-0.739 0,-0.396 0,0"
             style="fill:#000000;fill-opacity:1;fill-rule:nonzero;stroke:none"
             id="path38"
             inkscape:connector-curvature="0" /></g><g
           id="g40"
           transform="translate(115.8405,132.9424)"><path
             d="m 0,0 c 0,-0.512 0,-0.889 0,-1.266 0.011,-9.131 0.025,-18.263 0.026,-27.394 0,-0.828 -0.034,-1.662 -0.135,-2.483 -0.444,-3.586 -2.213,-6.217 -5.792,-7.187 -1.978,-0.536 -4.07,-0.839 -6.119,-0.889 -4.946,-0.123 -9.897,-0.066 -14.845,-0.014 -1.557,0.016 -3.131,0.133 -4.663,0.402 -3.703,0.651 -6.495,2.466 -7.37,6.392 -0.227,1.021 -0.364,2.084 -0.366,3.128 -0.018,9.45 0.011,18.901 -0.003,28.351 -10e-4,0.773 0.257,0.963 0.991,0.957 3.863,-0.029 7.727,-0.011 11.59,-0.005 0.34,0.001 0.68,0.03 1.11,0.049 0,1.123 0,2.169 0,3.216 -0.001,2.731 -1.461,4.23 -4.172,4.239 -4.278,0.015 -8.556,0.017 -12.835,0.007 -2.591,-0.006 -4.08,-1.525 -4.078,-4.127 0.004,-10.568 -0.004,-21.136 0.035,-31.704 0.005,-1.588 0.115,-3.195 0.375,-4.761 0.976,-5.888 4.185,-10.045 9.945,-11.843 2.437,-0.761 5.044,-1.231 7.593,-1.327 5.357,-0.202 10.726,-0.105 16.089,-0.056 1.908,0.018 3.83,0.143 5.717,0.416 3.562,0.516 6.88,1.695 9.558,4.23 3.377,3.195 4.613,7.325 4.659,11.78 0.115,11.078 0.068,22.157 0.082,33.236 0.003,2.677 -1.455,4.124 -4.162,4.129 -5.236,0.009 -10.472,0.009 -15.708,0.01 -0.337,0 -0.675,-0.029 -1.057,-0.047 0,-1.481 -0.086,-2.858 0.024,-4.219 0.117,-1.462 0.991,-2.483 2.37,-2.963 0.585,-0.204 1.25,-0.241 1.879,-0.246 C -6.232,-0.013 -3.202,0 0,0 m -19.564,21.719 c 13.027,0 26.054,0 39.08,0 1.749,0 2.131,-0.377 2.133,-2.141 0.03,-26.021 0.059,-52.042 0.085,-78.063 0.002,-1.775 -0.486,-2.248 -2.287,-2.247 -26.053,0.019 -52.106,0.039 -78.159,0.058 -1.738,10e-4 -2.162,0.414 -2.161,2.13 0.014,26.085 0.029,52.17 0.045,78.255 0.001,1.563 0.41,1.961 1.993,1.961 13.091,10e-4 26.181,10e-4 39.271,10e-4 l 0,0.046 z"
             style="fill:#000000;fill-opacity:1;fill-rule:nonzero;stroke:none"
             id="path42"
             inkscape:connector-curvature="0" /></g></g></g><path
       style="fill:#1a1a1a;fill-opacity:1"
       d="m 173.94641,638.2582 c -3.23691,-3.23691 -3.56467,-410.64179 -0.33522,-416.67608 2.06057,-3.8502 6.54677,-3.93409 210.38845,-3.93409 164.39286,0 208.6297,0.53574 209.92843,2.54237 2.58441,3.99315 3.16674,411.69796 0.59489,416.50351 -2.11074,3.94395 -5.31256,4.00497 -210.13962,4.00497 -159.063,0 -208.57044,-0.57419 -210.43693,-2.44068 z m 286.91553,-73.62927 c 32.45963,-8.90618 51.79771,-27.40493 59.74342,-57.15039 2.08607,-7.80942 2.72211,-32.91787 2.74064,-108.19167 l 0.0241,-98.02217 -4.90541,-5.70664 -4.90542,-5.70664 -50.00984,-0.60953 -50.00984,-0.60953 0,12.20874 c 0,25.30352 5.13938,28.67134 43.75316,28.67134 l 27.684,0 -0.63384,81.8644 c -0.6049,78.13019 -0.82845,82.28496 -4.90054,91.08413 -5.52543,11.93968 -14.54312,19.3653 -28.91939,23.81364 -9.84484,3.04621 -19.85694,3.57681 -67.49186,3.57681 -64.01141,0 -73.66695,-1.59915 -86.37288,-14.30508 -12.71907,-12.71908 -13.40641,-18.45264 -12.80422,-106.80837 l 0.53303,-78.20858 35.08475,-0.55651 35.08474,-0.5565 0,-10.83491 c 0,-14.56578 -3.29804,-23.14279 -10.28899,-26.75795 -8.47777,-4.38402 -82.92461,-4.32406 -91.42883,0.0737 -10.20337,5.27637 -10.57577,9.61834 -9.68265,112.89379 0.78644,90.93873 0.98963,95.07336 5.31689,108.19515 10.52396,31.91236 34.30885,49.06983 75.57511,54.51692 22.61618,2.98529 123.15632,0.87321 136.81383,-2.8741 z"
       id="path4170"
       inkscape:connector-curvature="0"
       transform="matrix(0.8,0,0,-0.8,0,792)" /><path
       style="fill:#1a1a1a;fill-opacity:1"
       d="m 166.42099,681.53158 c -15.67819,-3.8751 -29.6463,-16.44882 -33.43703,-30.09915 -1.42669,-5.1375 -2.13726,-79.14266 -2.14485,-223.38506 l -0.0113,-215.70234 5.29501,-10.62571 c 2.91226,-5.84414 8.36252,-12.96541 12.11169,-15.82504 14.74235,-11.24454 8.57982,-10.95811 235.76773,-10.95811 232.94677,0 223.43903,-0.53185 237.67623,13.29515 15.82211,15.36624 14.50656,-5.30595 15.13912,237.89129 0.51212,196.88632 0.25086,218.45859 -2.74126,226.3515 -4.34132,11.45197 -11.64723,19.90589 -21.97894,25.4326 l -8.38822,4.48708 -215.59322,0.32297 c -118.57628,0.17756 -218.33899,-0.35571 -221.69492,-1.18518 z m 438.10902,-21.03217 c 2.68877,-1.38181 6.80741,-5.09614 9.15254,-8.25403 4.25801,-5.73374 4.2646,-6.03641 4.7939,-220.67797 0.49767,-201.80553 0.31129,-215.36238 -3.05085,-221.91039 -1.96948,-3.83574 -6.1646,-8.86964 -9.32249,-11.18644 -5.7093,-4.18866 -6.94156,-4.2155 -218.85444,-4.76602 -168.20819,-0.43698 -214.76706,-0.008 -220.96369,2.0339 -4.92125,1.62197 -9.5863,5.16642 -12.5015,9.49849 l -4.65062,6.91094 0,215.49353 c 0,195.05465 0.31472,216.15677 3.31825,222.48625 6.44439,13.58054 -8.0115,12.77601 230.58005,12.83267 167.9987,0.0399 217.70727,-0.51238 221.49885,-2.46093 z"
       id="path4172"
       inkscape:connector-curvature="0"
       transform="matrix(0.8,0,0,-0.8,0,792)" /><path
       style="fill:#1a1a1a;fill-opacity:1"
       d="m 737.61178,861.45336 c -2.42133,-1.71297 -10.50042,-10.92387 -17.95354,-20.46866 l -13.55112,-17.35416 -25.77527,0.56807 -25.77527,0.56807 -0.58479,18.81355 c -0.57434,18.47709 -0.67438,18.81356 -5.59322,18.81356 l -5.00843,0 0,-49.8305 0,-49.83051 40.87906,0 c 45.56736,0 51.41747,1.29085 58.59136,12.92839 6.34019,10.28513 7.13982,16.80795 3.29472,26.87619 -3.56178,9.32639 -14.74068,19.17847 -21.76131,19.17847 -6.63672,0 -5.45322,3.38854 6.56812,18.80546 9.09275,11.6611 13.47211,15.65979 17.68096,16.14406 3.33091,0.38325 5.59455,1.87812 5.59455,3.69455 0,4.24731 -11.11335,4.97911 -16.60582,1.09346 z m -4.59366,-53.81837 c 4.65756,-4.65755 5.94524,-7.77018 5.94524,-14.371 0,-19.76188 -5.96781,-22.39562 -50.74645,-22.39562 l -34.67728,0 0,21.35593 0,21.35593 36.76663,0 36.76662,0 5.94524,-5.94524 z"
       id="path4174"
       inkscape:connector-curvature="0"
       transform="matrix(0.8,0,0,-0.8,0,792)" /><path
       style="fill:#1a1a1a;fill-opacity:1"
       d="m 437.94641,812.56329 0,-49.83051 46.77967,0 46.77966,0 0,4.75449 0,4.75449 -36.41732,-0.95559 c -20.02952,-0.52557 -38.79223,-0.35952 -41.69491,0.369 -5.16189,1.29556 -5.2776,1.7028 -5.2776,18.57398 l 0,17.24939 28.47457,0 c 27.11865,0 28.47458,0.19371 28.47458,4.0678 0,3.84303 -1.35593,4.06779 -24.54049,4.06779 -13.49727,0 -26.31083,0.94746 -28.47458,2.10546 -3.41386,1.82704 -3.93408,4.38212 -3.93408,19.32204 l 0,17.21657 42.71186,0 c 41.35593,0 42.71186,0.12913 42.71186,4.0678 0,3.95239 -1.35593,4.06779 -47.79661,4.06779 l -47.79661,0 0,-49.8305 z"
       id="path4176"
       inkscape:connector-curvature="0"
       transform="matrix(0.8,0,0,-0.8,0,792)" /><path
       style="fill:#1a1a1a;fill-opacity:1"
       d="m 226.42099,812.56329 0,-49.83051 41.18644,0.008 c 37.26146,0.007 41.80697,0.38596 47.69787,3.97786 13.20952,8.05431 16.50307,24.21258 7.60452,37.30798 l -5.20609,7.66145 5.12516,6.0909 c 7.50817,8.92295 8.64137,18.23035 3.51013,28.83007 -7.26425,15.00593 -10.12878,15.78515 -58.02845,15.78515 l -41.88958,0 0,-49.8305 z m 85.27826,38.71929 c 6.70516,-3.46738 8.30515,-6.78195 8.21638,-17.02123 -0.1413,-16.2969 -6.13162,-18.64722 -47.52666,-18.64722 -39.41662,0 -37.83239,-0.97385 -37.83239,23.25612 l 0,15.38795 35.69423,0 c 27.34913,0 37.03952,-0.69568 41.44844,-2.97562 z m -1.88843,-47.36652 c 13.49775,-6.74289 12.7289,-25.78763 -1.25573,-31.10457 -2.81092,-1.06872 -20.15289,-1.94312 -38.53769,-1.94312 l -33.42692,0 0,18.30508 0,18.30509 33.05085,-0.003 c 27.3912,-0.003 34.26985,-0.61212 40.16949,-3.55933 l 0,10e-5 z"
       id="path4178"
       inkscape:connector-curvature="0"
       transform="matrix(0.8,0,0,-0.8,0,792)" /><path
       style="fill:#1a1a1a;fill-opacity:1"
       d="m 56.547593,864.24775 c -11.162182,-1.41679 -24.413792,-7.36276 -29.879542,-13.40688 -7.851461,-8.68229 -9.738586,-17.87293 -9.738586,-47.42863 0,-23.5493 -0.539102,-28.81061 -3.050847,-29.77446 -3.29627,-1.2649 -4.295523,-10.905 -1.130367,-10.905 1.056264,0 4.488468,2.20742 7.627119,4.90538 l 5.706638,4.90538 1.016949,32.31035 c 1.170305,37.18272 2.504571,40.81567 17.027264,46.36194 13.09912,5.0026 43.431945,3.71379 51.471097,-2.18695 11.271302,-8.27315 12.850932,-14.69127 12.854412,-52.22831 l 0.003,-34.06779 4.93463,0 4.93463,0 -0.59634,36.18809 c -0.634,38.47376 -1.85793,43.99702 -11.83702,53.41704 -10.408849,9.8257 -29.485883,14.43028 -49.343197,11.90984 z"
       id="path4180"
       inkscape:connector-curvature="0"
       transform="matrix(0.8,0,0,-0.8,0,792)" /></g></svg>