<?xml version="1.0" encoding="UTF-8" standalone="no"?>
<!-- Created with Inkscape (http://www.inkscape.org/) -->

<svg
   xmlns:dc="http://purl.org/dc/elements/1.1/"
   xmlns:cc="http://creativecommons.org/ns#"
   xmlns:rdf="http://www.w3.org/1999/02/22-rdf-syntax-ns#"
   xmlns:svg="http://www.w3.org/2000/svg"
   xmlns="http://www.w3.org/2000/svg"
   xmlns:sodipodi="http://sodipodi.sourceforge.net/DTD/sodipodi-0.dtd"
   xmlns:inkscape="http://www.inkscape.org/namespaces/inkscape"
   id="svg2"
   version="1.1"
   inkscape:version="0.91 r13725"
   xml:space="preserve"
   width="680"
   height="990"
   viewBox="0 0 680 990"
   sodipodi:docname="ufo.svg"><metadata
     id="metadata8"><rdf:RDF><cc:Work
         rdf:about=""><dc:format>image/svg+xml</dc:format><dc:type
           rdf:resource="http://purl.org/dc/dcmitype/StillImage" /><dc:title></dc:title></cc:Work></rdf:RDF></metadata><defs
     id="defs6"><clipPath
       clipPathUnits="userSpaceOnUse"
       id="clipPath16"><path
         d="m 0,1200 1200,0 L 1200,0 0,0 0,1200 Z"
         id="path18"
         inkscape:connector-curvature="0" /></clipPath></defs><sodipodi:namedview
     pagecolor="#ffffff"
     bordercolor="#666666"
     borderopacity="1"
     objecttolerance="10"
     gridtolerance="10"
     guidetolerance="10"
     inkscape:pageopacity="0"
     inkscape:pageshadow="2"
     inkscape:window-width="1855"
     inkscape:window-height="1056"
     id="namedview4"
     showgrid="false"
     inkscape:zoom="0.62933333"
     inkscape:cx="608.26713"
     inkscape:cy="644.26973"
     inkscape:window-x="65"
     inkscape:window-y="24"
     inkscape:window-maximized="1"
     inkscape:current-layer="g10" /><g
     id="g10"
     inkscape:groupmode="layer"
     inkscape:label="уфо"
     transform="matrix(1.25,0,0,-1.25,0,990)"><g
       id="g12"
       transform="matrix(0.7867643,0,0,0.73874938,-201.91667,-120.12989)"><g
         id="g14"
         clip-path="url(#clipPath16)"><g
           id="g20"
           transform="translate(413.5638,846.2782)"><path
             d="m 0,0 c -2.501,0 -3.834,0 -5.167,0 -9.173,-0.002 -12.157,-3.153 -11.74,-12.457 0.044,-0.984 0.267,-1.969 0.491,-2.934 1.495,-6.462 2.907,-12.945 4.541,-19.372 8.866,-34.89 18.346,-69.281 47.362,-94.309 11.659,-10.057 21.043,-22.78 35.847,-28.931 6.448,-2.679 12.831,-5.514 19.278,-8.194 24.915,-10.355 50.618,-16.952 77.844,-16.581 3.811,0.052 5.345,1.149 5.407,5.072 0.425,26.773 -3.62,52.665 -15.414,76.929 -4.176,8.59 -6.471,18.201 -13.679,25.24 -5.236,5.113 -9.977,10.732 -15.107,15.959 -8.46,8.622 -15.812,18.55 -27.888,22.886 -4.507,1.617 -8.621,4.294 -13.042,6.187 -19.082,8.173 -38.04,16.677 -57.392,24.157 C 21.045,-2.368 10.295,1.135 0,0 m 211.612,-183.638 c 15.355,2.55 30.817,4.597 46.033,7.809 11.981,2.529 24.773,4.472 35.239,10.24 21.997,12.124 44.784,24.016 58.308,47.013 1.926,3.276 4.904,5.926 6.883,9.178 6.281,10.324 13.716,20.245 18.098,31.351 5.448,13.81 8.476,28.601 12.198,43.058 2.185,8.485 4.308,17.074 5.305,25.749 0.827,7.195 -2.978,10.557 -10.104,10.32 -5.965,-0.199 -12.077,-0.208 -17.841,-1.532 -38.211,-8.777 -74.4,-21.643 -105.521,-47.045 -19.374,-15.814 -34.756,-33.574 -42.286,-57.642 -1.586,-5.067 -3.659,-9.983 -5.526,-14.963 -2.981,-7.951 -5.181,-15.989 -5.523,-24.623 -0.399,-10.093 -1.637,-20.157 -2.659,-30.218 -0.748,-7.362 -0.434,-7.801 7.396,-8.695 M -42.597,3.242 c 1.023,49.693 16.067,90.583 41.56,127.979 8.321,12.206 17.776,23.321 30.802,30.854 0.569,0.329 1.302,0.697 1.537,1.231 5.727,13.025 18.024,18.386 29.389,24.341 31.712,16.618 64.974,29.068 100.863,32.64 37.294,3.712 73.844,0.644 109.433,-12.562 24.473,-9.082 46.907,-21.333 67.409,-37.312 1.936,-1.509 3.508,-3.493 5.201,-5.302 2.046,-2.185 3.686,-4.963 6.114,-6.545 17.053,-11.109 26.398,-28.769 37.964,-44.476 16.433,-22.318 25.526,-47.584 28.435,-75.098 1.029,-9.729 2.343,-19.452 2.815,-29.212 0.969,-20.02 -4.098,-39.097 -9.388,-58.212 -12.216,-44.14 -34.373,-83.084 -61.061,-119.813 -11.052,-15.211 -21.568,-30.812 -32.581,-46.053 -1.934,-2.677 -5.562,-4.099 -7.637,-6.712 -3.716,-4.68 -6.726,-9.913 -10.281,-14.731 -1.426,-1.932 -3.581,-3.308 -5.284,-5.054 -7.297,-7.48 -15.015,-14.612 -21.72,-22.592 -13.944,-16.596 -30.161,-30.623 -47.795,-42.952 -11.768,-8.227 -25.188,-12.75 -39.804,-12.584 -2.598,0.03 -5.434,0.379 -7.738,1.471 -10.519,4.986 -20.976,10.123 -31.245,15.599 -2.466,1.315 -3.784,4.704 -6.213,6.175 -19.828,12.01 -32.615,31.133 -48.228,47.382 -33.319,34.677 -59.517,74.881 -85.47,114.882 -22.568,34.783 -38.809,73.123 -44.7,114.912 -1.203,8.53 -1.882,17.134 -2.377,21.744"
             style="fill:#000000;fill-opacity:1;fill-rule:nonzero;stroke:none"
             id="path22"
             inkscape:connector-curvature="0" /></g><g
           id="g24"
           transform="translate(742.6281,400.832)"><path
             d="m 0,0 c 0,-8.652 -0.074,-17.305 0.073,-25.954 0.025,-1.438 0.592,-3.484 1.628,-4.185 6.196,-4.194 14.568,-0.98 14.924,6.255 0.732,14.917 0.568,29.88 0.683,44.825 0.013,1.627 -0.431,3.296 -0.888,4.88 -1.28,4.434 -4.969,6.32 -10.292,5.613 C 1.664,30.84 -0.426,28.959 -0.129,23.952 0.342,15.993 -0.004,7.986 0,0 m 0.437,60.492 c 1.477,0.561 2.571,0.863 3.561,1.37 12.047,6.171 24.629,6.459 37.319,2.831 C 54.124,61.031 62.751,51.872 63.409,39.088 64.644,15.083 65.135,-9.163 63.11,-33.069 61.556,-51.424 50.215,-60.403 30.443,-63.204 c -21.153,-2.998 -42.095,-1.589 -62.207,6.525 -0.462,0.186 -0.938,0.336 -1.403,0.515 -9.971,3.821 -15.098,9.455 -14.664,21.748 1.137,32.277 0.403,64.62 0.368,96.936 -0.007,6.611 0.55,13.402 -5.181,18.501 -0.69,0.614 -0.745,2.165 -0.755,3.285 -0.065,7.162 0.049,14.327 -0.078,21.488 -0.054,3.023 1.095,4.066 4.116,4.044 14.991,-0.107 29.985,-0.149 44.975,0.025 3.664,0.042 4.474,-1.386 4.439,-4.716 C -0.086,91.656 -0.014,78.162 0.015,64.669 0.018,63.412 0.262,62.156 0.437,60.492"
             style="fill:#000000;fill-opacity:1;fill-rule:nonzero;stroke:none"
             id="path26"
             inkscape:connector-curvature="0" /></g><g
           id="g28"
           transform="translate(888.4559,396.5003)"><path
             d="m 0,0 c 1.934,7.66 3.886,15.315 5.791,22.982 0.72,2.895 1.47,5.793 1.956,8.732 0.471,2.846 0.469,5.501 -2.556,7.451 -1.207,0.778 -2.117,2.894 -2.169,4.434 -0.23,6.821 0.041,13.658 -0.159,20.481 -0.098,3.36 1.252,4.302 4.403,4.279 14.322,-0.106 28.647,-0.096 42.97,-0.013 2.949,0.018 4.214,-0.986 4.157,-4.049 C 54.261,57.138 54.357,49.974 54.332,42.813 54.329,41.99 54.427,40.946 53.992,40.379 44.839,28.456 43.784,13.563 39.316,-0.035 31.289,-24.467 24.038,-49.153 16.279,-73.675 c -1.191,-3.765 -3.192,-7.314 -5.107,-10.804 -6.33,-11.539 -16.478,-17.179 -29.327,-17.605 -7.598,-0.252 -15.239,0.555 -22.852,1.036 -3.689,0.233 -5.417,2.024 -5.147,6.139 0.393,5.97 0.285,11.993 0.032,17.978 -0.149,3.517 1.49,4.527 4.562,5.118 2.865,0.551 5.883,1.368 8.314,2.895 5.139,3.228 6.27,7.404 4.258,13.132 -10.072,28.672 -20.094,57.362 -30.314,85.981 -1.079,3.021 -3.417,5.576 -5.007,8.438 -0.835,1.503 -1.82,3.187 -1.87,4.816 -0.208,6.822 0.016,13.657 -0.135,20.482 -0.07,3.176 1.001,4.45 4.301,4.429 16.988,-0.107 33.977,-0.099 50.965,-0.003 3.145,0.018 4.534,-0.945 4.452,-4.276 -0.167,-6.825 0.02,-13.658 -0.108,-20.484 -0.026,-1.369 -0.385,-3.334 -1.315,-3.978 -3.545,-2.454 -3.777,-5.678 -2.742,-9.252 C -7.82,20.211 -4.763,10.089 -1.752,-0.046 -1.168,-0.031 -0.584,-0.015 0,0"
             style="fill:#000000;fill-opacity:1;fill-rule:nonzero;stroke:none"
             id="path30"
             inkscape:connector-curvature="0" /></g><g
           id="g32"
           transform="translate(332.6299,345.0024)"><path
             d="m 0,0 c -0.258,-0.133 -1.832,-0.931 -3.393,-1.756 -13.372,-7.071 -27.26,-9.373 -41.8,-4.134 -11.183,4.03 -17.493,12.361 -17.972,24.028 -0.811,19.776 -0.551,39.595 -1.261,59.377 -0.157,4.366 -2.464,8.659 -3.827,12.971 -0.242,0.767 -1.018,1.458 -1.026,2.19 -0.093,8.161 -0.192,16.326 0.049,24.479 0.027,0.911 2.125,2.51 3.278,2.524 14.493,0.175 28.988,0.191 43.48,-0.009 1.257,-0.018 3.306,-1.665 3.586,-2.879 0.963,-4.171 1.761,-8.482 1.803,-12.748 0.193,-19.991 0.07,-39.984 0.173,-59.975 0.017,-3.301 0.361,-6.643 0.969,-9.888 1.043,-5.562 4.17,-7.81 9.89,-7.57 5.397,0.227 6.726,1.548 6.735,6.925 0.025,13.994 0.042,27.989 -0.008,41.983 -0.02,5.687 -0.129,11.349 -4.954,15.62 -0.798,0.706 -0.964,2.415 -0.98,3.665 -0.089,6.997 0.064,13.997 -0.092,20.99 -0.069,3.083 1.157,4.069 4.116,4.053 14.993,-0.084 29.989,-0.157 44.981,0.038 4.337,0.057 4.284,-2.316 4.277,-5.405 C 47.971,88.49 48.031,62.5 47.964,36.51 47.95,31.238 47.922,26.166 52.828,22.576 53.646,21.978 53.899,20.213 53.917,18.981 54.016,11.985 53.879,4.985 54.006,-2.01 54.057,-4.831 52.948,-5.85 50.192,-5.838 35.532,-5.773 20.866,-5.968 6.215,-5.593 4.457,-5.548 2.774,-2.593 0,0"
             style="fill:#000000;fill-opacity:1;fill-rule:nonzero;stroke:none"
             id="path34"
             inkscape:connector-curvature="0" /></g><g
           id="g36"
           transform="translate(534.2064,401.6502)"><path
             d="m 0,0 c 0.151,-0.005 0.303,-0.011 0.454,-0.016 0,-7.81 -0.069,-15.62 0.046,-23.428 0.031,-2.121 0.456,-4.274 0.979,-6.342 1.003,-3.969 4.039,-5.75 7.785,-5.703 4.046,0.05 6.922,2.326 7.741,6.448 0.579,2.913 1.035,5.905 1.058,8.865 0.108,14.123 0.083,28.247 0.014,42.37 -0.01,2.132 -0.481,4.265 -0.775,6.392 -0.66,4.781 -3.383,7.704 -8.222,7.637 C 4.528,36.16 1.588,33.516 1.319,28.791 0.774,19.2 0.428,9.598 0,0 m 64.567,1.029 c 0,-10.298 0.654,-20.646 -0.143,-30.881 -1.436,-18.429 -10.899,-29.256 -29.098,-33.117 -18.419,-3.909 -37.081,-3.723 -55.307,1.113 -19.698,5.226 -26.208,18.271 -26.718,35.648 -0.547,18.639 -0.304,37.307 -0.073,55.959 0.221,17.855 10.352,29.997 28.67,33.856 C 0.663,67.56 19.594,67.082 38.249,62.87 54.317,59.242 63.26,48.812 64.394,32.412 65.114,22 64.529,11.498 64.529,1.036 64.541,1.033 64.554,1.031 64.567,1.029"
             style="fill:#000000;fill-opacity:1;fill-rule:nonzero;stroke:none"
             id="path38"
             inkscape:connector-curvature="0" /></g><g
           id="g40"
           transform="translate(409.0675,435.9551)"><path
             d="m 0,0 c -5.443,-0.467 -5.98,2.594 -5.745,6.83 0.322,5.811 0.147,11.654 0.051,17.482 -0.043,2.59 0.184,4.446 3.496,4.828 0.978,0.113 2.211,2.408 2.441,3.844 1.046,6.538 1.245,13.248 2.724,19.672 3.753,16.31 12.658,24.164 29.254,24.804 9.544,0.368 19.166,-1.084 28.742,-1.852 3.23,-0.259 4.867,-1.862 4.657,-5.565 -0.337,-5.976 -0.336,-11.999 0,-17.976 0.207,-3.673 -1.285,-5.05 -4.605,-5.593 -9.935,-1.626 -11.778,-3.652 -12.996,-13.171 -0.388,-3.036 0.624,-4.321 3.663,-4.45 3.425,-0.144 8.644,0.643 9.834,-1.141 1.808,-2.71 0.901,-7.286 0.991,-11.073 C 62.606,12.477 62.417,8.308 62.566,4.15 62.667,1.34 61.554,0.446 58.78,0.314 47.748,-0.21 47.752,-0.297 47.752,-11.419 c 0,-12.99 -0.177,-25.984 0.074,-38.97 0.127,-6.594 -1.265,-13.913 6.032,-18.317 0.575,-0.348 0.657,-1.808 0.664,-2.754 0.053,-7.161 -0.051,-14.324 0.071,-21.483 0.047,-2.792 -1.006,-3.858 -3.789,-3.849 -17.653,0.063 -35.307,-0.034 -52.958,0.189 -1.182,0.014 -3.292,2.175 -3.348,3.411 -0.323,7.147 -0.239,14.318 -0.085,21.476 0.028,1.325 0.65,3.036 1.606,3.872 3.473,3.034 4.359,6.79 4.334,11.186 C 0.257,-39.339 0.334,-22.018 0.32,-4.698 0.319,-3.235 0.126,-1.773 0,0"
             style="fill:#000000;fill-opacity:1;fill-rule:nonzero;stroke:none"
             id="path42"
             inkscape:connector-curvature="0" /></g><g
           id="g44"
           transform="translate(668.6733,358.2056)"><path
             d="m 0,0 c -0.041,-13.162 -9.874,-22.853 -23.163,-22.828 -12.95,0.023 -23.105,10.185 -23.105,23.12 -10e-4,12.912 10.576,23.22 23.727,23.125 C -9.551,23.323 0.041,13.358 0,0"
             style="fill:#000000;fill-opacity:1;fill-rule:nonzero;stroke:none"
             id="path46"
             inkscape:connector-curvature="0" /></g><g
           id="g48"
           transform="translate(742.6263,400.832)"><path
             d="m 0,0 c -0.002,7.986 0.344,15.993 -0.128,23.952 -0.296,5.007 1.793,6.888 6.258,7.482 5.323,0.707 9.012,-1.179 10.291,-5.613 0.458,-1.584 0.902,-3.253 0.889,-4.88 C 17.195,5.996 17.359,-8.967 16.626,-23.884 16.271,-31.119 7.898,-34.333 1.703,-30.139 0.667,-29.438 0.099,-27.392 0.075,-25.954 -0.072,-17.305 0.002,-8.652 0,0"
             style="fill:#ffffff;fill-opacity:1;fill-rule:nonzero;stroke:none"
             id="path50"
             inkscape:connector-curvature="0" /></g><g
           id="g52"
           transform="translate(534.2064,401.6502)"><path
             d="m 0,0 c 0.428,9.598 0.774,19.2 1.319,28.791 0.269,4.725 3.209,7.369 7.761,7.432 4.839,0.067 7.562,-2.856 8.222,-7.637 0.294,-2.127 0.765,-4.26 0.775,-6.392 0.069,-14.123 0.094,-28.247 -0.014,-42.37 -0.023,-2.96 -0.479,-5.952 -1.058,-8.865 -0.819,-4.122 -3.695,-6.398 -7.741,-6.448 -3.746,-0.047 -6.782,1.734 -7.785,5.703 -0.523,2.068 -0.948,4.221 -0.979,6.342 C 0.385,-15.636 0.454,-7.826 0.454,-0.016 0.303,-0.011 0.151,-0.005 0,0"
             style="fill:#ffffff;fill-opacity:1;fill-rule:nonzero;stroke:none"
             id="path54"
             inkscape:connector-curvature="0" /></g></g></g><path
       style="fill:#1a1a1a;fill-opacity:1"
       d="m 250.69525,276.35682 c -7.11235,3.38701 -14.05863,7.18173 -15.43618,8.43271 -1.37756,1.25099 -4.82007,3.85824 -7.65003,5.79388 -10.82828,7.40636 -45.66966,43.72812 -63.47474,66.17173 -12.73527,16.05302 -36.56389,49.49428 -43.84842,61.53719 -13.07228,21.61128 -23.376793,47.7688 -27.192034,69.02567 -6.17685,34.41464 2.519681,72.05588 24.427884,105.73128 8.24451,12.67276 17.85061,23.34041 25.84942,28.70595 3.29308,2.20898 6.64522,5.23364 7.44921,6.72148 2.50296,4.63189 10.64266,9.91698 26.47933,17.19296 29.4419,13.52676 52.24594,19.73575 80.42262,21.89713 35.19669,2.69987 68.57321,-3.58857 101.01479,-19.03208 11.38291,-5.41872 30.71795,-17.60371 34.21092,-21.5598 1.19469,-1.35308 5.62981,-5.25963 9.85585,-8.68123 9.13923,-7.39956 30.64004,-35.58661 36.79772,-48.24096 5.86374,-12.05032 9.52635,-26.30396 11.66836,-45.4094 1.76684,-15.759 1.76782,-17.75714 0.014,-28.57891 -4.63875,-28.62465 -16.7771,-58.82937 -35.51234,-88.36788 -7.7141,-12.16226 -39.78503,-54.78796 -48.55572,-64.53575 -15.93255,-17.7075 -46.53001,-47.44712 -57.09794,-55.49707 -12.23026,-9.31624 -19.70921,-13.43027 -28.91799,-15.90724 -11.11127,-2.98869 -16.17098,-2.22566 -30.50482,4.60034 l 4e-5,0 z m 81.89436,99.53609 c 7.74324,1.56623 17.37417,4.35779 21.40206,6.20348 11.56705,5.3003 28.1076,15.54807 34.56343,21.41389 10.34013,9.39515 27.73223,34.01674 32.3585,45.80921 3.86223,9.84492 12.51117,43.77125 12.51117,49.07635 0,6.75784 -1.78748,7.85828 -12.3182,7.58354 -23.14228,-0.6038 -67.16641,-16.61406 -89.20006,-32.43941 -11.66812,-8.38048 -23.45155,-19.92003 -28.84946,-28.25241 -2.52252,-3.89384 -7.1921,-13.75763 -10.37686,-21.91953 -5.25079,-13.45676 -5.94755,-16.35393 -7.47616,-31.08628 -2.06515,-19.90348 -1.89894,-21.94191 1.86289,-22.84587 3.26883,-0.7855 24.85144,2.27583 45.52269,6.45703 z m -72.53054,7.4271 c -0.17258,16.68399 -3.10715,29.15385 -11.14932,47.37687 -5.53936,12.55184 -6.53021,13.98356 -17.87045,25.82208 -6.60326,6.8934 -14.32134,14.23795 -17.15131,16.32121 -5.53854,4.07715 -21.9179,11.34684 -50.60774,22.46137 -22.50784,8.71958 -29.29241,10.505 -39.91898,10.505 -15.14295,0 -16.02948,-2.51845 -9.5781,-27.20938 10.1198,-38.73084 17.8663,-52.46909 41.24636,-73.14953 15.8758,-14.04268 18.81069,-15.84512 36.94377,-22.689 25.00622,-9.43795 42.50766,-13.22058 59.64757,-12.89177 l 8.57566,0.16452 -0.13746,13.28863 z"
       id="path4182"
       inkscape:connector-curvature="0" /><path
       style="fill:#1a1a1a;fill-opacity:1"
       d="m 205.94601,130.83172 c -10.39842,2.37696 -16.99938,6.8178 -20.58092,13.84592 -2.81201,5.51804 -2.93566,6.63465 -3.30876,29.88112 -0.4237,26.3978 0.37439,32.33258 5.2108,38.7486 6.13201,8.13477 22.8748,12.52211 43.20046,11.32041 20.57871,-1.21667 30.52751,-5.5081 35.44604,-15.28972 2.02557,-4.0283 2.32895,-7.28644 2.6554,-28.51726 0.43567,-28.33431 -0.47038,-34.3754 -6.1639,-41.09745 -6.31659,-7.45769 -13.63063,-9.70955 -33.08096,-10.18504 -11.15828,-0.27278 -18.24072,0.11906 -23.37816,1.29342 z m 24.58889,20.70906 c 2.02004,1.49119 2.2541,3.4263 2.6042,21.53054 0.21157,10.94065 0.0589,21.64706 -0.33929,23.79202 -1.31822,7.10118 -10.1276,9.67409 -13.20788,3.85759 -0.74299,-1.403 -1.22,-10.74593 -1.21596,-23.81665 0.005,-17.51763 0.33707,-22.01765 1.78766,-24.25499 2.04843,-3.1594 6.89177,-3.67708 10.37127,-1.10851 z"
       id="path4184"
       inkscape:connector-curvature="0" /><path
       style="fill:#1a1a1a;fill-opacity:1"
       d="m 116.27449,134.01374 c -1.55001,5.8451 -0.72699,13.87225 1.85201,18.06325 2.38642,3.87804 2.59983,5.74758 2.94728,25.81908 l 0.37458,21.63832 -2.94727,2.76038 c -2.60828,2.44288 -2.94728,3.66029 -2.94728,10.5841 0,6.71525 0.37855,8.17828 2.67187,10.32617 2.01662,1.88873 2.85339,4.25745 3.412,9.6586 1.34691,13.02298 6.12136,20.53342 15.30699,24.0786 4.11615,1.58864 7.32054,1.79315 18.22954,1.16349 7.27954,-0.42017 13.69189,-1.04897 14.24966,-1.39735 0.55778,-0.34837 1.01413,-4.75515 1.01413,-9.79284 l 0,-9.15943 -5.18286,-1.31888 c -5.6252,-1.43145 -7.19065,-3.3298 -7.66114,-9.29031 -0.29888,-3.78651 -0.19661,-3.88045 4.84006,-4.44601 l 5.14539,-0.57776 0.32989,-9.39528 0.3299,-9.39527 -5.18507,-0.78579 c -4.10013,-0.62136 -5.32117,-1.3338 -5.83552,-3.40484 -0.35775,-1.44049 -0.48835,-12.11573 -0.29022,-23.72277 0.34608,-20.27427 0.46135,-21.18634 2.93293,-23.20663 2.28448,-1.86735 2.5727,-3.15016 2.5727,-11.45085 l 0,-9.34793 -22.73506,0 c -22.61053,0 -22.73883,0.0142 -23.42451,2.59995 z"
       id="path4186"
       inkscape:connector-curvature="0" /><path
       style="fill:#1a1a1a;fill-opacity:1"
       d="m 25.368671,130.83341 c -5.008352,1.57863 -10.647196,6.06809 -13.065606,10.40241 -0.778427,1.39511 -1.594285,12.61558 -2.058507,28.31057 -0.6016793,20.34228 -1.1806443,26.95889 -2.6608173,30.40869 -1.348797,3.1436 -1.796343,6.95789 -1.559211,13.28863 l 0.3326,8.87944 17.7230203,0.28735 c 9.923846,0.16091 18.477781,-0.20129 19.438151,-0.82307 1.43041,-0.92609 1.81004,-6.26793 2.28684,-32.17844 0.42274,-22.97244 0.95637,-31.53573 2.04789,-32.8629 2.05009,-2.49271 6.38716,-3.39367 9.87868,-2.05213 l 2.9379,1.12882 0,21.25013 c 0,19.64867 -0.17602,21.47629 -2.33572,24.25098 -1.9807,2.54473 -2.28484,4.36865 -2.00098,12.00004 l 0.33473,8.99922 20.009855,0 20.009861,0 0.57171,-34.25782 c 0.50905,-30.50304 0.79103,-34.5025 2.5727,-36.49028 1.539833,-1.71796 2.000993,-4.2754 2.000993,-11.09686 l 0,-8.8644 -18.726444,0 c -15.67428,0 -18.97087,0.29765 -20.22617,1.82622 -1.674015,2.03843 -3.227425,1.83055 -12.758605,-1.7074 -7.53068,-2.79535 -17.233101,-3.06942 -24.75287,-0.6992 z"
       id="path4188"
       inkscape:connector-curvature="0" /><path
       style="fill:#1a1a1a;fill-opacity:1"
       d="m 300.33554,129.09657 c -7.38569,2.34634 -13.08687,11.43932 -11.56442,18.44441 1.50968,6.94636 10.25234,13.82377 17.6588,13.89129 8.99849,0.082 18.06075,-9.82369 16.91118,-18.48519 -1.3658,-10.29071 -12.71086,-17.12102 -23.00556,-13.85051 z"
       id="path4190"
       inkscape:connector-curvature="0" /><path
       style="fill:#1a1a1a;fill-opacity:1"
       d="m 371.10834,130.74556 c -10.55855,2.4603 -19.35055,6.16565 -22.39423,9.43792 l -2.76102,2.96841 -0.57172,44.85501 c -0.51754,40.60504 -0.7613,45.06655 -2.5727,47.08758 -1.56317,1.74409 -2.00098,4.30432 -2.00098,11.70139 l 0,9.46883 20.29572,-0.31555 20.29571,-0.31554 0.31564,-17.62189 c 0.18242,-10.18448 0.77589,-17.62188 1.40614,-17.62188 0.59978,0 3.28771,0.90999 5.97318,2.02219 3.26917,1.35393 7.91242,2.0173 14.05109,2.00743 7.87265,-0.0126 10.13504,-0.50259 16.00789,-3.46659 12.53824,-6.328 13.64777,-10.41988 12.91674,-47.63581 -0.41604,-21.18015 -0.74944,-24.6145 -2.84428,-29.29889 -2.60388,-5.82263 -6.75126,-9.35819 -14.30579,-12.19538 -6.85553,-2.57467 -34.47101,-3.25367 -43.81139,-1.07723 z m 22.20307,22.54042 c 2.16806,1.38683 3.34272,10.53423 3.42357,26.6602 0.0427,8.50601 -0.45126,14.32833 -1.3723,16.17747 -1.52178,3.05519 -5.70949,4.21561 -10.67145,2.95704 l -2.7204,-0.69001 0,-22.41459 c 0,-16.85047 0.35481,-22.55927 1.42928,-22.99742 2.38793,-0.97376 8.1898,-0.79386 9.9113,0.30731 z"
       id="path4192"
       inkscape:connector-curvature="0" /><path
       style="fill:#1a1a1a;fill-opacity:1"
       d="m 466.01597,98.758496 c -1.88459,0.2799 -3.73353,1.01088 -4.10874,1.624424 -0.53449,0.87398 -0.53823,13.71861 -0.005,17.31618 0.0594,0.40121 2.39442,1.31126 5.18879,2.02235 5.00878,1.27459 8.64035,4.70126 8.64035,8.15287 0,2.75108 -23.90897,66.01569 -26.96231,71.34393 -2.30512,4.02255 -2.76663,6.38788 -2.76663,14.1797 l 0,9.35182 22.58257,-0.31332 22.58255,-0.3133 0,-9.57683 c 0,-5.53688 -0.51753,-9.92399 -1.22682,-10.3998 -0.67475,-0.45264 -1.55315,-1.71744 -1.952,-2.81066 -0.83576,-2.2908 6.7504,-27.47842 8.27612,-27.47842 1.1713,0 2.4245,3.69198 5.83306,17.18441 l 2.44378,9.67344 -2.44891,3.34741 c -2.06844,2.82736 -2.39679,4.64572 -2.11338,11.70393 l 0.33552,8.35652 18.78086,0.31847 c 14.25927,0.2418 19.00372,-0.0365 19.7065,-1.15553 0.5091,-0.81071 0.93352,-4.65004 0.94315,-8.53184 0.0145,-5.83833 -0.67398,-8.39849 -3.98447,-14.81701 -2.20108,-4.26755 -4.00197,-8.53892 -4.00197,-9.49193 0,-0.953 -5.1647,-17.52533 -11.47711,-36.82741 -12.046,-36.83423 -15.25215,-43.72394 -22.69101,-48.76072 -2.12711,-1.44024 -5.72888,-3.141144 -8.00395,-3.779794 -4.07075,-1.14272 -16.85888,-1.31574 -23.57091,-0.31889 z"
       id="path4194"
       inkscape:connector-curvature="0" /></g></svg>