<?xml version="1.0" encoding="UTF-8"?>
<!DOCTYPE svg PUBLIC "-//W3C//DTD SVG 1.1//EN" "http://www.w3.org/Graphics/SVG/1.1/DTD/svg11.dtd">
<!-- Creator: CorelDRAW 2017 -->
<svg xmlns="http://www.w3.org/2000/svg" xml:space="preserve" width="540mm" height="670mm" version="1.1" style="shape-rendering:geometricPrecision; text-rendering:geometricPrecision; image-rendering:optimizeQuality; fill-rule:evenodd; clip-rule:evenodd"
viewBox="0 0 54000 67000"
 xmlns:xlink="http://www.w3.org/1999/xlink"
 xmlns:dc="http://purl.org/dc/elements/1.1/"
 xmlns:cc="http://creativecommons.org/ns#"
 xmlns:rdf="http://www.w3.org/1999/02/22-rdf-syntax-ns#"
 xmlns:svg="http://www.w3.org/2000/svg"
 xmlns:sodipodi="http://sodipodi.sourceforge.net/DTD/sodipodi-0.dtd"
 xmlns:inkscape="http://www.inkscape.org/namespaces/inkscape"
 inkscape:version="0.91 r13725"
 sodipodi:docname="khospis.svg">
 <defs>
  <style type="text/css">
   <![CDATA[
    .fil0 {fill:black}
   ]]>
  </style>
 </defs>
 <g id="Layer_x0020_1">
  <metadata id="CorelCorpID_0Corel-Layer"/>
  <g id="khospis.svg">
   <sodipodi:namedview pagecolor="#ffffff" bordercolor="#666666" borderopacity="1" objecttolerance="10" gridtolerance="10" guidetolerance="10" inkscape:pageopacity="0" inkscape:pageshadow="2" inkscape:window-width="1855" inkscape:window-height="1056" id="namedview4" showgrid="false" units="px" inkscape:zoom="0.68771029" inkscape:cx="483.87411" inkscape:cy="576.66908" inkscape:window-x="65" inkscape:window-y="24" inkscape:window-maximized="1" inkscape:current-layer="svg2"/>
   <path id="path3378" class="fil0" d="M-2267.31 33753.57l9.41 -34326.76 29166.75 0 29166.75 0 9.41 34326.76 9.42 34326.72 -29185.58 0 -29185.58 0 9.42 -34326.72zm58248.92 -11.06l0 -34205.15 -29072.76 0 -29072.76 0 0 34205.15 0 34205.14 29072.76 0 29072.76 0 0 -34205.14zm-30594.99 24252.27c-5016.22,-273.77 -9918.3,-2005.39 -13952.24,-4928.49l-364.89 -264.41 14177.75 -22.12c7797.77,-12.15 14928.01,-16.74 15845.01,-10.14 1817.87,13.05 1732.08,-1 1395.71,229.01 -51.54,35.25 -322.03,222.21 -601.11,415.46 -723.62,501.11 -694.26,482.41 -1547.7,985.3 -2015.57,1187.61 -3800.49,1950.56 -6133.49,2621.61 -2802.61,806.13 -5808.87,1138.1 -8819.06,973.81l0.02 -0.03zm-13568.56 -5943.92c-553.75,-111 -1066.67,-315.28 -1507.63,-600.46 -147.19,-95.2 -285.19,-160.31 -306.65,-144.69 -21.46,15.62 -28.25,7.85 -15.06,-17.27 13.2,-25.11 -42.39,-97.31 -123.47,-160.46 -211.37,-164.58 -642.46,-683.54 -844.5,-1016.65 -766.23,-1263.31 -981.83,-3200.01 -531.86,-4777.12 181.14,-634.87 429.58,-1136.53 837.11,-1690.4 109.09,-148.26 185.89,-285.79 170.65,-305.58 -15.24,-19.81 -5.93,-21.21 20.69,-3.15 29.84,20.26 102.44,-24.59 189.41,-117.02 1188.57,-1263.37 3399.69,-1589.24 5153.42,-759.48 544.91,257.84 1200.43,776.13 1488.9,1177.27 57.31,79.71 122.63,138.27 145.15,130.18 22.53,-8.11 28.62,-0.34 13.54,17.48 -15.05,17.72 29.25,123.84 98.5,235.85 69.23,112.01 154.17,268.95 188.71,348.78 36.84,85.06 80.13,132.59 104.63,114.77 23.21,-16.87 31.35,-10.5 18.29,14.35 -12.92,24.61 37.02,219.35 110.95,432.73 208.95,603.01 286.02,1118.5 287.67,1924.15 2,978.29 -141.66,1775.14 -448.72,2489.1 -50.08,116.44 -80.74,231.36 -68.11,255.37 12.61,24 7,38.19 -12.47,31.51 -50.42,-17.32 -387.69,585.53 -358.57,640.96 13.3,25.31 7.63,33.98 -12.55,19.31 -41.57,-30.24 -510.8,513.52 -482.1,558.67 10.21,16.07 8.91,21.16 -2.93,11.32 -11.81,-9.84 -151.34,91.83 -310.09,225.96 -560.44,473.57 -1235.27,799.47 -1955.44,944.31 -498.99,100.37 -1398.56,110.23 -1847.44,20.24l-0.03 -0.03zm1606.87 -490.89c374.29,-90.95 593.43,-191.08 923.91,-422.15 313.73,-219.35 945.56,-935.27 913.14,-1034.68 -11.52,-35.33 -1.33,-59.31 22.74,-53.5 23.99,5.78 116.56,-138.72 205.68,-321.15 577.73,-1182.5 760.27,-2503.45 553,-4002.03 -195.82,-1415.87 -896.92,-2480.58 -1958.43,-2974.1 -930.18,-432.47 -2100.91,-337.52 -2936.29,238.12 -142.01,97.88 -155.89,120.71 -112.76,185.59 43.88,65.99 42.24,67.58 -15.26,14.59 -55.05,-50.74 -79.7,-46.39 -169.14,29.78 -211.24,179.97 -546.54,616.73 -516.86,673.28 18.7,35.59 13.83,44.32 -13.59,24.4 -45.66,-33.21 -224.24,268.39 -396.89,670.22 -465.4,1083.3 -599.17,2819.34 -319.4,4145.17 150.87,714.97 606.88,1618.81 1018.3,2018.28 460.18,446.87 1044.11,757.86 1589.58,846.61 290.6,47.26 944.87,26.52 1212.22,-38.43l0.05 0zm-2889.59 -1157.09c-46.75,-70.13 -45.42,-71.7 14.2,-16.71 36.17,33.39 65.77,68.22 65.77,77.39 0,36.39 -30.88,12.97 -79.97,-60.68zm11130.25 1646.34c-891.75,-163.73 -1695.54,-637.97 -2255.16,-1330.58 -134.38,-166.3 -257,-297.91 -272.48,-292.47 -15.51,5.43 -24.6,-5.04 -20.21,-23.29 16.19,-67.32 -88.3,-233.65 -128.45,-204.47 -25.05,18.22 -30.88,9.92 -14.68,-20.88 46.14,-87.87 -14.82,-150.3 -84.33,-86.36 -54.28,49.95 -56.44,48.38 -16.44,-12.04 37.79,-57.05 19.23,-132.11 -103.87,-420.1 -171.01,-400.03 -307.49,-889.39 -399.98,-1434.05 -80.26,-472.57 -91.25,-1835.88 -18.01,-2233.17 96.04,-520.93 239.88,-1022.09 384.93,-1341.09 161.58,-355.41 169.46,-381.64 100.34,-334.83 -27.29,18.49 -33.86,14.93 -15.67,-8.46 17.24,-22.15 45.08,-40.26 61.92,-40.26 16.8,0 107.28,-122.59 201.02,-272.4 93.75,-149.8 268.84,-388.25 389.13,-529.86 120.28,-141.61 214.45,-272.74 209.29,-291.44 -5.16,-18.67 11.76,-28.99 37.58,-22.92 25.85,6.1 42.34,-15.3 36.65,-47.5 -5.69,-32.2 6.22,-46.52 26.49,-31.8 20.23,14.72 117.91,-41.19 217.06,-124.26 360.38,-301.97 934.22,-596.09 1476.96,-757.04 1091.5,-323.66 2260.53,-246.11 3468.78,230.2 417.67,164.66 513.86,217.81 495.53,273.88 -28.29,86.55 -155.68,624.66 -207.54,876.6 -21.27,103.37 -56.51,187.95 -78.29,187.95 -21.78,0 -137.89,-104.48 -257.99,-232.16 -381.12,-405.17 -959.41,-758.1 -1466.03,-894.64 -502.9,-135.56 -1313.65,-66.12 -1822.93,156.12 -410.74,179.24 -1022.36,659.93 -971.8,763.74 13.96,28.7 11.57,37.4 -5.35,19.39 -42.07,-44.85 -136.72,53.66 -106.61,110.95 13.64,25.97 6.11,32.91 -17.24,15.91 -23.93,-17.4 -107.62,73.05 -198.28,214.34 -138.32,215.53 -150.79,253.59 -105.34,321.78 46.03,69.07 44.92,71.22 -10.59,20.21 -54.43,-50.05 -75.92,-28.22 -173.92,176.89 -704.43,1474.28 -705.44,3835.8 -2.26,5286.72 65.13,134.39 129.8,220.2 153.15,203.22 24.52,-17.82 29.47,-8.51 12.56,23.66 -37.53,71.43 233.39,478.56 490.15,736.64 179.91,180.86 212.49,198.5 269.43,146.01 57.39,-52.89 59.33,-51.51 17.13,12.09 -55.48,83.61 -18.62,119.23 349.68,337.97 477.63,283.67 721.53,342.07 1426.91,341.54 552.31,-0.34 679.25,-14.14 936.09,-101.24 359.53,-121.95 922.9,-446.07 1311.33,-754.46 157.44,-124.98 291.96,-227.25 298.95,-227.25 15.9,0 -43.91,798.67 -65.29,871.56 -24.44,83.36 -758.04,482.83 -1072.99,584.26 -682.89,219.93 -1764.5,288.57 -2479.3,157.34l-0.03 0.05zm27099.53 38.59c-712.16,-125.85 -1310.72,-362.42 -1758.54,-695.05 -88.64,-65.83 -180.04,-105.96 -203.13,-89.14 -23.08,16.79 -31.64,10.84 -19.01,-13.24 12.63,-24.08 -96.09,-160.44 -241.61,-303.08 -602.2,-590.18 -1038.24,-1501.39 -1258.36,-2629.65 -78.77,-403.74 -111.59,-1709.02 -54.51,-2168.24 116.48,-937.21 412.82,-1731.17 909.04,-2435.58 78.96,-112.09 131.32,-218.21 116.32,-235.85 -14.97,-17.63 -1.89,-25.41 29.15,-17.32 34.17,8.94 51.43,-11.37 43.85,-51.58 -6.91,-36.47 0.35,-51.14 16.2,-32.55 38.69,45.54 244.19,-190.25 214.72,-246.38 -13.27,-25.27 -4.34,-30.52 20.8,-12.25 24.68,17.93 105.79,-24.32 184.35,-96.04 231.53,-211.37 572.22,-435.78 912.79,-601.24 1097.38,-533.12 2393.8,-612.45 3651.81,-223.46 338.89,104.8 518.66,174.82 938.24,365.5l100.53 45.67 -68.11 212.43c-37.47,116.83 -97.07,366.63 -132.47,555.14 -37.52,199.8 -83.56,342.71 -110.42,342.71 -25.31,0 -87.07,-51.91 -137.17,-115.36 -152.54,-193.09 -555.95,-512.59 -603.53,-478 -27.2,19.78 -34.2,13.07 -18.16,-17.43 32.02,-60.92 -310.17,-269.93 -717.54,-438.22 -273.55,-113.02 -333.92,-121.03 -913.08,-121.24 -497.18,-0.13 -668.64,16.37 -864.48,83.34 -488.37,167.02 -846.59,395.57 -1226.71,782.6 -235.22,239.53 -469.86,578.29 -447.68,646.33 9.84,30.18 -1.33,50.15 -24.81,44.37 -67.95,-16.74 -325.36,568.27 -462.4,1050.78 -200.25,705.18 -257.64,1228.17 -232.4,2117.51 28.77,1014.1 131.93,1536.5 446.35,2260.41 386.87,890.77 964.89,1480.41 1759.74,1795.19 615.39,243.7 1494.94,232.77 2143.28,-26.68 349.66,-139.91 869.12,-461.86 838.7,-519.78 -13.56,-25.81 -6.38,-33.26 16.2,-16.85 55.47,40.35 315.3,-145.66 284.71,-203.83 -14.84,-28.27 -6.46,-33.58 21.23,-13.45 48.48,35.25 201.26,-97.66 173.34,-150.81 -8.94,-17 10.55,-30.95 43.32,-30.95 50.71,0 56.08,43.31 36.19,291.12 -12.84,160.12 -23.51,364.78 -23.64,454.8 -0.35,155.19 -12.79,171.9 -241.93,322.66 -438.88,288.76 -999.89,495.51 -1618.84,596.59 -248.63,40.61 -1319.42,51.91 -1522.22,16.07l-0.11 0.03zm-47271.69 -163.99c13.35,-40.96 93.15,-193.81 177.35,-339.66 87.52,-151.64 141.67,-288.55 126.43,-319.72 -14.65,-30 -12.82,-39.78 4.12,-21.75 35.08,37.4 131.64,-43.26 131.64,-109.94 0,-24.32 -29.6,-16.92 -65.76,16.47 -59.52,54.93 -60.9,53.39 -14.55,-16.2 28.19,-42.31 64.38,-67.35 80.45,-55.65 16.06,11.7 56.43,-27.64 89.7,-87.37 72.6,-130.36 76.99,-172.35 13.51,-129.35 -27.29,18.48 -33.86,14.93 -15.67,-8.46 17.24,-22.15 45.61,-40.27 63.06,-40.27 55.63,0 266.37,-377.35 239.4,-428.67 -14.39,-27.4 -9.04,-37.05 11.99,-21.75 50.96,37.05 737.49,-1149.16 703.02,-1214.75 -15.26,-29.04 -10.4,-39.07 11.28,-23.31 52.23,37.98 1224.9,-2039.02 1197.93,-2121.75 -11.62,-35.65 -40.71,-50.48 -64.78,-33 -27.29,19.84 -33.51,12.42 -16.57,-19.81 53.72,-102.27 -1977.2,-3925.08 -2055.12,-3868.4 -22.44,16.34 -27.97,7.16 -12.95,-21.43 14.42,-27.45 -73.9,-225.13 -196.32,-439.28l-222.54 -389.37 669.67 -1.38 669.67 -1.38 937.07 1890.49 937.07 1890.49 125.42 -229.51c68.99,-126.22 334.37,-602.58 589.73,-1058.52 266.66,-476.13 452.87,-850.82 437.45,-880.21 -16.07,-30.56 -10.48,-39.23 13.88,-21.54 42.04,30.58 310.91,-452.65 662.3,-1190.37l191.58 -402.21 495.03 2.5c272.24,1.37 487.42,16.94 478.14,34.61 -9.29,17.66 -37.48,23.02 -62.66,11.91 -46.51,-20.53 -241.53,276.96 -224.32,342.2 5.16,19.61 -5.32,30.67 -23.27,24.59 -17.98,-6.1 -215.36,287.44 -438.65,652.27 -1225.43,2002.26 -1412.31,2321.84 -1386.43,2371.12 16.14,30.74 11.65,40.98 -10.8,24.67 -46.99,-34.17 -398.33,575.32 -366.52,635.87 12.47,23.74 41.04,29.84 63.48,13.53 24.95,-18.14 29.95,-8.99 12.85,23.53 -20,38.08 -41.65,39.81 -76.22,6.07 -36.09,-35.22 -63.72,-19.39 -109.41,62.62 -80.02,143.71 -77.55,177.6 26.03,356.95 83.38,144.35 90.29,147.63 158.48,75.04 69.28,-73.74 69.46,-73.26 6.22,16.79 -63.24,90.05 -55.07,112.09 286.53,773.88 628.76,1218.06 711.26,1365.05 750.27,1336.7 22.29,-16.21 27,-6.15 11.23,23.9 -35.85,68.24 123.02,368.91 174.99,331.12 24.17,-17.59 29.17,-8.25 12.52,23.42 -15.8,30.08 43.99,189.38 139.51,371.65 91.94,175.45 349.19,667.25 571.65,1092.9 222.46,425.62 444.6,844.59 493.64,931.03 49.04,86.44 89.19,166.03 89.22,176.88 0.03,10.85 -305.11,13.87 -678.1,6.74 -676.55,-12.97 -678.26,-13.26 -719.66,-120.23 -22.85,-58.99 -54.79,-97.58 -71.01,-85.78 -16.22,11.8 -41.73,-1.86 -56.7,-30.34 -16.99,-32.34 -10.9,-39.92 16.2,-20.21 76.46,55.59 48.96,-19.61 -243.23,-665.29 -164.22,-362.9 -303.12,-621.37 -325.3,-605.27 -22.26,16.18 -27.31,6.47 -11.86,-22.92 14.81,-28.19 -94.63,-303.45 -244.43,-614.86 -381.92,-794.01 -466.33,-946.39 -502.66,-907.51 -17.52,18.76 -19.6,9.02 -4.57,-21.67 26.88,-54.9 -80.79,-287.27 -422.61,-911.95l-166.56 -304.39 -276.79 503.39c-152.23,276.85 -268.95,528.03 -259.4,558.14 9.57,30.1 -3.14,50.02 -28.24,44.21 -25.11,-5.78 -43.33,24.08 -40.48,66.39 2.84,42.3 -9.02,66.63 -26.3,54.03 -44.15,-32.1 -119.57,147.49 -87.55,208.45 15.77,29.99 9.6,37.95 -15.35,19.81 -64.38,-46.82 -1428.24,2709.61 -1383.13,2795.44 12.47,23.77 -165.95,41.99 -429.79,43.9 -248.12,1.83 -470.61,17.43 -494.41,34.75 -28.88,21 -35.21,6.71 -18.99,-43l-0.05 -0.02zm26518.6 38.64c-13.4,-15.78 -254.13,-28.09 -534.97,-27.32l-510.58 1.38 -0.96 -4862.82 -0.96 -4862.82 3627.37 0 3627.37 0 0.08 4875.39 0.08 4875.39 -545.05 -13.34 -545.05 -13.31 0 -4501.23 0 -4501.22 -1230.16 -27.35c-676.61,-15.04 -1818.2,-15.04 -2536.88,0.05l-1306.7 27.4 -9.58 4529.26c-5.26,2491.09 -20.55,4516.35 -33.96,4500.57l-0.05 -0.03zm8547.02 -11.46l-159.75 -16.52 0 -4850.73 0 -4850.72 544.94 -5.55 544.95 -5.54 0 3709.07c0,3006.84 9.22,3709.08 48.69,3709.08 73,0 1499.51,-1940.57 1469.06,-1998.5 -15.02,-28.59 -8.99,-37.05 14.31,-20.1 50.26,36.55 315.99,-321.54 283.92,-382.6 -12.9,-24.56 -6.2,-32.1 14.92,-16.76 59.81,43.49 166.21,-122.46 139.75,-217.9 -15.53,-55.96 -12.02,-65.54 10.53,-28.83 47.53,77.32 323.07,-255.76 291.56,-352.39 -12.48,-38.22 -4.79,-82.46 17.04,-98.35 25.05,-18.22 30.85,0.43 15.72,50.82 -15,49.73 27.52,22.41 113.16,-72.67 75.45,-83.79 132.94,-183.31 127.81,-221.1 -5.13,-37.83 10.42,-64.32 34.63,-58.88 62.41,14 282.37,-292.72 251.74,-351.02 -13.99,-26.63 -8.51,-36.1 12.15,-21.08 42.6,30.98 2016.21,-2606.55 2016.21,-2694.47 0,-31.35 12.69,-47.8 28.16,-36.53 36.46,26.5 296.77,-330.43 286.56,-392.92 -4.26,-26.15 11.22,-48.43 34.41,-49.54 23.19,-1.12 122.01,-106.49 219.59,-234.18l177.41 -232.16 278.41 0 278.42 0 0 4862.82 0 4862.82 -507.02 -1.38c-278.87,-0.63 -524.12,11.06 -545,26.24 -25.45,18.51 -37.97,-1255.36 -37.97,-3866.47 0,-3764.69 -2.34,-3894.08 -69.81,-3894.08 -83.19,0 -690.79,831.78 -656,898.01 12.79,24.38 5.66,31.48 -15.85,15.86 -49.44,-35.96 -955.61,1205.97 -923.94,1266.29 12.87,24.51 5.38,31.45 -16.67,15.41 -48.67,-35.38 -281.45,298.02 -243.02,348.04 14.95,19.47 9.39,23.5 -12.37,8.99 -42.63,-28.46 -1169.42,1499.91 -1153.81,1564.99 5.16,21.57 -7.63,34.22 -28.43,28.15 -54.46,-15.92 -640.89,811.32 -612.92,864.58 12.88,24.51 6.15,31.99 -14.97,16.66 -59.81,-43.5 -166.21,122.46 -139.75,217.89 15.58,56.2 12.1,65.65 -10.64,28.65 -45.82,-74.56 -295.25,221.94 -253.52,301.36 17.76,33.81 13.4,43.65 -11.41,25.62 -22.13,-16.1 -117.76,75.01 -212.54,202.45 -165.18,222.16 -220.81,340.06 -128.9,273.25 27.1,-19.71 33.19,-12.12 16.19,20.21 -14.97,28.48 -40.47,42.12 -56.72,30.31 -43.03,-31.29 -196.69,174.61 -162.94,218.35 15.69,20.34 10.07,24.61 -12.48,9.52 -41.32,-27.69 -228.57,227.99 -212.14,289.66 4.87,18.25 -5.21,28.2 -22.37,22.12 -33.42,-11.83 -269.05,284.47 -624.13,784.94 -120.79,170.25 -229.96,310.85 -242.57,312.47 -12.61,1.59 -94.81,-4.51 -182.67,-13.6l0.07 -0.06zm-26179.28 -282.26c25.5,-30.21 55.82,-43.82 67.39,-30.18 11.56,13.6 -9.29,38.35 -46.36,54.95 -53.56,24.01 -57.89,18.91 -21.03,-24.74l0 -0.03zm41450.2 8.54c-11.89,-22.65 -7.26,-51.62 10.32,-64.4 17.55,-12.78 31.94,5.76 31.94,41.16 0,74.56 -11.87,81.09 -42.26,23.21l0 0.03zm-13119.13 -3717.64c37.42,-48.65 76.49,-88.43 86.83,-88.43 10.35,0 -11.83,39.78 -49.22,88.43 -37.42,48.64 -76.49,88.45 -86.83,88.45 -10.35,0 11.83,-39.81 49.22,-88.45zm13382.22 -4065.29c-11.88,-22.65 -7.26,-51.61 10.32,-64.4 17.55,-12.78 31.94,5.76 31.94,41.17 0,74.56 -11.86,81.08 -42.26,23.21l0 0.02zm-9995.21 -586.03c10.85,-20.67 35.48,-26.13 54.73,-12.13 49.18,35.76 43.64,49.71 -19.73,49.71 -30.1,0 -45.85,-16.9 -35,-37.58zm-31449.75 -953.71c-46.75,-70.13 -45.42,-71.69 14.2,-16.71 36.17,33.39 65.77,68.22 65.77,77.4 0,36.39 -30.88,12.97 -79.97,-60.69zm2212.98 -930.87l-216.13 -13.26 0 -2293.38 0 -2293.39 225.57 -14.98 225.58 -14.99 0.13 287.44 0.13 287.43 72.79 -129.91c40.02,-71.45 62.58,-151.05 50.1,-176.88 -12.47,-25.84 -9.17,-32.6 7.37,-15.04 16.52,17.56 79.73,-17.27 140.47,-77.4 60.74,-60.13 151.29,-121.4 201.24,-136.14 49.94,-14.75 84.06,-39.63 75.82,-55.28 -8.25,-15.65 139.86,-17.34 329.13,-3.82 243.92,17.48 387.9,51.51 494.46,116.87 82.69,50.71 167.25,94.34 187.95,96.97 20.66,2.62 37.63,19.65 37.71,37.9 0.08,18.25 44.91,102.8 99.67,187.94 220.52,342.9 311.71,821.7 252.41,1325.25 -94.39,801.25 -468.09,1268.99 -1053.32,1318.25 -331.47,27.9 -537.76,-61.3 -740.59,-320.2l-150.93 -192.64 -3.43 1043.76c-1.89,574.07 -7.18,1044.86 -11.78,1046.22 -4.6,1.38 -105.6,-3.5 -224.48,-10.8l0.13 0.08zm1272.11 -1906.11c164.32,-87.79 276.31,-262.13 375.11,-583.97 82.34,-268.21 84.65,-960.65 4.31,-1281.06 -67.98,-271.07 -259.88,-549.78 -350.41,-508.91 -30.39,13.74 -46.14,7.54 -34.94,-13.73 58.72,-111.77 -403.75,-122.04 -576.86,-12.82 -523.74,330.49 -630.7,1784.29 -166.53,2263.79 74.15,76.6 157.97,127.28 188.02,113.73 29.84,-13.47 44.65,-6.23 32.93,16.07 -11.73,22.31 16.99,49.23 63.82,59.81 182.68,41.33 316.85,26.05 464.58,-52.89l-0.03 -0.02zm1984.96 1085.98l357.99 -811.3 -527.84 -1454.58c-290.31,-800 -547.66,-1469.4 -571.89,-1487.54 -24.22,-18.15 85.64,-33.27 244.14,-33.66l288.17 -0.56 58.64 187.95c32.26,103.36 102.1,327.24 155.23,497.5 164.75,528.03 549.76,1569.84 580.13,1569.84 44.17,0 426.94,-1070.3 731.47,-2045.22l65.61 -210.04 186.13 0c165.47,0 182.28,8.59 151.35,77.39 -19.15,42.57 -153.26,385.84 -298.07,762.82 -144.8,376.98 -317.72,824.72 -384.26,994.97 -288.36,737.86 -857.71,2283.31 -973.42,2642.22 -35.69,110.66 -56.41,121.61 -230.28,121.61l-191.08 0 357.98 -811.3 0 -0.1zm18245.55 -848.01l-12.81 -242.32 112.76 -0.35c94.01,-0.29 123.07,-27.9 174.77,-165.77 523.64,-1396.22 631.08,-1703.74 609.54,-1744.74 -15.24,-29.02 -8.06,-35.75 17.98,-16.82 23.85,17.35 43.4,12.18 43.4,-11.51 0,-23.68 52.23,-203.94 116.06,-400.61l116.05 -357.54 160.98 0 160.97 0 398.25 1160.81c577.65,1683.73 516.38,1535.71 635.74,1536.24 100.36,0.34 103.37,7.58 103.37,247.36 0,135.8 -12.69,239.21 -28.19,229.82 -283.95,-171.98 -290.04,-172.69 -1338.33,-158.69 -881.54,11.78 -1036.35,24 -1138.92,90.05l-118.72 76.44 -12.82 -242.32 -0.08 -0.05zm1847.93 -695.48c-180.76,-579.77 -281.26,-874.4 -411.28,-1205.41 -57.39,-146.14 -117.39,-313.98 -133.29,-372.95l-28.94 -107.23 -52.81 118.61c-55.1,123.73 -426.36,1205.44 -590.92,1721.78l-95.16 298.49 726.85 0 726.84 0 -141.29 -453.26 0 -0.03zm847.05 810.09c-11.89,-22.66 -7.26,-51.62 10.32,-64.4 17.55,-12.76 31.94,5.75 31.94,41.16 0,74.56 -11.86,81.08 -42.26,23.24zm-34925.29 -82.33c-236.08,-99.1 -433.46,-270.62 -573.85,-498.67 -57.84,-93.97 -118.61,-156.6 -135.02,-139.17 -16.41,17.43 -18.78,8.91 -5.27,-18.89 13.51,-27.82 -4.2,-137.25 -39.36,-243.22 -51.03,-153.78 -62.92,-326.47 -59.03,-855.96 6.83,-930.93 116.16,-1473.57 378.16,-1876.97 56.17,-86.46 97.53,-173.62 91.91,-193.67 -5.61,-20.05 5.99,-24.69 25.75,-10.32 19.76,14.38 98.77,-24.03 175.57,-85.35 248.82,-198.66 730.23,-313.51 1434.73,-342.29l310.09 -12.67 0 179.43 0 179.43 -591.99 -2.2c-561.56,-2.1 -602.59,3.71 -798.7,112.83 -237.3,132.03 -389.76,298.18 -493.75,538 -71.32,164.47 -153.87,563.04 -116.61,563.04 10.4,0 71.64,-38.14 136.08,-84.74 343.46,-248.34 965.37,-286.96 1343.3,-83.39 627.67,338.09 877.87,1272.01 561.03,2094.16 -208.07,539.92 -585.07,822.84 -1129.38,847.61 -239.82,10.93 -367.9,-5.78 -513.72,-66.99l0.06 0zm773.09 -205.91c309.26,-188.15 503,-680.56 505.5,-1284.66 1.76,-428.94 -64.04,-796.77 -133.47,-746.27 -25.91,18.83 -30.99,10 -13.46,-23.36 41.83,-79.63 -153.5,-384.68 -297.93,-465.31 -153.88,-85.91 -469.58,-90.15 -631.3,-8.51 -186.29,94.05 -353.75,318.41 -443.8,594.58 -94.68,290.38 -117.63,969.25 -42.9,1268.4 70,280.17 235.6,543.92 402.56,641.16 180.33,105.03 502.26,116.83 654.83,24l-0.03 -0.03zm2215.43 223.57c-250.15,-105.11 -463.09,-280.78 -587.49,-484.61 -192.33,-315.07 -244.51,-528.08 -245.36,-1001.5 -0.85,-482.57 79.52,-778.76 295.41,-1088.76 69.83,-100.26 118.02,-192.83 107.12,-205.67 -10.93,-12.86 2.42,-21.43 29.62,-19.07 27.21,2.36 134.07,-44.29 237.41,-103.71 156.69,-90.04 244.14,-108.03 526.19,-108.21 305.36,-0.21 358.25,12.68 543.67,132.43 350.38,226.3 565.12,674.68 565.12,1179.9l0 213.09 -926.22 0 -926.22 0 23.62 265.87c26.35,296.51 153.79,639.22 219.85,591.18 24.36,-17.71 31.49,-10.58 16.99,17 -42.57,81.03 240.76,314.1 448.25,368.73 107.17,28.23 268.81,38.15 359.21,22.05 193.1,-34.41 469.49,-209.46 454.68,-288 -5.69,-30.1 8.08,-41.37 30.55,-25.01 22.5,16.37 73.64,-5.14 113.69,-47.79 70.72,-75.3 72.82,-73.02 72.82,78.69 0,85.91 -25.19,180.81 -55.96,210.86 -30.76,30.05 -45.07,75.38 -31.78,100.69 14.37,27.34 5.91,32.73 -20.85,13.28 -24.75,-18 -65.44,-13.79 -90.36,9.39 -24.95,23.19 -143.24,84.59 -262.86,136.47 -251.61,109.09 -678.31,124.66 -897.1,32.7zm1020.68 -1943.85c0,-223.12 -67.23,-481.91 -115.97,-446.47 -18.43,13.39 -23.57,-6.1 -11.44,-43.32 32.21,-98.72 -192.86,-350.77 -287.27,-321.73 -40.71,12.52 -64.57,4.75 -52.97,-17.32 11.59,-22.04 -56.6,-40.1 -151.51,-40.1 -208.15,0 -450.75,107.79 -411.36,182.8 15.82,30.1 11.17,40.24 -11.06,24.08 -82.98,-60.34 -276.56,346.45 -327.72,688.61l-24.79 165.82 697.03 0 697.04 0 0 -192.4 0.02 0.03zm4209.62 1935.1c-93.02,-39.2 -224.21,-120.1 -291.52,-179.8 -67.31,-59.68 -139.62,-95.99 -160.68,-80.69 -21.07,15.31 -34.5,11.43 -29.87,-8.59 4.63,-20.05 -46.27,-135.96 -113.13,-257.57 -66.88,-121.61 -146.37,-319.24 -176.64,-439.18 -79.52,-314.89 -70.93,-815.25 18.72,-1092.85 40.59,-125.64 64.71,-245.74 53.59,-266.9 -11.12,-21.14 -6.25,-34.3 10.8,-29.26 17.04,5.07 113.69,-86.31 214.75,-203.06 478.03,-552.14 1256.04,-623.65 1774.55,-163.12 381.44,338.78 559.86,1062.08 410.8,1665.33 -80.82,327.14 -223.21,617.52 -361.95,738.2 -58.37,50.79 -95.63,114.05 -82.81,140.58 12.84,26.52 10.87,35.11 -4.37,19.07 -15.23,-16.05 -123.66,22.7 -240.94,86.09 -272.35,147.21 -760.83,181.5 -1021.35,71.72l0.05 0.03zm775.92 -223.06c260.7,-145.54 501.99,-760.43 501.99,-1279.15 0,-564.69 -185.52,-1068.29 -451.04,-1224.36 -142.94,-84 -464.28,-102.96 -613.55,-36.2 -139.2,62.28 -370.12,317.51 -348.15,384.86 10.64,32.59 0.21,54.53 -23.06,48.75 -75.76,-18.81 -184.11,496.54 -185.57,882.57 -2.31,614.89 163.9,1044.86 474.97,1228.67 148.88,87.98 482.37,85.3 644.38,-5.14l0.03 0zm7933.41 247.19c-78.18,-22.78 -191.85,-71.64 -252.56,-108.58 -60.72,-36.95 -131.3,-61.99 -156.8,-55.68 -25.53,6.32 -47.18,-10.58 -48.11,-37.58 -0.93,-27 -65.66,-126.49 -143.79,-221.1 -266,-322.02 -390.19,-823.98 -329.29,-1330.9 42.41,-353.13 117.68,-546.14 307.27,-788.14 380.88,-486.15 1091.13,-643.97 1694.07,-376.42 195.97,86.97 213.79,105.98 206.72,221.07 -4.26,69.25 -19.04,117.74 -32.85,107.74 -13.82,-10 -36.3,41.69 -49.97,114.87 -13.67,73.18 -32.47,133.04 -41.78,133.04 -9.33,0 -71.27,-72.78 -137.65,-161.71 -374.87,-502.33 -1032.14,-399.63 -1317.92,205.93 -265.49,562.56 -189.67,1391.34 165.52,1809.25 162.09,190.7 309.08,272.29 541.27,300.48 243.42,29.58 432.79,-38.7 670.09,-241.57 99.17,-84.77 188.93,-143.97 199.46,-131.59 10.53,12.42 5.11,89.41 -12.07,171.13 -26.07,123.92 -68.51,170.57 -255.84,281.23 -190.73,112.65 -272.78,133.97 -544.09,141.32 -175.71,4.75 -383.46,-10 -461.65,-32.79l-0.03 0zm2466.99 -42.35c-295.62,-113.5 -567.2,-395.12 -713.18,-739.56 -98.56,-232.53 -108.18,-296.64 -108.18,-719.61 0,-402.86 12.18,-493.57 91.96,-685.42 50.58,-121.61 90.63,-245.21 88.98,-274.65 -1.65,-29.44 8.38,-49.36 22.29,-44.21 13.88,5.14 96.06,-61.83 182.57,-148.77 127.94,-128.56 148.71,-169.46 111.27,-218.98 -38.64,-51.09 -35.85,-51.86 17.31,-4.7 50.1,44.46 81.19,44.99 148.61,2.55 312.69,-196.88 855.64,-225.45 1253.65,-65.94 144.59,57.96 274.58,96.84 288.86,86.44 26.86,-19.52 -3.27,115.06 -84.25,376.5l-46.62 150.5 -116.48 -153.55c-231.63,-305.39 -479.49,-395.99 -820.19,-299.82 -265.04,74.8 -525.66,377.72 -608.95,707.78 -85.32,337.96 -76.78,823.29 19.81,1127.01 144.49,454.38 407.16,711.07 771.2,753.75 243.5,28.54 529.02,-57.08 511.33,-153.34 -5.69,-30.9 7.74,-43.04 29.81,-27 22.08,16.05 99.73,-24.27 172.55,-89.62 72.81,-65.35 141.77,-107.79 153.23,-94.29 11.46,13.47 9.97,92.57 -3.27,175.74 -21.35,133.87 -50.98,165.51 -258.23,275.69 -315.17,167.58 -765.59,193.46 -1104.11,63.5l0.03 0zm16461.4 6.55c-294.85,-119.86 -527.6,-368.49 -665.47,-710.75 -107.89,-267.86 -117.04,-326.93 -117.04,-754.94 0,-418.75 10.67,-491.51 108.69,-741.23 191.96,-489.06 539.76,-760.77 1018.88,-795.97 189.22,-13.9 310.59,1.75 432.23,55.75 93.03,41.3 197.49,77.4 232.14,80.21 34.66,2.81 55.32,19.76 45.93,37.64 -9.39,17.88 16.57,53.71 57.71,79.62 195.36,123.02 415.91,702.64 415.91,1093.01l0 190.97 -920.85 0 -920.85 0 2.02 210.04c2.29,235.85 109.06,608.05 174.43,608.05 23.54,0 56.88,18.12 74.09,40.26 18.48,23.77 10.08,25.78 -20.53,4.91 -119.38,-81.4 -8.67,94.48 130.05,206.56 192.75,155.78 460.26,230.41 684.26,190.89 210.82,-37.18 266.45,-68.4 524.23,-294.17 170.36,-149.22 192.43,-158.85 164.94,-71.9 -17.45,55.19 -26.94,136.59 -21.07,180.89 13.38,100.95 -264.13,315.95 -525.9,407.42 -249.32,87.13 -635.81,79.5 -873.85,-17.26l0.05 0zm1067.01 -1976.22c-28.16,-321.14 -151.48,-613.51 -306.21,-726.02 -170.73,-124.16 -666.92,-122.12 -601.5,2.46 11.3,21.49 -3.57,28.2 -33.01,14.91 -32.47,-14.67 -107.36,49.84 -190.41,163.99 -128.53,176.7 -176.16,308.71 -233.92,648.53l-24.02 141.32 705.31 0 705.3 0 -21.51 -245.19 -0.03 0zm3764.7 1991.55c-388.06,-146.12 -718.39,-529.97 -830.91,-965.54 -26.11,-101.1 -46.83,-353 -46.03,-559.72 1.25,-322.77 16.91,-413.37 110.87,-641.21 60.18,-145.93 107.94,-289.98 106.13,-320.14 -1.8,-30.13 9.47,-45.54 25.06,-34.21 41.8,30.39 156.08,-133.04 123.02,-175.93 -15.56,-20.16 -6.38,-21.81 20.35,-3.66 59.57,40.45 166.58,-55.33 133.07,-119.12 -13.29,-25.33 -7.28,-33.76 13.38,-18.73 20.66,15.02 128.98,-15.86 240.73,-68.64 164.17,-77.53 282.51,-96.31 616.61,-97.87 372.4,-1.72 434.92,9.92 629.67,117.29l216.21 119.22 -65.87 208.71c-36.22,114.8 -75.95,200.44 -88.29,190.34 -12.34,-10.11 -54.63,11.45 -93.96,47.95 -67.04,62.15 -68.08,61.14 -16.54,-15.91 50.16,-74.99 42.95,-95.28 -81.54,-229.51 -361.09,-389.34 -971.48,-265.53 -1243.6,252.29 -145.36,276.61 -205.17,699.96 -151.26,1070.33 47.52,326.35 153.07,615.13 209.77,573.89 23.7,-17.24 27.95,-7.03 10.72,25.78 -74.41,141.66 322.21,439.02 636.48,477.18 241.53,29.34 420.72,-36.17 641.56,-234.49 92.28,-82.89 177.14,-150.71 188.55,-150.71 11.41,0 15.48,74.11 9.07,164.69 -10.77,151.85 -28.8,174.97 -231.45,296.64 -188.85,113.36 -268.2,133.68 -563.8,144.26 -227.27,8.14 -403.06,-9.92 -518.03,-53.21l0.03 0.03zm-36002.52 5.89c0,-9.15 91.38,-242.96 203.05,-519.6 329.16,-815.41 589.49,-1556.98 568.8,-1620.4 -10.59,-32.46 -4.05,-47.98 14.54,-34.45 33.59,24.42 266.03,-633.84 266.03,-753.43 0,-45.36 50.28,-62.54 182.96,-62.54l182.97 0 134.86 409.04c210.23,637.65 563,1646.42 750.04,2144.75l170.12 453.26 -250.04 -0.06 -250.04 -0.05 -68.45 -276.32c-76.22,-307.65 -540.71,-1694.67 -656.21,-1959.53l-74.12 -169.94 -74.7 174.82c-96.01,224.68 -408.84,1145.18 -596.56,1755.46l-146.17 475.11 -178.52 0.22c-98.19,0.13 -178.53,-7.22 -178.53,-16.37l-0.03 0.03zm16650.6 -1486.91l0 -1503.51 225.51 0 225.52 0 0 641.2c0,418.23 13.73,641.21 39.44,641.21 85.16,0 262.62,-138.48 237.86,-185.61 -15.18,-28.89 -8.8,-36.79 15.43,-19.15 51.03,37.1 539.3,-545.62 507.65,-605.88 -12.5,-23.76 -4.44,-29.94 17.9,-13.71 22.42,16.31 121.8,-79.41 221.93,-213.73 180.73,-242.45 182.04,-243.25 400.56,-243.8 120.58,-0.29 213.6,16.44 206.72,37.24 -6.89,20.79 -249.32,276.42 -538.75,568.1 -289.42,291.68 -546.11,558.48 -570.42,592.94 -35.87,50.84 75.66,226.83 592.92,935.43l637.09 872.78 -276.92 0 -276.93 0 -453.96 -630.14c-527.71,-732.53 -664.03,-894.14 -719.93,-853.48 -26.46,19.23 -40.64,283.17 -40.64,756.58l0 727.04 -225.52 0 -225.52 0 0 -1503.51 0.06 0zm2668.62 0l0 -1503.51 225.51 0 225.52 0 1.71 1072.37 1.7 1072.37 190.52 -243.22c336.15,-429.12 821.33,-1157.35 799.18,-1199.53 -11.81,-22.46 -4.15,-35.38 16.99,-28.69 54.42,17.18 348.04,-451.01 318.34,-507.58 -14.13,-26.9 -6.65,-33.72 17.63,-16.05 23.19,16.87 63.69,-9.92 90.02,-59.49 32.26,-60.77 87.79,-90.16 170.36,-90.16l122.52 0 0 1503.52 0 1503.51 -225.52 0 -225.52 0 0 -1081.53 0 -1081.52 -172.51 216.99c-105.32,132.46 -161.62,237.76 -144.54,270.28 16.22,30.9 12.18,41.77 -9.66,25.88 -55.02,-40.02 -251.42,215.96 -216.58,282.27 17.74,33.79 13.22,43.39 -11.89,25.14 -54.27,-39.47 -510.13,618.82 -474.94,685.84 15.9,30.27 10.5,39.31 -13.17,22.07 -35.69,-25.96 -365.48,437.35 -412.37,579.3 -10.02,30.4 -75.63,55.28 -145.78,55.28l-127.52 0 0 -1503.51 0 -0.03zm2969.29 0l0 -1503.51 224.85 0 224.86 0 10.05 1072.37 10.05 1072.37 257.49 -353.77c529.91,-728.04 817.66,-1172.76 791.31,-1222.97 -16.38,-31.17 -10.29,-39.02 15.64,-20.16 25.61,18.62 112.57,-83.87 219.34,-258.5 156.27,-255.58 191.38,-289.34 300.68,-289.34l123.74 0 -8.43 1481.41c-5.42,955.2 4.92,1488.03 29.17,1500.04 20.67,10.24 -76.59,20.19 -216.13,22.12l-253.71 3.48 -0.82 -1094.47c-0.82,-1084.17 -1.52,-1093.46 -72.23,-985.16 -39.28,60.13 -61.64,127.87 -49.73,150.55 11.91,22.67 4.36,28.64 -16.81,13.26 -49.65,-36.1 -436.62,485.46 -404.95,545.77 13.17,25.09 3.49,40.13 -21.51,33.45 -61.57,-16.45 -753.84,989.91 -730.92,1062.5 10,31.67 1.33,45.31 -19.3,30.29 -20.64,-15.01 -66.94,33.58 -102.92,107.98 -51.86,107.18 -90.77,135.3 -187.57,135.54l-122.15 0.21 0 -1503.51 0 0.05zm11342.66 147.92l10.48 -1355.67 -462.18 27.56 -462.18 27.56 -3.91 -175.46 -3.91 -175.45 1141.55 0 1141.56 0 0 175.96 0 175.95 -470.9 -28.08 -470.91 -28.09 10.48 1355.67 10.48 1355.67 -225.52 0 -225.52 0 10.48 -1355.67 0 0.05zm4293.13 -147.92l0 -1503.51 216.13 0.05 216.13 0.05 0 615.43c0,338.49 11.41,628.82 25.34,645.21 59.44,69.78 214.96,-58.7 555.37,-458.83 199.35,-234.31 425.77,-510.61 503.16,-613.97 136.99,-182.98 146.83,-187.94 373.04,-187.94 274.13,0 323.12,-79.28 -423.3,685.1 -279.08,285.79 -512.95,536.73 -519.71,557.66 -18.56,57.37 1083.74,1548.2 1123.42,1519.37 18.91,-13.77 25,3.82 13.51,39.02 -12.02,36.81 15.69,94.18 65.18,134.95 82.05,67.61 71.94,70.92 -215.49,70.92l-301.55 0 -216.9 -310.19c-122.66,-175.43 -234.59,-297.36 -257.62,-280.62 -24.12,17.53 -29.89,8.99 -14.15,-20.98 31.67,-60.29 -565.66,-891.72 -640.63,-891.72 -27.97,0 -53.77,44.77 -57.31,99.49 -3.53,54.72 -10.18,129.35 -14.78,165.82 -4.6,36.47 -10.16,330.01 -12.37,652.27l-3.99 585.93 -206.71 0 -206.72 0 0 -1503.51 -0.05 0zm2631.01 0l0 -1503.51 225.52 0 225.52 0 0 1080.78 0 1080.78 187.94 -233.78c172.06,-214.05 240.07,-334.7 152.94,-271.36 -19.25,14 -45.07,6.26 -57.39,-17.19 -12.42,-23.63 10.99,-35.06 52.55,-25.65 55.93,12.68 137.89,-71.85 323.15,-333.13 147.3,-207.82 237.14,-371.2 220.94,-401.99 -16.38,-31.2 -11.03,-40.11 13.38,-22.34 23.56,17.14 156.32,-155.13 315.89,-409.92 248.01,-395.97 287.35,-439.81 397.42,-442.81l122.15 -3.34 0 1503.51 0 1503.51 -225.52 0 -225.52 0 0 -1091.86c0,-950.9 -6.86,-1080.86 -53.06,-1006.52 -29.17,46.95 -44.83,101 -34.78,120.1 10.05,19.12 0,29.28 -22.15,22.6 -51.52,-15.49 -598.21,734.06 -1036.38,1421 -308.84,484.16 -348.92,530.49 -460.43,532.48l-122.14 2.2 0 -1503.51 -0.03 -0.05zm2969.3 0l0 -1503.51 225.51 0 225.52 0 0 1093.27 0 1093.27 167.47 -219.9c161.87,-212.59 217.03,-325.05 127.44,-259.91 -27.1,19.71 -33.19,12.12 -16.2,-20.21 14.95,-28.49 42.28,-40.79 60.71,-27.4 38.75,28.17 510.77,-630.75 886.92,-1238.06 233.2,-376.53 270.2,-417.27 380.48,-419.07l122.15 -1.99 0 1503.51 0 1503.51 -225.52 0 -225.52 0 0 -1086 0 -1086.01 -187.81 252.5c-158.74,213.41 -180.54,263.44 -140.94,323.19 40.79,61.54 38.88,63.34 -14.71,14.11 -53.93,-49.54 -114.75,21.7 -490.9,574.87 -236.16,347.3 -479.07,715.58 -539.84,818.44 -91.08,154.21 -131.91,187.15 -232.62,187.95l-122.14 0.95 0 -1503.51zm-29446.66 -1278.65c-12.1,-23.05 -5.98,-53.55 13.59,-67.76 19.58,-14.25 45.51,-7.03 57.61,15.99 12.1,23.05 5.98,53.52 -13.59,67.77 -19.58,14.24 -45.51,7.03 -57.61,-16zm8877.38 -559.3c-174.93,-49.86 -412.42,-159.96 -470.9,-218.26 -5.93,-5.94 8.27,-60.05 31.59,-120.28l42.42 -109.52 231.5 112.06c330.99,160.26 809.45,159.81 1141.8,-1.06l233.76 -113.15 57.82 103.82c56.06,100.68 53.16,106.59 -96.81,196.59 -182.25,109.38 -591.74,218.55 -804.39,214.41 -82.68,-1.61 -247.75,-30.68 -366.79,-64.63l0 0.02zm21323.67 23.77c-91.53,-22.65 -256.98,-85.36 -367.64,-139.33 -152.78,-74.51 -195.09,-114.64 -175.78,-166.78 13.96,-37.77 26.59,-99.23 28.03,-136.6 1.41,-37.34 31.59,-67.9 66.99,-67.9 35.39,0 57.87,12.36 49.94,27.45 -26.27,50 238.45,170.68 485.35,221.26 290.64,59.55 646.39,7.19 889.28,-130.86 88.98,-50.58 165.02,-87.13 168.98,-81.22 35.1,52.57 95.55,220.94 84.12,234.36 -7.98,9.39 -128.99,67.74 -268.9,129.73 -285.57,126.46 -701.26,174.02 -960.34,109.89l-0.03 0zm-892.87 -1425.75c-0.35,-30.02 -102.49,-233.67 -226.93,-452.57 -370.08,-650.94 -807.27,-1685.43 -1326.81,-3139.72 -86.88,-243.22 -215.28,-588.26 -285.28,-766.77 -70.02,-178.5 -127.3,-333.32 -127.3,-344.03 0,-48.38 -443.86,-1102.77 -684.75,-1626.56 -598,-1300.34 -1472.7,-3048.66 -1871.75,-3741.06 -77.1,-133.76 -205.6,-362.6 -285.6,-508.54 -209.53,-382.25 -910.63,-1552.04 -1091.85,-1821.76 -84.91,-126.39 -167.49,-215.93 -183.47,-199.01 -15.98,16.95 -19.12,10.11 -6.94,-15.17 50.05,-103.84 -1249.74,-1910.7 -1331.65,-1851.16 -16.89,12.29 -21.52,-5.78 -10.32,-40.15 29.09,-89.2 -1069.06,-1290.37 -1544.01,-1688.86 -57.97,-48.64 -182.27,-187.95 -276.2,-309.56 -442.8,-573.22 -1509.51,-1779.7 -2016.8,-2281.04 -863.62,-853.53 -1443.21,-1374.67 -1490.55,-1340.24 -24.6,17.88 -32.18,11.25 -18,-15.75 13.75,-26.18 -128.06,-178.27 -323.07,-346.48 -191.19,-164.9 -432.16,-372.76 -535.53,-461.96 -709.5,-612.27 -1000.39,-771.65 -1409.46,-772.26 -200.1,-0.29 -276.64,21.99 -422.9,123.15 -235.1,162.59 -328.95,376.34 -328.44,748.1 0.56,476.04 131.61,714.91 675.6,1231.96 113.37,107.77 240.22,229.06 281.9,269.53 41.67,40.48 202.59,196.94 357.63,347.7 938.81,912.91 2323.35,2453.53 2872.42,3196.27l222.51 300.96 -91.01 104.18 -91 104.22 -493.99 -515.73c-271.71,-283.64 -677.62,-707.38 -902.07,-941.64 -466.15,-486.54 -1941.22,-2009.47 -2306.17,-2380.98 -756.42,-770.03 -2312.1,-2225.96 -2535.3,-2372.74 -231.59,-152.28 -600.37,-251.16 -805.62,-216.01 -459.9,78.75 -805.19,571.39 -739.45,1055.05 52.33,385.12 155.01,532.11 1016.05,1454.6 825.04,883.93 1420.56,1519.56 1502.39,1603.56 23.69,24.32 91.56,93.97 150.81,154.77 59.26,60.81 96.28,87.05 82.26,58.32 -14.01,-28.72 -10.5,-63.1 7.77,-76.39 18.27,-13.29 31.24,12.31 28.8,56.9 -5.27,96.2 547.89,721.17 622.19,703 27.45,-6.71 46.23,10.77 41.73,38.83 -4.52,28.09 254.32,333.11 575.21,677.84 516.03,554.39 590.76,619.98 647.14,568.05 56.46,-52.01 58.24,-50.39 15.42,14.06 -42.33,63.76 26.68,153.07 556.38,719.77 332.59,355.84 619.57,636.16 637.73,622.98 18.16,-13.21 45.26,-0.56 60.21,27.77 18.59,35.41 10.5,39.95 -25.58,14.35 -44.87,-31.8 -45.08,-26.26 -1.55,36.89 28.19,40.88 63.43,65.49 78.3,54.67 60.74,-44.16 24.44,138.19 -45.56,228.87l-75.39 97.66 -293.52 -311.84c-182.65,-194.02 -310.7,-299.34 -339,-278.78 -27.18,19.76 -35.72,14.48 -21.22,-13.08 21.54,-41.01 -356.68,-447.53 -1360.43,-1462.22 -172.81,-174.68 -331.87,-304.78 -353.49,-289.08 -21.59,15.71 -28.72,8.47 -15.82,-16.1 12.9,-24.56 -279.29,-355.97 -649.3,-736.47 -628.34,-646.17 -759.98,-767.86 -693.26,-640.78 16.76,31.88 10.3,39.04 -17.18,19.04 -24.2,-17.59 -35.58,-48.06 -25.26,-67.66 10.32,-19.63 -86.67,-144.56 -215.52,-277.62 -128.82,-133.07 -418.94,-433.13 -644.64,-666.81 -225.73,-233.67 -427.08,-412.73 -447.45,-397.9 -20.37,14.8 -25.69,5.3 -11.81,-21.11 13.89,-26.42 -11.96,-78.67 -57.41,-116.12 -66.06,-54.43 -94.47,-57.27 -141.59,-14.09 -50.77,46.55 -52.42,44.16 -11.78,-17.11 40.9,-61.69 -55.85,-175.98 -730.09,-862.3 -903.27,-919.49 -990.1,-999.46 -1053.96,-970.63 -26.14,11.8 -43.5,0.56 -38.59,-24.67 14.05,-72.41 -337.93,-218.2 -594.85,-246.43 -846.44,-92.99 -1278.12,832.6 -781.5,1675.73 151.99,258.02 1854.7,2163.26 1902.33,2128.62 21.79,-15.83 29.31,-9.23 16.76,14.67 -21.78,41.48 408.06,579.11 444.63,556.14 9.68,-6.1 18.29,3.88 19.15,22.12 3.43,73.39 281.76,365.18 328.27,344.17 27.48,-12.38 40.51,-4.64 29.02,17.27 -26.57,50.58 1371.65,1643.66 1414.97,1612.18 17.68,-12.87 27.52,2.97 21.83,35.17 -5.69,32.2 12.08,53.1 39.44,46.41 27.37,-6.68 40.72,5.1 29.65,26.16 -11.06,21.06 41.92,106.14 117.74,189.03 75.82,82.89 113.21,110.92 83.1,62.28 -50.5,-81.62 -49.67,-83.79 10.61,-28.14 35.96,33.15 57.53,75.19 47.95,93.44 -9.57,18.22 45.59,99.01 122.58,179.54 76.99,80.52 389.47,432.65 694.42,782.49 335.83,385.28 571.54,623.68 597.79,604.61 24.09,-17.54 33.21,-12.26 20.55,11.88 -12.52,23.87 85.43,169.56 217.68,323.77 212.86,248.21 235.65,290.96 198.55,372.5 -23.03,50.66 -39.04,97.07 -35.56,103.15 3.49,6.1 -2.1,11.06 -12.44,11.06 -10.35,0 -36.73,0 -58.64,0 -21.92,0 -130.93,-101.35 -242.25,-225.21 -111.32,-123.87 -220.68,-211.95 -242.99,-195.72 -22.39,16.28 -35.96,3.24 -30.26,-29.04 5.69,-32.2 -12.08,-53.1 -39.44,-46.42 -27.37,6.68 -40.05,-6.39 -28.14,-29.04 25.18,-47.93 -799.08,-961.93 -851.15,-943.84 -19.22,6.68 -25.61,-5.65 -14.2,-27.37 22.9,-43.58 -427.13,-522.09 -474.33,-504.38 -16.2,6.1 -25.24,-13.81 -20.05,-44.21 5.16,-30.4 -11.76,-50.29 -37.58,-44.22 -25.85,6.11 -42.77,-7.77 -37.58,-30.76 14.57,-64.88 -989.49,-1155.29 -1034.01,-1122.93 -21.67,15.76 -28.51,7.91 -15.18,-17.48 36.62,-69.7 -1500.55,-1708.64 -1561.19,-1664.56 -17.55,12.76 -27.26,-3.16 -21.57,-35.36 5.72,-32.38 -18.88,-55.85 -55.05,-52.49 -35.95,3.35 -56.69,-10.47 -46.08,-30.66 10.61,-20.21 -112.2,-153.33 -272.91,-295.84 -160.71,-142.51 -368.33,-327.75 -461.41,-411.65 -93.06,-83.89 -279.11,-212.18 -413.44,-285.1 -214.05,-116.17 -286.07,-132.56 -582.51,-132.56 -290.52,0 -361.07,15.36 -499.68,108.75 -198.16,133.51 -371.71,431.14 -405.38,695.2 -73.34,575.43 122.2,1050.94 742.8,1806.31 248.85,302.9 470.11,537.89 491.7,522.19 21.57,-15.67 28.7,-8.46 15.83,16.05 -56.41,107.39 2331.94,2615.43 2428.53,2550.23 24.83,-16.76 32.41,-13.97 16.88,6.21 -15.55,20.16 -0.21,73.1 34.02,117.63 68.37,88.91 146.24,111.43 103.42,29.92 -16.75,-31.88 -10.29,-39.04 17.18,-19.04 24.2,17.61 35.24,48.69 24.49,69.12 -28.11,53.52 204.83,272.53 252.78,237.65 22.13,-16.07 29.6,-9.02 16.6,15.7 -26.36,50.16 1309.87,1354.32 1387.6,1354.32 27.13,0 42.15,13.68 33.35,30.42 -8.77,16.74 173.77,216.7 405.7,444.35 641.71,629.93 951.67,999.8 1164.13,1389.25 363.22,665.76 518.24,1480.22 325.03,1707.53 -210.36,247.49 -801.94,440.92 -1350.82,441.69 -630.71,0.88 -1047.57,-126.46 -1529.35,-467.15 -154.91,-109.55 -299.32,-186.33 -320.89,-170.66 -21.57,15.68 -28.16,7.48 -14.63,-18.27 43.3,-82.44 -883.64,-742.26 -981,-698.29 -27.87,12.6 -40.74,3.98 -28.62,-19.15 26.89,-51.19 -299.58,-163.46 -581.96,-200.12 -440.74,-57.23 -1049.27,160.42 -1296.12,463.56 -104.75,128.66 -204.45,449.97 -185.47,597.7 38.35,298.23 60.37,375.97 98.61,348.18 24.55,-17.85 30.88,-9.98 15.54,19.23 -14.29,27.18 15.18,126.12 65.5,219.85 123.39,229.98 588.39,726.48 653.07,697.28 28.27,-12.76 42.6,-6.45 31.86,14 -22.18,42.25 183.18,220.52 541.86,470.37 134.38,93.6 308.41,237.04 386.78,318.73 78.35,81.69 161.32,134.85 184.35,118.08 23.54,-17.1 31.44,-10.55 18.03,14.94 -23.61,44.95 162.18,204.52 632.36,543.12 133.9,96.44 679.19,437.53 1211.74,757.99 532.55,320.45 1235.7,778.89 1562.51,1018.71 903.78,663.22 1358.09,911.09 2243.52,1224.06 595.65,210.55 1140.81,345.79 1992.06,494.22 848.94,148.02 1358.19,265.39 1616.21,372.49 292.61,121.48 638.95,307.62 638.95,343.4 0,18.91 -5872.45,34.38 -13049.85,34.38 -8906.52,0 -13037.64,-14.38 -13011.36,-45.31 73.77,-86.78 924.12,-307.77 1697.4,-441.14 931.51,-160.65 1381.78,-267.88 1973.63,-470.04 785.84,-268.42 1510.13,-610.18 1467.05,-692.19 -13.89,-26.44 -5.38,-31.96 20.39,-13.23 50.69,36.84 389.69,-177.29 907.02,-572.91 398.84,-305 591.78,-429.76 1672.59,-1081.58 936.94,-565.05 1358.81,-855.73 1751.58,-1206.82 340.83,-304.67 404.47,-356.5 850.74,-692.98 172.07,-129.72 298.87,-253.77 285.49,-279.26 -13.24,-25.23 -6.51,-33.08 14.97,-17.48 111.09,80.76 787.56,-778.76 749.11,-951.8 -9.79,-44.08 -4.34,-70.37 12.15,-58.38 54.87,39.89 79.6,-282.98 36.33,-474.26 -58.56,-258.98 -180.79,-434.54 -400.48,-575.22 -381.76,-244.47 -966.04,-325.28 -1390.4,-192.35 -367.53,115.14 -1278.81,734.86 -1226.6,834.19 13.24,25.23 6.09,32.76 -15.96,16.77 -22.02,-16.02 -166.24,58.67 -320.49,165.95 -697.56,485.22 -1502.46,628.5 -2250.1,400.56 -292.33,-89.12 -655.9,-302.63 -707.14,-415.28 -153.74,-337.99 112.2,-1293.57 529.59,-1903.01 106.86,-156.01 174.49,-293.45 159.52,-324.17 -14.31,-29.33 -13.19,-39.78 2.47,-23.23 33.08,34.98 796.31,-714.36 782.27,-768.02 -5.16,-19.76 5.26,-30.97 23.19,-24.87 56.86,19.28 345.99,-279.64 319.42,-330.22 -15.21,-28.97 -7.95,-35.6 18.19,-16.61 49.28,35.84 880.51,-758.44 851.52,-813.63 -10,-19.02 11.25,-31.86 47.2,-28.51 36.17,3.34 60.77,-20.11 55.05,-52.49 -5.69,-32.2 4.61,-47.72 22.85,-34.46 41.49,30.19 1080.92,-978.5 1068.07,-1036.48 -5.15,-23.32 5.48,-37.4 23.67,-31.33 18.19,6.1 86.86,-35.19 152.63,-91.74 92.49,-79.52 110.12,-116.18 77.87,-161.9 -30.75,-43.58 -29.82,-67.72 3.53,-91.99 27.63,-20.1 35.43,-14.21 20,15.12 -13.85,26.39 -9.15,59.68 10.48,73.95 19.63,14.27 223.68,-165.24 453.43,-398.91 367.05,-373.32 411.81,-433.8 368.97,-498.27 -43.91,-66.07 -42.02,-67.16 18.67,-11.06 60.42,55.83 82.73,44.74 214.19,-106.28 80.71,-92.73 143.39,-190.42 139.27,-217.1 -4.1,-26.68 14.95,-43.02 42.36,-36.34 65.4,15.97 923.75,-934.76 1437.47,-1592.23 497.1,-636.17 639.12,-940.2 665.55,-1424.92 15,-274.76 4.55,-359.18 -65.4,-529.2 -227.83,-553.73 -729.61,-730.88 -1326.22,-468.25 -268.6,118.25 -676.37,433.77 -642.89,497.48 13.64,25.97 7.29,34.51 -14.09,18.94 -42.16,-30.66 -334.85,223.72 -321.85,279.71 4.37,18.73 -21.01,31.43 -56.38,28.23 -35.37,-3.21 -59.65,20.5 -53.98,52.7 5.69,32.2 -5.48,47.08 -24.79,33.05 -50.05,-36.39 -498.32,415.2 -468.51,471.96 14.12,26.86 7.05,34.21 -16.43,17.16 -42.39,-30.82 -174.62,97.28 -806.9,781.72 -315.7,341.76 -360.08,406.77 -319.47,467.98 41.27,62.26 39.36,63.95 -15.43,13.56 -54.2,-49.87 -90.47,-26.98 -271.74,171.5 -115.04,125.99 -198.44,249.48 -185.33,274.44 13.11,24.96 7.44,33.44 -12.61,18.88 -42.26,-30.71 -1126.21,1148.68 -1112.14,1210.06 5.16,22.54 -5.08,35.99 -22.76,29.92 -54.26,-18.65 -871.66,900.58 -845.35,950.65 14.12,26.9 6.88,34.01 -17,16.66 -23.53,-17.11 -201.5,142.4 -409.12,366.69 -350.25,378.35 -370.78,393.47 -437.48,322.44 -84.27,-89.73 -167.01,-256.45 -104.8,-211.23 53.37,38.83 1966.9,-2134.48 1934.16,-2196.76 -13.98,-26.63 -6.99,-34.16 16.12,-17.34 52.74,38.35 729.85,-718.05 697.67,-779.34 -13.37,-25.49 -6.73,-33.53 14.82,-17.88 43.02,31.3 133.31,-71.72 103.71,-118.35 -10.16,-15.99 -7.58,-19.6 5.72,-8.01 37.18,32.41 617.41,-599.4 593.05,-645.79 -11.78,-22.44 0.98,-35.33 28.35,-28.65 27.37,6.69 45.13,-14.19 39.44,-46.41 -5.69,-32.2 4.73,-47.61 23.16,-34.22 33.09,24.06 148.42,-97.21 153.61,-161.5 1.49,-18.25 9.15,-28.2 17.07,-22.12 24.34,18.67 681.21,-738.5 671.37,-773.88 -5.08,-18.25 4.39,-28.19 21.01,-22.12 43.88,16.05 1169.3,-1256.44 1160.84,-1312.57 -3.94,-25.96 12.21,-42.97 35.85,-37.74 65.82,14.53 846.89,-912.36 959.76,-1138.92 286.1,-574.37 165.94,-1175.68 -287.01,-1436.43 -190.31,-109.55 -238.36,-118.59 -537.52,-101.32 -263.28,15.22 -369.58,43.31 -535.26,141.52 -202.86,120.26 -467.9,343.38 -699.35,588.77 -64.22,68.09 -262.8,271.68 -441.3,452.42 -316.37,320.37 -322.91,330.9 -260.33,420.1 62.25,88.72 62.04,89.2 -7.16,15.57 -68.21,-72.62 -80.42,-66.84 -279.82,132.67 -114.67,114.72 -235.25,238.42 -267.94,274.92 -32.68,36.49 -159.03,165.82 -280.73,287.43 -631.05,630.55 -977.15,1002.25 -978.69,1051.08 -0.93,29.94 -19.97,50.28 -42.31,45.22 -55.26,-12.57 -882.29,825.36 -858.78,870.1 10.29,19.6 -9.71,62.76 -44.46,95.91 -43.46,41.46 -54.36,43.02 -34.95,5.01 51.35,-100.55 -35.61,-57.37 -138.24,68.65 -72.52,89.06 -89.43,137.42 -60.12,171.9 29.3,34.48 27.65,57.5 -5.88,81.9 -29.02,21.11 -37.13,15.78 -21.46,-14.06 13.85,-26.39 8.69,-59.99 -11.47,-74.66 -43.66,-31.75 -347.85,280.17 -321.71,329.93 9.95,18.93 -11.32,31.69 -47.28,28.35 -35.96,-3.34 -61.14,18.8 -55.98,49.2 5.16,30.4 -5.77,50.32 -24.28,44.22 -54.68,-17.96 -1205.99,1170.53 -1180.65,1218.78 12.74,24.27 6.06,31.67 -14.87,16.44 -43.64,-31.72 -523.4,443.63 -509.17,504.51 5.16,22.09 -11.75,35.17 -37.58,29.09 -25.85,-6.1 -42.33,15.31 -36.64,47.51 5.69,32.19 -5,47.39 -23.78,33.76 -51.27,-37.27 -235.52,149.91 -206.4,209.69 13.86,28.46 11.65,37.35 -4.89,19.76 -16.54,-17.58 -92.92,26.58 -169.7,98.14l-139.62 130.1 -83.74 -104.87 -83.75 -104.9 162.87 -175.64c89.57,-96.6 217.88,-229.7 285.11,-295.77 67.23,-66.07 111.14,-141.29 97.55,-167.15 -13.59,-25.86 -7.76,-34.69 12.95,-19.65 48.78,35.46 247.19,-207.1 209.4,-256.03 -15.79,-20.45 -7.49,-22.84 18.41,-5.28 29.81,20.18 202.35,-134.37 469.81,-420.85 232.49,-249.03 756.18,-809.42 1163.79,-1245.31 407.58,-435.91 737.4,-815.43 732.93,-843.42 -4.49,-27.98 15.83,-44.77 45.11,-37.34 29.28,7.42 156.13,-103.71 281.9,-247.02 125.76,-143.28 482.2,-527.47 792.1,-853.71 309.91,-326.26 605.9,-639.29 657.76,-695.63 51.86,-56.34 276.71,-294.6 499.68,-529.46 544.86,-573.94 700.01,-942.7 590.41,-1403.23 -172.19,-723.61 -971.38,-907.13 -1640.38,-376.69 -187.17,148.4 -936.73,835.44 -1192.93,1093.44 -43.8,44.1 -155.69,149.19 -248.63,233.54 -435.48,395.17 -1047.15,1036.72 -1026.3,1076.4 12.77,24.29 5.98,31.67 -15.1,16.34 -21.07,-15.33 -264.7,202.98 -541.41,485.09 -276.71,282.13 -603.66,614.94 -726.55,739.6 -586,594.4 -1128.61,1190.3 -1119.3,1229.24 5.69,23.76 -4.41,32.46 -22.44,19.36 -18.03,-13.1 -298.98,254.07 -624.36,593.7 -325.35,339.63 -599.27,617.52 -608.68,617.52 -9.42,0 -50.69,-36.79 -91.73,-81.77 -73.88,-80.98 -67.01,-227.78 10.61,-227.78 20.67,0 27.53,-30.88 15.22,-68.62 -12.32,-37.74 -8.35,-58.43 8.83,-45.94 34.81,25.33 292.8,-270.73 278.01,-319.05 -5.16,-16.9 3.3,-31.96 18.8,-33.47 45.83,-4.49 1301.84,-1497.39 1293.28,-1537.23 -4.31,-20.05 7.05,-25.64 25.24,-12.41 32.28,23.47 204.56,-160.31 185.28,-197.63 -5.37,-10.37 -3.14,-14.37 4.92,-8.96 37.1,24.98 302.29,-266.32 280.41,-308.02 -13.62,-25.94 -7.64,-34.69 13.35,-19.44 20.98,15.25 137.76,-77.5 259.5,-206.09 252.67,-266.85 819.88,-827.58 1322.51,-1307.34 188.71,-180.15 334.05,-344.81 322.96,-365.92 -11.09,-21.11 0.34,-32.94 25.5,-26.26 25.13,6.69 89.81,-86.81 143.74,-207.76 82.23,-184.44 98.05,-277.73 98.05,-578.32 0,-326.34 -9.62,-373.24 -107.7,-524.55 -59.25,-91.38 -160.74,-204.18 -225.52,-250.68 -237.86,-170.65 -817.93,-77.23 -1195.36,192.49 -396.28,283.21 -1427.68,1178.89 -2236.83,1942.5 -457.1,431.35 -575.1,564.98 -448.43,507.79 40.58,-18.33 55.39,-11.8 39.94,17.61 -13.51,25.7 -50.29,35.12 -81.78,20.9 -48.53,-21.91 -293.94,186.25 -526.7,446.79 -25.58,28.65 -227.27,237.81 -448.16,464.83 -220.89,227.01 -639.7,714.04 -930.69,1082.31 -300.86,380.75 -699.32,828.28 -923.72,1037.5 -456.33,425.38 -1419.39,1542.53 -1883.16,2184.39 -306.29,423.96 -888.3,1297.08 -1237.96,1857.29 -391.31,626.91 -1045.18,1810.68 -1024.17,1854.15 12.58,26.05 8.75,32.25 -8.54,13.79 -27.63,-29.52 -197.03,250.25 -395.16,652.64 -35.93,72.97 -224.24,441.11 -418.51,818.09 -475.69,923.23 -678.18,1364.5 -650.39,1417.44 12.74,24.25 4.97,38.6 -17.23,31.91 -57.71,-17.37 -1017.58,2092.76 -1112.36,2445.39 -15.85,59.01 -75.79,226.7 -133.18,372.63 -57.39,145.93 -242.78,643.41 -411.95,1105.53 -401.68,1097.19 -826.12,2109.12 -1068.58,2547.66l-194.35 351.51 -1162.8 0.14 -1162.81 0.13 -30.26 -432.63c-34.31,-490.23 -8.17,-1871.49 49.2,-2599.46 233.76,-2966.95 1007.23,-5827.77 2275.53,-8416.68 123.1,-251.28 264.56,-539.8 314.34,-641.2 49.79,-101.4 223.85,-418.78 386.76,-705.29 162.94,-286.53 284.48,-543.31 270.12,-570.65 -15.08,-28.73 -9.31,-37.48 13.7,-20.75 22.6,16.45 214.72,-243.27 444.7,-601.2 414.66,-645.37 641.51,-974.66 889.34,-1290.85 77.39,-98.72 132.97,-204.15 123.5,-234.26 -9.44,-30.1 -2.66,-49.99 15.13,-44.21 41.33,13.45 1411.7,-1613.4 1400.08,-1662.12 -4.78,-20.05 5.88,-25.86 23.72,-12.89 39.02,28.35 318.74,-298.84 287.2,-335.95 -12.13,-14.27 1.11,-22.97 29.46,-19.34 28.35,3.66 152.09,-96.89 275.01,-223.4 122.92,-126.52 350.33,-353.16 505.37,-503.66 252.62,-245.21 392.24,-372.52 1011.83,-922.67 1050.98,-933.18 2515.46,-1973.43 3944.53,-2801.87 519.09,-300.91 931.81,-561.23 917.18,-578.45 -14.65,-17.21 -0.51,-19.55 31.3,-5.17 31.86,14.38 175.1,-36.12 318.33,-112.22 143.24,-76.1 454.92,-228.53 692.68,-338.68 2834.56,-1313.68 5486.93,-2038.28 8738.74,-2387.35 556.91,-59.79 1115.46,-77 2537.06,-78.17 1857.95,-1.54 2352.65,27.61 3758.61,221.45 2269.46,312.87 5041.67,1093.85 6897.04,1942.98 1336.06,611.47 1840.74,868.46 2687.39,1368.4 1286.98,759.98 2075.65,1302.12 3150.67,2165.8 275.46,221.31 528.77,422.28 562.92,446.6 34.15,24.33 79.38,66.21 100.53,93.05 21.14,26.84 199.13,187.81 395.5,357.69 768.58,664.84 1933.48,1890.52 2681.97,2821.92 224.41,279.24 425.75,494.8 447.45,479.04 23.7,-17.24 28.19,-7.27 11.22,25.01 -17.49,33.32 48.14,149.09 173.16,305.32 110.74,138.39 336.47,450.63 501.62,693.85 165.15,243.22 309.05,452.17 319.82,464.32 62.2,70.26 561.3,893.31 798.57,1316.89 152.92,272.96 293.52,481.35 312.51,463.08 18.99,-18.28 21.75,-14.91 6.2,7.45 -15.59,22.39 -2.85,86.39 28.21,142.22 318.31,571.55 1035.79,2196.76 1344.36,3045.22 657.6,1808.08 1086.03,3758.43 1292,5881.43 65.61,676.19 99.68,3207.78 44.04,3273.29 -14.22,16.76 -493.56,27.42 -1065.2,23.74 -667.28,-4.3 -1056.06,9.6 -1086.05,38.88 -32.93,32.15 -46.92,29.52 -47.39,-8.96l-0.11 0.18zm-16178.65 -2320.91c-46.76,-70.13 -45.43,-71.69 14.2,-16.68 62.6,57.76 82.52,94.07 51.59,94.07 -7.82,0 -37.39,-34.82 -65.77,-77.39l-0.02 0zm-10308.68 -2480.08c-10.64,-20.27 4.52,-36.84 33.72,-36.84 29.2,0 44.36,16.57 33.72,36.84 -10.64,20.26 -25.82,36.84 -33.72,36.84 -7.9,0 -23.06,-16.58 -33.72,-36.84zm6608.57 -16.26c-15.47,-31.59 -14.33,-42.68 2.61,-24.64 16.91,18.03 51.94,12.09 77.84,-13.21 33.3,-32.52 55.34,-29.15 75.26,11.43 15.48,31.59 14.34,42.68 -2.6,24.64 -16.92,-18.03 -51.94,-12.09 -77.84,13.21 -33.3,32.52 -55.35,29.15 -75.27,-11.43zm-1131.15 -895.7c0,-35.41 14.36,-53.95 31.94,-41.16 17.55,12.75 22.2,41.74 10.32,64.37 -30.4,57.85 -42.26,51.35 -42.26,-23.24l0 0.03zm-6615.15 -1193.96c0,-35.4 14.36,-53.94 31.94,-41.16 17.56,12.78 22.21,41.75 10.32,64.4 -30.4,57.85 -42.26,51.35 -42.26,-23.24zm-13822.96 -3707.4c14.12,-43.6 35.13,-68.16 46.7,-54.53 11.57,13.6 0.02,49.31 -25.67,79.3 -37.12,43.34 -41.43,38.28 -21.03,-24.74l0 -0.03zm23783.26 -51.4c0,-35.41 14.36,-53.92 31.94,-41.17 17.55,12.79 22.2,41.75 10.32,64.4 -30.4,57.85 -42.26,51.35 -42.26,-23.23zm-10551.17 -518.59c10.85,-20.66 35.48,-26.13 54.74,-12.12 49.17,35.75 43.64,49.7 -19.74,49.7 -30.1,0 -45.85,-16.89 -35,-37.58zm8605.59 -1269.31c-11.33,-21.56 8.8,-66.33 44.76,-99.49 57.73,-53.26 59.91,-52.06 18.69,10.11 -25.66,38.72 -35.53,83.49 -21.91,99.49 13.59,15.99 14.44,29.09 1.89,29.09 -12.55,0 -32.1,-17.64 -43.43,-39.2zm-6847.66 -435.12c62.5,-86.89 135.93,-99.99 135.93,-24.24 0,14.77 -11.31,13.55 -25.14,-2.7 -13.82,-16.26 -60.34,5.27 -103.37,47.9 -78.02,77.29 -78.02,77.23 -7.42,-20.98l0 0.02zm-127.17 15.41c0,-9.17 29.6,-44 65.77,-77.39 59.62,-55.01 60.95,-53.45 14.2,16.68 -49.09,73.66 -79.97,97.08 -79.97,60.69l0 0.02zm12999.96 -1431.55c-46.76,-70.13 -45.43,-71.69 14.2,-16.71 62.6,57.77 82.52,94.08 51.59,94.08 -7.79,0 -37.39,-34.83 -65.77,-77.4l-0.02 0.03zm-4801.03 -1087.09c-31.08,-44.06 -29.06,-58.96 7.93,-58.96 27.23,0 49.52,26.52 49.52,58.96 0,32.44 -3.57,58.96 -7.93,58.96 -4.36,0 -26.65,-26.52 -49.52,-58.96zm-12352.2 -250.6c37.42,-48.64 76.49,-88.43 86.83,-88.43 10.35,0 -11.81,39.82 -49.22,88.43 -37.42,48.65 -76.49,88.46 -86.83,88.46 -10.35,0 11.8,-39.79 49.22,-88.46zm11422.58 -851.24l-71.59 -99.49 84.57 84.24c46.51,46.33 84.56,91.1 84.56,99.49 0,35.38 -30.23,9.25 -97.54,-84.24zm-7133.52 -660.36c10.85,-20.66 35.48,-26.12 54.73,-12.12 49.17,35.75 43.64,49.71 -19.73,49.71 -30.11,0 -45.85,-16.9 -35,-37.59zm5910.74 -599.96c-46.75,-70.13 -45.42,-71.69 14.2,-16.68 62.61,57.76 82.53,94.08 51.6,94.08 -7.82,0 -37.39,-34.83 -65.77,-77.4l-0.03 0z" inkscape:connector-curvature="0"/>
  </g>
 </g>
</svg>
